<?xml version="1.0" encoding="utf-8"?>
<!-- Generator: Adobe Illustrator 22.1.0, SVG Export Plug-In . SVG Version: 6.00 Build 0)  -->
<svg version="1.1" id="all" xmlns="http://www.w3.org/2000/svg" xmlns:xlink="http://www.w3.org/1999/xlink" x="0px" y="0px"
	 viewBox="0 0 153 242.6" style="enable-background:new 0 0 153 242.6;" xml:space="preserve">
<style type="text/css">
	.st0{fill:#010101;}
	.st1{fill:none;}
	.st2{fill:#EF4438;}
</style>
<rect class="st1" width="153" height="242.6"/>
<circle class="st2" cx="105.4" cy="10.6" r="1.2"/>
<circle class="st2" cx="88.9" cy="10.6" r="1.2"/>
<circle class="st2" cx="80.6" cy="10.6" r="1.2"/>
<circle class="st2" cx="72.4" cy="10.6" r="1.2"/>
<circle class="st2" cx="55.9" cy="10.6" r="1.2"/>
<circle class="st2" cx="47.6" cy="10.6" r="1.2"/>
<circle class="st2" cx="109.5" cy="14.7" r="1.2"/>
<circle class="st2" cx="105.4" cy="14.7" r="1.2"/>
<circle class="st2" cx="97.1" cy="14.7" r="1.2"/>
<circle class="st2" cx="93" cy="14.7" r="1.2"/>
<circle class="st2" cx="80.6" cy="14.7" r="1.2"/>
<circle class="st2" cx="76.5" cy="14.7" r="1.2"/>
<circle class="st2" cx="72.4" cy="14.7" r="1.2"/>
<circle class="st2" cx="64.1" cy="14.7" r="1.2"/>
<circle class="st2" cx="105.4" cy="18.8" r="1.2"/>
<circle class="st2" cx="101.2" cy="18.8" r="1.2"/>
<circle class="st2" cx="97.1" cy="18.8" r="1.2"/>
<circle class="st2" cx="80.6" cy="18.8" r="1.2"/>
<circle class="st2" cx="76.5" cy="18.8" r="1.2"/>
<circle class="st2" cx="55.9" cy="18.8" r="1.2"/>
<circle class="st2" cx="51.8" cy="18.8" r="1.2"/>
<circle class="st2" cx="47.6" cy="18.8" r="1.2"/>
<circle class="st2" cx="43.5" cy="18.8" r="1.2"/>
<circle class="st2" cx="109.5" cy="22.9" r="1.2"/>
<circle class="st2" cx="105.4" cy="22.9" r="1.2"/>
<circle class="st2" cx="97.1" cy="22.9" r="1.2"/>
<circle class="st2" cx="93" cy="22.9" r="1.2"/>
<circle class="st2" cx="88.9" cy="22.9" r="1.2"/>
<circle class="st2" cx="80.6" cy="22.9" r="1.2"/>
<circle class="st2" cx="76.5" cy="22.9" r="1.2"/>
<circle class="st2" cx="68.3" cy="22.9" r="1.2"/>
<circle class="st2" cx="51.8" cy="22.9" r="1.2"/>
<circle class="st2" cx="43.5" cy="22.9" r="1.2"/>
<circle class="st2" cx="101.2" cy="27.1" r="1.2"/>
<circle class="st2" cx="93" cy="27.1" r="1.2"/>
<circle class="st2" cx="88.9" cy="27.1" r="1.2"/>
<circle class="st2" cx="84.8" cy="27.1" r="1.2"/>
<circle class="st2" cx="80.6" cy="27.1" r="1.2"/>
<circle class="st2" cx="72.4" cy="27.1" r="1.2"/>
<circle class="st2" cx="60" cy="27.1" r="1.2"/>
<circle class="st2" cx="47.6" cy="27.1" r="1.2"/>
<circle class="st2" cx="109.5" cy="31.2" r="1.2"/>
<circle class="st2" cx="101.2" cy="31.2" r="1.2"/>
<circle class="st2" cx="93" cy="31.2" r="1.2"/>
<circle class="st2" cx="84.8" cy="31.2" r="1.2"/>
<circle class="st2" cx="80.6" cy="31.2" r="1.2"/>
<circle class="st2" cx="76.5" cy="31.2" r="1.2"/>
<circle class="st2" cx="68.3" cy="31.2" r="1.2"/>
<circle class="st2" cx="64.1" cy="31.2" r="1.2"/>
<circle class="st2" cx="60" cy="31.2" r="1.2"/>
<circle class="st2" cx="51.8" cy="31.2" r="1.2"/>
<circle class="st2" cx="109.5" cy="35.3" r="1.2"/>
<circle class="st2" cx="101.2" cy="35.3" r="1.2"/>
<circle class="st2" cx="93" cy="35.3" r="1.2"/>
<circle class="st2" cx="84.8" cy="35.3" r="1.2"/>
<circle class="st2" cx="76.5" cy="35.3" r="1.2"/>
<circle class="st2" cx="68.3" cy="35.3" r="1.2"/>
<circle class="st2" cx="60" cy="35.3" r="1.2"/>
<circle class="st2" cx="51.8" cy="35.3" r="1.2"/>
<circle class="st2" cx="43.5" cy="35.3" r="1.2"/>
<circle class="st2" cx="93" cy="39.4" r="1.2"/>
<circle class="st2" cx="80.6" cy="39.4" r="1.2"/>
<circle class="st2" cx="76.5" cy="39.4" r="1.2"/>
<circle class="st2" cx="68.3" cy="39.4" r="1.2"/>
<circle class="st2" cx="64.1" cy="39.4" r="1.2"/>
<circle class="st2" cx="60" cy="39.4" r="1.2"/>
<circle class="st2" cx="55.9" cy="39.4" r="1.2"/>
<circle class="st2" cx="51.8" cy="39.4" r="1.2"/>
<circle class="st2" cx="43.5" cy="39.4" r="1.2"/>
<circle class="st2" cx="142.5" cy="43.6" r="1.2"/>
<circle class="st2" cx="138.4" cy="43.6" r="1.2"/>
<circle class="st2" cx="134.2" cy="43.6" r="1.2"/>
<circle class="st2" cx="130.1" cy="43.6" r="1.2"/>
<circle class="st2" cx="126" cy="43.6" r="1.2"/>
<circle class="st2" cx="117.7" cy="43.6" r="1.2"/>
<circle class="st2" cx="113.6" cy="43.6" r="1.2"/>
<circle class="st2" cx="109.5" cy="43.6" r="1.2"/>
<circle class="st2" cx="105.4" cy="43.6" r="1.2"/>
<circle class="st2" cx="101.2" cy="43.6" r="1.2"/>
<circle class="st2" cx="97.1" cy="43.6" r="1.2"/>
<circle class="st2" cx="84.8" cy="43.6" r="1.2"/>
<circle class="st2" cx="72.4" cy="43.6" r="1.2"/>
<circle class="st2" cx="60" cy="43.6" r="1.2"/>
<circle class="st2" cx="51.8" cy="43.6" r="1.2"/>
<circle class="st2" cx="43.5" cy="43.6" r="1.2"/>
<circle class="st2" cx="39.4" cy="43.6" r="1.2"/>
<circle class="st2" cx="31.2" cy="43.6" r="1.2"/>
<circle class="st2" cx="22.9" cy="43.6" r="1.2"/>
<circle class="st2" cx="14.7" cy="43.6" r="1.2"/>
<circle class="st2" cx="113.6" cy="47.7" r="1.2"/>
<circle class="st2" cx="105.4" cy="47.7" r="1.2"/>
<circle class="st2" cx="97.1" cy="47.7" r="1.2"/>
<circle class="st2" cx="93" cy="47.7" r="1.2"/>
<circle class="st2" cx="76.5" cy="47.7" r="1.2"/>
<circle class="st2" cx="68.3" cy="47.7" r="1.2"/>
<circle class="st2" cx="60" cy="47.7" r="1.2"/>
<circle class="st2" cx="55.9" cy="47.7" r="1.2"/>
<circle class="st2" cx="51.8" cy="47.7" r="1.2"/>
<circle class="st2" cx="47.6" cy="47.7" r="1.2"/>
<circle class="st2" cx="35.3" cy="47.7" r="1.2"/>
<circle class="st2" cx="18.8" cy="47.7" r="1.2"/>
<circle class="st2" cx="14.7" cy="47.7" r="1.2"/>
<circle class="st2" cx="10.5" cy="47.7" r="1.2"/>
<circle class="st2" cx="121.9" cy="51.8" r="1.2"/>
<circle class="st2" cx="117.7" cy="51.8" r="1.2"/>
<circle class="st2" cx="105.4" cy="51.8" r="1.2"/>
<circle class="st2" cx="97.1" cy="51.8" r="1.2"/>
<circle class="st2" cx="88.9" cy="51.8" r="1.2"/>
<circle class="st2" cx="84.8" cy="51.8" r="1.2"/>
<circle class="st2" cx="55.9" cy="51.8" r="1.2"/>
<circle class="st2" cx="51.8" cy="51.8" r="1.2"/>
<circle class="st2" cx="31.2" cy="51.8" r="1.2"/>
<circle class="st2" cx="27" cy="51.8" r="1.2"/>
<circle class="st2" cx="22.9" cy="51.8" r="1.2"/>
<circle class="st2" cx="14.7" cy="51.8" r="1.2"/>
<circle class="st2" cx="138.4" cy="55.9" r="1.2"/>
<circle class="st2" cx="130.1" cy="55.9" r="1.2"/>
<circle class="st2" cx="126" cy="55.9" r="1.2"/>
<circle class="st2" cx="105.4" cy="55.9" r="1.2"/>
<circle class="st2" cx="101.2" cy="55.9" r="1.2"/>
<circle class="st2" cx="84.8" cy="55.9" r="1.2"/>
<circle class="st2" cx="64.1" cy="55.9" r="1.2"/>
<circle class="st2" cx="60" cy="55.9" r="1.2"/>
<circle class="st2" cx="55.9" cy="55.9" r="1.2"/>
<circle class="st2" cx="51.8" cy="55.9" r="1.2"/>
<circle class="st2" cx="47.6" cy="55.9" r="1.2"/>
<circle class="st2" cx="39.4" cy="55.9" r="1.2"/>
<circle class="st2" cx="35.3" cy="55.9" r="1.2"/>
<circle class="st2" cx="27" cy="55.9" r="1.2"/>
<circle class="st2" cx="18.8" cy="55.9" r="1.2"/>
<circle class="st2" cx="134.2" cy="60" r="1.2"/>
<circle class="st2" cx="126" cy="60" r="1.2"/>
<circle class="st2" cx="121.9" cy="60" r="1.2"/>
<circle class="st2" cx="117.7" cy="60" r="1.2"/>
<circle class="st2" cx="113.6" cy="60" r="1.2"/>
<circle class="st2" cx="105.4" cy="60" r="1.2"/>
<circle class="st2" cx="93" cy="60" r="1.2"/>
<circle class="st2" cx="80.6" cy="60" r="1.2"/>
<circle class="st2" cx="76.5" cy="60" r="1.2"/>
<circle class="st2" cx="72.4" cy="60" r="1.2"/>
<circle class="st2" cx="64.1" cy="60" r="1.2"/>
<circle class="st2" cx="51.8" cy="60" r="1.2"/>
<circle class="st2" cx="47.6" cy="60" r="1.2"/>
<circle class="st2" cx="43.5" cy="60" r="1.2"/>
<circle class="st2" cx="39.4" cy="60" r="1.2"/>
<circle class="st2" cx="31.2" cy="60" r="1.2"/>
<circle class="st2" cx="27" cy="60" r="1.2"/>
<circle class="st2" cx="22.9" cy="60" r="1.2"/>
<circle class="st2" cx="138.4" cy="64.2" r="1.2"/>
<circle class="st2" cx="134.2" cy="64.2" r="1.2"/>
<circle class="st2" cx="130.1" cy="64.2" r="1.2"/>
<circle class="st2" cx="101.2" cy="64.2" r="1.2"/>
<circle class="st2" cx="97.1" cy="64.2" r="1.2"/>
<circle class="st2" cx="93" cy="64.2" r="1.2"/>
<circle class="st2" cx="80.6" cy="64.2" r="1.2"/>
<circle class="st2" cx="76.5" cy="64.2" r="1.2"/>
<circle class="st2" cx="68.3" cy="64.2" r="1.2"/>
<circle class="st2" cx="47.6" cy="64.2" r="1.2"/>
<circle class="st2" cx="43.5" cy="64.2" r="1.2"/>
<circle class="st2" cx="35.3" cy="64.2" r="1.2"/>
<circle class="st2" cx="31.2" cy="64.2" r="1.2"/>
<circle class="st2" cx="14.7" cy="64.2" r="1.2"/>
<circle class="st2" cx="10.5" cy="64.2" r="1.2"/>
<circle class="st2" cx="142.5" cy="68.3" r="1.2"/>
<circle class="st2" cx="134.2" cy="68.3" r="1.2"/>
<circle class="st2" cx="130.1" cy="68.3" r="1.2"/>
<circle class="st2" cx="117.7" cy="68.3" r="1.2"/>
<circle class="st2" cx="113.6" cy="68.3" r="1.2"/>
<circle class="st2" cx="109.5" cy="68.3" r="1.2"/>
<circle class="st2" cx="97.1" cy="68.3" r="1.2"/>
<circle class="st2" cx="88.9" cy="68.3" r="1.2"/>
<circle class="st2" cx="84.8" cy="68.3" r="1.2"/>
<circle class="st2" cx="72.4" cy="68.3" r="1.2"/>
<circle class="st2" cx="60" cy="68.3" r="1.2"/>
<circle class="st2" cx="51.8" cy="68.3" r="1.2"/>
<circle class="st2" cx="31.2" cy="68.3" r="1.2"/>
<circle class="st2" cx="14.7" cy="68.3" r="1.2"/>
<circle class="st2" cx="138.4" cy="72.4" r="1.2"/>
<circle class="st2" cx="130.1" cy="72.4" r="1.2"/>
<circle class="st2" cx="121.9" cy="72.4" r="1.2"/>
<circle class="st2" cx="105.4" cy="72.4" r="1.2"/>
<circle class="st2" cx="88.9" cy="72.4" r="1.2"/>
<circle class="st2" cx="76.5" cy="72.4" r="1.2"/>
<circle class="st2" cx="64.1" cy="72.4" r="1.2"/>
<circle class="st2" cx="60" cy="72.4" r="1.2"/>
<circle class="st2" cx="55.9" cy="72.4" r="1.2"/>
<circle class="st2" cx="47.6" cy="72.4" r="1.2"/>
<circle class="st2" cx="39.4" cy="72.4" r="1.2"/>
<circle class="st2" cx="18.8" cy="72.4" r="1.2"/>
<circle class="st2" cx="142.5" cy="76.5" r="1.2"/>
<circle class="st2" cx="134.2" cy="76.5" r="1.2"/>
<circle class="st2" cx="130.1" cy="76.5" r="1.2"/>
<circle class="st2" cx="117.7" cy="76.5" r="1.2"/>
<circle class="st2" cx="97.1" cy="76.5" r="1.2"/>
<circle class="st2" cx="88.9" cy="76.5" r="1.2"/>
<circle class="st2" cx="84.8" cy="76.5" r="1.2"/>
<circle class="st2" cx="80.6" cy="76.5" r="1.2"/>
<circle class="st2" cx="76.5" cy="76.5" r="1.2"/>
<circle class="st2" cx="72.4" cy="76.5" r="1.2"/>
<circle class="st2" cx="60" cy="76.5" r="1.2"/>
<circle class="st2" cx="51.8" cy="76.5" r="1.2"/>
<circle class="st2" cx="47.6" cy="76.5" r="1.2"/>
<circle class="st2" cx="43.5" cy="76.5" r="1.2"/>
<circle class="st2" cx="39.4" cy="76.5" r="1.2"/>
<circle class="st2" cx="27" cy="76.5" r="1.2"/>
<circle class="st2" cx="14.7" cy="76.5" r="1.2"/>
<circle class="st2" cx="130.1" cy="80.7" r="1.2"/>
<circle class="st2" cx="126" cy="80.7" r="1.2"/>
<circle class="st2" cx="113.6" cy="80.7" r="1.2"/>
<circle class="st2" cx="105.4" cy="80.7" r="1.2"/>
<circle class="st2" cx="93" cy="80.7" r="1.2"/>
<circle class="st2" cx="88.9" cy="80.7" r="1.2"/>
<circle class="st2" cx="80.6" cy="80.7" r="1.2"/>
<circle class="st2" cx="68.3" cy="80.7" r="1.2"/>
<circle class="st2" cx="55.9" cy="80.7" r="1.2"/>
<circle class="st2" cx="51.8" cy="80.7" r="1.2"/>
<circle class="st2" cx="47.6" cy="80.7" r="1.2"/>
<circle class="st2" cx="39.4" cy="80.7" r="1.2"/>
<circle class="st2" cx="35.3" cy="80.7" r="1.2"/>
<circle class="st2" cx="22.9" cy="80.7" r="1.2"/>
<circle class="st2" cx="14.7" cy="80.7" r="1.2"/>
<circle class="st2" cx="10.5" cy="80.7" r="1.2"/>
<circle class="st2" cx="142.5" cy="84.8" r="1.2"/>
<circle class="st2" cx="138.4" cy="84.8" r="1.2"/>
<circle class="st2" cx="134.2" cy="84.8" r="1.2"/>
<circle class="st2" cx="130.1" cy="84.8" r="1.2"/>
<circle class="st2" cx="121.9" cy="84.8" r="1.2"/>
<circle class="st2" cx="117.7" cy="84.8" r="1.2"/>
<circle class="st2" cx="113.6" cy="84.8" r="1.2"/>
<circle class="st2" cx="97.1" cy="84.8" r="1.2"/>
<circle class="st2" cx="93" cy="84.8" r="1.2"/>
<circle class="st2" cx="84.8" cy="84.8" r="1.2"/>
<circle class="st2" cx="80.6" cy="84.8" r="1.2"/>
<circle class="st2" cx="60" cy="84.8" r="1.2"/>
<circle class="st2" cx="55.9" cy="84.8" r="1.2"/>
<circle class="st2" cx="51.8" cy="84.8" r="1.2"/>
<circle class="st2" cx="39.4" cy="84.8" r="1.2"/>
<circle class="st2" cx="22.9" cy="84.8" r="1.2"/>
<circle class="st2" cx="14.7" cy="84.8" r="1.2"/>
<circle class="st2" cx="134.2" cy="88.9" r="1.2"/>
<circle class="st2" cx="130.1" cy="88.9" r="1.2"/>
<circle class="st2" cx="126" cy="88.9" r="1.2"/>
<circle class="st2" cx="109.5" cy="88.9" r="1.2"/>
<circle class="st2" cx="105.4" cy="88.9" r="1.2"/>
<circle class="st2" cx="93" cy="88.9" r="1.2"/>
<circle class="st2" cx="76.5" cy="88.9" r="1.2"/>
<circle class="st2" cx="72.4" cy="88.9" r="1.2"/>
<circle class="st2" cx="55.9" cy="88.9" r="1.2"/>
<circle class="st2" cx="43.5" cy="88.9" r="1.2"/>
<circle class="st2" cx="18.8" cy="88.9" r="1.2"/>
<circle class="st2" cx="142.5" cy="93" r="1.2"/>
<circle class="st2" cx="134.2" cy="93" r="1.2"/>
<circle class="st2" cx="126" cy="93" r="1.2"/>
<circle class="st2" cx="117.7" cy="93" r="1.2"/>
<circle class="st2" cx="101.2" cy="93" r="1.2"/>
<circle class="st2" cx="97.1" cy="93" r="1.2"/>
<circle class="st2" cx="93" cy="93" r="1.2"/>
<circle class="st2" cx="88.9" cy="93" r="1.2"/>
<circle class="st2" cx="84.8" cy="93" r="1.2"/>
<circle class="st2" cx="80.6" cy="93" r="1.2"/>
<circle class="st2" cx="72.4" cy="93" r="1.2"/>
<circle class="st2" cx="60" cy="93" r="1.2"/>
<circle class="st2" cx="51.8" cy="93" r="1.2"/>
<circle class="st2" cx="47.6" cy="93" r="1.2"/>
<circle class="st2" cx="43.5" cy="93" r="1.2"/>
<circle class="st2" cx="39.4" cy="93" r="1.2"/>
<circle class="st2" cx="31.2" cy="93" r="1.2"/>
<circle class="st2" cx="27" cy="93" r="1.2"/>
<circle class="st2" cx="14.7" cy="93" r="1.2"/>
<circle class="st2" cx="142.5" cy="97.2" r="1.2"/>
<circle class="st2" cx="134.2" cy="97.2" r="1.2"/>
<circle class="st2" cx="126" cy="97.2" r="1.2"/>
<circle class="st2" cx="105.4" cy="97.2" r="1.2"/>
<circle class="st2" cx="101.2" cy="97.2" r="1.2"/>
<circle class="st2" cx="97.1" cy="97.2" r="1.2"/>
<circle class="st2" cx="93" cy="97.2" r="1.2"/>
<circle class="st2" cx="88.9" cy="97.2" r="1.2"/>
<circle class="st2" cx="80.6" cy="97.2" r="1.2"/>
<circle class="st2" cx="60" cy="97.2" r="1.2"/>
<circle class="st2" cx="55.9" cy="97.2" r="1.2"/>
<circle class="st2" cx="51.8" cy="97.2" r="1.2"/>
<circle class="st2" cx="47.6" cy="97.2" r="1.2"/>
<circle class="st2" cx="35.3" cy="97.2" r="1.2"/>
<circle class="st2" cx="22.9" cy="97.2" r="1.2"/>
<circle class="st2" cx="14.7" cy="97.2" r="1.2"/>
<circle class="st2" cx="10.5" cy="97.2" r="1.2"/>
<circle class="st2" cx="142.5" cy="101.3" r="1.2"/>
<circle class="st2" cx="134.2" cy="101.3" r="1.2"/>
<circle class="st2" cx="126" cy="101.3" r="1.2"/>
<circle class="st2" cx="121.9" cy="101.3" r="1.2"/>
<circle class="st2" cx="117.7" cy="101.3" r="1.2"/>
<circle class="st2" cx="113.6" cy="101.3" r="1.2"/>
<circle class="st2" cx="109.5" cy="101.3" r="1.2"/>
<circle class="st2" cx="105.4" cy="101.3" r="1.2"/>
<circle class="st2" cx="101.2" cy="101.3" r="1.2"/>
<circle class="st2" cx="97.1" cy="101.3" r="1.2"/>
<circle class="st2" cx="93" cy="101.3" r="1.2"/>
<circle class="st2" cx="88.9" cy="101.3" r="1.2"/>
<circle class="st2" cx="76.5" cy="101.3" r="1.2"/>
<circle class="st2" cx="68.3" cy="101.3" r="1.2"/>
<circle class="st2" cx="43.5" cy="101.3" r="1.2"/>
<circle class="st2" cx="27" cy="101.3" r="1.2"/>
<circle class="st2" cx="22.9" cy="101.3" r="1.2"/>
<circle class="st2" cx="14.7" cy="101.3" r="1.2"/>
<circle class="st2" cx="142.5" cy="105.4" r="1.2"/>
<circle class="st2" cx="130.1" cy="105.4" r="1.2"/>
<circle class="st2" cx="126" cy="105.4" r="1.2"/>
<circle class="st2" cx="121.9" cy="105.4" r="1.2"/>
<circle class="st2" cx="113.6" cy="105.4" r="1.2"/>
<circle class="st2" cx="109.5" cy="105.4" r="1.2"/>
<circle class="st2" cx="105.4" cy="105.4" r="1.2"/>
<circle class="st2" cx="97.1" cy="105.4" r="1.2"/>
<circle class="st2" cx="93" cy="105.4" r="1.2"/>
<circle class="st2" cx="88.9" cy="105.4" r="1.2"/>
<circle class="st2" cx="84.8" cy="105.4" r="1.2"/>
<circle class="st2" cx="80.6" cy="105.4" r="1.2"/>
<circle class="st2" cx="72.4" cy="105.4" r="1.2"/>
<circle class="st2" cx="64.1" cy="105.4" r="1.2"/>
<circle class="st2" cx="55.9" cy="105.4" r="1.2"/>
<circle class="st2" cx="51.8" cy="105.4" r="1.2"/>
<circle class="st2" cx="47.6" cy="105.4" r="1.2"/>
<circle class="st2" cx="39.4" cy="105.4" r="1.2"/>
<circle class="st2" cx="35.3" cy="105.4" r="1.2"/>
<circle class="st2" cx="31.2" cy="105.4" r="1.2"/>
<circle class="st2" cx="27" cy="105.4" r="1.2"/>
<circle class="st2" cx="22.9" cy="105.4" r="1.2"/>
<circle class="st2" cx="18.8" cy="105.4" r="1.2"/>
<circle class="st2" cx="142.5" cy="109.5" r="1.2"/>
<circle class="st2" cx="134.2" cy="109.5" r="1.2"/>
<circle class="st2" cx="117.7" cy="109.5" r="1.2"/>
<circle class="st2" cx="113.6" cy="109.5" r="1.2"/>
<circle class="st2" cx="109.5" cy="109.5" r="1.2"/>
<circle class="st2" cx="105.4" cy="109.5" r="1.2"/>
<circle class="st2" cx="101.2" cy="109.5" r="1.2"/>
<circle class="st2" cx="97.1" cy="109.5" r="1.2"/>
<circle class="st2" cx="93" cy="109.5" r="1.2"/>
<circle class="st2" cx="76.5" cy="109.5" r="1.2"/>
<circle class="st2" cx="72.4" cy="109.5" r="1.2"/>
<circle class="st2" cx="68.3" cy="109.5" r="1.2"/>
<circle class="st2" cx="64.1" cy="109.5" r="1.2"/>
<circle class="st2" cx="47.6" cy="109.5" r="1.2"/>
<circle class="st2" cx="43.5" cy="109.5" r="1.2"/>
<circle class="st2" cx="39.4" cy="109.5" r="1.2"/>
<circle class="st2" cx="35.3" cy="109.5" r="1.2"/>
<circle class="st2" cx="31.2" cy="109.5" r="1.2"/>
<circle class="st2" cx="27" cy="109.5" r="1.2"/>
<circle class="st2" cx="22.9" cy="109.5" r="1.2"/>
<circle class="st2" cx="10.5" cy="109.5" r="1.2"/>
<circle class="st2" cx="109.5" cy="113.6" r="1.2"/>
<circle class="st2" cx="101.2" cy="113.6" r="1.2"/>
<circle class="st2" cx="97.1" cy="113.6" r="1.2"/>
<circle class="st2" cx="93" cy="113.6" r="1.2"/>
<circle class="st2" cx="80.6" cy="113.6" r="1.2"/>
<circle class="st2" cx="76.5" cy="113.6" r="1.2"/>
<circle class="st2" cx="64.1" cy="113.6" r="1.2"/>
<circle class="st2" cx="60" cy="113.6" r="1.2"/>
<circle class="st2" cx="55.9" cy="113.6" r="1.2"/>
<circle class="st2" cx="43.5" cy="113.6" r="1.2"/>
<circle class="st2" cx="27" cy="113.6" r="1.2"/>
<circle class="st2" cx="22.9" cy="113.6" r="1.2"/>
<circle class="st2" cx="18.8" cy="113.6" r="1.2"/>
<circle class="st2" cx="10.5" cy="113.6" r="1.2"/>
<circle class="st2" cx="109.5" cy="117.8" r="1.2"/>
<circle class="st2" cx="97.1" cy="117.8" r="1.2"/>
<circle class="st2" cx="93" cy="117.8" r="1.2"/>
<circle class="st2" cx="88.9" cy="117.8" r="1.2"/>
<circle class="st2" cx="76.5" cy="117.8" r="1.2"/>
<circle class="st2" cx="68.3" cy="117.8" r="1.2"/>
<circle class="st2" cx="64.1" cy="117.8" r="1.2"/>
<circle class="st2" cx="60" cy="117.8" r="1.2"/>
<circle class="st2" cx="55.9" cy="117.8" r="1.2"/>
<circle class="st2" cx="47.6" cy="117.8" r="1.2"/>
<circle class="st2" cx="43.5" cy="117.8" r="1.2"/>
<circle class="st2" cx="35.3" cy="117.8" r="1.2"/>
<circle class="st2" cx="27" cy="117.8" r="1.2"/>
<circle class="st2" cx="18.8" cy="117.8" r="1.2"/>
<circle class="st2" cx="14.7" cy="117.8" r="1.2"/>
<circle class="st2" cx="93" cy="121.9" r="1.2"/>
<circle class="st2" cx="84.8" cy="121.9" r="1.2"/>
<circle class="st2" cx="72.4" cy="121.9" r="1.2"/>
<circle class="st2" cx="60" cy="121.9" r="1.2"/>
<circle class="st2" cx="51.8" cy="121.9" r="1.2"/>
<circle class="st2" cx="43.5" cy="121.9" r="1.2"/>
<circle class="st2" cx="27" cy="121.9" r="1.2"/>
<circle class="st2" cx="22.9" cy="121.9" r="1.2"/>
<circle class="st2" cx="18.8" cy="121.9" r="1.2"/>
<circle class="st2" cx="14.7" cy="121.9" r="1.2"/>
<circle class="st2" cx="109.5" cy="126" r="1.2"/>
<circle class="st2" cx="97.1" cy="126" r="1.2"/>
<circle class="st2" cx="93" cy="126" r="1.2"/>
<circle class="st2" cx="88.9" cy="126" r="1.2"/>
<circle class="st2" cx="84.8" cy="126" r="1.2"/>
<circle class="st2" cx="76.5" cy="126" r="1.2"/>
<circle class="st2" cx="68.3" cy="126" r="1.2"/>
<circle class="st2" cx="55.9" cy="126" r="1.2"/>
<circle class="st2" cx="51.8" cy="126" r="1.2"/>
<circle class="st2" cx="43.5" cy="126" r="1.2"/>
<circle class="st2" cx="39.4" cy="126" r="1.2"/>
<circle class="st2" cx="35.3" cy="126" r="1.2"/>
<circle class="st2" cx="31.2" cy="126" r="1.2"/>
<circle class="st2" cx="27" cy="126" r="1.2"/>
<circle class="st2" cx="109.5" cy="130.1" r="1.2"/>
<circle class="st2" cx="105.4" cy="130.1" r="1.2"/>
<circle class="st2" cx="88.9" cy="130.1" r="1.2"/>
<circle class="st2" cx="76.5" cy="130.1" r="1.2"/>
<circle class="st2" cx="72.4" cy="130.1" r="1.2"/>
<circle class="st2" cx="60" cy="130.1" r="1.2"/>
<circle class="st2" cx="43.5" cy="130.1" r="1.2"/>
<circle class="st2" cx="39.4" cy="130.1" r="1.2"/>
<circle class="st2" cx="31.2" cy="130.1" r="1.2"/>
<circle class="st2" cx="27" cy="130.1" r="1.2"/>
<circle class="st2" cx="10.5" cy="130.1" r="1.2"/>
<circle class="st2" cx="109.5" cy="134.3" r="1.2"/>
<circle class="st2" cx="97.1" cy="134.3" r="1.2"/>
<circle class="st2" cx="88.9" cy="134.3" r="1.2"/>
<circle class="st2" cx="76.5" cy="134.3" r="1.2"/>
<circle class="st2" cx="72.4" cy="134.3" r="1.2"/>
<circle class="st2" cx="60" cy="134.3" r="1.2"/>
<circle class="st2" cx="51.8" cy="134.3" r="1.2"/>
<circle class="st2" cx="47.6" cy="134.3" r="1.2"/>
<circle class="st2" cx="43.5" cy="134.3" r="1.2"/>
<circle class="st2" cx="35.3" cy="134.3" r="1.2"/>
<circle class="st2" cx="22.9" cy="134.3" r="1.2"/>
<circle class="st2" cx="18.8" cy="134.3" r="1.2"/>
<circle class="st2" cx="109.5" cy="138.4" r="1.2"/>
<circle class="st2" cx="105.4" cy="138.4" r="1.2"/>
<circle class="st2" cx="93" cy="138.4" r="1.2"/>
<circle class="st2" cx="88.9" cy="138.4" r="1.2"/>
<circle class="st2" cx="84.8" cy="138.4" r="1.2"/>
<circle class="st2" cx="80.6" cy="138.4" r="1.2"/>
<circle class="st2" cx="76.5" cy="138.4" r="1.2"/>
<circle class="st2" cx="72.4" cy="138.4" r="1.2"/>
<circle class="st2" cx="68.3" cy="138.4" r="1.2"/>
<circle class="st2" cx="64.1" cy="138.4" r="1.2"/>
<circle class="st2" cx="51.8" cy="138.4" r="1.2"/>
<circle class="st2" cx="47.6" cy="138.4" r="1.2"/>
<circle class="st2" cx="27" cy="138.4" r="1.2"/>
<circle class="st2" cx="22.9" cy="138.4" r="1.2"/>
<circle class="st2" cx="18.8" cy="138.4" r="1.2"/>
<circle class="st2" cx="109.5" cy="142.5" r="1.2"/>
<circle class="st2" cx="84.8" cy="142.5" r="1.2"/>
<circle class="st2" cx="80.6" cy="142.5" r="1.2"/>
<circle class="st2" cx="72.4" cy="142.5" r="1.2"/>
<circle class="st2" cx="68.3" cy="142.5" r="1.2"/>
<circle class="st2" cx="64.1" cy="142.5" r="1.2"/>
<circle class="st2" cx="47.6" cy="142.5" r="1.2"/>
<circle class="st2" cx="43.5" cy="142.5" r="1.2"/>
<circle class="st2" cx="39.4" cy="142.5" r="1.2"/>
<circle class="st2" cx="31.2" cy="142.5" r="1.2"/>
<circle class="st2" cx="14.7" cy="142.5" r="1.2"/>
<g>
	<path class="st2" d="M11.1,172.3c0,0.3-0.1,0.6-0.3,0.8s-0.5,0.3-0.8,0.3c-0.3,0-0.6-0.1-0.8-0.3s-0.3-0.5-0.3-0.8v-13.7
		c0-0.3,0.1-0.6,0.3-0.8s0.5-0.3,0.8-0.3h6.9c0.9,0,1.7,0.3,2.4,1s1,1.5,1,2.4v2.3c0,0.9-0.3,1.7-1,2.4s-1.5,1-2.4,1h-5.7V172.3z
		 M11.1,164.3h5.7c0.3,0,0.6-0.1,0.8-0.3c0.2-0.2,0.3-0.5,0.3-0.8v-2.3c0-0.3-0.1-0.6-0.3-0.8c-0.2-0.2-0.5-0.3-0.8-0.3h-5.7V164.3z
		"/>
	<path class="st2" d="M39.7,173.5c-0.3,0-0.6-0.1-0.8-0.3s-0.3-0.5-0.3-0.8v-4.6c0-0.3-0.1-0.6-0.3-0.8c-0.2-0.2-0.5-0.3-0.8-0.3
		h-5.7v5.7c0,0.3-0.1,0.6-0.3,0.8s-0.5,0.3-0.8,0.3c-0.3,0-0.6-0.1-0.8-0.3s-0.3-0.5-0.3-0.8v-13.7c0-0.3,0.1-0.6,0.3-0.8
		s0.5-0.3,0.8-0.3h6.9c0.9,0,1.7,0.3,2.4,1s1,1.5,1,2.4v2.3c0,0.9-0.3,1.7-1,2.4c0.7,0.5,1,1.3,1,2.2v4.6c0,0.3-0.1,0.6-0.3,0.8
		S40,173.5,39.7,173.5z M31.7,164.3h5.7c0.3,0,0.6-0.1,0.8-0.3c0.2-0.2,0.3-0.5,0.3-0.8v-2.3c0-0.3-0.1-0.6-0.3-0.8
		c-0.2-0.2-0.5-0.3-0.8-0.3h-5.7V164.3z"/>
	<path class="st2" d="M53.5,173.5c-0.3,0-0.6-0.1-0.8-0.3s-0.3-0.5-0.3-0.8s0.1-0.6,0.3-0.8c0.2-0.2,0.5-0.3,0.8-0.3h1.1v-11.4h-1.1
		c-0.3,0-0.6-0.1-0.8-0.3c-0.2-0.2-0.3-0.5-0.3-0.8s0.1-0.6,0.3-0.8s0.5-0.3,0.8-0.3h4.6c0.3,0,0.6,0.1,0.8,0.3
		c0.2,0.2,0.3,0.5,0.3,0.8s-0.1,0.6-0.3,0.8c-0.2,0.2-0.5,0.3-0.8,0.3H57v11.4h1.1c0.3,0,0.6,0.1,0.8,0.3c0.2,0.2,0.3,0.5,0.3,0.8
		s-0.1,0.6-0.3,0.8c-0.2,0.2-0.5,0.3-0.8,0.3H53.5z"/>
	<path class="st2" d="M76.5,173.5c-0.3,0-0.6-0.1-0.8-0.3l-4.6-4.6c-0.2-0.2-0.3-0.5-0.3-0.8v-9.1c0-0.3,0.1-0.6,0.3-0.8
		s0.5-0.3,0.8-0.3c0.3,0,0.6,0.1,0.8,0.3s0.3,0.5,0.3,0.8v8l3.4,3.4l3.4-3.4v-8c0-0.3,0.1-0.6,0.3-0.8s0.5-0.3,0.8-0.3
		s0.6,0.1,0.8,0.3s0.3,0.5,0.3,0.8v9.1c0,0.3-0.1,0.6-0.3,0.8l-4.6,4.6C77.1,173.3,76.8,173.5,76.5,173.5z"/>
	<path class="st2" d="M92.6,173.5c-0.3,0-0.6-0.1-0.8-0.3s-0.3-0.5-0.3-0.8v-11.4c0-0.9,0.3-1.7,1-2.4c0.7-0.7,1.5-1,2.4-1h4.6
		c0.9,0,1.7,0.3,2.4,1s1,1.5,1,2.4v11.4c0,0.3-0.1,0.6-0.3,0.8s-0.5,0.3-0.8,0.3s-0.6-0.1-0.8-0.3s-0.3-0.5-0.3-0.8v-5.7h-6.9v5.7
		c0,0.3-0.1,0.6-0.3,0.8S92.9,173.5,92.6,173.5z M93.8,164.3h6.9v-3.4c0-0.3-0.1-0.6-0.3-0.8c-0.2-0.2-0.5-0.3-0.8-0.3h-4.6
		c-0.3,0-0.6,0.1-0.8,0.3s-0.3,0.5-0.3,0.8V164.3z"/>
	<path class="st2" d="M113.3,159.7c-0.3,0-0.6-0.1-0.8-0.3c-0.2-0.2-0.3-0.5-0.3-0.8s0.1-0.6,0.3-0.8s0.5-0.3,0.8-0.3h9.1
		c0.3,0,0.6,0.1,0.8,0.3s0.3,0.5,0.3,0.8s-0.1,0.6-0.3,0.8c-0.2,0.2-0.5,0.3-0.8,0.3H119v12.6c0,0.3-0.1,0.6-0.3,0.8
		s-0.5,0.3-0.8,0.3s-0.6-0.1-0.8-0.3c-0.2-0.2-0.3-0.5-0.3-0.8v-12.6H113.3z"/>
	<path class="st2" d="M140.8,166.6h-5.7v4.6h8c0.3,0,0.6,0.1,0.8,0.3c0.2,0.2,0.3,0.5,0.3,0.8s-0.1,0.6-0.3,0.8s-0.5,0.3-0.8,0.3
		H134c-0.3,0-0.6-0.1-0.8-0.3s-0.3-0.5-0.3-0.8v-13.7c0-0.3,0.1-0.6,0.3-0.8s0.5-0.3,0.8-0.3h9.1c0.3,0,0.6,0.1,0.8,0.3
		s0.3,0.5,0.3,0.8s-0.1,0.6-0.3,0.8c-0.2,0.2-0.5,0.3-0.8,0.3h-8v4.6h5.7c0.3,0,0.6,0.1,0.8,0.3c0.2,0.2,0.3,0.5,0.3,0.8
		s-0.1,0.6-0.3,0.8C141.4,166.5,141.1,166.6,140.8,166.6z"/>
</g>
<g>
	<path class="st2" d="M10.8,191.2c-0.5,0-1-0.2-1.3-0.5s-0.5-0.7-0.5-1.3v-1.1c0-0.5,0.2-0.9,0.5-1.2s0.7-0.5,1.3-0.5h2.3
		c0.5,0,0.9,0.2,1.2,0.5c0.3,0.3,0.5,0.7,0.5,1.2c0,0.2-0.1,0.3-0.2,0.4c-0.1,0.1-0.2,0.2-0.4,0.2s-0.3-0.1-0.4-0.2
		c-0.1-0.1-0.2-0.2-0.2-0.4s-0.1-0.3-0.2-0.4c-0.1-0.1-0.2-0.2-0.4-0.2h-2.3c-0.2,0-0.3,0.1-0.4,0.2c-0.1,0.1-0.2,0.2-0.2,0.4v1.1
		c0,0.2,0.1,0.3,0.2,0.4c0.1,0.1,0.2,0.2,0.4,0.2h2.3c0.5,0,0.9,0.2,1.2,0.5c0.3,0.3,0.5,0.7,0.5,1.2v1.1c0,0.5-0.2,1-0.5,1.3
		c-0.3,0.3-0.7,0.5-1.2,0.5h-2.3c-0.5,0-0.9-0.2-1.2-0.5c-0.3-0.3-0.5-0.7-0.5-1.2c0-0.2,0.1-0.3,0.2-0.4s0.2-0.2,0.4-0.2
		s0.3,0.1,0.4,0.2c0.1,0.1,0.2,0.2,0.2,0.4s0.1,0.3,0.2,0.4c0.1,0.1,0.2,0.2,0.4,0.2h2.3c0.2,0,0.3-0.1,0.4-0.2
		c0.1-0.1,0.2-0.2,0.2-0.4v-1.1c0-0.2-0.1-0.3-0.2-0.4c-0.1-0.1-0.2-0.2-0.4-0.2H10.8z"/>
	<path class="st2" d="M20.7,194.6c-0.5,0-0.9-0.2-1.2-0.5s-0.5-0.7-0.5-1.2v-4.6c0-0.5,0.2-0.9,0.5-1.2s0.7-0.5,1.2-0.5h2.3
		c0.5,0,0.9,0.2,1.2,0.5s0.5,0.7,0.5,1.2c0,0.2-0.1,0.3-0.2,0.4s-0.2,0.2-0.4,0.2s-0.3-0.1-0.4-0.2s-0.2-0.2-0.2-0.4
		s-0.1-0.3-0.2-0.4s-0.2-0.2-0.4-0.2h-2.3c-0.2,0-0.3,0.1-0.4,0.2s-0.2,0.2-0.2,0.4v4.6c0,0.2,0.1,0.3,0.2,0.4s0.2,0.2,0.4,0.2h2.3
		c0.2,0,0.3-0.1,0.4-0.2s0.2-0.2,0.2-0.4s0.1-0.3,0.2-0.4s0.2-0.2,0.4-0.2s0.3,0.1,0.4,0.2s0.2,0.2,0.2,0.4c0,0.5-0.2,0.9-0.5,1.2
		s-0.7,0.5-1.2,0.5H20.7z"/>
	<path class="st2" d="M32.8,194.6h-2.3c-0.5,0-0.9-0.2-1.2-0.5s-0.5-0.7-0.5-1.2c0-0.2,0.1-0.3,0.2-0.4s0.2-0.2,0.4-0.2
		s0.3,0.1,0.4,0.2s0.2,0.2,0.2,0.4s0.1,0.3,0.2,0.4s0.2,0.2,0.4,0.2h2.3c0.2,0,0.3-0.1,0.4-0.2s0.2-0.2,0.2-0.4v-5.7
		c0-0.2,0.1-0.3,0.2-0.4s0.2-0.2,0.4-0.2s0.3,0.1,0.4,0.2s0.2,0.2,0.2,0.4v5.7c0,0.5-0.2,0.9-0.5,1.2S33.2,194.6,32.8,194.6z"/>
	<path class="st2" d="M42.7,191.2h-2.9v2.3h4c0.2,0,0.3,0.1,0.4,0.2c0.1,0.1,0.2,0.2,0.2,0.4s-0.1,0.3-0.2,0.4s-0.2,0.2-0.4,0.2
		h-4.6c-0.2,0-0.3-0.1-0.4-0.2s-0.2-0.2-0.2-0.4v-6.9c0-0.2,0.1-0.3,0.2-0.4s0.2-0.2,0.4-0.2h4.6c0.2,0,0.3,0.1,0.4,0.2
		s0.2,0.2,0.2,0.4s-0.1,0.3-0.2,0.4s-0.2,0.2-0.4,0.2h-4v2.3h2.9c0.2,0,0.3,0.1,0.4,0.2s0.2,0.2,0.2,0.4s-0.1,0.3-0.2,0.4
		S42.8,191.2,42.7,191.2z"/>
	<path class="st2" d="M52.5,194.6h-2.3c-0.5,0-0.9-0.2-1.2-0.5s-0.5-0.7-0.5-1.2v-5.7c0-0.2,0.1-0.3,0.2-0.4s0.2-0.2,0.4-0.2
		s0.3,0.1,0.4,0.2s0.2,0.2,0.2,0.4v5.7c0,0.2,0.1,0.3,0.2,0.4s0.2,0.2,0.4,0.2h2.3c0.2,0,0.3-0.1,0.4-0.2s0.2-0.2,0.2-0.4v-5.7
		c0-0.2,0.1-0.3,0.2-0.4s0.2-0.2,0.4-0.2s0.3,0.1,0.4,0.2s0.2,0.2,0.2,0.4v5.7c0,0.5-0.2,0.9-0.5,1.2S53,194.6,52.5,194.6z"/>
	<path class="st2" d="M60.1,194.6c-0.5,0-0.9-0.2-1.2-0.5s-0.5-0.7-0.5-1.2v-4.6c0-0.5,0.2-0.9,0.5-1.2s0.7-0.5,1.2-0.5h2.3
		c0.5,0,0.9,0.2,1.2,0.5s0.5,0.7,0.5,1.2c0,0.2-0.1,0.3-0.2,0.4s-0.2,0.2-0.4,0.2s-0.3-0.1-0.4-0.2s-0.2-0.2-0.2-0.4
		s-0.1-0.3-0.2-0.4s-0.2-0.2-0.4-0.2h-2.3c-0.2,0-0.3,0.1-0.4,0.2s-0.2,0.2-0.2,0.4v4.6c0,0.2,0.1,0.3,0.2,0.4s0.2,0.2,0.4,0.2h2.3
		c0.2,0,0.3-0.1,0.4-0.2s0.2-0.2,0.2-0.4s0.1-0.3,0.2-0.4s0.2-0.2,0.4-0.2s0.3,0.1,0.4,0.2s0.2,0.2,0.2,0.4c0,0.5-0.2,0.9-0.5,1.2
		s-0.7,0.5-1.2,0.5H60.1z"/>
	<path class="st2" d="M69.9,194.6c-0.2,0-0.3-0.1-0.4-0.2s-0.2-0.2-0.2-0.4s0.1-0.3,0.2-0.4c0.1-0.1,0.2-0.2,0.4-0.2h0.6v-5.7h-0.6
		c-0.2,0-0.3-0.1-0.4-0.2s-0.2-0.2-0.2-0.4s0.1-0.3,0.2-0.4s0.2-0.2,0.4-0.2h2.3c0.2,0,0.3,0.1,0.4,0.2s0.2,0.2,0.2,0.4
		s-0.1,0.3-0.2,0.4s-0.2,0.2-0.4,0.2h-0.6v5.7h0.6c0.2,0,0.3,0.1,0.4,0.2c0.1,0.1,0.2,0.2,0.2,0.4s-0.1,0.3-0.2,0.4
		s-0.2,0.2-0.4,0.2H69.9z"/>
	<path class="st2" d="M78.6,191.2c-0.2,0-0.3-0.1-0.4-0.2s-0.2-0.2-0.2-0.4v-3.4c0-0.2,0.1-0.3,0.2-0.4s0.2-0.2,0.4-0.2h4.6
		c0.2,0,0.3,0.1,0.4,0.2s0.2,0.2,0.2,0.4s-0.1,0.3-0.2,0.4s-0.2,0.2-0.4,0.2h-4v2.3h2.9c0.5,0,0.9,0.2,1.2,0.5s0.5,0.7,0.5,1.2v1.1
		c0,0.5-0.2,0.9-0.5,1.2s-0.7,0.5-1.2,0.5h-3.4c-0.2,0-0.3-0.1-0.4-0.2s-0.2-0.2-0.2-0.4s0.1-0.3,0.2-0.4c0.1-0.1,0.2-0.2,0.4-0.2
		h3.4c0.2,0,0.3-0.1,0.4-0.2s0.2-0.2,0.2-0.4v-1.1c0-0.2-0.1-0.3-0.2-0.4s-0.2-0.2-0.4-0.2H78.6z"/>
	<path class="st2" d="M89.1,191.2h2.3v-4c0-0.2,0.1-0.3,0.2-0.4s0.2-0.2,0.4-0.2s0.3,0.1,0.4,0.2s0.2,0.2,0.2,0.4v4h0.6
		c0.2,0,0.3,0.1,0.4,0.2s0.2,0.2,0.2,0.4s-0.1,0.3-0.2,0.4s-0.2,0.2-0.4,0.2h-0.6v1.7c0,0.2-0.1,0.3-0.2,0.4s-0.2,0.2-0.4,0.2
		s-0.3-0.1-0.4-0.2s-0.2-0.2-0.2-0.4v-1.7h-2.9c-0.2,0-0.3-0.1-0.4-0.2s-0.2-0.2-0.2-0.4v-3.4c0-0.2,0.1-0.3,0.2-0.4
		s0.2-0.2,0.4-0.2s0.3,0.1,0.4,0.2s0.2,0.2,0.2,0.4V191.2z"/>
	<path class="st2" d="M98.4,194.6c-0.2,0-0.3-0.1-0.4-0.2s-0.2-0.2-0.2-0.4v-6.9c0-0.2,0.1-0.3,0.2-0.4s0.2-0.2,0.4-0.2
		s0.3,0.1,0.4,0.2l1.9,1.9l1.9-1.9c0.1-0.1,0.2-0.2,0.4-0.2s0.3,0.1,0.4,0.2s0.2,0.2,0.2,0.4v6.9c0,0.2-0.1,0.3-0.2,0.4
		s-0.2,0.2-0.4,0.2s-0.3-0.1-0.4-0.2s-0.2-0.2-0.2-0.4v-5.5l-1.3,1.3c-0.1,0.1-0.2,0.2-0.4,0.2s-0.3-0.1-0.4-0.2l-1.3-1.3v5.5
		c0,0.2-0.1,0.3-0.2,0.4S98.5,194.6,98.4,194.6z"/>
	<path class="st2" d="M108.2,188.9c-0.2,0-0.3-0.1-0.4-0.2s-0.2-0.2-0.2-0.4c0-0.5,0.2-0.9,0.5-1.2s0.7-0.5,1.2-0.5h2.3
		c0.5,0,0.9,0.2,1.2,0.5s0.5,0.7,0.5,1.2v1.1c0,0.2-0.1,0.3-0.2,0.4l-3.6,3.6h3.2c0.2,0,0.3,0.1,0.4,0.2c0.1,0.1,0.2,0.2,0.2,0.4
		s-0.1,0.3-0.2,0.4s-0.2,0.2-0.4,0.2h-4.6c-0.2,0-0.3-0.1-0.4-0.2s-0.2-0.2-0.2-0.4s0.1-0.3,0.2-0.4l4.4-4.4v-0.9
		c0-0.2-0.1-0.3-0.2-0.4s-0.2-0.2-0.4-0.2h-2.3c-0.2,0-0.3,0.1-0.4,0.2s-0.2,0.2-0.2,0.4s-0.1,0.3-0.2,0.4S108.4,188.9,108.2,188.9z
		"/>
	<path class="st2" d="M121.5,191.2h-2.9v2.3h4c0.2,0,0.3,0.1,0.4,0.2c0.1,0.1,0.2,0.2,0.2,0.4s-0.1,0.3-0.2,0.4s-0.2,0.2-0.4,0.2
		h-4.6c-0.2,0-0.3-0.1-0.4-0.2s-0.2-0.2-0.2-0.4v-6.9c0-0.2,0.1-0.3,0.2-0.4s0.2-0.2,0.4-0.2h4.6c0.2,0,0.3,0.1,0.4,0.2
		s0.2,0.2,0.2,0.4s-0.1,0.3-0.2,0.4s-0.2,0.2-0.4,0.2h-4v2.3h2.9c0.2,0,0.3,0.1,0.4,0.2s0.2,0.2,0.2,0.4s-0.1,0.3-0.2,0.4
		S121.7,191.2,121.5,191.2z"/>
	<path class="st2" d="M129.1,194.6c-0.5,0-0.9-0.2-1.2-0.5c-0.3-0.3-0.5-0.7-0.5-1.2v-4.6c0-0.5,0.2-0.9,0.5-1.2
		c0.3-0.3,0.7-0.5,1.2-0.5h2.3c0.2,0,0.3,0.1,0.4,0.2s0.2,0.2,0.2,0.4s-0.1,0.3-0.2,0.4s-0.2,0.2-0.4,0.2h-2.3
		c-0.2,0-0.3,0.1-0.4,0.2s-0.2,0.2-0.2,0.4v1.7h2.9c0.5,0,0.9,0.2,1.2,0.5s0.5,0.7,0.5,1.3v1.1c0,0.5-0.2,0.9-0.5,1.2
		s-0.7,0.5-1.2,0.5H129.1z M128.5,191.2v1.7c0,0.2,0.1,0.3,0.2,0.4s0.2,0.2,0.4,0.2h2.3c0.2,0,0.3-0.1,0.4-0.2s0.2-0.2,0.2-0.4v-1.1
		c0-0.2-0.1-0.3-0.2-0.4s-0.2-0.2-0.4-0.2H128.5z"/>
	<path class="st2" d="M142.9,187.2v6.9c0,0.2-0.1,0.3-0.2,0.4s-0.2,0.2-0.4,0.2s-0.3-0.1-0.4-0.2s-0.2-0.2-0.2-0.4v-2.9h-3.4v2.9
		c0,0.2-0.1,0.3-0.2,0.4s-0.2,0.2-0.4,0.2s-0.3-0.1-0.4-0.2s-0.2-0.2-0.2-0.4v-6.9c0-0.2,0.1-0.3,0.2-0.4s0.2-0.2,0.4-0.2
		s0.3,0.1,0.4,0.2s0.2,0.2,0.2,0.4v2.9h3.4v-2.9c0-0.2,0.1-0.3,0.2-0.4s0.2-0.2,0.4-0.2s0.3,0.1,0.4,0.2S142.9,187.1,142.9,187.2z"
		/>
	<path class="st2" d="M13.1,204.2h-2.9v2.3c0,0.5-0.1,0.9-0.2,1c-0.1,0.1-0.2,0.2-0.4,0.2s-0.3-0.1-0.4-0.2s-0.2-0.2-0.2-0.4v-6.9
		c0-0.2,0.1-0.3,0.2-0.4s0.2-0.2,0.4-0.2h4.6c0.2,0,0.3,0.1,0.4,0.2c0.1,0.1,0.2,0.2,0.2,0.4s-0.1,0.3-0.2,0.4
		c-0.1,0.1-0.2,0.2-0.4,0.2h-4v2.3h2.9c0.2,0,0.3,0.1,0.4,0.2c0.1,0.1,0.2,0.2,0.2,0.4s-0.1,0.3-0.2,0.4
		C13.4,204.1,13.2,204.2,13.1,204.2z"/>
	<path class="st2" d="M22.9,207.6h-2.3c-0.5,0-0.9-0.2-1.2-0.5s-0.5-0.7-0.5-1.2v-5.7c0-0.2,0.1-0.3,0.2-0.4s0.2-0.2,0.4-0.2
		s0.3,0.1,0.4,0.2s0.2,0.2,0.2,0.4v5.7c0,0.2,0.1,0.3,0.2,0.4s0.2,0.2,0.4,0.2h2.3c0.2,0,0.3-0.1,0.4-0.2s0.2-0.2,0.2-0.4v-5.7
		c0-0.2,0.1-0.3,0.2-0.4s0.2-0.2,0.4-0.2s0.3,0.1,0.4,0.2s0.2,0.2,0.2,0.4v5.7c0,0.5-0.2,0.9-0.5,1.2S23.4,207.6,22.9,207.6z"/>
	<path class="st2" d="M29.9,206.1v0.9c0,0.2-0.1,0.3-0.2,0.4s-0.2,0.2-0.4,0.2s-0.3-0.1-0.4-0.2s-0.2-0.2-0.2-0.4v-1.1
		c0-0.2,0.1-0.3,0.2-0.4l1.9-1.9l-1.9-1.9c-0.1-0.1-0.2-0.2-0.2-0.4v-1.1c0-0.2,0.1-0.3,0.2-0.4s0.2-0.2,0.4-0.2s0.3,0.1,0.4,0.2
		s0.2,0.2,0.2,0.4v0.9l1.7,1.7l1.7-1.7v-0.9c0-0.2,0.1-0.3,0.2-0.4s0.2-0.2,0.4-0.2s0.3,0.1,0.4,0.2s0.2,0.2,0.2,0.4v1.1
		c0,0.2-0.1,0.3-0.2,0.4l-1.9,1.9l1.9,1.9c0.1,0.1,0.2,0.2,0.2,0.4v1.1c0,0.2-0.1,0.3-0.2,0.4s-0.2,0.2-0.4,0.2s-0.3-0.1-0.4-0.2
		s-0.2-0.2-0.2-0.4v-0.9l-1.7-1.7L29.9,206.1z"/>
	<path class="st2" d="M40.4,207.6c-0.2,0-0.3-0.1-0.4-0.2s-0.2-0.2-0.2-0.4s0.1-0.3,0.2-0.4s0.2-0.2,0.4-0.2h0.6v-5.7h-0.6
		c-0.2,0-0.3-0.1-0.4-0.2s-0.2-0.2-0.2-0.4s0.1-0.3,0.2-0.4s0.2-0.2,0.4-0.2h2.3c0.2,0,0.3,0.1,0.4,0.2s0.2,0.2,0.2,0.4
		s-0.1,0.3-0.2,0.4s-0.2,0.2-0.4,0.2h-0.6v5.7h0.6c0.2,0,0.3,0.1,0.4,0.2s0.2,0.2,0.2,0.4s-0.1,0.3-0.2,0.4s-0.2,0.2-0.4,0.2H40.4z"
		/>
	<path class="st2" d="M49.1,204.2c-0.2,0-0.3-0.1-0.4-0.2s-0.2-0.2-0.2-0.4v-3.4c0-0.2,0.1-0.3,0.2-0.4s0.2-0.2,0.4-0.2h4.6
		c0.2,0,0.3,0.1,0.4,0.2s0.2,0.2,0.2,0.4s-0.1,0.3-0.2,0.4s-0.2,0.2-0.4,0.2h-4v2.3h2.9c0.5,0,0.9,0.2,1.2,0.5
		c0.3,0.3,0.5,0.7,0.5,1.2v1.1c0,0.5-0.2,0.9-0.5,1.2s-0.7,0.5-1.2,0.5h-3.4c-0.2,0-0.3-0.1-0.4-0.2s-0.2-0.2-0.2-0.4
		s0.1-0.3,0.2-0.4s0.2-0.2,0.4-0.2h3.4c0.2,0,0.3-0.1,0.4-0.2s0.2-0.2,0.2-0.4v-1.1c0-0.2-0.1-0.3-0.2-0.4s-0.2-0.2-0.4-0.2H49.1z"
		/>
	<path class="st2" d="M59.5,207.1c0,0.2-0.1,0.3-0.2,0.4s-0.2,0.2-0.4,0.2s-0.3-0.1-0.4-0.2s-0.2-0.2-0.2-0.4v-6.9
		c0-0.2,0.1-0.3,0.2-0.4s0.2-0.2,0.4-0.2h3.4c0.5,0,0.9,0.2,1.2,0.5s0.5,0.7,0.5,1.2v1.1c0,0.5-0.2,0.9-0.5,1.2
		c-0.3,0.3-0.7,0.5-1.2,0.5h-2.9V207.1z M59.5,203.1h2.9c0.2,0,0.3-0.1,0.4-0.2s0.2-0.2,0.2-0.4v-1.1c0-0.2-0.1-0.3-0.2-0.4
		s-0.2-0.2-0.4-0.2h-2.9V203.1z"/>
	<path class="st2" d="M68.8,207.6c-0.2,0-0.3-0.1-0.4-0.2s-0.2-0.2-0.2-0.4s0.1-0.3,0.2-0.4l4.4-4.4v-1.5h-4c-0.2,0-0.3-0.1-0.4-0.2
		s-0.2-0.2-0.2-0.4s0.1-0.3,0.2-0.4s0.2-0.2,0.4-0.2h4.6c0.2,0,0.3,0.1,0.4,0.2s0.2,0.2,0.2,0.4v2.3c0,0.2-0.1,0.3-0.2,0.4l-4.6,4.6
		C69.1,207.6,68.9,207.6,68.8,207.6z"/>
	<path class="st2" d="M79.8,207.6c-0.2,0-0.3-0.1-0.4-0.2s-0.2-0.2-0.2-0.4s0.1-0.3,0.2-0.4s0.2-0.2,0.4-0.2h0.6v-5.7h-0.6
		c-0.2,0-0.3-0.1-0.4-0.2s-0.2-0.2-0.2-0.4s0.1-0.3,0.2-0.4s0.2-0.2,0.4-0.2h2.3c0.2,0,0.3,0.1,0.4,0.2s0.2,0.2,0.2,0.4
		s-0.1,0.3-0.2,0.4s-0.2,0.2-0.4,0.2h-0.6v5.7h0.6c0.2,0,0.3,0.1,0.4,0.2s0.2,0.2,0.2,0.4s-0.1,0.3-0.2,0.4s-0.2,0.2-0.4,0.2H79.8z"
		/>
	<path class="st2" d="M91.9,207.6h-2.3c-0.5,0-0.9-0.2-1.2-0.5s-0.5-0.7-0.5-1.2c0-0.2,0.1-0.3,0.2-0.4s0.2-0.2,0.4-0.2
		s0.3,0.1,0.4,0.2s0.2,0.2,0.2,0.4s0.1,0.3,0.2,0.4s0.2,0.2,0.4,0.2h2.3c0.2,0,0.3-0.1,0.4-0.2s0.2-0.2,0.2-0.4v-5.7
		c0-0.2,0.1-0.3,0.2-0.4s0.2-0.2,0.4-0.2s0.3,0.1,0.4,0.2s0.2,0.2,0.2,0.4v5.7c0,0.5-0.2,0.9-0.5,1.2S92.4,207.6,91.9,207.6z"/>
	<path class="st2" d="M98.4,207.6c-0.2,0-0.3-0.1-0.4-0.2s-0.2-0.2-0.2-0.4v-6.9c0-0.2,0.1-0.3,0.2-0.4s0.2-0.2,0.4-0.2h3.4
		c0.5,0,0.9,0.2,1.2,0.5s0.5,0.7,0.5,1.2v4.6c0,0.5-0.2,0.9-0.5,1.2s-0.7,0.5-1.2,0.5H98.4z M102.4,205.9v-4.6
		c0-0.2-0.1-0.3-0.2-0.4s-0.2-0.2-0.4-0.2h-2.9v5.7h2.9c0.2,0,0.3-0.1,0.4-0.2S102.4,206.1,102.4,205.9z"/>
	<path class="st2" d="M108.2,207.6c-0.2,0-0.3-0.1-0.4-0.2s-0.2-0.2-0.2-0.4v-6.9c0-0.2,0.1-0.3,0.2-0.4s0.2-0.2,0.4-0.2
		s0.3,0.1,0.4,0.2l1.9,1.9l1.9-1.9c0.1-0.1,0.2-0.2,0.4-0.2s0.3,0.1,0.4,0.2s0.2,0.2,0.2,0.4v6.9c0,0.2-0.1,0.3-0.2,0.4
		s-0.2,0.2-0.4,0.2s-0.3-0.1-0.4-0.2s-0.2-0.2-0.2-0.4v-5.5l-1.3,1.3c-0.1,0.1-0.2,0.2-0.4,0.2s-0.3-0.1-0.4-0.2l-1.3-1.3v5.5
		c0,0.2-0.1,0.3-0.2,0.4S108.4,207.6,108.2,207.6z"/>
	<path class="st2" d="M118.6,206.1v0.9c0,0.2-0.1,0.3-0.2,0.4s-0.2,0.2-0.4,0.2s-0.3-0.1-0.4-0.2s-0.2-0.2-0.2-0.4v-1.1
		c0-0.2,0.1-0.3,0.2-0.4l1.9-1.9l-1.9-1.9c-0.1-0.1-0.2-0.2-0.2-0.4v-1.1c0-0.2,0.1-0.3,0.2-0.4s0.2-0.2,0.4-0.2s0.3,0.1,0.4,0.2
		s0.2,0.2,0.2,0.4v0.9l1.7,1.7l1.7-1.7v-0.9c0-0.2,0.1-0.3,0.2-0.4s0.2-0.2,0.4-0.2s0.3,0.1,0.4,0.2s0.2,0.2,0.2,0.4v1.1
		c0,0.2-0.1,0.3-0.2,0.4l-1.9,1.9l1.9,1.9c0.1,0.1,0.2,0.2,0.2,0.4v1.1c0,0.2-0.1,0.3-0.2,0.4s-0.2,0.2-0.4,0.2s-0.3-0.1-0.4-0.2
		s-0.2-0.2-0.2-0.4v-0.9l-1.7-1.7L118.6,206.1z"/>
	<path class="st2" d="M130.2,207.6c-0.2,0-0.3-0.1-0.4-0.2l-2.3-2.3c-0.1-0.1-0.2-0.2-0.2-0.4v-4.6c0-0.2,0.1-0.3,0.2-0.4
		s0.2-0.2,0.4-0.2c0.2,0,0.3,0.1,0.4,0.2s0.2,0.2,0.2,0.4v4l1.7,1.7l1.7-1.7v-4c0-0.2,0.1-0.3,0.2-0.4s0.2-0.2,0.4-0.2
		s0.3,0.1,0.4,0.2s0.2,0.2,0.2,0.4v4.6c0,0.2-0.1,0.3-0.2,0.4l-2.3,2.3C130.5,207.6,130.4,207.6,130.2,207.6z"/>
	<path class="st2" d="M139.5,203.9l-2.1-2.1c-0.1-0.1-0.2-0.2-0.2-0.4v-1.1c0-0.2,0.1-0.3,0.2-0.4s0.2-0.2,0.4-0.2s0.3,0.1,0.4,0.2
		s0.2,0.2,0.2,0.4v0.9l1.7,1.7l1.7-1.7v-0.9c0-0.2,0.1-0.3,0.2-0.4s0.2-0.2,0.4-0.2s0.3,0.1,0.4,0.2s0.2,0.2,0.2,0.4v1.1
		c0,0.2-0.1,0.3-0.2,0.4l-2.1,2.1v3.2c0,0.2-0.1,0.3-0.2,0.4s-0.2,0.2-0.4,0.2s-0.3-0.1-0.4-0.2s-0.2-0.2-0.2-0.4V203.9z"/>
	<path class="st2" d="M13.1,220.6h-2.3c-0.5,0-0.9-0.2-1.2-0.5c-0.3-0.3-0.5-0.7-0.5-1.2v-5.7c0-0.2,0.1-0.3,0.2-0.4
		s0.2-0.2,0.4-0.2s0.3,0.1,0.4,0.2c0.1,0.1,0.2,0.2,0.2,0.4v5.7c0,0.2,0.1,0.3,0.2,0.4c0.1,0.1,0.2,0.2,0.4,0.2h2.3
		c0.2,0,0.3-0.1,0.4-0.2c0.1-0.1,0.2-0.2,0.2-0.4v-5.7c0-0.2,0.1-0.3,0.2-0.4c0.1-0.1,0.2-0.2,0.4-0.2s0.3,0.1,0.4,0.2
		c0.1,0.1,0.2,0.2,0.2,0.4v5.7c0,0.5-0.2,0.9-0.5,1.2C13.9,220.5,13.5,220.6,13.1,220.6z"/>
	<path class="st2" d="M20.7,220.6c-0.5,0-0.9-0.2-1.2-0.5s-0.5-0.7-0.5-1.2v-4.6c0-0.5,0.2-0.9,0.5-1.2s0.7-0.5,1.2-0.5h2.3
		c0.5,0,0.9,0.2,1.2,0.5s0.5,0.7,0.5,1.2c0,0.2-0.1,0.3-0.2,0.4s-0.2,0.2-0.4,0.2s-0.3-0.1-0.4-0.2s-0.2-0.2-0.2-0.4
		s-0.1-0.3-0.2-0.4s-0.2-0.2-0.4-0.2h-2.3c-0.2,0-0.3,0.1-0.4,0.2s-0.2,0.2-0.2,0.4v4.6c0,0.2,0.1,0.3,0.2,0.4s0.2,0.2,0.4,0.2h2.3
		c0.2,0,0.3-0.1,0.4-0.2s0.2-0.2,0.2-0.4v-1.7h-0.6c-0.2,0-0.3-0.1-0.4-0.2s-0.2-0.2-0.2-0.4s0.1-0.3,0.2-0.4s0.2-0.2,0.4-0.2h1.1
		c0.2,0,0.3,0.1,0.4,0.2s0.2,0.2,0.2,0.4v2.3c0,0.5-0.2,0.9-0.5,1.2s-0.7,0.5-1.2,0.5H20.7z"/>
	<path class="st2" d="M29.4,220.6c-0.2,0-0.3-0.1-0.4-0.2s-0.2-0.2-0.2-0.4v-5.7c0-0.5,0.2-0.9,0.5-1.2s0.7-0.5,1.2-0.5h2.3
		c0.5,0,0.9,0.2,1.2,0.5s0.5,0.7,0.5,1.2v5.7c0,0.2-0.1,0.3-0.2,0.4s-0.2,0.2-0.4,0.2s-0.3-0.1-0.4-0.2s-0.2-0.2-0.2-0.4v-2.9h-3.4
		v2.9c0,0.2-0.1,0.3-0.2,0.4S29.5,220.6,29.4,220.6z M29.9,216.1h3.4v-1.7c0-0.2-0.1-0.3-0.2-0.4s-0.2-0.2-0.4-0.2h-2.3
		c-0.2,0-0.3,0.1-0.4,0.2s-0.2,0.2-0.2,0.4V216.1z"/>
	<path class="st2" d="M40.4,220.6c-0.5,0-0.9-0.2-1.2-0.5s-0.5-0.7-0.5-1.2v-4.6c0-0.5,0.2-0.9,0.5-1.2s0.7-0.5,1.2-0.5h2.3
		c0.5,0,0.9,0.2,1.2,0.5s0.5,0.7,0.5,1.2c0,0.2-0.1,0.3-0.2,0.4s-0.2,0.2-0.4,0.2s-0.3-0.1-0.4-0.2s-0.2-0.2-0.2-0.4
		s-0.1-0.3-0.2-0.4s-0.2-0.2-0.4-0.2h-2.3c-0.2,0-0.3,0.1-0.4,0.2s-0.2,0.2-0.2,0.4v4.6c0,0.2,0.1,0.3,0.2,0.4s0.2,0.2,0.4,0.2h2.3
		c0.2,0,0.3-0.1,0.4-0.2s0.2-0.2,0.2-0.4v-1.7h-0.6c-0.2,0-0.3-0.1-0.4-0.2s-0.2-0.2-0.2-0.4s0.1-0.3,0.2-0.4s0.2-0.2,0.4-0.2h1.1
		c0.2,0,0.3,0.1,0.4,0.2s0.2,0.2,0.2,0.4v2.3c0,0.5-0.2,0.9-0.5,1.2s-0.7,0.5-1.2,0.5H40.4z"/>
	<path class="st2" d="M49.1,213.8c-0.2,0-0.3-0.1-0.4-0.2s-0.2-0.2-0.2-0.4s0.1-0.3,0.2-0.4s0.2-0.2,0.4-0.2h4.6
		c0.2,0,0.3,0.1,0.4,0.2s0.2,0.2,0.2,0.4s-0.1,0.3-0.2,0.4s-0.2,0.2-0.4,0.2h-1.7v6.3c0,0.2-0.1,0.3-0.2,0.4s-0.2,0.2-0.4,0.2
		s-0.3-0.1-0.4-0.2s-0.2-0.2-0.2-0.4v-6.3H49.1z"/>
	<path class="st2" d="M62.4,220.6h-2.3c-0.5,0-0.9-0.2-1.2-0.5s-0.5-0.7-0.5-1.2c0-0.2,0.1-0.3,0.2-0.4s0.2-0.2,0.4-0.2
		s0.3,0.1,0.4,0.2s0.2,0.2,0.2,0.4s0.1,0.3,0.2,0.4s0.2,0.2,0.4,0.2h2.3c0.2,0,0.3-0.1,0.4-0.2s0.2-0.2,0.2-0.4v-1.1
		c0-0.2-0.1-0.3-0.2-0.4s-0.2-0.2-0.4-0.2h-1.1c-0.2,0-0.3-0.1-0.4-0.2s-0.2-0.2-0.2-0.4s0.1-0.3,0.2-0.4s0.2-0.2,0.4-0.2h1.1
		c0.2,0,0.3-0.1,0.4-0.2s0.2-0.2,0.2-0.4v-1.1c0-0.2-0.1-0.3-0.2-0.4s-0.2-0.2-0.4-0.2h-2.3c-0.2,0-0.3,0.1-0.4,0.2
		s-0.2,0.2-0.2,0.4s-0.1,0.3-0.2,0.4s-0.2,0.2-0.4,0.2s-0.3-0.1-0.4-0.2s-0.2-0.2-0.2-0.4c0-0.5,0.2-0.9,0.5-1.2s0.7-0.5,1.2-0.5
		h2.3c0.5,0,0.9,0.2,1.2,0.5s0.5,0.7,0.5,1.2v1.1c0,0.5-0.2,0.9-0.5,1.2c0.3,0.3,0.5,0.6,0.5,1.1v1.1c0,0.5-0.2,0.9-0.5,1.2
		S62.8,220.6,62.4,220.6z"/>
	<path class="st2" d="M69.4,219.1v0.9c0,0.2-0.1,0.3-0.2,0.4s-0.2,0.2-0.4,0.2s-0.3-0.1-0.4-0.2s-0.2-0.2-0.2-0.4v-1.1
		c0-0.2,0.1-0.3,0.2-0.4l1.9-1.9l-1.9-1.9c-0.1-0.1-0.2-0.2-0.2-0.4v-1.1c0-0.2,0.1-0.3,0.2-0.4s0.2-0.2,0.4-0.2s0.3,0.1,0.4,0.2
		s0.2,0.2,0.2,0.4v0.9l1.7,1.7l1.7-1.7v-0.9c0-0.2,0.1-0.3,0.2-0.4s0.2-0.2,0.4-0.2s0.3,0.1,0.4,0.2s0.2,0.2,0.2,0.4v1.1
		c0,0.2-0.1,0.3-0.2,0.4l-1.9,1.9l1.9,1.9c0.1,0.1,0.2,0.2,0.2,0.4v1.1c0,0.2-0.1,0.3-0.2,0.4s-0.2,0.2-0.4,0.2s-0.3-0.1-0.4-0.2
		s-0.2-0.2-0.2-0.4v-0.9l-1.7-1.7L69.4,219.1z"/>
	<path class="st2" d="M78.6,220.6c-0.2,0-0.3-0.1-0.4-0.2s-0.2-0.2-0.2-0.4v-6.9c0-0.2,0.1-0.3,0.2-0.4s0.2-0.2,0.4-0.2h3.4
		c0.5,0,0.9,0.2,1.2,0.5s0.5,0.7,0.5,1.2v1.1c0,0.5-0.2,0.9-0.5,1.2c0.3,0.3,0.5,0.6,0.5,1.1v1.1c0,0.5-0.2,0.9-0.5,1.2
		s-0.7,0.5-1.2,0.5H78.6z M79.2,216.1h2.9c0.2,0,0.3-0.1,0.4-0.2s0.2-0.2,0.2-0.4v-1.1c0-0.2-0.1-0.3-0.2-0.4s-0.2-0.2-0.4-0.2h-2.9
		V216.1z M79.2,219.5h2.9c0.2,0,0.3-0.1,0.4-0.2s0.2-0.2,0.2-0.4v-1.1c0-0.2-0.1-0.3-0.2-0.4s-0.2-0.2-0.4-0.2h-2.9V219.5z"/>
	<path class="st2" d="M91.9,220.6c-0.5,0-0.9-0.2-1.2-0.5c-0.3,0.3-0.6,0.5-1.1,0.5c-0.5,0-0.9-0.2-1.2-0.5s-0.5-0.7-0.5-1.2v-5.7
		c0-0.2,0.1-0.3,0.2-0.4s0.2-0.2,0.4-0.2s0.3,0.1,0.4,0.2s0.2,0.2,0.2,0.4v5.7c0,0.2,0.1,0.3,0.2,0.4s0.2,0.2,0.4,0.2
		s0.3-0.1,0.4-0.2s0.2-0.2,0.2-0.4v-2.3c0-0.2,0.1-0.3,0.2-0.4s0.2-0.2,0.4-0.2s0.3,0.1,0.4,0.2s0.2,0.2,0.2,0.4v2.3
		c0,0.2,0.1,0.3,0.2,0.4s0.2,0.2,0.4,0.2s0.3-0.1,0.4-0.2s0.2-0.2,0.2-0.4v-5.7c0-0.2,0.1-0.3,0.2-0.4s0.2-0.2,0.4-0.2
		s0.3,0.1,0.4,0.2s0.2,0.2,0.2,0.4v5.7c0,0.5-0.2,0.9-0.5,1.2S92.4,220.6,91.9,220.6z"/>
	<path class="st2" d="M101.8,220.6h-2.3c-0.5,0-0.9-0.2-1.2-0.5s-0.5-0.7-0.5-1.2c0-0.2,0.1-0.3,0.2-0.4s0.2-0.2,0.4-0.2
		s0.3,0.1,0.4,0.2s0.2,0.2,0.2,0.4s0.1,0.3,0.2,0.4s0.2,0.2,0.4,0.2h2.3c0.2,0,0.3-0.1,0.4-0.2s0.2-0.2,0.2-0.4v-1.1
		c0-0.2-0.1-0.3-0.2-0.4s-0.2-0.2-0.4-0.2h-1.1c-0.2,0-0.3-0.1-0.4-0.2s-0.2-0.2-0.2-0.4s0.1-0.3,0.2-0.4s0.2-0.2,0.4-0.2h1.1
		c0.2,0,0.3-0.1,0.4-0.2s0.2-0.2,0.2-0.4v-1.1c0-0.2-0.1-0.3-0.2-0.4s-0.2-0.2-0.4-0.2h-2.3c-0.2,0-0.3,0.1-0.4,0.2
		s-0.2,0.2-0.2,0.4s-0.1,0.3-0.2,0.4s-0.2,0.2-0.4,0.2s-0.3-0.1-0.4-0.2s-0.2-0.2-0.2-0.4c0-0.5,0.2-0.9,0.5-1.2s0.7-0.5,1.2-0.5
		h2.3c0.5,0,0.9,0.2,1.2,0.5s0.5,0.7,0.5,1.2v1.1c0,0.5-0.2,0.9-0.5,1.2c0.3,0.3,0.5,0.6,0.5,1.1v1.1c0,0.5-0.2,0.9-0.5,1.2
		S102.2,220.6,101.8,220.6z"/>
	<path class="st2" d="M108.2,220.6c-0.2,0-0.3-0.1-0.4-0.2s-0.2-0.2-0.2-0.4s0.1-0.3,0.2-0.4l4.4-4.4v-1.5h-4
		c-0.2,0-0.3-0.1-0.4-0.2s-0.2-0.2-0.2-0.4s0.1-0.3,0.2-0.4s0.2-0.2,0.4-0.2h4.6c0.2,0,0.3,0.1,0.4,0.2s0.2,0.2,0.2,0.4v2.3
		c0,0.2-0.1,0.3-0.2,0.4l-4.6,4.6C108.5,220.6,108.4,220.6,108.2,220.6z"/>
	<path class="st2" d="M118.1,214.9c-0.2,0-0.3-0.1-0.4-0.2s-0.2-0.2-0.2-0.4c0-0.5,0.2-0.9,0.5-1.2s0.7-0.5,1.2-0.5h2.3
		c0.5,0,0.9,0.2,1.2,0.5s0.5,0.7,0.5,1.2v1.1c0,0.2-0.1,0.3-0.2,0.4l-3.6,3.6h3.2c0.2,0,0.3,0.1,0.4,0.2s0.2,0.2,0.2,0.4
		s-0.1,0.3-0.2,0.4s-0.2,0.2-0.4,0.2h-4.6c-0.2,0-0.3-0.1-0.4-0.2s-0.2-0.2-0.2-0.4s0.1-0.3,0.2-0.4l4.4-4.4v-0.9
		c0-0.2-0.1-0.3-0.2-0.4s-0.2-0.2-0.4-0.2h-2.3c-0.2,0-0.3,0.1-0.4,0.2s-0.2,0.2-0.2,0.4s-0.1,0.3-0.2,0.4S118.2,214.9,118.1,214.9z
		"/>
	<path class="st2" d="M129.9,216.6l3.1,3c0.1,0.1,0.2,0.2,0.2,0.4s-0.1,0.3-0.2,0.4s-0.2,0.2-0.4,0.2s-0.3-0.1-0.4-0.2l-3-3.1
		l-0.6,0.6v2.1c0,0.2-0.1,0.3-0.2,0.4s-0.2,0.2-0.4,0.2c-0.2,0-0.3-0.1-0.4-0.2s-0.2-0.2-0.2-0.4v-6.9c0-0.2,0.1-0.3,0.2-0.4
		s0.2-0.2,0.4-0.2c0.2,0,0.3,0.1,0.4,0.2s0.2,0.2,0.2,0.4v3.2l3.6-3.6c0.1-0.1,0.2-0.2,0.4-0.2s0.3,0.1,0.4,0.2s0.2,0.2,0.2,0.4
		s-0.1,0.3-0.2,0.4L129.9,216.6z"/>
	<path class="st2" d="M137.2,218.9c0-0.2,0.1-0.3,0.2-0.4l4.4-4.4v-0.3h-4c-0.2,0-0.3-0.1-0.4-0.2s-0.2-0.2-0.2-0.4s0.1-0.3,0.2-0.4
		s0.2-0.2,0.4-0.2h4.6c0.2,0,0.3,0.1,0.4,0.2s0.2,0.2,0.2,0.4v1.1c0,0.2-0.1,0.3-0.2,0.4l-4.4,4.4v0.4h4c0.2,0,0.3,0.1,0.4,0.2
		s0.2,0.2,0.2,0.4s-0.1,0.3-0.2,0.4s-0.2,0.2-0.4,0.2h-4.6c-0.2,0-0.3-0.1-0.4-0.2s-0.2-0.2-0.2-0.4V218.9z"/>
	<path class="st2" d="M13.1,230.2h-2.9v2.3h4c0.2,0,0.3,0.1,0.4,0.2c0.1,0.1,0.2,0.2,0.2,0.4s-0.1,0.3-0.2,0.4
		c-0.1,0.1-0.2,0.2-0.4,0.2H9.6c-0.2,0-0.3-0.1-0.4-0.2s-0.2-0.2-0.2-0.4v-6.9c0-0.2,0.1-0.3,0.2-0.4s0.2-0.2,0.4-0.2h4.6
		c0.2,0,0.3,0.1,0.4,0.2c0.1,0.1,0.2,0.2,0.2,0.4s-0.1,0.3-0.2,0.4c-0.1,0.1-0.2,0.2-0.4,0.2h-4v2.3h2.9c0.2,0,0.3,0.1,0.4,0.2
		c0.1,0.1,0.2,0.2,0.2,0.4s-0.1,0.3-0.2,0.4C13.4,230.1,13.2,230.2,13.1,230.2z"/>
	<path class="st2" d="M21.2,229.9l-2.1-2.1c-0.1-0.1-0.2-0.2-0.2-0.4v-1.1c0-0.2,0.1-0.3,0.2-0.4s0.2-0.2,0.4-0.2s0.3,0.1,0.4,0.2
		s0.2,0.2,0.2,0.4v0.9l1.7,1.7l1.7-1.7v-0.9c0-0.2,0.1-0.3,0.2-0.4s0.2-0.2,0.4-0.2s0.3,0.1,0.4,0.2s0.2,0.2,0.2,0.4v1.1
		c0,0.2-0.1,0.3-0.2,0.4l-2.1,2.1v3.2c0,0.2-0.1,0.3-0.2,0.4s-0.2,0.2-0.4,0.2s-0.3-0.1-0.4-0.2s-0.2-0.2-0.2-0.4V229.9z"/>
	<path class="st2" d="M32.8,233.6h-2.3c-0.5,0-0.9-0.2-1.2-0.5s-0.5-0.7-0.5-1.2c0-0.2,0.1-0.3,0.2-0.4s0.2-0.2,0.4-0.2
		s0.3,0.1,0.4,0.2s0.2,0.2,0.2,0.4s0.1,0.3,0.2,0.4s0.2,0.2,0.4,0.2h2.3c0.2,0,0.3-0.1,0.4-0.2s0.2-0.2,0.2-0.4v-5.7
		c0-0.2,0.1-0.3,0.2-0.4s0.2-0.2,0.4-0.2s0.3,0.1,0.4,0.2s0.2,0.2,0.2,0.4v5.7c0,0.5-0.2,0.9-0.5,1.2S33.2,233.6,32.8,233.6z"/>
	<path class="st2" d="M41.5,233.6c-0.2,0-0.3-0.1-0.4-0.2l-2.3-2.3c-0.1-0.1-0.2-0.2-0.2-0.4v-4.6c0-0.2,0.1-0.3,0.2-0.4
		s0.2-0.2,0.4-0.2s0.3,0.1,0.4,0.2s0.2,0.2,0.2,0.4v4l1.7,1.7l1.7-1.7v-4c0-0.2,0.1-0.3,0.2-0.4s0.2-0.2,0.4-0.2s0.3,0.1,0.4,0.2
		s0.2,0.2,0.2,0.4v4.6c0,0.2-0.1,0.3-0.2,0.4l-2.3,2.3C41.8,233.6,41.7,233.6,41.5,233.6z"/>
	<path class="st2" d="M49.1,233.6c-0.2,0-0.3-0.1-0.4-0.2s-0.2-0.2-0.2-0.4s0.1-0.3,0.2-0.4l4.4-4.4v-1.5h-4c-0.2,0-0.3-0.1-0.4-0.2
		s-0.2-0.2-0.2-0.4s0.1-0.3,0.2-0.4s0.2-0.2,0.4-0.2h4.6c0.2,0,0.3,0.1,0.4,0.2s0.2,0.2,0.2,0.4v2.3c0,0.2-0.1,0.3-0.2,0.4l-4.6,4.6
		C49.4,233.6,49.2,233.6,49.1,233.6z"/>
	<path class="st2" d="M58.9,233.6c-0.2,0-0.3-0.1-0.4-0.2s-0.2-0.2-0.2-0.4v-5.7c0-0.5,0.2-0.9,0.5-1.2s0.7-0.5,1.2-0.5h2.3
		c0.5,0,0.9,0.2,1.2,0.5s0.5,0.7,0.5,1.2v5.7c0,0.2-0.1,0.3-0.2,0.4s-0.2,0.2-0.4,0.2s-0.3-0.1-0.4-0.2s-0.2-0.2-0.2-0.4v-2.9h-3.4
		v2.9c0,0.2-0.1,0.3-0.2,0.4S59.1,233.6,58.9,233.6z M59.5,229.1h3.4v-1.7c0-0.2-0.1-0.3-0.2-0.4s-0.2-0.2-0.4-0.2h-2.3
		c-0.2,0-0.3,0.1-0.4,0.2s-0.2,0.2-0.2,0.4V229.1z"/>
	<path class="st2" d="M69.9,233.6c-0.5,0-0.9-0.2-1.2-0.5s-0.5-0.7-0.5-1.2v-4.6c0-0.5,0.2-0.9,0.5-1.2s0.7-0.5,1.2-0.5h2.3
		c0.2,0,0.3,0.1,0.4,0.2s0.2,0.2,0.2,0.4s-0.1,0.3-0.2,0.4s-0.2,0.2-0.4,0.2h-2.3c-0.2,0-0.3,0.1-0.4,0.2s-0.2,0.2-0.2,0.4v1.7h2.9
		c0.5,0,0.9,0.2,1.2,0.5s0.5,0.7,0.5,1.3v1.1c0,0.5-0.2,0.9-0.5,1.2s-0.7,0.5-1.2,0.5H69.9z M69.4,230.2v1.7c0,0.2,0.1,0.3,0.2,0.4
		s0.2,0.2,0.4,0.2h2.3c0.2,0,0.3-0.1,0.4-0.2s0.2-0.2,0.2-0.4v-1.1c0-0.2-0.1-0.3-0.2-0.4s-0.2-0.2-0.4-0.2H69.4z"/>
	<path class="st2" d="M82.1,233.6h-2.3c-0.5,0-0.9-0.2-1.2-0.5s-0.5-0.7-0.5-1.2v-5.7c0-0.2,0.1-0.3,0.2-0.4s0.2-0.2,0.4-0.2
		s0.3,0.1,0.4,0.2s0.2,0.2,0.2,0.4v5.7c0,0.2,0.1,0.3,0.2,0.4s0.2,0.2,0.4,0.2h2.3c0.2,0,0.3-0.1,0.4-0.2s0.2-0.2,0.2-0.4v-5.7
		c0-0.2,0.1-0.3,0.2-0.4s0.2-0.2,0.4-0.2s0.3,0.1,0.4,0.2s0.2,0.2,0.2,0.4v5.7c0,0.5-0.2,0.9-0.5,1.2S82.5,233.6,82.1,233.6z"/>
	<path class="st2" d="M91.9,230.2h-2.9v2.3c0,0.5-0.1,0.9-0.2,1s-0.2,0.2-0.4,0.2s-0.3-0.1-0.4-0.2s-0.2-0.2-0.2-0.4v-6.9
		c0-0.2,0.1-0.3,0.2-0.4s0.2-0.2,0.4-0.2h4.6c0.2,0,0.3,0.1,0.4,0.2s0.2,0.2,0.2,0.4s-0.1,0.3-0.2,0.4s-0.2,0.2-0.4,0.2h-4v2.3h2.9
		c0.2,0,0.3,0.1,0.4,0.2s0.2,0.2,0.2,0.4s-0.1,0.3-0.2,0.4S92.1,230.2,91.9,230.2z"/>
	<path class="st2" d="M99.5,233.6c-0.5,0-0.9-0.2-1.2-0.5s-0.5-0.7-0.5-1.2v-4.6c0-0.5,0.2-0.9,0.5-1.2s0.7-0.5,1.2-0.5h2.3
		c0.5,0,0.9,0.2,1.2,0.5s0.5,0.7,0.5,1.2c0,0.2-0.1,0.3-0.2,0.4s-0.2,0.2-0.4,0.2s-0.3-0.1-0.4-0.2s-0.2-0.2-0.2-0.4
		s-0.1-0.3-0.2-0.4s-0.2-0.2-0.4-0.2h-2.3c-0.2,0-0.3,0.1-0.4,0.2s-0.2,0.2-0.2,0.4v4.6c0,0.2,0.1,0.3,0.2,0.4s0.2,0.2,0.4,0.2h2.3
		c0.2,0,0.3-0.1,0.4-0.2s0.2-0.2,0.2-0.4s0.1-0.3,0.2-0.4s0.2-0.2,0.4-0.2s0.3,0.1,0.4,0.2s0.2,0.2,0.2,0.4c0,0.5-0.2,0.9-0.5,1.2
		s-0.7,0.5-1.2,0.5H99.5z"/>
	<path class="st2" d="M108.2,233.6c-0.2,0-0.3-0.1-0.4-0.2s-0.2-0.2-0.2-0.4v-6.9c0-0.2,0.1-0.3,0.2-0.4s0.2-0.2,0.4-0.2h3.4
		c0.5,0,0.9,0.2,1.2,0.5s0.5,0.7,0.5,1.2v1.1c0,0.5-0.2,0.9-0.5,1.2c0.3,0.3,0.5,0.6,0.5,1.1v1.1c0,0.5-0.2,0.9-0.5,1.2
		s-0.7,0.5-1.2,0.5H108.2z M108.8,229.1h2.9c0.2,0,0.3-0.1,0.4-0.2s0.2-0.2,0.2-0.4v-1.1c0-0.2-0.1-0.3-0.2-0.4s-0.2-0.2-0.4-0.2
		h-2.9V229.1z M108.8,232.5h2.9c0.2,0,0.3-0.1,0.4-0.2s0.2-0.2,0.2-0.4v-1.1c0-0.2-0.1-0.3-0.2-0.4s-0.2-0.2-0.4-0.2h-2.9V232.5z"/>
	<path class="st2" d="M119.2,233.6c-0.2,0-0.3-0.1-0.4-0.2s-0.2-0.2-0.2-0.4s0.1-0.3,0.2-0.4s0.2-0.2,0.4-0.2h0.6v-5.7h-0.6
		c-0.2,0-0.3-0.1-0.4-0.2s-0.2-0.2-0.2-0.4s0.1-0.3,0.2-0.4s0.2-0.2,0.4-0.2h2.3c0.2,0,0.3,0.1,0.4,0.2s0.2,0.2,0.2,0.4
		s-0.1,0.3-0.2,0.4s-0.2,0.2-0.4,0.2h-0.6v5.7h0.6c0.2,0,0.3,0.1,0.4,0.2s0.2,0.2,0.2,0.4s-0.1,0.3-0.2,0.4s-0.2,0.2-0.4,0.2H119.2z
		"/>
	<path class="st2" d="M128.5,232.1v0.9c0,0.2-0.1,0.3-0.2,0.4s-0.2,0.2-0.4,0.2c-0.2,0-0.3-0.1-0.4-0.2s-0.2-0.2-0.2-0.4v-1.1
		c0-0.2,0.1-0.3,0.2-0.4l1.9-1.9l-1.9-1.9c-0.1-0.1-0.2-0.2-0.2-0.4v-1.1c0-0.2,0.1-0.3,0.2-0.4s0.2-0.2,0.4-0.2
		c0.2,0,0.3,0.1,0.4,0.2s0.2,0.2,0.2,0.4v0.9l1.7,1.7l1.7-1.7v-0.9c0-0.2,0.1-0.3,0.2-0.4s0.2-0.2,0.4-0.2s0.3,0.1,0.4,0.2
		s0.2,0.2,0.2,0.4v1.1c0,0.2-0.1,0.3-0.2,0.4l-1.9,1.9l1.9,1.9c0.1,0.1,0.2,0.2,0.2,0.4v1.1c0,0.2-0.1,0.3-0.2,0.4s-0.2,0.2-0.4,0.2
		s-0.3-0.1-0.4-0.2s-0.2-0.2-0.2-0.4v-0.9l-1.7-1.7L128.5,232.1z"/>
	<path class="st2" d="M138.9,230.2c-0.5,0-1-0.2-1.3-0.5s-0.5-0.7-0.5-1.3v-1.1c0-0.5,0.2-0.9,0.5-1.2s0.7-0.5,1.3-0.5h2.3
		c0.5,0,0.9,0.2,1.2,0.5s0.5,0.7,0.5,1.2c0,0.2-0.1,0.3-0.2,0.4s-0.2,0.2-0.4,0.2s-0.3-0.1-0.4-0.2s-0.2-0.2-0.2-0.4
		s-0.1-0.3-0.2-0.4s-0.2-0.2-0.4-0.2h-2.3c-0.2,0-0.3,0.1-0.4,0.2s-0.2,0.2-0.2,0.4v1.1c0,0.2,0.1,0.3,0.2,0.4s0.2,0.2,0.4,0.2h2.3
		c0.5,0,0.9,0.2,1.2,0.5c0.3,0.3,0.5,0.7,0.5,1.2v1.1c0,0.5-0.2,1-0.5,1.3s-0.7,0.5-1.2,0.5h-2.3c-0.5,0-0.9-0.2-1.2-0.5
		s-0.5-0.7-0.5-1.2c0-0.2,0.1-0.3,0.2-0.4s0.2-0.2,0.4-0.2s0.3,0.1,0.4,0.2s0.2,0.2,0.2,0.4s0.1,0.3,0.2,0.4s0.2,0.2,0.4,0.2h2.3
		c0.2,0,0.3-0.1,0.4-0.2s0.2-0.2,0.2-0.4v-1.1c0-0.2-0.1-0.3-0.2-0.4s-0.2-0.2-0.4-0.2H138.9z"/>
</g>
<circle class="st2" cx="22.9" cy="22.9" r="6.2"/>
<path class="st2" d="M37.4,22.9c0-6.3-4-11.6-9.6-13.6c0,0,0,0,0,0c0,0,0,0,0,0c0,0,0,0,0,0l0,0C26.7,9,25.4,9.6,25,10.7
	c-0.4,1.1,0.2,2.4,1.3,2.8c0,0,0,0,0,0l0,0c3.9,1.4,6.7,5.1,6.7,9.5c0,4.4-2.8,8.1-6.7,9.5l0,0l0,0c-1.1,0.4-1.7,1.6-1.3,2.8
	c0.4,1.1,1.6,1.7,2.8,1.3c0,0,0.1,0,0.1-0.1C33.4,34.4,37.4,29.2,37.4,22.9z"/>
<path class="st2" d="M8.5,22.9c0-6.3,4-11.6,9.6-13.6c0,0,0,0,0,0c0,0,0,0,0,0c0,0,0,0,0,0l0,0c1.1-0.4,2.4,0.2,2.8,1.3
	c0.4,1.1-0.2,2.4-1.3,2.8c0,0,0,0,0,0l0,0c-3.9,1.4-6.7,5.1-6.7,9.5c0,4.4,2.8,8.1,6.7,9.5l0,0l0,0c1.1,0.4,1.7,1.6,1.3,2.8
	c-0.4,1.1-1.6,1.7-2.8,1.3c0,0-0.1,0-0.1-0.1C12.5,34.4,8.5,29.2,8.5,22.9z"/>
<circle class="st2" cx="130.1" cy="22.9" r="6.2"/>
<path class="st2" d="M144.6,22.9c0-6.3-4-11.6-9.6-13.6c0,0,0,0,0,0c0,0,0,0,0,0c0,0,0,0,0,0l0,0c-1.1-0.4-2.4,0.2-2.8,1.3
	c-0.4,1.1,0.2,2.4,1.3,2.8c0,0,0,0,0,0l0,0c3.9,1.4,6.7,5.1,6.7,9.5c0,4.4-2.8,8.1-6.7,9.5l0,0l0,0c-1.1,0.4-1.7,1.6-1.3,2.8
	c0.4,1.1,1.6,1.7,2.8,1.3c0,0,0.1,0,0.1-0.1C140.6,34.4,144.6,29.2,144.6,22.9z"/>
<path class="st2" d="M115.7,22.9c0-6.3,4-11.6,9.6-13.6c0,0,0,0,0,0c0,0,0,0,0,0c0,0,0,0,0,0l0,0c1.1-0.4,2.4,0.2,2.8,1.3
	c0.4,1.1-0.2,2.4-1.3,2.8c0,0,0,0,0,0l0,0c-3.9,1.4-6.7,5.1-6.7,9.5c0,4.4,2.8,8.1,6.7,9.5l0,0l0,0c1.1,0.4,1.7,1.6,1.3,2.8
	c-0.4,1.1-1.6,1.7-2.8,1.3c0,0-0.1,0-0.1-0.1C119.7,34.4,115.7,29.2,115.7,22.9z"/>
<circle class="st2" cx="130.1" cy="130.1" r="6.2"/>
<path class="st2" d="M144.5,130.1c0-6.3-4-11.6-9.6-13.6c0,0,0,0,0,0c0,0,0,0,0,0c0,0,0,0,0,0l0,0c-1.1-0.4-2.4,0.2-2.8,1.3
	c-0.4,1.1,0.2,2.4,1.3,2.8c0,0,0,0,0,0l0,0c3.9,1.4,6.7,5.1,6.7,9.5c0,4.4-2.8,8.1-6.7,9.5l0,0l0,0c-1.1,0.4-1.7,1.6-1.3,2.8
	c0.4,1.1,1.6,1.7,2.8,1.3c0,0,0.1,0,0.1-0.1C140.6,141.6,144.5,136.4,144.5,130.1z"/>
<path class="st2" d="M115.7,130.1c0-6.3,4-11.6,9.6-13.6c0,0,0,0,0,0c0,0,0,0,0,0c0,0,0,0,0,0l0,0c1.1-0.4,2.4,0.2,2.8,1.3
	c0.4,1.1-0.2,2.4-1.3,2.8c0,0,0,0,0,0l0,0c-3.9,1.4-6.7,5.1-6.7,9.5c0,4.4,2.8,8.1,6.7,9.5l0,0l0,0c1.1,0.4,1.7,1.6,1.3,2.8
	c-0.4,1.1-1.6,1.7-2.8,1.3c0,0-0.1,0-0.1-0.1C119.6,141.6,115.7,136.4,115.7,130.1z"/>
</svg>
