<?xml version="1.0" encoding="utf-8"?>
<!-- Generator: Adobe Illustrator 22.1.0, SVG Export Plug-In . SVG Version: 6.00 Build 0)  -->
<svg version="1.1" id="all" xmlns="http://www.w3.org/2000/svg" xmlns:xlink="http://www.w3.org/1999/xlink" x="0px" y="0px"
	 viewBox="0 0 153 242.6" style="enable-background:new 0 0 153 242.6;" xml:space="preserve">
<style type="text/css">
	.st0{fill:none;}
	.st1{fill:#010101;}
	.st2{fill:#EF4438;}
</style>
<rect class="st0" width="153" height="242.6"/>
<g>
	<path class="st1" d="M10.8,194.6c-0.5,0-0.9-0.2-1.2-0.5c-0.3-0.3-0.5-0.7-0.5-1.2v-4.6c0-0.5,0.2-0.9,0.5-1.2
		c0.3-0.3,0.7-0.5,1.2-0.5h2.3c0.5,0,0.9,0.2,1.2,0.5c0.3,0.3,0.5,0.7,0.5,1.2c0,0.2-0.1,0.3-0.2,0.4c-0.1,0.1-0.2,0.2-0.4,0.2
		s-0.3-0.1-0.4-0.2c-0.1-0.1-0.2-0.2-0.2-0.4s-0.1-0.3-0.2-0.4c-0.1-0.1-0.2-0.2-0.4-0.2h-2.3c-0.2,0-0.3,0.1-0.4,0.2
		c-0.1,0.1-0.2,0.2-0.2,0.4v4.6c0,0.2,0.1,0.3,0.2,0.4c0.1,0.1,0.2,0.2,0.4,0.2h2.3c0.2,0,0.3-0.1,0.4-0.2c0.1-0.1,0.2-0.2,0.2-0.4
		v-1.7h-0.6c-0.2,0-0.3-0.1-0.4-0.2c-0.1-0.1-0.2-0.2-0.2-0.4s0.1-0.3,0.2-0.4c0.1-0.1,0.2-0.2,0.4-0.2h1.1c0.2,0,0.3,0.1,0.4,0.2
		c0.1,0.1,0.2,0.2,0.2,0.4v2.3c0,0.5-0.2,0.9-0.5,1.2c-0.3,0.3-0.7,0.5-1.2,0.5H10.8z"/>
	<path class="st1" d="M19.5,194.6c-0.2,0-0.3-0.1-0.4-0.2c-0.1-0.1-0.2-0.2-0.2-0.4v-5.7c0-0.5,0.2-0.9,0.5-1.2
		c0.3-0.3,0.7-0.5,1.2-0.5h2.3c0.5,0,0.9,0.2,1.2,0.5s0.5,0.7,0.5,1.2v5.7c0,0.2-0.1,0.3-0.2,0.4s-0.2,0.2-0.4,0.2s-0.3-0.1-0.4-0.2
		s-0.2-0.2-0.2-0.4v-2.9h-3.4v2.9c0,0.2-0.1,0.3-0.2,0.4S19.7,194.6,19.5,194.6z M20.1,190.1h3.4v-1.7c0-0.2-0.1-0.3-0.2-0.4
		s-0.2-0.2-0.4-0.2h-2.3c-0.2,0-0.3,0.1-0.4,0.2s-0.2,0.2-0.2,0.4V190.1z"/>
	<path class="st1" d="M31.7,194.6c-0.2,0-0.3-0.1-0.4-0.2l-2.3-2.3c-0.1-0.1-0.2-0.2-0.2-0.4v-4.6c0-0.2,0.1-0.3,0.2-0.4
		s0.2-0.2,0.4-0.2s0.3,0.1,0.4,0.2s0.2,0.2,0.2,0.4v4l1.7,1.7l1.7-1.7v-4c0-0.2,0.1-0.3,0.2-0.4s0.2-0.2,0.4-0.2s0.3,0.1,0.4,0.2
		s0.2,0.2,0.2,0.4v4.6c0,0.2-0.1,0.3-0.2,0.4l-2.3,2.3C31.9,194.6,31.8,194.6,31.7,194.6z"/>
	<path class="st1" d="M39.2,194.6c-0.2,0-0.3-0.1-0.4-0.2s-0.2-0.2-0.2-0.4v-6.9c0-0.2,0.1-0.3,0.2-0.4s0.2-0.2,0.4-0.2h3.4
		c0.5,0,0.9,0.2,1.2,0.5s0.5,0.7,0.5,1.2v4.6c0,0.5-0.2,0.9-0.5,1.2s-0.7,0.5-1.2,0.5H39.2z M43.2,192.9v-4.6c0-0.2-0.1-0.3-0.2-0.4
		s-0.2-0.2-0.4-0.2h-2.9v5.7h2.9c0.2,0,0.3-0.1,0.4-0.2S43.2,193.1,43.2,192.9z"/>
	<path class="st1" d="M49.1,194.6c-0.2,0-0.3-0.1-0.4-0.2s-0.2-0.2-0.2-0.4v-6.9c0-0.2,0.1-0.3,0.2-0.4s0.2-0.2,0.4-0.2
		s0.3,0.1,0.4,0.2l1.9,1.9l1.9-1.9c0.1-0.1,0.2-0.2,0.4-0.2s0.3,0.1,0.4,0.2s0.2,0.2,0.2,0.4v6.9c0,0.2-0.1,0.3-0.2,0.4
		s-0.2,0.2-0.4,0.2s-0.3-0.1-0.4-0.2s-0.2-0.2-0.2-0.4v-5.5l-1.3,1.3c-0.1,0.1-0.2,0.2-0.4,0.2s-0.3-0.1-0.4-0.2l-1.3-1.3v5.5
		c0,0.2-0.1,0.3-0.2,0.4S49.2,194.6,49.1,194.6z"/>
	<path class="st1" d="M62.4,194.6h-2.3c-0.5,0-0.9-0.2-1.2-0.5s-0.5-0.7-0.5-1.2v-5.7c0-0.2,0.1-0.3,0.2-0.4s0.2-0.2,0.4-0.2
		s0.3,0.1,0.4,0.2s0.2,0.2,0.2,0.4v5.7c0,0.2,0.1,0.3,0.2,0.4s0.2,0.2,0.4,0.2h2.3c0.2,0,0.3-0.1,0.4-0.2s0.2-0.2,0.2-0.4v-5.7
		c0-0.2,0.1-0.3,0.2-0.4c0.1-0.1,0.2-0.2,0.4-0.2s0.3,0.1,0.4,0.2c0.1,0.1,0.2,0.2,0.2,0.4v5.7c0,0.5-0.2,0.9-0.5,1.2
		S62.8,194.6,62.4,194.6z"/>
	<path class="st1" d="M72.2,194.6c-0.5,0-0.9-0.2-1.2-0.5c-0.3,0.3-0.6,0.5-1.1,0.5c-0.5,0-0.9-0.2-1.2-0.5s-0.5-0.7-0.5-1.2v-5.7
		c0-0.2,0.1-0.3,0.2-0.4s0.2-0.2,0.4-0.2s0.3,0.1,0.4,0.2s0.2,0.2,0.2,0.4v5.7c0,0.2,0.1,0.3,0.2,0.4s0.2,0.2,0.4,0.2
		s0.3-0.1,0.4-0.2s0.2-0.2,0.2-0.4v-2.3c0-0.2,0.1-0.3,0.2-0.4s0.2-0.2,0.4-0.2s0.3,0.1,0.4,0.2s0.2,0.2,0.2,0.4v2.3
		c0,0.2,0.1,0.3,0.2,0.4s0.2,0.2,0.4,0.2s0.3-0.1,0.4-0.2s0.2-0.2,0.2-0.4v-5.7c0-0.2,0.1-0.3,0.2-0.4s0.2-0.2,0.4-0.2
		s0.3,0.1,0.4,0.2s0.2,0.2,0.2,0.4v5.7c0,0.5-0.2,0.9-0.5,1.2S72.7,194.6,72.2,194.6z"/>
	<path class="st1" d="M78.6,191.2c-0.2,0-0.3-0.1-0.4-0.2s-0.2-0.2-0.2-0.4v-3.4c0-0.2,0.1-0.3,0.2-0.4s0.2-0.2,0.4-0.2h4.6
		c0.2,0,0.3,0.1,0.4,0.2s0.2,0.2,0.2,0.4s-0.1,0.3-0.2,0.4s-0.2,0.2-0.4,0.2h-4v2.3h2.9c0.5,0,0.9,0.2,1.2,0.5s0.5,0.7,0.5,1.2v1.1
		c0,0.5-0.2,0.9-0.5,1.2s-0.7,0.5-1.2,0.5h-3.4c-0.2,0-0.3-0.1-0.4-0.2s-0.2-0.2-0.2-0.4s0.1-0.3,0.2-0.4c0.1-0.1,0.2-0.2,0.4-0.2
		h3.4c0.2,0,0.3-0.1,0.4-0.2s0.2-0.2,0.2-0.4v-1.1c0-0.2-0.1-0.3-0.2-0.4s-0.2-0.2-0.4-0.2H78.6z"/>
	<path class="st1" d="M88.5,194.6c-0.2,0-0.3-0.1-0.4-0.2c-0.1-0.1-0.2-0.2-0.2-0.4s0.1-0.3,0.2-0.4l4.4-4.4v-1.5h-4
		c-0.2,0-0.3-0.1-0.4-0.2c-0.1-0.1-0.2-0.2-0.2-0.4s0.1-0.3,0.2-0.4c0.1-0.1,0.2-0.2,0.4-0.2h4.6c0.2,0,0.3,0.1,0.4,0.2
		s0.2,0.2,0.2,0.4v2.3c0,0.2-0.1,0.3-0.2,0.4l-4.6,4.6C88.8,194.6,88.7,194.6,88.5,194.6z"/>
	<path class="st1" d="M100.3,190.6l3.1,3c0.1,0.1,0.2,0.2,0.2,0.4s-0.1,0.3-0.2,0.4s-0.2,0.2-0.4,0.2s-0.3-0.1-0.4-0.2l-3-3.1
		l-0.6,0.6v2.1c0,0.2-0.1,0.3-0.2,0.4s-0.2,0.2-0.4,0.2s-0.3-0.1-0.4-0.2s-0.2-0.2-0.2-0.4v-6.9c0-0.2,0.1-0.3,0.2-0.4
		s0.2-0.2,0.4-0.2s0.3,0.1,0.4,0.2s0.2,0.2,0.2,0.4v3.2l3.6-3.6c0.1-0.1,0.2-0.2,0.4-0.2s0.3,0.1,0.4,0.2s0.2,0.2,0.2,0.4
		s-0.1,0.3-0.2,0.4L100.3,190.6z"/>
	<path class="st1" d="M108.2,194.6c-0.2,0-0.3-0.1-0.4-0.2s-0.2-0.2-0.2-0.4v-6.9c0-0.2,0.1-0.3,0.2-0.4s0.2-0.2,0.4-0.2
		s0.3,0.1,0.4,0.2l1.9,1.9l1.9-1.9c0.1-0.1,0.2-0.2,0.4-0.2s0.3,0.1,0.4,0.2s0.2,0.2,0.2,0.4v6.9c0,0.2-0.1,0.3-0.2,0.4
		s-0.2,0.2-0.4,0.2s-0.3-0.1-0.4-0.2s-0.2-0.2-0.2-0.4v-5.5l-1.3,1.3c-0.1,0.1-0.2,0.2-0.4,0.2s-0.3-0.1-0.4-0.2l-1.3-1.3v5.5
		c0,0.2-0.1,0.3-0.2,0.4S108.4,194.6,108.2,194.6z"/>
	<path class="st1" d="M118.6,194.1c0,0.2-0.1,0.3-0.2,0.4s-0.2,0.2-0.4,0.2s-0.3-0.1-0.4-0.2s-0.2-0.2-0.2-0.4v-6.9
		c0-0.2,0.1-0.3,0.2-0.4s0.2-0.2,0.4-0.2h3.4c0.5,0,0.9,0.2,1.2,0.5s0.5,0.7,0.5,1.2v1.1c0,0.5-0.2,0.9-0.5,1.2s-0.7,0.5-1.2,0.5
		h-2.9V194.1z M118.6,190.1h2.9c0.2,0,0.3-0.1,0.4-0.2s0.2-0.2,0.2-0.4v-1.1c0-0.2-0.1-0.3-0.2-0.4s-0.2-0.2-0.4-0.2h-2.9V190.1z"/>
	<path class="st1" d="M129.7,190.9l-2.1-2.1c-0.1-0.1-0.2-0.2-0.2-0.4v-1.1c0-0.2,0.1-0.3,0.2-0.4s0.2-0.2,0.4-0.2
		c0.2,0,0.3,0.1,0.4,0.2s0.2,0.2,0.2,0.4v0.9l1.7,1.7l1.7-1.7v-0.9c0-0.2,0.1-0.3,0.2-0.4s0.2-0.2,0.4-0.2s0.3,0.1,0.4,0.2
		s0.2,0.2,0.2,0.4v1.1c0,0.2-0.1,0.3-0.2,0.4l-2.1,2.1v3.2c0,0.2-0.1,0.3-0.2,0.4s-0.2,0.2-0.4,0.2s-0.3-0.1-0.4-0.2
		s-0.2-0.2-0.2-0.4V190.9z"/>
	<path class="st1" d="M139.7,190.6l3.1,3c0.1,0.1,0.2,0.2,0.2,0.4s-0.1,0.3-0.2,0.4s-0.2,0.2-0.4,0.2s-0.3-0.1-0.4-0.2l-3-3.1
		l-0.6,0.6v2.1c0,0.2-0.1,0.3-0.2,0.4s-0.2,0.2-0.4,0.2s-0.3-0.1-0.4-0.2s-0.2-0.2-0.2-0.4v-6.9c0-0.2,0.1-0.3,0.2-0.4
		s0.2-0.2,0.4-0.2s0.3,0.1,0.4,0.2s0.2,0.2,0.2,0.4v3.2l3.6-3.6c0.1-0.1,0.2-0.2,0.4-0.2s0.3,0.1,0.4,0.2s0.2,0.2,0.2,0.4
		s-0.1,0.3-0.2,0.4L139.7,190.6z"/>
	<path class="st1" d="M9.6,207.6c-0.2,0-0.3-0.1-0.4-0.2s-0.2-0.2-0.2-0.4s0.1-0.3,0.2-0.4l4.4-4.4v-1.5h-4c-0.2,0-0.3-0.1-0.4-0.2
		s-0.2-0.2-0.2-0.4s0.1-0.3,0.2-0.4s0.2-0.2,0.4-0.2h4.6c0.2,0,0.3,0.1,0.4,0.2c0.1,0.1,0.2,0.2,0.2,0.4v2.3c0,0.2-0.1,0.3-0.2,0.4
		l-4.6,4.6C9.9,207.6,9.8,207.6,9.6,207.6z"/>
	<path class="st1" d="M22.9,204.2h-2.9v2.3h4c0.2,0,0.3,0.1,0.4,0.2s0.2,0.2,0.2,0.4s-0.1,0.3-0.2,0.4s-0.2,0.2-0.4,0.2h-4.6
		c-0.2,0-0.3-0.1-0.4-0.2c-0.1-0.1-0.2-0.2-0.2-0.4v-6.9c0-0.2,0.1-0.3,0.2-0.4c0.1-0.1,0.2-0.2,0.4-0.2h4.6c0.2,0,0.3,0.1,0.4,0.2
		s0.2,0.2,0.2,0.4s-0.1,0.3-0.2,0.4s-0.2,0.2-0.4,0.2h-4v2.3h2.9c0.2,0,0.3,0.1,0.4,0.2s0.2,0.2,0.2,0.4s-0.1,0.3-0.2,0.4
		S23.1,204.2,22.9,204.2z"/>
	<path class="st1" d="M29.9,206.5h4c0.2,0,0.3,0.1,0.4,0.2s0.2,0.2,0.2,0.4s-0.1,0.3-0.2,0.4s-0.2,0.2-0.4,0.2h-4.6
		c-0.2,0-0.3-0.1-0.4-0.2s-0.2-0.2-0.2-0.4v-6.9c0-0.2,0.1-0.3,0.2-0.4s0.2-0.2,0.4-0.2s0.3,0.1,0.4,0.2s0.2,0.2,0.2,0.4V206.5z"/>
	<path class="st1" d="M39.8,204.2h2.3v-4c0-0.2,0.1-0.3,0.2-0.4s0.2-0.2,0.4-0.2s0.3,0.1,0.4,0.2s0.2,0.2,0.2,0.4v4h0.6
		c0.2,0,0.3,0.1,0.4,0.2s0.2,0.2,0.2,0.4s-0.1,0.3-0.2,0.4s-0.2,0.2-0.4,0.2h-0.6v1.7c0,0.2-0.1,0.3-0.2,0.4s-0.2,0.2-0.4,0.2
		s-0.3-0.1-0.4-0.2s-0.2-0.2-0.2-0.4v-1.7h-2.9c-0.2,0-0.3-0.1-0.4-0.2s-0.2-0.2-0.2-0.4v-3.4c0-0.2,0.1-0.3,0.2-0.4
		s0.2-0.2,0.4-0.2s0.3,0.1,0.4,0.2s0.2,0.2,0.2,0.4V204.2z"/>
	<path class="st1" d="M50.2,207.6c-0.5,0-0.9-0.2-1.2-0.5s-0.5-0.7-0.5-1.2v-4.6c0-0.5,0.2-0.9,0.5-1.2s0.7-0.5,1.2-0.5h2.3
		c0.5,0,0.9,0.2,1.2,0.5s0.5,0.7,0.5,1.2c0,0.2-0.1,0.3-0.2,0.4s-0.2,0.2-0.4,0.2s-0.3-0.1-0.4-0.2s-0.2-0.2-0.2-0.4
		s-0.1-0.3-0.2-0.4s-0.2-0.2-0.4-0.2h-2.3c-0.2,0-0.3,0.1-0.4,0.2s-0.2,0.2-0.2,0.4v4.6c0,0.2,0.1,0.3,0.2,0.4s0.2,0.2,0.4,0.2h2.3
		c0.2,0,0.3-0.1,0.4-0.2s0.2-0.2,0.2-0.4s0.1-0.3,0.2-0.4s0.2-0.2,0.4-0.2s0.3,0.1,0.4,0.2s0.2,0.2,0.2,0.4c0,0.5-0.2,0.9-0.5,1.2
		s-0.7,0.5-1.2,0.5H50.2z"/>
	<path class="st1" d="M58.9,207.6c-0.2,0-0.3-0.1-0.4-0.2s-0.2-0.2-0.2-0.4v-5.7c0-0.5,0.2-0.9,0.5-1.2s0.7-0.5,1.2-0.5h2.3
		c0.5,0,0.9,0.2,1.2,0.5s0.5,0.7,0.5,1.2v5.7c0,0.2-0.1,0.3-0.2,0.4c-0.1,0.1-0.2,0.2-0.4,0.2s-0.3-0.1-0.4-0.2
		c-0.1-0.1-0.2-0.2-0.2-0.4v-2.9h-3.4v2.9c0,0.2-0.1,0.3-0.2,0.4S59.1,207.6,58.9,207.6z M59.5,203.1h3.4v-1.7
		c0-0.2-0.1-0.3-0.2-0.4s-0.2-0.2-0.4-0.2h-2.3c-0.2,0-0.3,0.1-0.4,0.2s-0.2,0.2-0.2,0.4V203.1z"/>
	<path class="st1" d="M69.9,207.6c-0.5,0-0.9-0.2-1.2-0.5s-0.5-0.7-0.5-1.2v-4.6c0-0.5,0.2-0.9,0.5-1.2s0.7-0.5,1.2-0.5h2.3
		c0.2,0,0.3,0.1,0.4,0.2s0.2,0.2,0.2,0.4s-0.1,0.3-0.2,0.4s-0.2,0.2-0.4,0.2h-2.3c-0.2,0-0.3,0.1-0.4,0.2s-0.2,0.2-0.2,0.4v1.7h2.9
		c0.5,0,0.9,0.2,1.2,0.5s0.5,0.7,0.5,1.3v1.1c0,0.5-0.2,0.9-0.5,1.2s-0.7,0.5-1.2,0.5H69.9z M69.4,204.2v1.7c0,0.2,0.1,0.3,0.2,0.4
		s0.2,0.2,0.4,0.2h2.3c0.2,0,0.3-0.1,0.4-0.2s0.2-0.2,0.2-0.4v-1.1c0-0.2-0.1-0.3-0.2-0.4s-0.2-0.2-0.4-0.2H69.4z"/>
	<path class="st1" d="M79.8,207.6c-0.2,0-0.3-0.1-0.4-0.2s-0.2-0.2-0.2-0.4s0.1-0.3,0.2-0.4s0.2-0.2,0.4-0.2h0.6v-5.7h-0.6
		c-0.2,0-0.3-0.1-0.4-0.2s-0.2-0.2-0.2-0.4s0.1-0.3,0.2-0.4s0.2-0.2,0.4-0.2h2.3c0.2,0,0.3,0.1,0.4,0.2s0.2,0.2,0.2,0.4
		s-0.1,0.3-0.2,0.4s-0.2,0.2-0.4,0.2h-0.6v5.7h0.6c0.2,0,0.3,0.1,0.4,0.2s0.2,0.2,0.2,0.4s-0.1,0.3-0.2,0.4s-0.2,0.2-0.4,0.2H79.8z"
		/>
	<path class="st1" d="M88.5,207.6c-0.2,0-0.3-0.1-0.4-0.2c-0.1-0.1-0.2-0.2-0.2-0.4v-6.9c0-0.2,0.1-0.3,0.2-0.4
		c0.1-0.1,0.2-0.2,0.4-0.2s0.3,0.1,0.4,0.2l3.6,3.6v-3.2c0-0.2,0.1-0.3,0.2-0.4s0.2-0.2,0.4-0.2s0.3,0.1,0.4,0.2s0.2,0.2,0.2,0.4
		v6.9c0,0.2-0.1,0.3-0.2,0.4s-0.2,0.2-0.4,0.2s-0.3-0.1-0.4-0.2s-0.2-0.2-0.2-0.4V205l-3.4-3.4v5.5c0,0.2-0.1,0.3-0.2,0.4
		S88.7,207.6,88.5,207.6z"/>
	<path class="st1" d="M99.5,204.2c-0.5,0-1-0.2-1.3-0.5s-0.5-0.7-0.5-1.3v-1.1c0-0.5,0.2-0.9,0.5-1.2s0.7-0.5,1.3-0.5h2.3
		c0.5,0,0.9,0.2,1.2,0.5s0.5,0.7,0.5,1.2c0,0.2-0.1,0.3-0.2,0.4s-0.2,0.2-0.4,0.2s-0.3-0.1-0.4-0.2s-0.2-0.2-0.2-0.4
		s-0.1-0.3-0.2-0.4s-0.2-0.2-0.4-0.2h-2.3c-0.2,0-0.3,0.1-0.4,0.2c-0.1,0.1-0.2,0.2-0.2,0.4v1.1c0,0.2,0.1,0.3,0.2,0.4
		c0.1,0.1,0.2,0.2,0.4,0.2h2.3c0.5,0,0.9,0.2,1.2,0.5c0.3,0.3,0.5,0.7,0.5,1.2v1.1c0,0.5-0.2,1-0.5,1.3s-0.7,0.5-1.2,0.5h-2.3
		c-0.5,0-0.9-0.2-1.2-0.5s-0.5-0.7-0.5-1.2c0-0.2,0.1-0.3,0.2-0.4s0.2-0.2,0.4-0.2s0.3,0.1,0.4,0.2s0.2,0.2,0.2,0.4s0.1,0.3,0.2,0.4
		c0.1,0.1,0.2,0.2,0.4,0.2h2.3c0.2,0,0.3-0.1,0.4-0.2s0.2-0.2,0.2-0.4v-1.1c0-0.2-0.1-0.3-0.2-0.4s-0.2-0.2-0.4-0.2H99.5z"/>
	<path class="st1" d="M108.2,201.9c-0.2,0-0.3-0.1-0.4-0.2s-0.2-0.2-0.2-0.4c0-0.5,0.2-0.9,0.5-1.2s0.7-0.5,1.2-0.5h2.3
		c0.5,0,0.9,0.2,1.2,0.5s0.5,0.7,0.5,1.2v1.1c0,0.2-0.1,0.3-0.2,0.4l-3.6,3.6h3.2c0.2,0,0.3,0.1,0.4,0.2s0.2,0.2,0.2,0.4
		s-0.1,0.3-0.2,0.4s-0.2,0.2-0.4,0.2h-4.6c-0.2,0-0.3-0.1-0.4-0.2s-0.2-0.2-0.2-0.4s0.1-0.3,0.2-0.4l4.4-4.4v-0.9
		c0-0.2-0.1-0.3-0.2-0.4s-0.2-0.2-0.4-0.2h-2.3c-0.2,0-0.3,0.1-0.4,0.2s-0.2,0.2-0.2,0.4s-0.1,0.3-0.2,0.4S108.4,201.9,108.2,201.9z
		"/>
	<path class="st1" d="M121.5,204.2h-2.9v2.3h4c0.2,0,0.3,0.1,0.4,0.2s0.2,0.2,0.2,0.4s-0.1,0.3-0.2,0.4s-0.2,0.2-0.4,0.2h-4.6
		c-0.2,0-0.3-0.1-0.4-0.2s-0.2-0.2-0.2-0.4v-6.9c0-0.2,0.1-0.3,0.2-0.4s0.2-0.2,0.4-0.2h4.6c0.2,0,0.3,0.1,0.4,0.2s0.2,0.2,0.2,0.4
		s-0.1,0.3-0.2,0.4s-0.2,0.2-0.4,0.2h-4v2.3h2.9c0.2,0,0.3,0.1,0.4,0.2s0.2,0.2,0.2,0.4s-0.1,0.3-0.2,0.4S121.7,204.2,121.5,204.2z"
		/>
	<path class="st1" d="M132.5,207.6c-0.2,0-0.3-0.1-0.4-0.2s-0.2-0.2-0.2-0.4v-2.3c0-0.2-0.1-0.3-0.2-0.4s-0.2-0.2-0.4-0.2h-2.9v2.9
		c0,0.2-0.1,0.3-0.2,0.4s-0.2,0.2-0.4,0.2c-0.2,0-0.3-0.1-0.4-0.2s-0.2-0.2-0.2-0.4v-6.9c0-0.2,0.1-0.3,0.2-0.4s0.2-0.2,0.4-0.2h3.4
		c0.5,0,0.9,0.2,1.2,0.5s0.5,0.7,0.5,1.2v1.1c0,0.5-0.2,0.9-0.5,1.2c0.3,0.3,0.5,0.6,0.5,1.1v2.3c0,0.2-0.1,0.3-0.2,0.4
		S132.7,207.6,132.5,207.6z M128.5,203.1h2.9c0.2,0,0.3-0.1,0.4-0.2s0.2-0.2,0.2-0.4v-1.1c0-0.2-0.1-0.3-0.2-0.4s-0.2-0.2-0.4-0.2
		h-2.9V203.1z"/>
	<path class="st1" d="M142.9,200.2v6.9c0,0.2-0.1,0.3-0.2,0.4s-0.2,0.2-0.4,0.2s-0.3-0.1-0.4-0.2s-0.2-0.2-0.2-0.4v-2.9h-3.4v2.9
		c0,0.2-0.1,0.3-0.2,0.4s-0.2,0.2-0.4,0.2s-0.3-0.1-0.4-0.2s-0.2-0.2-0.2-0.4v-6.9c0-0.2,0.1-0.3,0.2-0.4s0.2-0.2,0.4-0.2
		s0.3,0.1,0.4,0.2s0.2,0.2,0.2,0.4v2.9h3.4v-2.9c0-0.2,0.1-0.3,0.2-0.4s0.2-0.2,0.4-0.2s0.3,0.1,0.4,0.2S142.9,200.1,142.9,200.2z"
		/>
	<path class="st1" d="M14.8,217.8c0,0.2-0.1,0.3-0.2,0.4l-0.8,0.7l0.8,0.7c0.1,0.1,0.2,0.2,0.2,0.4s-0.1,0.3-0.2,0.4
		c-0.1,0.1-0.2,0.2-0.4,0.2s-0.3-0.1-0.4-0.2l-0.8-0.7l-0.7,0.7c-0.1,0.1-0.2,0.2-0.4,0.2h-1.1c-0.5,0-0.9-0.2-1.2-0.5
		c-0.3-0.3-0.5-0.7-0.5-1.2v-4.6c0-0.5,0.2-0.9,0.5-1.2c0.3-0.3,0.7-0.5,1.2-0.5h2.3c0.5,0,0.9,0.2,1.2,0.5c0.3,0.3,0.5,0.7,0.5,1.2
		V217.8z M13.6,214.3c0-0.2-0.1-0.3-0.2-0.4c-0.1-0.1-0.2-0.2-0.4-0.2h-2.3c-0.2,0-0.3,0.1-0.4,0.2c-0.1,0.1-0.2,0.2-0.2,0.4v4.6
		c0,0.2,0.1,0.3,0.2,0.4c0.1,0.1,0.2,0.2,0.4,0.2h0.9l0.6-0.6l-0.7-0.7c-0.1-0.1-0.2-0.2-0.2-0.4s0.1-0.3,0.2-0.4
		c0.1-0.1,0.2-0.2,0.4-0.2s0.3,0.1,0.4,0.2l0.6,0.6l0.7-0.7V214.3z"/>
	<path class="st1" d="M22.9,220.6h-2.3c-0.5,0-0.9-0.2-1.2-0.5c-0.3-0.3-0.5-0.7-0.5-1.2c0-0.2,0.1-0.3,0.2-0.4
		c0.1-0.1,0.2-0.2,0.4-0.2s0.3,0.1,0.4,0.2s0.2,0.2,0.2,0.4s0.1,0.3,0.2,0.4s0.2,0.2,0.4,0.2h2.3c0.2,0,0.3-0.1,0.4-0.2
		s0.2-0.2,0.2-0.4v-5.7c0-0.2,0.1-0.3,0.2-0.4s0.2-0.2,0.4-0.2s0.3,0.1,0.4,0.2s0.2,0.2,0.2,0.4v5.7c0,0.5-0.2,0.9-0.5,1.2
		S23.4,220.6,22.9,220.6z"/>
	<path class="st1" d="M29.4,220.6c-0.2,0-0.3-0.1-0.4-0.2s-0.2-0.2-0.2-0.4v-6.9c0-0.2,0.1-0.3,0.2-0.4s0.2-0.2,0.4-0.2h3.4
		c0.5,0,0.9,0.2,1.2,0.5s0.5,0.7,0.5,1.2v4.6c0,0.5-0.2,0.9-0.5,1.2s-0.7,0.5-1.2,0.5H29.4z M33.4,218.9v-4.6c0-0.2-0.1-0.3-0.2-0.4
		s-0.2-0.2-0.4-0.2h-2.9v5.7h2.9c0.2,0,0.3-0.1,0.4-0.2S33.4,219.1,33.4,218.9z"/>
	<path class="st1" d="M43.8,220.6c-0.2,0-0.3-0.1-0.4-0.2s-0.2-0.2-0.2-0.4v-2.3c0-0.2-0.1-0.3-0.2-0.4s-0.2-0.2-0.4-0.2h-2.9v2.9
		c0,0.2-0.1,0.3-0.2,0.4s-0.2,0.2-0.4,0.2s-0.3-0.1-0.4-0.2s-0.2-0.2-0.2-0.4v-6.9c0-0.2,0.1-0.3,0.2-0.4s0.2-0.2,0.4-0.2h3.4
		c0.5,0,0.9,0.2,1.2,0.5s0.5,0.7,0.5,1.2v1.1c0,0.5-0.2,0.9-0.5,1.2c0.3,0.3,0.5,0.6,0.5,1.1v2.3c0,0.2-0.1,0.3-0.2,0.4
		S43.9,220.6,43.8,220.6z M39.8,216.1h2.9c0.2,0,0.3-0.1,0.4-0.2s0.2-0.2,0.2-0.4v-1.1c0-0.2-0.1-0.3-0.2-0.4s-0.2-0.2-0.4-0.2h-2.9
		V216.1z"/>
	<path class="st1" d="M50.2,220.6c-0.2,0-0.3-0.1-0.4-0.2s-0.2-0.2-0.2-0.4s0.1-0.3,0.2-0.4s0.2-0.2,0.4-0.2h0.6v-5.7h-0.6
		c-0.2,0-0.3-0.1-0.4-0.2s-0.2-0.2-0.2-0.4s0.1-0.3,0.2-0.4s0.2-0.2,0.4-0.2h2.3c0.2,0,0.3,0.1,0.4,0.2s0.2,0.2,0.2,0.4
		s-0.1,0.3-0.2,0.4s-0.2,0.2-0.4,0.2h-0.6v5.7h0.6c0.2,0,0.3,0.1,0.4,0.2s0.2,0.2,0.2,0.4s-0.1,0.3-0.2,0.4s-0.2,0.2-0.4,0.2H50.2z"
		/>
	<path class="st1" d="M62.4,220.6h-2.3c-0.5,0-0.9-0.2-1.2-0.5s-0.5-0.7-0.5-1.2c0-0.2,0.1-0.3,0.2-0.4s0.2-0.2,0.4-0.2
		s0.3,0.1,0.4,0.2s0.2,0.2,0.2,0.4s0.1,0.3,0.2,0.4s0.2,0.2,0.4,0.2h2.3c0.2,0,0.3-0.1,0.4-0.2s0.2-0.2,0.2-0.4v-1.1
		c0-0.2-0.1-0.3-0.2-0.4s-0.2-0.2-0.4-0.2h-1.1c-0.2,0-0.3-0.1-0.4-0.2s-0.2-0.2-0.2-0.4s0.1-0.3,0.2-0.4s0.2-0.2,0.4-0.2h1.1
		c0.2,0,0.3-0.1,0.4-0.2s0.2-0.2,0.2-0.4v-1.1c0-0.2-0.1-0.3-0.2-0.4s-0.2-0.2-0.4-0.2h-2.3c-0.2,0-0.3,0.1-0.4,0.2
		s-0.2,0.2-0.2,0.4s-0.1,0.3-0.2,0.4s-0.2,0.2-0.4,0.2s-0.3-0.1-0.4-0.2s-0.2-0.2-0.2-0.4c0-0.5,0.2-0.9,0.5-1.2s0.7-0.5,1.2-0.5
		h2.3c0.5,0,0.9,0.2,1.2,0.5s0.5,0.7,0.5,1.2v1.1c0,0.5-0.2,0.9-0.5,1.2c0.3,0.3,0.5,0.6,0.5,1.1v1.1c0,0.5-0.2,0.9-0.5,1.2
		S62.8,220.6,62.4,220.6z"/>
	<path class="st1" d="M72.2,220.6h-2.3c-0.5,0-0.9-0.2-1.2-0.5s-0.5-0.7-0.5-1.2c0-0.2,0.1-0.3,0.2-0.4s0.2-0.2,0.4-0.2
		s0.3,0.1,0.4,0.2s0.2,0.2,0.2,0.4s0.1,0.3,0.2,0.4s0.2,0.2,0.4,0.2h2.3c0.2,0,0.3-0.1,0.4-0.2s0.2-0.2,0.2-0.4v-1.1
		c0-0.2-0.1-0.3-0.2-0.4s-0.2-0.2-0.4-0.2h-1.1c-0.2,0-0.3-0.1-0.4-0.2s-0.2-0.2-0.2-0.4s0.1-0.3,0.2-0.4s0.2-0.2,0.4-0.2h1.1
		c0.2,0,0.3-0.1,0.4-0.2s0.2-0.2,0.2-0.4v-1.1c0-0.2-0.1-0.3-0.2-0.4s-0.2-0.2-0.4-0.2h-2.3c-0.2,0-0.3,0.1-0.4,0.2
		s-0.2,0.2-0.2,0.4s-0.1,0.3-0.2,0.4s-0.2,0.2-0.4,0.2s-0.3-0.1-0.4-0.2s-0.2-0.2-0.2-0.4c0-0.5,0.2-0.9,0.5-1.2s0.7-0.5,1.2-0.5
		h2.3c0.5,0,0.9,0.2,1.2,0.5s0.5,0.7,0.5,1.2v1.1c0,0.5-0.2,0.9-0.5,1.2c0.3,0.3,0.5,0.6,0.5,1.1v1.1c0,0.5-0.2,0.9-0.5,1.2
		S72.7,220.6,72.2,220.6z"/>
	<path class="st1" d="M78.6,213.8c-0.2,0-0.3-0.1-0.4-0.2s-0.2-0.2-0.2-0.4s0.1-0.3,0.2-0.4s0.2-0.2,0.4-0.2h4.6
		c0.2,0,0.3,0.1,0.4,0.2s0.2,0.2,0.2,0.4s-0.1,0.3-0.2,0.4s-0.2,0.2-0.4,0.2h-1.7v6.3c0,0.2-0.1,0.3-0.2,0.4s-0.2,0.2-0.4,0.2
		s-0.3-0.1-0.4-0.2s-0.2-0.2-0.2-0.4v-6.3H78.6z"/>
	<path class="st1" d="M89.7,220.6c-0.2,0-0.3-0.1-0.4-0.2s-0.2-0.2-0.2-0.4s0.1-0.3,0.2-0.4s0.2-0.2,0.4-0.2h0.6v-5.7h-0.6
		c-0.2,0-0.3-0.1-0.4-0.2s-0.2-0.2-0.2-0.4s0.1-0.3,0.2-0.4s0.2-0.2,0.4-0.2h2.3c0.2,0,0.3,0.1,0.4,0.2s0.2,0.2,0.2,0.4
		s-0.1,0.3-0.2,0.4s-0.2,0.2-0.4,0.2h-0.6v5.7h0.6c0.2,0,0.3,0.1,0.4,0.2s0.2,0.2,0.2,0.4s-0.1,0.3-0.2,0.4s-0.2,0.2-0.4,0.2H89.7z"
		/>
	<path class="st1" d="M100.3,216.6l3.1,3c0.1,0.1,0.2,0.2,0.2,0.4s-0.1,0.3-0.2,0.4s-0.2,0.2-0.4,0.2s-0.3-0.1-0.4-0.2l-3-3.1
		l-0.6,0.6v2.1c0,0.2-0.1,0.3-0.2,0.4s-0.2,0.2-0.4,0.2s-0.3-0.1-0.4-0.2s-0.2-0.2-0.2-0.4v-6.9c0-0.2,0.1-0.3,0.2-0.4
		s0.2-0.2,0.4-0.2s0.3,0.1,0.4,0.2s0.2,0.2,0.2,0.4v3.2l3.6-3.6c0.1-0.1,0.2-0.2,0.4-0.2s0.3,0.1,0.4,0.2s0.2,0.2,0.2,0.4
		s-0.1,0.3-0.2,0.4L100.3,216.6z"/>
	<path class="st1" d="M109.9,216.9l-2.1-2.1c-0.1-0.1-0.2-0.2-0.2-0.4v-1.1c0-0.2,0.1-0.3,0.2-0.4s0.2-0.2,0.4-0.2s0.3,0.1,0.4,0.2
		s0.2,0.2,0.2,0.4v0.9l1.7,1.7l1.7-1.7v-0.9c0-0.2,0.1-0.3,0.2-0.4s0.2-0.2,0.4-0.2s0.3,0.1,0.4,0.2s0.2,0.2,0.2,0.4v1.1
		c0,0.2-0.1,0.3-0.2,0.4l-2.1,2.1v3.2c0,0.2-0.1,0.3-0.2,0.4s-0.2,0.2-0.4,0.2s-0.3-0.1-0.4-0.2s-0.2-0.2-0.2-0.4V216.9z"/>
	<path class="st1" d="M118.1,220.6c-0.2,0-0.3-0.1-0.4-0.2s-0.2-0.2-0.2-0.4v-6.9c0-0.2,0.1-0.3,0.2-0.4s0.2-0.2,0.4-0.2h3.4
		c0.5,0,0.9,0.2,1.2,0.5s0.5,0.7,0.5,1.2v4.6c0,0.5-0.2,0.9-0.5,1.2s-0.7,0.5-1.2,0.5H118.1z M122.1,218.9v-4.6
		c0-0.2-0.1-0.3-0.2-0.4s-0.2-0.2-0.4-0.2h-2.9v5.7h2.9c0.2,0,0.3-0.1,0.4-0.2S122.1,219.1,122.1,218.9z"/>
	<path class="st1" d="M127.9,220.6c-0.2,0-0.3-0.1-0.4-0.2s-0.2-0.2-0.2-0.4v-6.9c0-0.2,0.1-0.3,0.2-0.4s0.2-0.2,0.4-0.2h3.4
		c0.5,0,0.9,0.2,1.2,0.5s0.5,0.7,0.5,1.2v4.6c0,0.5-0.2,0.9-0.5,1.2s-0.7,0.5-1.2,0.5H127.9z M131.9,218.9v-4.6
		c0-0.2-0.1-0.3-0.2-0.4s-0.2-0.2-0.4-0.2h-2.9v5.7h2.9c0.2,0,0.3-0.1,0.4-0.2S131.9,219.1,131.9,218.9z"/>
	<path class="st1" d="M138.9,220.6c-0.5,0-0.9-0.2-1.2-0.5s-0.5-0.7-0.5-1.2v-4.6c0-0.5,0.2-0.9,0.5-1.2s0.7-0.5,1.2-0.5h2.3
		c0.5,0,0.9,0.2,1.2,0.5s0.5,0.7,0.5,1.2c0,0.2-0.1,0.3-0.2,0.4s-0.2,0.2-0.4,0.2s-0.3-0.1-0.4-0.2s-0.2-0.2-0.2-0.4
		s-0.1-0.3-0.2-0.4s-0.2-0.2-0.4-0.2h-2.3c-0.2,0-0.3,0.1-0.4,0.2s-0.2,0.2-0.2,0.4v4.6c0,0.2,0.1,0.3,0.2,0.4s0.2,0.2,0.4,0.2h2.3
		c0.2,0,0.3-0.1,0.4-0.2s0.2-0.2,0.2-0.4s0.1-0.3,0.2-0.4s0.2-0.2,0.4-0.2s0.3,0.1,0.4,0.2s0.2,0.2,0.2,0.4c0,0.5-0.2,0.9-0.5,1.2
		s-0.7,0.5-1.2,0.5H138.9z"/>
	<path class="st1" d="M10.2,232.5h4c0.2,0,0.3,0.1,0.4,0.2c0.1,0.1,0.2,0.2,0.2,0.4s-0.1,0.3-0.2,0.4c-0.1,0.1-0.2,0.2-0.4,0.2H9.6
		c-0.2,0-0.3-0.1-0.4-0.2s-0.2-0.2-0.2-0.4v-6.9c0-0.2,0.1-0.3,0.2-0.4s0.2-0.2,0.4-0.2s0.3,0.1,0.4,0.2c0.1,0.1,0.2,0.2,0.2,0.4
		V232.5z"/>
	<path class="st1" d="M24.7,226.2v6.9c0,0.2-0.1,0.3-0.2,0.4s-0.2,0.2-0.4,0.2s-0.3-0.1-0.4-0.2s-0.2-0.2-0.2-0.4v-2.9h-3.4v2.9
		c0,0.2-0.1,0.3-0.2,0.4s-0.2,0.2-0.4,0.2s-0.3-0.1-0.4-0.2c-0.1-0.1-0.2-0.2-0.2-0.4v-6.9c0-0.2,0.1-0.3,0.2-0.4
		c0.1-0.1,0.2-0.2,0.4-0.2s0.3,0.1,0.4,0.2s0.2,0.2,0.2,0.4v2.9h3.4v-2.9c0-0.2,0.1-0.3,0.2-0.4s0.2-0.2,0.4-0.2s0.3,0.1,0.4,0.2
		S24.7,226.1,24.7,226.2z"/>
	<path class="st1" d="M32.8,233.6c-0.5,0-0.9-0.2-1.2-0.5c-0.3,0.3-0.6,0.5-1.1,0.5c-0.5,0-0.9-0.2-1.2-0.5s-0.5-0.7-0.5-1.2v-5.7
		c0-0.2,0.1-0.3,0.2-0.4s0.2-0.2,0.4-0.2s0.3,0.1,0.4,0.2s0.2,0.2,0.2,0.4v5.7c0,0.2,0.1,0.3,0.2,0.4c0.1,0.1,0.2,0.2,0.4,0.2
		s0.3-0.1,0.4-0.2s0.2-0.2,0.2-0.4v-2.3c0-0.2,0.1-0.3,0.2-0.4s0.2-0.2,0.4-0.2s0.3,0.1,0.4,0.2s0.2,0.2,0.2,0.4v2.3
		c0,0.2,0.1,0.3,0.2,0.4s0.2,0.2,0.4,0.2s0.3-0.1,0.4-0.2s0.2-0.2,0.2-0.4v-5.7c0-0.2,0.1-0.3,0.2-0.4s0.2-0.2,0.4-0.2
		s0.3,0.1,0.4,0.2s0.2,0.2,0.2,0.4v5.7c0,0.5-0.2,0.9-0.5,1.2S33.3,233.6,32.8,233.6z"/>
	<path class="st1" d="M39.2,233.6c-0.2,0-0.3-0.1-0.4-0.2s-0.2-0.2-0.2-0.4v-6.9c0-0.2,0.1-0.3,0.2-0.4s0.2-0.2,0.4-0.2h3.4
		c0.5,0,0.9,0.2,1.2,0.5s0.5,0.7,0.5,1.2v4.6c0,0.5-0.2,0.9-0.5,1.2s-0.7,0.5-1.2,0.5H39.2z M43.2,231.9v-4.6c0-0.2-0.1-0.3-0.2-0.4
		s-0.2-0.2-0.4-0.2h-2.9v5.7h2.9c0.2,0,0.3-0.1,0.4-0.2S43.2,232.1,43.2,231.9z"/>
	<path class="st1" d="M50.2,233.6c-0.5,0-0.9-0.2-1.2-0.5s-0.5-0.7-0.5-1.2v-4.6c0-0.5,0.2-0.9,0.5-1.2s0.7-0.5,1.2-0.5h2.3
		c0.5,0,0.9,0.2,1.2,0.5s0.5,0.7,0.5,1.2c0,0.2-0.1,0.3-0.2,0.4s-0.2,0.2-0.4,0.2s-0.3-0.1-0.4-0.2s-0.2-0.2-0.2-0.4
		s-0.1-0.3-0.2-0.4s-0.2-0.2-0.4-0.2h-2.3c-0.2,0-0.3,0.1-0.4,0.2s-0.2,0.2-0.2,0.4v4.6c0,0.2,0.1,0.3,0.2,0.4s0.2,0.2,0.4,0.2h2.3
		c0.2,0,0.3-0.1,0.4-0.2s0.2-0.2,0.2-0.4v-1.7h-0.6c-0.2,0-0.3-0.1-0.4-0.2c-0.1-0.1-0.2-0.2-0.2-0.4s0.1-0.3,0.2-0.4
		c0.1-0.1,0.2-0.2,0.4-0.2h1.1c0.2,0,0.3,0.1,0.4,0.2s0.2,0.2,0.2,0.4v2.3c0,0.5-0.2,0.9-0.5,1.2s-0.7,0.5-1.2,0.5H50.2z"/>
	<path class="st1" d="M60.1,233.6c-0.5,0-0.9-0.2-1.2-0.5s-0.5-0.7-0.5-1.2v-4.6c0-0.5,0.2-0.9,0.5-1.2s0.7-0.5,1.2-0.5h2.3
		c0.5,0,0.9,0.2,1.2,0.5s0.5,0.7,0.5,1.2c0,0.2-0.1,0.3-0.2,0.4c-0.1,0.1-0.2,0.2-0.4,0.2s-0.3-0.1-0.4-0.2
		c-0.1-0.1-0.2-0.2-0.2-0.4s-0.1-0.3-0.2-0.4s-0.2-0.2-0.4-0.2h-2.3c-0.2,0-0.3,0.1-0.4,0.2s-0.2,0.2-0.2,0.4v4.6
		c0,0.2,0.1,0.3,0.2,0.4s0.2,0.2,0.4,0.2h2.3c0.2,0,0.3-0.1,0.4-0.2s0.2-0.2,0.2-0.4s0.1-0.3,0.2-0.4c0.1-0.1,0.2-0.2,0.4-0.2
		s0.3,0.1,0.4,0.2c0.1,0.1,0.2,0.2,0.2,0.4c0,0.5-0.2,0.9-0.5,1.2s-0.7,0.5-1.2,0.5H60.1z"/>
	<path class="st1" d="M69.9,233.6c-0.5,0-0.9-0.2-1.2-0.5s-0.5-0.7-0.5-1.2v-4.6c0-0.5,0.2-0.9,0.5-1.2s0.7-0.5,1.2-0.5h2.3
		c0.2,0,0.3,0.1,0.4,0.2s0.2,0.2,0.2,0.4s-0.1,0.3-0.2,0.4s-0.2,0.2-0.4,0.2h-2.3c-0.2,0-0.3,0.1-0.4,0.2s-0.2,0.2-0.2,0.4v1.7h2.9
		c0.5,0,0.9,0.2,1.2,0.5s0.5,0.7,0.5,1.3v1.1c0,0.5-0.2,0.9-0.5,1.2s-0.7,0.5-1.2,0.5H69.9z M69.4,230.2v1.7c0,0.2,0.1,0.3,0.2,0.4
		s0.2,0.2,0.4,0.2h2.3c0.2,0,0.3-0.1,0.4-0.2s0.2-0.2,0.2-0.4v-1.1c0-0.2-0.1-0.3-0.2-0.4s-0.2-0.2-0.4-0.2H69.4z"/>
	<path class="st1" d="M82.1,233.6c-0.5,0-0.9-0.2-1.2-0.5c-0.3,0.3-0.6,0.5-1.1,0.5c-0.5,0-0.9-0.2-1.2-0.5s-0.5-0.7-0.5-1.2v-5.7
		c0-0.2,0.1-0.3,0.2-0.4s0.2-0.2,0.4-0.2s0.3,0.1,0.4,0.2s0.2,0.2,0.2,0.4v5.7c0,0.2,0.1,0.3,0.2,0.4s0.2,0.2,0.4,0.2
		s0.3-0.1,0.4-0.2s0.2-0.2,0.2-0.4v-2.3c0-0.2,0.1-0.3,0.2-0.4s0.2-0.2,0.4-0.2s0.3,0.1,0.4,0.2s0.2,0.2,0.2,0.4v2.3
		c0,0.2,0.1,0.3,0.2,0.4s0.2,0.2,0.4,0.2s0.3-0.1,0.4-0.2s0.2-0.2,0.2-0.4v-5.7c0-0.2,0.1-0.3,0.2-0.4s0.2-0.2,0.4-0.2
		s0.3,0.1,0.4,0.2s0.2,0.2,0.2,0.4v5.7c0,0.5-0.2,0.9-0.5,1.2S82.5,233.6,82.1,233.6z"/>
	<path class="st1" d="M88.5,233.6c-0.2,0-0.3-0.1-0.4-0.2c-0.1-0.1-0.2-0.2-0.2-0.4v-6.9c0-0.2,0.1-0.3,0.2-0.4
		c0.1-0.1,0.2-0.2,0.4-0.2s0.3,0.1,0.4,0.2l3.6,3.6v-3.2c0-0.2,0.1-0.3,0.2-0.4s0.2-0.2,0.4-0.2s0.3,0.1,0.4,0.2s0.2,0.2,0.2,0.4
		v6.9c0,0.2-0.1,0.3-0.2,0.4s-0.2,0.2-0.4,0.2s-0.3-0.1-0.4-0.2s-0.2-0.2-0.2-0.4V231l-3.4-3.4v5.5c0,0.2-0.1,0.3-0.2,0.4
		S88.7,233.6,88.5,233.6z"/>
	<path class="st1" d="M103.5,230.8c0,0.2-0.1,0.3-0.2,0.4l-0.8,0.7l0.8,0.7c0.1,0.1,0.2,0.2,0.2,0.4s-0.1,0.3-0.2,0.4
		s-0.2,0.2-0.4,0.2s-0.3-0.1-0.4-0.2l-0.8-0.7l-0.7,0.7c-0.1,0.1-0.2,0.2-0.4,0.2h-1.1c-0.5,0-0.9-0.2-1.2-0.5s-0.5-0.7-0.5-1.2
		v-4.6c0-0.5,0.2-0.9,0.5-1.2s0.7-0.5,1.2-0.5h2.3c0.5,0,0.9,0.2,1.2,0.5s0.5,0.7,0.5,1.2V230.8z M102.4,227.3
		c0-0.2-0.1-0.3-0.2-0.4s-0.2-0.2-0.4-0.2h-2.3c-0.2,0-0.3,0.1-0.4,0.2c-0.1,0.1-0.2,0.2-0.2,0.4v4.6c0,0.2,0.1,0.3,0.2,0.4
		c0.1,0.1,0.2,0.2,0.4,0.2h0.9l0.6-0.6l-0.7-0.7c-0.1-0.1-0.2-0.2-0.2-0.4s0.1-0.3,0.2-0.4s0.2-0.2,0.4-0.2s0.3,0.1,0.4,0.2l0.6,0.6
		l0.7-0.7V227.3z"/>
	<path class="st1" d="M111.6,233.6h-2.3c-0.5,0-0.9-0.2-1.2-0.5s-0.5-0.7-0.5-1.2c0-0.2,0.1-0.3,0.2-0.4s0.2-0.2,0.4-0.2
		s0.3,0.1,0.4,0.2s0.2,0.2,0.2,0.4s0.1,0.3,0.2,0.4s0.2,0.2,0.4,0.2h2.3c0.2,0,0.3-0.1,0.4-0.2s0.2-0.2,0.2-0.4v-5.7
		c0-0.2,0.1-0.3,0.2-0.4s0.2-0.2,0.4-0.2s0.3,0.1,0.4,0.2s0.2,0.2,0.2,0.4v5.7c0,0.5-0.2,0.9-0.5,1.2S112.1,233.6,111.6,233.6z"/>
	<path class="st1" d="M118.1,233.6c-0.2,0-0.3-0.1-0.4-0.2s-0.2-0.2-0.2-0.4v-6.9c0-0.2,0.1-0.3,0.2-0.4s0.2-0.2,0.4-0.2h3.4
		c0.5,0,0.9,0.2,1.2,0.5s0.5,0.7,0.5,1.2v1.1c0,0.5-0.2,0.9-0.5,1.2c0.3,0.3,0.5,0.6,0.5,1.1v1.1c0,0.5-0.2,0.9-0.5,1.2
		s-0.7,0.5-1.2,0.5H118.1z M118.6,229.1h2.9c0.2,0,0.3-0.1,0.4-0.2s0.2-0.2,0.2-0.4v-1.1c0-0.2-0.1-0.3-0.2-0.4s-0.2-0.2-0.4-0.2
		h-2.9V229.1z M118.6,232.5h2.9c0.2,0,0.3-0.1,0.4-0.2s0.2-0.2,0.2-0.4v-1.1c0-0.2-0.1-0.3-0.2-0.4s-0.2-0.2-0.4-0.2h-2.9V232.5z"/>
	<path class="st1" d="M128.5,232.5h4c0.2,0,0.3,0.1,0.4,0.2s0.2,0.2,0.2,0.4s-0.1,0.3-0.2,0.4s-0.2,0.2-0.4,0.2h-4.6
		c-0.2,0-0.3-0.1-0.4-0.2s-0.2-0.2-0.2-0.4v-6.9c0-0.2,0.1-0.3,0.2-0.4s0.2-0.2,0.4-0.2c0.2,0,0.3,0.1,0.4,0.2s0.2,0.2,0.2,0.4
		V232.5z"/>
	<path class="st1" d="M142.9,230.8c0,0.2-0.1,0.3-0.2,0.4l-0.8,0.7l0.8,0.7c0.1,0.1,0.2,0.2,0.2,0.4s-0.1,0.3-0.2,0.4
		s-0.2,0.2-0.4,0.2s-0.3-0.1-0.4-0.2l-0.8-0.7l-0.7,0.7c-0.1,0.1-0.2,0.2-0.4,0.2h-1.1c-0.5,0-0.9-0.2-1.2-0.5s-0.5-0.7-0.5-1.2
		v-4.6c0-0.5,0.2-0.9,0.5-1.2s0.7-0.5,1.2-0.5h2.3c0.5,0,0.9,0.2,1.2,0.5s0.5,0.7,0.5,1.2V230.8z M141.8,227.3
		c0-0.2-0.1-0.3-0.2-0.4s-0.2-0.2-0.4-0.2h-2.3c-0.2,0-0.3,0.1-0.4,0.2s-0.2,0.2-0.2,0.4v4.6c0,0.2,0.1,0.3,0.2,0.4s0.2,0.2,0.4,0.2
		h0.9l0.6-0.6l-0.7-0.7c-0.1-0.1-0.2-0.2-0.2-0.4s0.1-0.3,0.2-0.4s0.2-0.2,0.4-0.2s0.3,0.1,0.4,0.2l0.6,0.6l0.7-0.7V227.3z"/>
</g>
<g>
	<path d="M11.2,172.3c0,0.3-0.1,0.6-0.3,0.8s-0.5,0.3-0.8,0.3c-0.3,0-0.6-0.1-0.8-0.3s-0.3-0.5-0.3-0.8v-13.7c0-0.3,0.1-0.6,0.3-0.8
		s0.5-0.3,0.8-0.3h6.9c0.9,0,1.7,0.3,2.4,1s1,1.5,1,2.4v2.3c0,0.9-0.3,1.7-1,2.4s-1.5,1-2.4,1h-5.7V172.3z M11.2,164.3h5.7
		c0.3,0,0.6-0.1,0.8-0.3c0.2-0.2,0.3-0.5,0.3-0.8v-2.3c0-0.3-0.1-0.6-0.3-0.8c-0.2-0.2-0.5-0.3-0.8-0.3h-5.7V164.3z"/>
	<path d="M41.7,173.5h-4.6c-0.9,0-1.7-0.3-2.4-1c-0.7-0.7-1-1.5-1-2.4v-11.4c0-0.3,0.1-0.6,0.3-0.8s0.5-0.3,0.8-0.3
		c0.3,0,0.6,0.1,0.8,0.3s0.3,0.5,0.3,0.8V170c0,0.3,0.1,0.6,0.3,0.8s0.5,0.3,0.8,0.3h4.6c0.3,0,0.6-0.1,0.8-0.3
		c0.2-0.2,0.3-0.5,0.3-0.8v-11.4c0-0.3,0.1-0.6,0.3-0.8s0.5-0.3,0.8-0.3s0.6,0.1,0.8,0.3s0.3,0.5,0.3,0.8V170c0,0.9-0.3,1.7-1,2.4
		S42.6,173.5,41.7,173.5z"/>
	<path d="M59.6,173.5c-0.3,0-0.6-0.1-0.8-0.3s-0.3-0.5-0.3-0.8v-13.7c0-0.3,0.1-0.6,0.3-0.8s0.5-0.3,0.8-0.3h6.9
		c0.9,0,1.7,0.3,2.4,1s1,1.5,1,2.4v2.3c0,0.9-0.3,1.7-1,2.4c0.7,0.5,1,1.3,1,2.2v2.3c0,0.9-0.3,1.7-1,2.4s-1.5,1-2.4,1H59.6z
		 M60.7,164.3h5.7c0.3,0,0.6-0.1,0.8-0.3c0.2-0.2,0.3-0.5,0.3-0.8v-2.3c0-0.3-0.1-0.6-0.3-0.8c-0.2-0.2-0.5-0.3-0.8-0.3h-5.7V164.3z
		 M60.7,171.2h5.7c0.3,0,0.6-0.1,0.8-0.3c0.2-0.2,0.3-0.5,0.3-0.8v-2.3c0-0.3-0.1-0.6-0.3-0.8c-0.2-0.2-0.5-0.3-0.8-0.3h-5.7V171.2z
		"/>
	<path d="M85.5,171.2h8c0.3,0,0.6,0.1,0.8,0.3c0.2,0.2,0.3,0.5,0.3,0.8s-0.1,0.6-0.3,0.8s-0.5,0.3-0.8,0.3h-9.1
		c-0.3,0-0.6-0.1-0.8-0.3s-0.3-0.5-0.3-0.8v-13.7c0-0.3,0.1-0.6,0.3-0.8s0.5-0.3,0.8-0.3c0.3,0,0.6,0.1,0.8,0.3s0.3,0.5,0.3,0.8
		V171.2z"/>
	<path d="M111.4,173.5c-0.3,0-0.6-0.1-0.8-0.3s-0.3-0.5-0.3-0.8s0.1-0.6,0.3-0.8c0.2-0.2,0.5-0.3,0.8-0.3h1.1v-11.4h-1.1
		c-0.3,0-0.6-0.1-0.8-0.3c-0.2-0.2-0.3-0.5-0.3-0.8s0.1-0.6,0.3-0.8s0.5-0.3,0.8-0.3h4.6c0.3,0,0.6,0.1,0.8,0.3
		c0.2,0.2,0.3,0.5,0.3,0.8s-0.1,0.6-0.3,0.8c-0.2,0.2-0.5,0.3-0.8,0.3h-1.1v11.4h1.1c0.3,0,0.6,0.1,0.8,0.3c0.2,0.2,0.3,0.5,0.3,0.8
		s-0.1,0.6-0.3,0.8c-0.2,0.2-0.5,0.3-0.8,0.3H111.4z"/>
	<path d="M136.1,173.5c-0.9,0-1.7-0.3-2.4-1c-0.7-0.7-1-1.5-1-2.4v-9.1c0-0.9,0.3-1.7,1-2.4c0.7-0.7,1.5-1,2.4-1h4.6
		c0.9,0,1.7,0.3,2.4,1s1,1.5,1,2.4c0,0.3-0.1,0.6-0.3,0.8s-0.5,0.3-0.8,0.3s-0.6-0.1-0.8-0.3s-0.3-0.5-0.3-0.8s-0.1-0.6-0.3-0.8
		c-0.2-0.2-0.5-0.3-0.8-0.3h-4.6c-0.3,0-0.6,0.1-0.8,0.3s-0.3,0.5-0.3,0.8v9.1c0,0.3,0.1,0.6,0.3,0.8s0.5,0.3,0.8,0.3h4.6
		c0.3,0,0.6-0.1,0.8-0.3c0.2-0.2,0.3-0.5,0.3-0.8s0.1-0.6,0.3-0.8s0.5-0.3,0.8-0.3s0.6,0.1,0.8,0.3s0.3,0.5,0.3,0.8
		c0,0.9-0.3,1.7-1,2.4s-1.5,1-2.4,1H136.1z"/>
</g>
<g>
	<circle class="st1" cx="76.5" cy="55.9" r="1.2"/>
	<circle class="st1" cx="76.5" cy="43.6" r="1.2"/>
	<circle class="st1" cx="76.5" cy="80.7" r="1.2"/>
	<circle class="st1" cx="80.7" cy="101.3" r="1.2"/>
	<path class="st1" d="M72.4,127.2c0.7,0,1.2-0.6,1.2-1.2c0-0.7-0.6-1.2-1.2-1.2c-0.7,0-1.2,0.6-1.2,1.2
		C71.2,126.7,71.7,127.2,72.4,127.2z"/>
	<circle class="st1" cx="76.5" cy="97.2" r="1.2"/>
	<circle class="st1" cx="76.5" cy="68.3" r="1.2"/>
	<circle class="st1" cx="80.7" cy="47.7" r="1.2"/>
	<circle class="st1" cx="80.7" cy="55.9" r="1.2"/>
	<circle class="st1" cx="80.7" cy="51.8" r="1.2"/>
	<path class="st1" d="M80.7,62.9c-0.7,0-1.2,0.6-1.2,1.2c0,0.7,0.6,1.2,1.2,1.2c0.7,0,1.2-0.6,1.2-1.2
		C81.9,63.5,81.3,62.9,80.7,62.9z"/>
	<circle class="st1" cx="80.7" cy="80.7" r="1.2"/>
	<circle class="st1" cx="76.5" cy="121.9" r="1.2"/>
	<path class="st1" d="M77.8,84.8c0-0.7-0.6-1.2-1.2-1.2c-0.7,0-1.2,0.6-1.2,1.2c0,0.7,0.6,1.2,1.2,1.2C77.2,86,77.8,85.5,77.8,84.8z
		"/>
	<path class="st1" d="M72.4,123.1c0.7,0,1.2-0.6,1.2-1.2c0-0.7-0.6-1.2-1.2-1.2c-0.7,0-1.2,0.6-1.2,1.2
		C71.2,122.6,71.7,123.1,72.4,123.1z"/>
	<circle class="st1" cx="80.7" cy="18.8" r="1.2"/>
	<circle class="st1" cx="76.5" cy="10.6" r="1.2"/>
	<circle class="st1" cx="68.3" cy="72.4" r="1.2"/>
	<circle class="st1" cx="68.3" cy="47.7" r="1.2"/>
	<circle class="st1" cx="68.3" cy="117.8" r="1.2"/>
	<circle class="st1" cx="68.3" cy="14.7" r="1.2"/>
	<circle class="st1" cx="68.3" cy="39.4" r="1.2"/>
	<circle class="st1" cx="68.3" cy="109.5" r="1.2"/>
	<circle class="st1" cx="68.3" cy="10.6" r="1.2"/>
	<path class="st1" d="M72.4,48.9c0.7,0,1.2-0.6,1.2-1.2c0-0.7-0.6-1.2-1.2-1.2c-0.7,0-1.2,0.6-1.2,1.2
		C71.2,48.4,71.7,48.9,72.4,48.9z"/>
	<path class="st1" d="M72.4,87.7c-0.7,0-1.2,0.6-1.2,1.2c0,0.7,0.6,1.2,1.2,1.2c0.7,0,1.2-0.6,1.2-1.2
		C73.6,88.2,73.1,87.7,72.4,87.7z"/>
	<path class="st1" d="M72.4,108.3c-0.7,0-1.2,0.6-1.2,1.2c0,0.7,0.6,1.2,1.2,1.2c0.7,0,1.2-0.6,1.2-1.2
		C73.6,108.8,73.1,108.3,72.4,108.3z"/>
	<path class="st1" d="M72.4,67.1c-0.7,0-1.2,0.6-1.2,1.2c0,0.7,0.6,1.2,1.2,1.2c0.7,0,1.2-0.6,1.2-1.2
		C73.6,67.6,73.1,67.1,72.4,67.1z"/>
	<path class="st1" d="M72.4,42.3c-0.7,0-1.2,0.6-1.2,1.2c0,0.7,0.6,1.2,1.2,1.2c0.7,0,1.2-0.6,1.2-1.2
		C73.6,42.9,73.1,42.3,72.4,42.3z"/>
	<path class="st1" d="M72.4,57.2c0.7,0,1.2-0.6,1.2-1.2c0-0.7-0.6-1.2-1.2-1.2c-0.7,0-1.2,0.6-1.2,1.2
		C71.2,56.6,71.7,57.2,72.4,57.2z"/>
	<circle class="st1" cx="68.3" cy="130.1" r="1.2"/>
	<path class="st1" d="M72.4,116.5c-0.7,0-1.2,0.6-1.2,1.2s0.6,1.2,1.2,1.2c0.7,0,1.2-0.6,1.2-1.2S73.1,116.5,72.4,116.5z"/>
	<path class="st1" d="M93,15.9c0.7,0,1.2-0.6,1.2-1.2c0-0.7-0.6-1.2-1.2-1.2c-0.7,0-1.2,0.6-1.2,1.2C91.8,15.4,92.3,15.9,93,15.9z"
		/>
	<circle class="st1" cx="88.9" cy="97.2" r="1.2"/>
	<circle class="st1" cx="88.9" cy="88.9" r="1.2"/>
	<circle class="st1" cx="88.9" cy="93" r="1.2"/>
	<path class="st1" d="M88.9,124.8c-0.7,0-1.2,0.6-1.2,1.2c0,0.7,0.6,1.2,1.2,1.2c0.7,0,1.2-0.6,1.2-1.2
		C90.1,125.3,89.6,124.8,88.9,124.8z"/>
	<circle class="st1" cx="88.9" cy="51.8" r="1.2"/>
	<circle class="st1" cx="88.9" cy="80.7" r="1.2"/>
	<path class="st1" d="M88.9,83.5c-0.7,0-1.2,0.6-1.2,1.2c0,0.7,0.6,1.2,1.2,1.2c0.7,0,1.2-0.6,1.2-1.2
		C90.1,84.1,89.6,83.5,88.9,83.5z"/>
	<path class="st1" d="M93,124.8c-0.7,0-1.2,0.6-1.2,1.2c0,0.7,0.6,1.2,1.2,1.2c0.7,0,1.2-0.6,1.2-1.2
		C94.3,125.3,93.7,124.8,93,124.8z"/>
	<path class="st1" d="M93,100c-0.7,0-1.2,0.6-1.2,1.2c0,0.7,0.6,1.2,1.2,1.2c0.7,0,1.2-0.6,1.2-1.2C94.3,100.6,93.7,100,93,100z"/>
	<path class="st1" d="M93,87.7c-0.7,0-1.2,0.6-1.2,1.2c0,0.7,0.6,1.2,1.2,1.2c0.7,0,1.2-0.6,1.2-1.2C94.3,88.2,93.7,87.7,93,87.7z"
		/>
	<circle class="st1" cx="88.9" cy="130.1" r="1.2"/>
	<circle class="st1" cx="88.9" cy="27.1" r="1.2"/>
	<path class="st1" d="M93,24.2c0.7,0,1.2-0.6,1.2-1.2c0-0.7-0.6-1.2-1.2-1.2c-0.7,0-1.2,0.6-1.2,1.2C91.8,23.6,92.3,24.2,93,24.2z"
		/>
	<path class="st1" d="M93,20c0.7,0,1.2-0.6,1.2-1.2c0-0.7-0.6-1.2-1.2-1.2c-0.7,0-1.2,0.6-1.2,1.2C91.8,19.5,92.3,20,93,20z"/>
	<circle class="st1" cx="64.2" cy="60" r="1.2"/>
	<circle class="st1" cx="84.8" cy="93" r="1.2"/>
	<path class="st1" d="M80.7,124.8c-0.7,0-1.2,0.6-1.2,1.2c0,0.7,0.6,1.2,1.2,1.2c0.7,0,1.2-0.6,1.2-1.2
		C81.9,125.3,81.3,124.8,80.7,124.8z"/>
	<path class="st1" d="M84.8,86c0.7,0,1.2-0.6,1.2-1.2c0-0.7-0.6-1.2-1.2-1.2s-1.2,0.6-1.2,1.2C83.5,85.5,84.1,86,84.8,86z"/>
	<circle class="st1" cx="84.8" cy="88.9" r="1.2"/>
	<circle class="st1" cx="84.8" cy="14.7" r="1.2"/>
	<circle class="st1" cx="84.8" cy="97.2" r="1.2"/>
	<circle class="st1" cx="88.9" cy="10.6" r="1.2"/>
	<circle class="st1" cx="84.8" cy="10.6" r="1.2"/>
	<circle class="st1" cx="84.8" cy="76.5" r="1.2"/>
	<circle class="st1" cx="84.8" cy="130.1" r="1.2"/>
	<circle class="st1" cx="84.8" cy="134.3" r="1.2"/>
	<circle class="st1" cx="84.8" cy="68.3" r="1.2"/>
	<circle class="st1" cx="84.8" cy="113.6" r="1.2"/>
	<circle class="st1" cx="84.8" cy="60" r="1.2"/>
	<circle class="st1" cx="84.8" cy="51.8" r="1.2"/>
	<circle class="st1" cx="84.8" cy="55.9" r="1.2"/>
	<path class="st1" d="M10.6,50.6c-0.7,0-1.2,0.6-1.2,1.2c0,0.7,0.6,1.2,1.2,1.2c0.7,0,1.2-0.6,1.2-1.2
		C11.8,51.1,11.2,50.6,10.6,50.6z"/>
	<path class="st1" d="M31.2,54.7c-0.7,0-1.2,0.6-1.2,1.2c0,0.7,0.6,1.2,1.2,1.2c0.7,0,1.2-0.6,1.2-1.2
		C32.4,55.2,31.9,54.7,31.2,54.7z"/>
	<circle class="st1" cx="18.8" cy="72.4" r="1.2"/>
	<path class="st1" d="M20,105.4c0-0.7-0.6-1.2-1.2-1.2s-1.2,0.6-1.2,1.2c0,0.7,0.6,1.2,1.2,1.2S20,106.1,20,105.4z"/>
	<circle class="st1" cx="18.8" cy="55.9" r="1.2"/>
	<circle class="st1" cx="14.7" cy="60" r="1.2"/>
	<circle class="st1" cx="22.9" cy="47.7" r="1.2"/>
	<circle class="st1" cx="14.7" cy="76.5" r="1.2"/>
	<circle class="st1" cx="14.7" cy="68.3" r="1.2"/>
	<circle class="st1" cx="22.9" cy="97.2" r="1.2"/>
	<path class="st1" d="M27.1,62.9c-0.7,0-1.2,0.6-1.2,1.2c0,0.7,0.6,1.2,1.2,1.2c0.7,0,1.2-0.6,1.2-1.2
		C28.3,63.5,27.7,62.9,27.1,62.9z"/>
	<circle class="st1" cx="27.1" cy="72.4" r="1.2"/>
	<path class="st1" d="M27.1,83.5c-0.7,0-1.2,0.6-1.2,1.2c0,0.7,0.6,1.2,1.2,1.2c0.7,0,1.2-0.6,1.2-1.2
		C28.3,84.1,27.7,83.5,27.1,83.5z"/>
	<circle class="st1" cx="64.2" cy="39.4" r="1.2"/>
	<circle class="st1" cx="27.1" cy="51.8" r="1.2"/>
	<circle class="st1" cx="22.9" cy="51.8" r="1.2"/>
	<circle class="st1" cx="14.7" cy="47.7" r="1.2"/>
	<circle class="st1" cx="18.8" cy="80.7" r="1.2"/>
	<circle class="st1" cx="55.9" cy="138.4" r="1.2"/>
	<circle class="st1" cx="55.9" cy="142.5" r="1.2"/>
	<circle class="st1" cx="60" cy="142.5" r="1.2"/>
	<path class="st1" d="M93,141.3c-0.7,0-1.2,0.6-1.2,1.2c0,0.7,0.6,1.2,1.2,1.2c0.7,0,1.2-0.6,1.2-1.2
		C94.3,141.8,93.7,141.3,93,141.3z"/>
	<circle class="st1" cx="97.2" cy="142.5" r="1.2"/>
	<path class="st1" d="M51.8,116.5c-0.7,0-1.2,0.6-1.2,1.2s0.6,1.2,1.2,1.2c0.7,0,1.2-0.6,1.2-1.2S52.5,116.5,51.8,116.5z"/>
	<path class="st1" d="M93,137.1c-0.7,0-1.2,0.6-1.2,1.2c0,0.7,0.6,1.2,1.2,1.2c0.7,0,1.2-0.6,1.2-1.2
		C94.3,137.7,93.7,137.1,93,137.1z"/>
	<circle class="st1" cx="14.7" cy="88.9" r="1.2"/>
	<path class="st1" d="M10.6,81.9c0.7,0,1.2-0.6,1.2-1.2c0-0.7-0.6-1.2-1.2-1.2c-0.7,0-1.2,0.6-1.2,1.2C9.3,81.3,9.9,81.9,10.6,81.9z
		"/>
	<circle class="st1" cx="14.7" cy="97.2" r="1.2"/>
	<path class="st1" d="M10.6,73.6c0.7,0,1.2-0.6,1.2-1.2c0-0.7-0.6-1.2-1.2-1.2c-0.7,0-1.2,0.6-1.2,1.2C9.3,73.1,9.9,73.6,10.6,73.6z
		"/>
	<path class="st1" d="M11.8,55.9c0-0.7-0.6-1.2-1.2-1.2c-0.7,0-1.2,0.6-1.2,1.2c0,0.7,0.6,1.2,1.2,1.2
		C11.2,57.2,11.8,56.6,11.8,55.9z"/>
	<path class="st1" d="M51.8,133c-0.7,0-1.2,0.6-1.2,1.2c0,0.7,0.6,1.2,1.2,1.2c0.7,0,1.2-0.6,1.2-1.2C53,133.6,52.5,133,51.8,133z"
		/>
	<circle class="st1" cx="22.9" cy="109.5" r="1.2"/>
	<path class="st1" d="M51.8,128.9c-0.7,0-1.2,0.6-1.2,1.2c0,0.7,0.6,1.2,1.2,1.2c0.7,0,1.2-0.6,1.2-1.2
		C53,129.5,52.5,128.9,51.8,128.9z"/>
	<circle class="st1" cx="22.9" cy="60" r="1.2"/>
	<path class="st1" d="M51.8,104.2c-0.7,0-1.2,0.6-1.2,1.2c0,0.7,0.6,1.2,1.2,1.2c0.7,0,1.2-0.6,1.2-1.2
		C53,104.7,52.5,104.2,51.8,104.2z"/>
	<path class="st1" d="M53,88.9c0-0.7-0.6-1.2-1.2-1.2c-0.7,0-1.2,0.6-1.2,1.2c0,0.7,0.6,1.2,1.2,1.2C52.5,90.1,53,89.6,53,88.9z"/>
	<circle class="st1" cx="55.9" cy="88.9" r="1.2"/>
	<circle class="st1" cx="47.7" cy="117.8" r="1.2"/>
	<path class="st1" d="M51.8,79.4c-0.7,0-1.2,0.6-1.2,1.2c0,0.7,0.6,1.2,1.2,1.2c0.7,0,1.2-0.6,1.2-1.2C53,80,52.5,79.4,51.8,79.4z"
		/>
	<circle class="st1" cx="47.7" cy="121.9" r="1.2"/>
	<circle class="st1" cx="47.7" cy="134.3" r="1.2"/>
	<circle class="st1" cx="55.9" cy="55.9" r="1.2"/>
	<circle class="st1" cx="60" cy="55.9" r="1.2"/>
	<circle class="st1" cx="60" cy="134.3" r="1.2"/>
	<circle class="st1" cx="64.2" cy="18.8" r="1.2"/>
	<circle class="st1" cx="60" cy="130.1" r="1.2"/>
	<circle class="st1" cx="55.9" cy="130.1" r="1.2"/>
	<circle class="st1" cx="60" cy="51.8" r="1.2"/>
	<path class="st1" d="M31.2,67.1c-0.7,0-1.2,0.6-1.2,1.2c0,0.7,0.6,1.2,1.2,1.2c0.7,0,1.2-0.6,1.2-1.2
		C32.4,67.6,31.9,67.1,31.2,67.1z"/>
	<circle class="st1" cx="55.9" cy="121.9" r="1.2"/>
	<circle class="st1" cx="39.4" cy="76.5" r="1.2"/>
	<circle class="st1" cx="39.4" cy="72.4" r="1.2"/>
	<circle class="st1" cx="39.4" cy="93" r="1.2"/>
	<path class="st1" d="M31.2,75.3c-0.7,0-1.2,0.6-1.2,1.2s0.6,1.2,1.2,1.2c0.7,0,1.2-0.6,1.2-1.2S31.9,75.3,31.2,75.3z"/>
	<circle class="st1" cx="39.4" cy="51.8" r="1.2"/>
	<path class="st1" d="M32.4,80.7c0-0.7-0.6-1.2-1.2-1.2c-0.7,0-1.2,0.6-1.2,1.2c0,0.7,0.6,1.2,1.2,1.2
		C31.9,81.9,32.4,81.3,32.4,80.7z"/>
	<path class="st1" d="M31.2,87.7c-0.7,0-1.2,0.6-1.2,1.2c0,0.7,0.6,1.2,1.2,1.2c0.7,0,1.2-0.6,1.2-1.2
		C32.4,88.2,31.9,87.7,31.2,87.7z"/>
	<circle class="st1" cx="47.7" cy="76.5" r="1.2"/>
	<circle class="st1" cx="47.7" cy="68.3" r="1.2"/>
	<circle class="st1" cx="47.7" cy="113.6" r="1.2"/>
	<path class="st1" d="M47.7,127.2c0.7,0,1.2-0.6,1.2-1.2c0-0.7-0.6-1.2-1.2-1.2c-0.7,0-1.2,0.6-1.2,1.2
		C46.4,126.7,47,127.2,47.7,127.2z"/>
	<circle class="st1" cx="43.6" cy="80.7" r="1.2"/>
	<circle class="st1" cx="43.6" cy="93" r="1.2"/>
	<circle class="st1" cx="43.6" cy="72.4" r="1.2"/>
	<circle class="st1" cx="39.4" cy="55.9" r="1.2"/>
</g>
</svg>
