<?xml version="1.0" encoding="utf-8"?>
<!-- Generator: Adobe Illustrator 22.1.0, SVG Export Plug-In . SVG Version: 6.00 Build 0)  -->
<svg version="1.1" xmlns="http://www.w3.org/2000/svg" xmlns:xlink="http://www.w3.org/1999/xlink" x="0px" y="0px"
	 viewBox="0 0 153 242.6" style="enable-background:new 0 0 153 242.6;" xml:space="preserve">
<style type="text/css">
	.st0{fill:#010101;}
	.st1{fill:#EF4438;}
	.st2{fill:none;}
</style>
<g id="text">
	<g>
		<path class="st1" d="M10.8,191.2c-0.5,0-1-0.2-1.3-0.5s-0.5-0.7-0.5-1.3v-1.1c0-0.5,0.2-0.9,0.5-1.2s0.7-0.5,1.3-0.5h2.3
			c0.5,0,0.9,0.2,1.2,0.5c0.3,0.3,0.5,0.7,0.5,1.2c0,0.2-0.1,0.3-0.2,0.4c-0.1,0.1-0.2,0.2-0.4,0.2s-0.3-0.1-0.4-0.2
			c-0.1-0.1-0.2-0.2-0.2-0.4s-0.1-0.3-0.2-0.4c-0.1-0.1-0.2-0.2-0.4-0.2h-2.3c-0.2,0-0.3,0.1-0.4,0.2c-0.1,0.1-0.2,0.2-0.2,0.4v1.1
			c0,0.2,0.1,0.3,0.2,0.4c0.1,0.1,0.2,0.2,0.4,0.2h2.3c0.5,0,0.9,0.2,1.2,0.5c0.3,0.3,0.5,0.7,0.5,1.2v1.1c0,0.5-0.2,1-0.5,1.3
			c-0.3,0.3-0.7,0.5-1.2,0.5h-2.3c-0.5,0-0.9-0.2-1.2-0.5c-0.3-0.3-0.5-0.7-0.5-1.2c0-0.2,0.1-0.3,0.2-0.4s0.2-0.2,0.4-0.2
			s0.3,0.1,0.4,0.2c0.1,0.1,0.2,0.2,0.2,0.4s0.1,0.3,0.2,0.4c0.1,0.1,0.2,0.2,0.4,0.2h2.3c0.2,0,0.3-0.1,0.4-0.2
			c0.1-0.1,0.2-0.2,0.2-0.4v-1.1c0-0.2-0.1-0.3-0.2-0.4c-0.1-0.1-0.2-0.2-0.4-0.2H10.8z"/>
		<path class="st1" d="M19.5,194.6c-0.2,0-0.3-0.1-0.4-0.2s-0.2-0.2-0.2-0.4v-6.9c0-0.2,0.1-0.3,0.2-0.4s0.2-0.2,0.4-0.2h3.4
			c0.5,0,0.9,0.2,1.2,0.5s0.5,0.7,0.5,1.2v1.1c0,0.5-0.2,0.9-0.5,1.2c0.3,0.3,0.5,0.6,0.5,1.1v1.1c0,0.5-0.2,0.9-0.5,1.2
			s-0.7,0.5-1.2,0.5H19.5z M20.1,190.1h2.9c0.2,0,0.3-0.1,0.4-0.2s0.2-0.2,0.2-0.4v-1.1c0-0.2-0.1-0.3-0.2-0.4s-0.2-0.2-0.4-0.2
			h-2.9V190.1z M20.1,193.5h2.9c0.2,0,0.3-0.1,0.4-0.2s0.2-0.2,0.2-0.4v-1.1c0-0.2-0.1-0.3-0.2-0.4s-0.2-0.2-0.4-0.2h-2.9V193.5z"/>
		<path class="st1" d="M29.4,194.6c-0.2,0-0.3-0.1-0.4-0.2s-0.2-0.2-0.2-0.4v-6.9c0-0.2,0.1-0.3,0.2-0.4s0.2-0.2,0.4-0.2h3.4
			c0.5,0,0.9,0.2,1.2,0.5s0.5,0.7,0.5,1.2v4.6c0,0.5-0.2,0.9-0.5,1.2s-0.7,0.5-1.2,0.5H29.4z M33.4,192.9v-4.6
			c0-0.2-0.1-0.3-0.2-0.4s-0.2-0.2-0.4-0.2h-2.9v5.7h2.9c0.2,0,0.3-0.1,0.4-0.2S33.4,193.1,33.4,192.9z"/>
		<path class="st1" d="M42.7,191.2h-2.9v2.3c0,0.5-0.1,0.9-0.2,1s-0.2,0.2-0.4,0.2s-0.3-0.1-0.4-0.2s-0.2-0.2-0.2-0.4v-6.9
			c0-0.2,0.1-0.3,0.2-0.4s0.2-0.2,0.4-0.2h4.6c0.2,0,0.3,0.1,0.4,0.2s0.2,0.2,0.2,0.4s-0.1,0.3-0.2,0.4s-0.2,0.2-0.4,0.2h-4v2.3h2.9
			c0.2,0,0.3,0.1,0.4,0.2s0.2,0.2,0.2,0.4s-0.1,0.3-0.2,0.4S42.8,191.2,42.7,191.2z"/>
		<path class="st1" d="M52.5,194.6h-2.3c-0.5,0-0.9-0.2-1.2-0.5s-0.5-0.7-0.5-1.2v-5.7c0-0.2,0.1-0.3,0.2-0.4s0.2-0.2,0.4-0.2
			s0.3,0.1,0.4,0.2s0.2,0.2,0.2,0.4v5.7c0,0.2,0.1,0.3,0.2,0.4s0.2,0.2,0.4,0.2h2.3c0.2,0,0.3-0.1,0.4-0.2s0.2-0.2,0.2-0.4v-5.7
			c0-0.2,0.1-0.3,0.2-0.4s0.2-0.2,0.4-0.2s0.3,0.1,0.4,0.2s0.2,0.2,0.2,0.4v5.7c0,0.5-0.2,0.9-0.5,1.2S53,194.6,52.5,194.6z"/>
		<path class="st1" d="M58.9,194.6c-0.2,0-0.3-0.1-0.4-0.2s-0.2-0.2-0.2-0.4v-6.9c0-0.2,0.1-0.3,0.2-0.4s0.2-0.2,0.4-0.2
			s0.3,0.1,0.4,0.2l1.9,1.9l1.9-1.9c0.1-0.1,0.2-0.2,0.4-0.2s0.3,0.1,0.4,0.2s0.2,0.2,0.2,0.4v6.9c0,0.2-0.1,0.3-0.2,0.4
			s-0.2,0.2-0.4,0.2s-0.3-0.1-0.4-0.2s-0.2-0.2-0.2-0.4v-5.5l-1.3,1.3c-0.1,0.1-0.2,0.2-0.4,0.2s-0.3-0.1-0.4-0.2l-1.3-1.3v5.5
			c0,0.2-0.1,0.3-0.2,0.4S59.1,194.6,58.9,194.6z"/>
		<path class="st1" d="M72.2,194.6h-2.3c-0.5,0-0.9-0.2-1.2-0.5s-0.5-0.7-0.5-1.2c0-0.2,0.1-0.3,0.2-0.4s0.2-0.2,0.4-0.2
			s0.3,0.1,0.4,0.2s0.2,0.2,0.2,0.4s0.1,0.3,0.2,0.4s0.2,0.2,0.4,0.2h2.3c0.2,0,0.3-0.1,0.4-0.2s0.2-0.2,0.2-0.4v-5.7
			c0-0.2,0.1-0.3,0.2-0.4s0.2-0.2,0.4-0.2s0.3,0.1,0.4,0.2s0.2,0.2,0.2,0.4v5.7c0,0.5-0.2,0.9-0.5,1.2S72.7,194.6,72.2,194.6z"/>
		<path class="st1" d="M78.6,188.9c-0.2,0-0.3-0.1-0.4-0.2s-0.2-0.2-0.2-0.4c0-0.5,0.2-0.9,0.5-1.2s0.7-0.5,1.2-0.5h2.3
			c0.5,0,0.9,0.2,1.2,0.5s0.5,0.7,0.5,1.2v1.1c0,0.2-0.1,0.3-0.2,0.4l-3.6,3.6h3.2c0.2,0,0.3,0.1,0.4,0.2c0.1,0.1,0.2,0.2,0.2,0.4
			s-0.1,0.3-0.2,0.4s-0.2,0.2-0.4,0.2h-4.6c-0.2,0-0.3-0.1-0.4-0.2s-0.2-0.2-0.2-0.4s0.1-0.3,0.2-0.4l4.4-4.4v-0.9
			c0-0.2-0.1-0.3-0.2-0.4s-0.2-0.2-0.4-0.2h-2.3c-0.2,0-0.3,0.1-0.4,0.2s-0.2,0.2-0.2,0.4s-0.1,0.3-0.2,0.4S78.8,188.9,78.6,188.9z"
			/>
		<path class="st1" d="M89.7,194.6c-0.5,0-0.9-0.2-1.2-0.5s-0.5-0.7-0.5-1.2v-4.6c0-0.5,0.2-0.9,0.5-1.2s0.7-0.5,1.2-0.5h2.3
			c0.2,0,0.3,0.1,0.4,0.2s0.2,0.2,0.2,0.4s-0.1,0.3-0.2,0.4s-0.2,0.2-0.4,0.2h-2.3c-0.2,0-0.3,0.1-0.4,0.2s-0.2,0.2-0.2,0.4v1.7h2.9
			c0.5,0,0.9,0.2,1.2,0.5s0.5,0.7,0.5,1.3v1.1c0,0.5-0.2,0.9-0.5,1.2s-0.7,0.5-1.2,0.5H89.7z M89.1,191.2v1.7c0,0.2,0.1,0.3,0.2,0.4
			s0.2,0.2,0.4,0.2h2.3c0.2,0,0.3-0.1,0.4-0.2s0.2-0.2,0.2-0.4v-1.1c0-0.2-0.1-0.3-0.2-0.4s-0.2-0.2-0.4-0.2H89.1z"/>
		<path class="st1" d="M102.9,194.6c-0.2,0-0.3-0.1-0.4-0.2s-0.2-0.2-0.2-0.4v-2.3c0-0.2-0.1-0.3-0.2-0.4s-0.2-0.2-0.4-0.2h-2.9v2.9
			c0,0.2-0.1,0.3-0.2,0.4s-0.2,0.2-0.4,0.2s-0.3-0.1-0.4-0.2s-0.2-0.2-0.2-0.4v-6.9c0-0.2,0.1-0.3,0.2-0.4s0.2-0.2,0.4-0.2h3.4
			c0.5,0,0.9,0.2,1.2,0.5s0.5,0.7,0.5,1.2v1.1c0,0.5-0.2,0.9-0.5,1.2c0.3,0.3,0.5,0.6,0.5,1.1v2.3c0,0.2-0.1,0.3-0.2,0.4
			S103.1,194.6,102.9,194.6z M98.9,190.1h2.9c0.2,0,0.3-0.1,0.4-0.2s0.2-0.2,0.2-0.4v-1.1c0-0.2-0.1-0.3-0.2-0.4s-0.2-0.2-0.4-0.2
			h-2.9V190.1z"/>
		<path class="st1" d="M108.2,194.6c-0.2,0-0.3-0.1-0.4-0.2s-0.2-0.2-0.2-0.4v-6.9c0-0.2,0.1-0.3,0.2-0.4s0.2-0.2,0.4-0.2h3.4
			c0.5,0,0.9,0.2,1.2,0.5s0.5,0.7,0.5,1.2v1.1c0,0.5-0.2,0.9-0.5,1.2c0.3,0.3,0.5,0.6,0.5,1.1v1.1c0,0.5-0.2,0.9-0.5,1.2
			s-0.7,0.5-1.2,0.5H108.2z M108.8,190.1h2.9c0.2,0,0.3-0.1,0.4-0.2s0.2-0.2,0.2-0.4v-1.1c0-0.2-0.1-0.3-0.2-0.4s-0.2-0.2-0.4-0.2
			h-2.9V190.1z M108.8,193.5h2.9c0.2,0,0.3-0.1,0.4-0.2s0.2-0.2,0.2-0.4v-1.1c0-0.2-0.1-0.3-0.2-0.4s-0.2-0.2-0.4-0.2h-2.9V193.5z"
			/>
		<path class="st1" d="M118.1,194.6c-0.2,0-0.3-0.1-0.4-0.2s-0.2-0.2-0.2-0.4v-6.9c0-0.2,0.1-0.3,0.2-0.4s0.2-0.2,0.4-0.2h3.4
			c0.5,0,0.9,0.2,1.2,0.5s0.5,0.7,0.5,1.2v1.1c0,0.5-0.2,0.9-0.5,1.2c0.3,0.3,0.5,0.6,0.5,1.1v1.1c0,0.5-0.2,0.9-0.5,1.2
			s-0.7,0.5-1.2,0.5H118.1z M118.6,190.1h2.9c0.2,0,0.3-0.1,0.4-0.2s0.2-0.2,0.2-0.4v-1.1c0-0.2-0.1-0.3-0.2-0.4s-0.2-0.2-0.4-0.2
			h-2.9V190.1z M118.6,193.5h2.9c0.2,0,0.3-0.1,0.4-0.2s0.2-0.2,0.2-0.4v-1.1c0-0.2-0.1-0.3-0.2-0.4s-0.2-0.2-0.4-0.2h-2.9V193.5z"
			/>
		<path class="st1" d="M127.9,194.6c-0.2,0-0.3-0.1-0.4-0.2s-0.2-0.2-0.2-0.4v-6.9c0-0.2,0.1-0.3,0.2-0.4s0.2-0.2,0.4-0.2
			c0.2,0,0.3,0.1,0.4,0.2l3.6,3.6v-3.2c0-0.2,0.1-0.3,0.2-0.4s0.2-0.2,0.4-0.2s0.3,0.1,0.4,0.2s0.2,0.2,0.2,0.4v6.9
			c0,0.2-0.1,0.3-0.2,0.4s-0.2,0.2-0.4,0.2s-0.3-0.1-0.4-0.2s-0.2-0.2-0.2-0.4V192l-3.4-3.4v5.5c0,0.2-0.1,0.3-0.2,0.4
			S128.1,194.6,127.9,194.6z"/>
		<path class="st1" d="M141.2,194.6h-2.3c-0.5,0-0.9-0.2-1.2-0.5s-0.5-0.7-0.5-1.2v-5.7c0-0.2,0.1-0.3,0.2-0.4s0.2-0.2,0.4-0.2
			s0.3,0.1,0.4,0.2s0.2,0.2,0.2,0.4v5.7c0,0.2,0.1,0.3,0.2,0.4s0.2,0.2,0.4,0.2h2.3c0.2,0,0.3-0.1,0.4-0.2s0.2-0.2,0.2-0.4v-5.7
			c0-0.2,0.1-0.3,0.2-0.4s0.2-0.2,0.4-0.2s0.3,0.1,0.4,0.2s0.2,0.2,0.2,0.4v5.7c0,0.5-0.2,0.9-0.5,1.2S141.7,194.6,141.2,194.6z"/>
		<path class="st1" d="M11.9,207.6c-0.2,0-0.3-0.1-0.4-0.2l-2.3-2.3c-0.1-0.1-0.2-0.2-0.2-0.4v-4.6c0-0.2,0.1-0.3,0.2-0.4
			s0.2-0.2,0.4-0.2s0.3,0.1,0.4,0.2c0.1,0.1,0.2,0.2,0.2,0.4v4l1.7,1.7l1.7-1.7v-4c0-0.2,0.1-0.3,0.2-0.4c0.1-0.1,0.2-0.2,0.4-0.2
			s0.3,0.1,0.4,0.2c0.1,0.1,0.2,0.2,0.2,0.4v4.6c0,0.2-0.1,0.3-0.2,0.4l-2.3,2.3C12.2,207.6,12.1,207.6,11.9,207.6z"/>
		<path class="st1" d="M20.7,207.6c-0.5,0-0.9-0.2-1.2-0.5s-0.5-0.7-0.5-1.2v-4.6c0-0.5,0.2-0.9,0.5-1.2s0.7-0.5,1.2-0.5h2.3
			c0.2,0,0.3,0.1,0.4,0.2s0.2,0.2,0.2,0.4s-0.1,0.3-0.2,0.4s-0.2,0.2-0.4,0.2h-2.3c-0.2,0-0.3,0.1-0.4,0.2s-0.2,0.2-0.2,0.4v1.7h2.9
			c0.5,0,0.9,0.2,1.2,0.5s0.5,0.7,0.5,1.3v1.1c0,0.5-0.2,0.9-0.5,1.2s-0.7,0.5-1.2,0.5H20.7z M20.1,204.2v1.7c0,0.2,0.1,0.3,0.2,0.4
			s0.2,0.2,0.4,0.2h2.3c0.2,0,0.3-0.1,0.4-0.2s0.2-0.2,0.2-0.4v-1.1c0-0.2-0.1-0.3-0.2-0.4s-0.2-0.2-0.4-0.2H20.1z"/>
		<path class="st1" d="M32.8,207.6h-2.3c-0.5,0-0.9-0.2-1.2-0.5s-0.5-0.7-0.5-1.2c0-0.2,0.1-0.3,0.2-0.4s0.2-0.2,0.4-0.2
			s0.3,0.1,0.4,0.2s0.2,0.2,0.2,0.4s0.1,0.3,0.2,0.4s0.2,0.2,0.4,0.2h2.3c0.2,0,0.3-0.1,0.4-0.2s0.2-0.2,0.2-0.4v-5.7
			c0-0.2,0.1-0.3,0.2-0.4s0.2-0.2,0.4-0.2s0.3,0.1,0.4,0.2s0.2,0.2,0.2,0.4v5.7c0,0.5-0.2,0.9-0.5,1.2S33.3,207.6,32.8,207.6z"/>
		<path class="st1" d="M44.4,204.8c0,0.2-0.1,0.3-0.2,0.4l-0.8,0.7l0.8,0.7c0.1,0.1,0.2,0.2,0.2,0.4s-0.1,0.3-0.2,0.4
			s-0.2,0.2-0.4,0.2s-0.3-0.1-0.4-0.2l-0.8-0.7l-0.7,0.7c-0.1,0.1-0.2,0.2-0.4,0.2h-1.1c-0.5,0-0.9-0.2-1.2-0.5s-0.5-0.7-0.5-1.2
			v-4.6c0-0.5,0.2-0.9,0.5-1.2s0.7-0.5,1.2-0.5h2.3c0.5,0,0.9,0.2,1.2,0.5s0.5,0.7,0.5,1.2V204.8z M43.2,201.3
			c0-0.2-0.1-0.3-0.2-0.4s-0.2-0.2-0.4-0.2h-2.3c-0.2,0-0.3,0.1-0.4,0.2s-0.2,0.2-0.2,0.4v4.6c0,0.2,0.1,0.3,0.2,0.4
			s0.2,0.2,0.4,0.2h0.9l0.6-0.6l-0.7-0.7c-0.1-0.1-0.2-0.2-0.2-0.4s0.1-0.3,0.2-0.4s0.2-0.2,0.4-0.2s0.3,0.1,0.4,0.2l0.6,0.6
			l0.7-0.7V201.3z"/>
		<path class="st1" d="M49.1,201.9c-0.2,0-0.3-0.1-0.4-0.2s-0.2-0.2-0.2-0.4c0-0.5,0.2-0.9,0.5-1.2s0.7-0.5,1.2-0.5h2.3
			c0.5,0,0.9,0.2,1.2,0.5s0.5,0.7,0.5,1.2v1.1c0,0.2-0.1,0.3-0.2,0.4l-3.6,3.6h3.2c0.2,0,0.3,0.1,0.4,0.2s0.2,0.2,0.2,0.4
			s-0.1,0.3-0.2,0.4s-0.2,0.2-0.4,0.2h-4.6c-0.2,0-0.3-0.1-0.4-0.2s-0.2-0.2-0.2-0.4s0.1-0.3,0.2-0.4l4.4-4.4v-0.9
			c0-0.2-0.1-0.3-0.2-0.4s-0.2-0.2-0.4-0.2h-2.3c-0.2,0-0.3,0.1-0.4,0.2s-0.2,0.2-0.2,0.4s-0.1,0.3-0.2,0.4S49.2,201.9,49.1,201.9z"
			/>
		<path class="st1" d="M62.4,207.6h-2.3c-0.5,0-0.9-0.2-1.2-0.5s-0.5-0.7-0.5-1.2c0-0.2,0.1-0.3,0.2-0.4s0.2-0.2,0.4-0.2
			s0.3,0.1,0.4,0.2s0.2,0.2,0.2,0.4s0.1,0.3,0.2,0.4s0.2,0.2,0.4,0.2h2.3c0.2,0,0.3-0.1,0.4-0.2s0.2-0.2,0.2-0.4v-5.7
			c0-0.2,0.1-0.3,0.2-0.4s0.2-0.2,0.4-0.2s0.3,0.1,0.4,0.2s0.2,0.2,0.2,0.4v5.7c0,0.5-0.2,0.9-0.5,1.2S62.8,207.6,62.4,207.6z"/>
		<path class="st1" d="M68.8,207.6c-0.2,0-0.3-0.1-0.4-0.2s-0.2-0.2-0.2-0.4v-6.9c0-0.2,0.1-0.3,0.2-0.4s0.2-0.2,0.4-0.2h3.4
			c0.5,0,0.9,0.2,1.2,0.5s0.5,0.7,0.5,1.2v4.6c0,0.5-0.2,0.9-0.5,1.2s-0.7,0.5-1.2,0.5H68.8z M72.8,205.9v-4.6
			c0-0.2-0.1-0.3-0.2-0.4s-0.2-0.2-0.4-0.2h-2.9v5.7h2.9c0.2,0,0.3-0.1,0.4-0.2S72.8,206.1,72.8,205.9z"/>
		<path class="st1" d="M78.6,207.6c-0.2,0-0.3-0.1-0.4-0.2s-0.2-0.2-0.2-0.4v-5.7c0-0.5,0.2-0.9,0.5-1.2s0.7-0.5,1.2-0.5h2.3
			c0.5,0,0.9,0.2,1.2,0.5s0.5,0.7,0.5,1.2v5.7c0,0.2-0.1,0.3-0.2,0.4s-0.2,0.2-0.4,0.2s-0.3-0.1-0.4-0.2s-0.2-0.2-0.2-0.4v-2.9h-3.4
			v2.9c0,0.2-0.1,0.3-0.2,0.4S78.8,207.6,78.6,207.6z M79.2,203.1h3.4v-1.7c0-0.2-0.1-0.3-0.2-0.4s-0.2-0.2-0.4-0.2h-2.3
			c-0.2,0-0.3,0.1-0.4,0.2s-0.2,0.2-0.2,0.4V203.1z"/>
		<path class="st1" d="M88.5,200.8c-0.2,0-0.3-0.1-0.4-0.2s-0.2-0.2-0.2-0.4s0.1-0.3,0.2-0.4s0.2-0.2,0.4-0.2h4.6
			c0.2,0,0.3,0.1,0.4,0.2s0.2,0.2,0.2,0.4s-0.1,0.3-0.2,0.4s-0.2,0.2-0.4,0.2h-1.7v6.3c0,0.2-0.1,0.3-0.2,0.4s-0.2,0.2-0.4,0.2
			s-0.3-0.1-0.4-0.2s-0.2-0.2-0.2-0.4v-6.3H88.5z"/>
		<path class="st1" d="M98.4,207.6c-0.2,0-0.3-0.1-0.4-0.2s-0.2-0.2-0.2-0.4v-6.9c0-0.2,0.1-0.3,0.2-0.4s0.2-0.2,0.4-0.2
			s0.3,0.1,0.4,0.2l1.9,1.9l1.9-1.9c0.1-0.1,0.2-0.2,0.4-0.2s0.3,0.1,0.4,0.2s0.2,0.2,0.2,0.4v6.9c0,0.2-0.1,0.3-0.2,0.4
			s-0.2,0.2-0.4,0.2s-0.3-0.1-0.4-0.2s-0.2-0.2-0.2-0.4v-5.5l-1.3,1.3c-0.1,0.1-0.2,0.2-0.4,0.2s-0.3-0.1-0.4-0.2l-1.3-1.3v5.5
			c0,0.2-0.1,0.3-0.2,0.4S98.5,207.6,98.4,207.6z"/>
		<path class="st1" d="M111.6,207.6h-2.3c-0.5,0-0.9-0.2-1.2-0.5s-0.5-0.7-0.5-1.2c0-0.2,0.1-0.3,0.2-0.4s0.2-0.2,0.4-0.2
			s0.3,0.1,0.4,0.2s0.2,0.2,0.2,0.4s0.1,0.3,0.2,0.4s0.2,0.2,0.4,0.2h2.3c0.2,0,0.3-0.1,0.4-0.2s0.2-0.2,0.2-0.4v-5.7
			c0-0.2,0.1-0.3,0.2-0.4s0.2-0.2,0.4-0.2s0.3,0.1,0.4,0.2s0.2,0.2,0.2,0.4v5.7c0,0.5-0.2,0.9-0.5,1.2S112.1,207.6,111.6,207.6z"/>
		<path class="st1" d="M118.1,207.6c-0.2,0-0.3-0.1-0.4-0.2s-0.2-0.2-0.2-0.4v-6.9c0-0.2,0.1-0.3,0.2-0.4s0.2-0.2,0.4-0.2h3.4
			c0.5,0,0.9,0.2,1.2,0.5s0.5,0.7,0.5,1.2v1.1c0,0.5-0.2,0.9-0.5,1.2c0.3,0.3,0.5,0.6,0.5,1.1v1.1c0,0.5-0.2,0.9-0.5,1.2
			s-0.7,0.5-1.2,0.5H118.1z M118.6,203.1h2.9c0.2,0,0.3-0.1,0.4-0.2s0.2-0.2,0.2-0.4v-1.1c0-0.2-0.1-0.3-0.2-0.4s-0.2-0.2-0.4-0.2
			h-2.9V203.1z M118.6,206.5h2.9c0.2,0,0.3-0.1,0.4-0.2s0.2-0.2,0.2-0.4v-1.1c0-0.2-0.1-0.3-0.2-0.4s-0.2-0.2-0.4-0.2h-2.9V206.5z"
			/>
		<path class="st1" d="M131.4,204.2h-2.9v2.3h4c0.2,0,0.3,0.1,0.4,0.2s0.2,0.2,0.2,0.4s-0.1,0.3-0.2,0.4s-0.2,0.2-0.4,0.2h-4.6
			c-0.2,0-0.3-0.1-0.4-0.2s-0.2-0.2-0.2-0.4v-6.9c0-0.2,0.1-0.3,0.2-0.4s0.2-0.2,0.4-0.2h4.6c0.2,0,0.3,0.1,0.4,0.2s0.2,0.2,0.2,0.4
			s-0.1,0.3-0.2,0.4s-0.2,0.2-0.4,0.2h-4v2.3h2.9c0.2,0,0.3,0.1,0.4,0.2s0.2,0.2,0.2,0.4s-0.1,0.3-0.2,0.4S131.5,204.2,131.4,204.2z
			"/>
		<path class="st1" d="M141.2,204.2h-2.9v2.3c0,0.5-0.1,0.9-0.2,1s-0.2,0.2-0.4,0.2s-0.3-0.1-0.4-0.2s-0.2-0.2-0.2-0.4v-6.9
			c0-0.2,0.1-0.3,0.2-0.4s0.2-0.2,0.4-0.2h4.6c0.2,0,0.3,0.1,0.4,0.2s0.2,0.2,0.2,0.4s-0.1,0.3-0.2,0.4s-0.2,0.2-0.4,0.2h-4v2.3h2.9
			c0.2,0,0.3,0.1,0.4,0.2s0.2,0.2,0.2,0.4s-0.1,0.3-0.2,0.4S141.4,204.2,141.2,204.2z"/>
		<path class="st1" d="M13.1,220.6h-2.3c-0.5,0-0.9-0.2-1.2-0.5c-0.3-0.3-0.5-0.7-0.5-1.2c0-0.2,0.1-0.3,0.2-0.4s0.2-0.2,0.4-0.2
			s0.3,0.1,0.4,0.2c0.1,0.1,0.2,0.2,0.2,0.4s0.1,0.3,0.2,0.4c0.1,0.1,0.2,0.2,0.4,0.2h2.3c0.2,0,0.3-0.1,0.4-0.2
			c0.1-0.1,0.2-0.2,0.2-0.4v-5.7c0-0.2,0.1-0.3,0.2-0.4c0.1-0.1,0.2-0.2,0.4-0.2s0.3,0.1,0.4,0.2c0.1,0.1,0.2,0.2,0.2,0.4v5.7
			c0,0.5-0.2,0.9-0.5,1.2C13.9,220.5,13.5,220.6,13.1,220.6z"/>
		<path class="st1" d="M22.9,220.6h-2.3c-0.5,0-0.9-0.2-1.2-0.5s-0.5-0.7-0.5-1.2c0-0.2,0.1-0.3,0.2-0.4s0.2-0.2,0.4-0.2
			s0.3,0.1,0.4,0.2s0.2,0.2,0.2,0.4s0.1,0.3,0.2,0.4s0.2,0.2,0.4,0.2h2.3c0.2,0,0.3-0.1,0.4-0.2s0.2-0.2,0.2-0.4v-1.1
			c0-0.2-0.1-0.3-0.2-0.4s-0.2-0.2-0.4-0.2h-1.1c-0.2,0-0.3-0.1-0.4-0.2s-0.2-0.2-0.2-0.4s0.1-0.3,0.2-0.4s0.2-0.2,0.4-0.2h1.1
			c0.2,0,0.3-0.1,0.4-0.2s0.2-0.2,0.2-0.4v-1.1c0-0.2-0.1-0.3-0.2-0.4s-0.2-0.2-0.4-0.2h-2.3c-0.2,0-0.3,0.1-0.4,0.2
			s-0.2,0.2-0.2,0.4s-0.1,0.3-0.2,0.4s-0.2,0.2-0.4,0.2s-0.3-0.1-0.4-0.2s-0.2-0.2-0.2-0.4c0-0.5,0.2-0.9,0.5-1.2s0.7-0.5,1.2-0.5
			h2.3c0.5,0,0.9,0.2,1.2,0.5s0.5,0.7,0.5,1.2v1.1c0,0.5-0.2,0.9-0.5,1.2c0.3,0.3,0.5,0.6,0.5,1.1v1.1c0,0.5-0.2,0.9-0.5,1.2
			S23.4,220.6,22.9,220.6z"/>
		<path class="st1" d="M30.5,217.2c-0.5,0-1-0.2-1.3-0.5s-0.5-0.7-0.5-1.3v-1.1c0-0.5,0.2-0.9,0.5-1.2s0.7-0.5,1.3-0.5h2.3
			c0.5,0,0.9,0.2,1.2,0.5s0.5,0.7,0.5,1.2c0,0.2-0.1,0.3-0.2,0.4s-0.2,0.2-0.4,0.2s-0.3-0.1-0.4-0.2s-0.2-0.2-0.2-0.4
			s-0.1-0.3-0.2-0.4s-0.2-0.2-0.4-0.2h-2.3c-0.2,0-0.3,0.1-0.4,0.2s-0.2,0.2-0.2,0.4v1.1c0,0.2,0.1,0.3,0.2,0.4s0.2,0.2,0.4,0.2h2.3
			c0.5,0,0.9,0.2,1.2,0.5c0.3,0.3,0.5,0.7,0.5,1.2v1.1c0,0.5-0.2,1-0.5,1.3s-0.7,0.5-1.2,0.5h-2.3c-0.5,0-0.9-0.2-1.2-0.5
			s-0.5-0.7-0.5-1.2c0-0.2,0.1-0.3,0.2-0.4s0.2-0.2,0.4-0.2s0.3,0.1,0.4,0.2s0.2,0.2,0.2,0.4s0.1,0.3,0.2,0.4s0.2,0.2,0.4,0.2h2.3
			c0.2,0,0.3-0.1,0.4-0.2s0.2-0.2,0.2-0.4v-1.1c0-0.2-0.1-0.3-0.2-0.4s-0.2-0.2-0.4-0.2H30.5z"/>
		<path class="st1" d="M39.8,217.2h2.3v-4c0-0.2,0.1-0.3,0.2-0.4s0.2-0.2,0.4-0.2s0.3,0.1,0.4,0.2s0.2,0.2,0.2,0.4v4h0.6
			c0.2,0,0.3,0.1,0.4,0.2s0.2,0.2,0.2,0.4s-0.1,0.3-0.2,0.4s-0.2,0.2-0.4,0.2h-0.6v1.7c0,0.2-0.1,0.3-0.2,0.4s-0.2,0.2-0.4,0.2
			s-0.3-0.1-0.4-0.2s-0.2-0.2-0.2-0.4v-1.7h-2.9c-0.2,0-0.3-0.1-0.4-0.2s-0.2-0.2-0.2-0.4v-3.4c0-0.2,0.1-0.3,0.2-0.4
			s0.2-0.2,0.4-0.2s0.3,0.1,0.4,0.2s0.2,0.2,0.2,0.4V217.2z"/>
		<path class="st1" d="M50.8,216.9l-2.1-2.1c-0.1-0.1-0.2-0.2-0.2-0.4v-1.1c0-0.2,0.1-0.3,0.2-0.4s0.2-0.2,0.4-0.2s0.3,0.1,0.4,0.2
			s0.2,0.2,0.2,0.4v0.9l1.7,1.7l1.7-1.7v-0.9c0-0.2,0.1-0.3,0.2-0.4s0.2-0.2,0.4-0.2s0.3,0.1,0.4,0.2s0.2,0.2,0.2,0.4v1.1
			c0,0.2-0.1,0.3-0.2,0.4l-2.1,2.1v3.2c0,0.2-0.1,0.3-0.2,0.4s-0.2,0.2-0.4,0.2s-0.3-0.1-0.4-0.2s-0.2-0.2-0.2-0.4V216.9z"/>
		<path class="st1" d="M60.1,220.6c-0.5,0-0.9-0.2-1.2-0.5s-0.5-0.7-0.5-1.2v-4.6c0-0.5,0.2-0.9,0.5-1.2s0.7-0.5,1.2-0.5h2.3
			c0.2,0,0.3,0.1,0.4,0.2s0.2,0.2,0.2,0.4s-0.1,0.3-0.2,0.4s-0.2,0.2-0.4,0.2h-2.3c-0.2,0-0.3,0.1-0.4,0.2s-0.2,0.2-0.2,0.4v1.7h2.9
			c0.5,0,0.9,0.2,1.2,0.5s0.5,0.7,0.5,1.3v1.1c0,0.5-0.2,0.9-0.5,1.2s-0.7,0.5-1.2,0.5H60.1z M59.5,217.2v1.7c0,0.2,0.1,0.3,0.2,0.4
			s0.2,0.2,0.4,0.2h2.3c0.2,0,0.3-0.1,0.4-0.2s0.2-0.2,0.2-0.4v-1.1c0-0.2-0.1-0.3-0.2-0.4s-0.2-0.2-0.4-0.2H59.5z"/>
		<path class="st1" d="M72.2,220.6h-2.3c-0.5,0-0.9-0.2-1.2-0.5s-0.5-0.7-0.5-1.2c0-0.2,0.1-0.3,0.2-0.4s0.2-0.2,0.4-0.2
			s0.3,0.1,0.4,0.2s0.2,0.2,0.2,0.4s0.1,0.3,0.2,0.4s0.2,0.2,0.4,0.2h2.3c0.2,0,0.3-0.1,0.4-0.2s0.2-0.2,0.2-0.4v-5.7
			c0-0.2,0.1-0.3,0.2-0.4s0.2-0.2,0.4-0.2s0.3,0.1,0.4,0.2s0.2,0.2,0.2,0.4v5.7c0,0.5-0.2,0.9-0.5,1.2S72.7,220.6,72.2,220.6z"/>
		<path class="st1" d="M78.6,214.9c-0.2,0-0.3-0.1-0.4-0.2s-0.2-0.2-0.2-0.4c0-0.5,0.2-0.9,0.5-1.2s0.7-0.5,1.2-0.5h2.3
			c0.5,0,0.9,0.2,1.2,0.5s0.5,0.7,0.5,1.2v1.1c0,0.2-0.1,0.3-0.2,0.4l-3.6,3.6h3.2c0.2,0,0.3,0.1,0.4,0.2s0.2,0.2,0.2,0.4
			s-0.1,0.3-0.2,0.4s-0.2,0.2-0.4,0.2h-4.6c-0.2,0-0.3-0.1-0.4-0.2s-0.2-0.2-0.2-0.4s0.1-0.3,0.2-0.4l4.4-4.4v-0.9
			c0-0.2-0.1-0.3-0.2-0.4s-0.2-0.2-0.4-0.2h-2.3c-0.2,0-0.3,0.1-0.4,0.2s-0.2,0.2-0.2,0.4s-0.1,0.3-0.2,0.4S78.8,214.9,78.6,214.9z"
			/>
		<path class="st1" d="M88.5,220.6c-0.2,0-0.3-0.1-0.4-0.2s-0.2-0.2-0.2-0.4s0.1-0.3,0.2-0.4l4.4-4.4v-1.5h-4
			c-0.2,0-0.3-0.1-0.4-0.2s-0.2-0.2-0.2-0.4s0.1-0.3,0.2-0.4s0.2-0.2,0.4-0.2h4.6c0.2,0,0.3,0.1,0.4,0.2s0.2,0.2,0.2,0.4v2.3
			c0,0.2-0.1,0.3-0.2,0.4l-4.6,4.6C88.8,220.6,88.7,220.6,88.5,220.6z"/>
		<path class="st1" d="M101.8,220.6h-2.3c-0.5,0-0.9-0.2-1.2-0.5s-0.5-0.7-0.5-1.2c0-0.2,0.1-0.3,0.2-0.4s0.2-0.2,0.4-0.2
			s0.3,0.1,0.4,0.2s0.2,0.2,0.2,0.4s0.1,0.3,0.2,0.4s0.2,0.2,0.4,0.2h2.3c0.2,0,0.3-0.1,0.4-0.2s0.2-0.2,0.2-0.4v-1.1
			c0-0.2-0.1-0.3-0.2-0.4s-0.2-0.2-0.4-0.2h-1.1c-0.2,0-0.3-0.1-0.4-0.2s-0.2-0.2-0.2-0.4s0.1-0.3,0.2-0.4s0.2-0.2,0.4-0.2h1.1
			c0.2,0,0.3-0.1,0.4-0.2s0.2-0.2,0.2-0.4v-1.1c0-0.2-0.1-0.3-0.2-0.4s-0.2-0.2-0.4-0.2h-2.3c-0.2,0-0.3,0.1-0.4,0.2
			s-0.2,0.2-0.2,0.4s-0.1,0.3-0.2,0.4s-0.2,0.2-0.4,0.2s-0.3-0.1-0.4-0.2s-0.2-0.2-0.2-0.4c0-0.5,0.2-0.9,0.5-1.2s0.7-0.5,1.2-0.5
			h2.3c0.5,0,0.9,0.2,1.2,0.5s0.5,0.7,0.5,1.2v1.1c0,0.5-0.2,0.9-0.5,1.2c0.3,0.3,0.5,0.6,0.5,1.1v1.1c0,0.5-0.2,0.9-0.5,1.2
			S102.3,220.6,101.8,220.6z"/>
		<path class="st1" d="M109.4,220.6c-0.5,0-0.9-0.2-1.2-0.5s-0.5-0.7-0.5-1.2v-4.6c0-0.5,0.2-0.9,0.5-1.2s0.7-0.5,1.2-0.5h2.3
			c0.2,0,0.3,0.1,0.4,0.2s0.2,0.2,0.2,0.4s-0.1,0.3-0.2,0.4s-0.2,0.2-0.4,0.2h-2.3c-0.2,0-0.3,0.1-0.4,0.2s-0.2,0.2-0.2,0.4v1.7h2.9
			c0.5,0,0.9,0.2,1.2,0.5s0.5,0.7,0.5,1.3v1.1c0,0.5-0.2,0.9-0.5,1.2s-0.7,0.5-1.2,0.5H109.4z M108.8,217.2v1.7
			c0,0.2,0.1,0.3,0.2,0.4s0.2,0.2,0.4,0.2h2.3c0.2,0,0.3-0.1,0.4-0.2s0.2-0.2,0.2-0.4v-1.1c0-0.2-0.1-0.3-0.2-0.4s-0.2-0.2-0.4-0.2
			H108.8z"/>
		<path class="st1" d="M119.2,220.6c-0.5,0-0.9-0.2-1.2-0.5s-0.5-0.7-0.5-1.2v-4.6c0-0.5,0.2-0.9,0.5-1.2s0.7-0.5,1.2-0.5h2.3
			c0.5,0,0.9,0.2,1.2,0.5s0.5,0.7,0.5,1.2c0,0.2-0.1,0.3-0.2,0.4s-0.2,0.2-0.4,0.2s-0.3-0.1-0.4-0.2s-0.2-0.2-0.2-0.4
			s-0.1-0.3-0.2-0.4s-0.2-0.2-0.4-0.2h-2.3c-0.2,0-0.3,0.1-0.4,0.2s-0.2,0.2-0.2,0.4v4.6c0,0.2,0.1,0.3,0.2,0.4s0.2,0.2,0.4,0.2h2.3
			c0.2,0,0.3-0.1,0.4-0.2s0.2-0.2,0.2-0.4s0.1-0.3,0.2-0.4s0.2-0.2,0.4-0.2s0.3,0.1,0.4,0.2s0.2,0.2,0.2,0.4c0,0.5-0.2,0.9-0.5,1.2
			s-0.7,0.5-1.2,0.5H119.2z"/>
		<path class="st1" d="M131.4,220.6h-2.3c-0.5,0-0.9-0.2-1.2-0.5c-0.3-0.3-0.5-0.7-0.5-1.2v-5.7c0-0.2,0.1-0.3,0.2-0.4
			s0.2-0.2,0.4-0.2c0.2,0,0.3,0.1,0.4,0.2s0.2,0.2,0.2,0.4v5.7c0,0.2,0.1,0.3,0.2,0.4s0.2,0.2,0.4,0.2h2.3c0.2,0,0.3-0.1,0.4-0.2
			s0.2-0.2,0.2-0.4v-5.7c0-0.2,0.1-0.3,0.2-0.4s0.2-0.2,0.4-0.2s0.3,0.1,0.4,0.2s0.2,0.2,0.2,0.4v5.7c0,0.5-0.2,0.9-0.5,1.2
			S131.8,220.6,131.4,220.6z"/>
		<path class="st1" d="M139.5,216.9l-2.1-2.1c-0.1-0.1-0.2-0.2-0.2-0.4v-1.1c0-0.2,0.1-0.3,0.2-0.4s0.2-0.2,0.4-0.2s0.3,0.1,0.4,0.2
			s0.2,0.2,0.2,0.4v0.9l1.7,1.7l1.7-1.7v-0.9c0-0.2,0.1-0.3,0.2-0.4s0.2-0.2,0.4-0.2s0.3,0.1,0.4,0.2s0.2,0.2,0.2,0.4v1.1
			c0,0.2-0.1,0.3-0.2,0.4l-2.1,2.1v3.2c0,0.2-0.1,0.3-0.2,0.4s-0.2,0.2-0.4,0.2s-0.3-0.1-0.4-0.2s-0.2-0.2-0.2-0.4V216.9z"/>
		<path class="st1" d="M9.6,233.6c-0.2,0-0.3-0.1-0.4-0.2s-0.2-0.2-0.2-0.4v-6.9c0-0.2,0.1-0.3,0.2-0.4s0.2-0.2,0.4-0.2
			s0.3,0.1,0.4,0.2l3.6,3.6v-3.2c0-0.2,0.1-0.3,0.2-0.4c0.1-0.1,0.2-0.2,0.4-0.2s0.3,0.1,0.4,0.2c0.1,0.1,0.2,0.2,0.2,0.4v6.9
			c0,0.2-0.1,0.3-0.2,0.4c-0.1,0.1-0.2,0.2-0.4,0.2s-0.3-0.1-0.4-0.2c-0.1-0.1-0.2-0.2-0.2-0.4V231l-3.4-3.4v5.5
			c0,0.2-0.1,0.3-0.2,0.4C9.9,233.6,9.8,233.6,9.6,233.6z"/>
		<path class="st1" d="M24.7,226.2v6.9c0,0.2-0.1,0.3-0.2,0.4s-0.2,0.2-0.4,0.2s-0.3-0.1-0.4-0.2s-0.2-0.2-0.2-0.4v-2.9h-3.4v2.9
			c0,0.2-0.1,0.3-0.2,0.4s-0.2,0.2-0.4,0.2s-0.3-0.1-0.4-0.2s-0.2-0.2-0.2-0.4v-6.9c0-0.2,0.1-0.3,0.2-0.4s0.2-0.2,0.4-0.2
			s0.3,0.1,0.4,0.2s0.2,0.2,0.2,0.4v2.9h3.4v-2.9c0-0.2,0.1-0.3,0.2-0.4s0.2-0.2,0.4-0.2s0.3,0.1,0.4,0.2S24.7,226.1,24.7,226.2z"/>
		<path class="st1" d="M30.5,233.6c-0.5,0-0.9-0.2-1.2-0.5s-0.5-0.7-0.5-1.2v-4.6c0-0.5,0.2-0.9,0.5-1.2s0.7-0.5,1.2-0.5h2.3
			c0.5,0,0.9,0.2,1.2,0.5s0.5,0.7,0.5,1.2c0,0.2-0.1,0.3-0.2,0.4s-0.2,0.2-0.4,0.2s-0.3-0.1-0.4-0.2s-0.2-0.2-0.2-0.4
			s-0.1-0.3-0.2-0.4s-0.2-0.2-0.4-0.2h-2.3c-0.2,0-0.3,0.1-0.4,0.2s-0.2,0.2-0.2,0.4v4.6c0,0.2,0.1,0.3,0.2,0.4s0.2,0.2,0.4,0.2h2.3
			c0.2,0,0.3-0.1,0.4-0.2s0.2-0.2,0.2-0.4s0.1-0.3,0.2-0.4s0.2-0.2,0.4-0.2s0.3,0.1,0.4,0.2s0.2,0.2,0.2,0.4c0,0.5-0.2,0.9-0.5,1.2
			s-0.7,0.5-1.2,0.5H30.5z"/>
		<path class="st1" d="M44.4,230.8c0,0.2-0.1,0.3-0.2,0.4l-0.8,0.7l0.8,0.7c0.1,0.1,0.2,0.2,0.2,0.4s-0.1,0.3-0.2,0.4
			s-0.2,0.2-0.4,0.2s-0.3-0.1-0.4-0.2l-0.8-0.7l-0.7,0.7c-0.1,0.1-0.2,0.2-0.4,0.2h-1.1c-0.5,0-0.9-0.2-1.2-0.5s-0.5-0.7-0.5-1.2
			v-4.6c0-0.5,0.2-0.9,0.5-1.2s0.7-0.5,1.2-0.5h2.3c0.5,0,0.9,0.2,1.2,0.5s0.5,0.7,0.5,1.2V230.8z M43.2,227.3
			c0-0.2-0.1-0.3-0.2-0.4s-0.2-0.2-0.4-0.2h-2.3c-0.2,0-0.3,0.1-0.4,0.2s-0.2,0.2-0.2,0.4v4.6c0,0.2,0.1,0.3,0.2,0.4
			s0.2,0.2,0.4,0.2h0.9l0.6-0.6l-0.7-0.7c-0.1-0.1-0.2-0.2-0.2-0.4s0.1-0.3,0.2-0.4s0.2-0.2,0.4-0.2s0.3,0.1,0.4,0.2l0.6,0.6
			l0.7-0.7V227.3z"/>
		<path class="st1" d="M53.6,233.6c-0.2,0-0.3-0.1-0.4-0.2s-0.2-0.2-0.2-0.4v-2.3c0-0.2-0.1-0.3-0.2-0.4s-0.2-0.2-0.4-0.2h-2.9v2.9
			c0,0.2-0.1,0.3-0.2,0.4s-0.2,0.2-0.4,0.2s-0.3-0.1-0.4-0.2s-0.2-0.2-0.2-0.4v-6.9c0-0.2,0.1-0.3,0.2-0.4s0.2-0.2,0.4-0.2h3.4
			c0.5,0,0.9,0.2,1.2,0.5s0.5,0.7,0.5,1.2v1.1c0,0.5-0.2,0.9-0.5,1.2c0.3,0.3,0.5,0.6,0.5,1.1v2.3c0,0.2-0.1,0.3-0.2,0.4
			S53.8,233.6,53.6,233.6z M49.6,229.1h2.9c0.2,0,0.3-0.1,0.4-0.2s0.2-0.2,0.2-0.4v-1.1c0-0.2-0.1-0.3-0.2-0.4s-0.2-0.2-0.4-0.2
			h-2.9V229.1z"/>
		<path class="st1" d="M60.1,233.6c-0.5,0-0.9-0.2-1.2-0.5s-0.5-0.7-0.5-1.2v-4.6c0-0.5,0.2-0.9,0.5-1.2s0.7-0.5,1.2-0.5h2.3
			c0.5,0,0.9,0.2,1.2,0.5s0.5,0.7,0.5,1.2c0,0.2-0.1,0.3-0.2,0.4s-0.2,0.2-0.4,0.2s-0.3-0.1-0.4-0.2s-0.2-0.2-0.2-0.4
			s-0.1-0.3-0.2-0.4s-0.2-0.2-0.4-0.2h-2.3c-0.2,0-0.3,0.1-0.4,0.2s-0.2,0.2-0.2,0.4v4.6c0,0.2,0.1,0.3,0.2,0.4s0.2,0.2,0.4,0.2h2.3
			c0.2,0,0.3-0.1,0.4-0.2s0.2-0.2,0.2-0.4v-1.7h-0.6c-0.2,0-0.3-0.1-0.4-0.2s-0.2-0.2-0.2-0.4s0.1-0.3,0.2-0.4s0.2-0.2,0.4-0.2h1.1
			c0.2,0,0.3,0.1,0.4,0.2s0.2,0.2,0.2,0.4v2.3c0,0.5-0.2,0.9-0.5,1.2s-0.7,0.5-1.2,0.5H60.1z"/>
		<path class="st1" d="M72.2,233.6h-2.3c-0.5,0-0.9-0.2-1.2-0.5s-0.5-0.7-0.5-1.2c0-0.2,0.1-0.3,0.2-0.4s0.2-0.2,0.4-0.2
			s0.3,0.1,0.4,0.2s0.2,0.2,0.2,0.4s0.1,0.3,0.2,0.4s0.2,0.2,0.4,0.2h2.3c0.2,0,0.3-0.1,0.4-0.2s0.2-0.2,0.2-0.4v-5.7
			c0-0.2,0.1-0.3,0.2-0.4s0.2-0.2,0.4-0.2s0.3,0.1,0.4,0.2s0.2,0.2,0.2,0.4v5.7c0,0.5-0.2,0.9-0.5,1.2S72.7,233.6,72.2,233.6z"/>
		<path class="st1" d="M79.8,233.6c-0.5,0-0.9-0.2-1.2-0.5s-0.5-0.7-0.5-1.2v-4.6c0-0.5,0.2-0.9,0.5-1.2s0.7-0.5,1.2-0.5h2.3
			c0.5,0,0.9,0.2,1.2,0.5s0.5,0.7,0.5,1.2v4.6c0,0.5-0.2,0.9-0.5,1.2s-0.7,0.5-1.2,0.5H79.8z M82.6,227.3c0-0.2-0.1-0.3-0.2-0.4
			s-0.2-0.2-0.4-0.2h-2.3c-0.2,0-0.3,0.1-0.4,0.2s-0.2,0.2-0.2,0.4v4.6c0,0.2,0.1,0.3,0.2,0.4s0.2,0.2,0.4,0.2h2.3
			c0.2,0,0.3-0.1,0.4-0.2s0.2-0.2,0.2-0.4V227.3z"/>
		<path class="st1" d="M89.7,233.6c-0.5,0-0.9-0.2-1.2-0.5s-0.5-0.7-0.5-1.2v-4.6c0-0.5,0.2-0.9,0.5-1.2s0.7-0.5,1.2-0.5h2.3
			c0.5,0,0.9,0.2,1.2,0.5s0.5,0.7,0.5,1.2c0,0.2-0.1,0.3-0.2,0.4s-0.2,0.2-0.4,0.2s-0.3-0.1-0.4-0.2s-0.2-0.2-0.2-0.4
			s-0.1-0.3-0.2-0.4s-0.2-0.2-0.4-0.2h-2.3c-0.2,0-0.3,0.1-0.4,0.2s-0.2,0.2-0.2,0.4v4.6c0,0.2,0.1,0.3,0.2,0.4s0.2,0.2,0.4,0.2h2.3
			c0.2,0,0.3-0.1,0.4-0.2s0.2-0.2,0.2-0.4v-1.7h-0.6c-0.2,0-0.3-0.1-0.4-0.2s-0.2-0.2-0.2-0.4s0.1-0.3,0.2-0.4s0.2-0.2,0.4-0.2h1.1
			c0.2,0,0.3,0.1,0.4,0.2s0.2,0.2,0.2,0.4v2.3c0,0.5-0.2,0.9-0.5,1.2s-0.7,0.5-1.2,0.5H89.7z"/>
		<path class="st1" d="M97.8,231.9c0-0.2,0.1-0.3,0.2-0.4l4.4-4.4v-0.3h-4c-0.2,0-0.3-0.1-0.4-0.2s-0.2-0.2-0.2-0.4s0.1-0.3,0.2-0.4
			s0.2-0.2,0.4-0.2h4.6c0.2,0,0.3,0.1,0.4,0.2s0.2,0.2,0.2,0.4v1.1c0,0.2-0.1,0.3-0.2,0.4l-4.4,4.4v0.4h4c0.2,0,0.3,0.1,0.4,0.2
			s0.2,0.2,0.2,0.4s-0.1,0.3-0.2,0.4s-0.2,0.2-0.4,0.2h-4.6c-0.2,0-0.3-0.1-0.4-0.2s-0.2-0.2-0.2-0.4V231.9z"/>
		<path class="st1" d="M108.2,233.6c-0.2,0-0.3-0.1-0.4-0.2s-0.2-0.2-0.2-0.4v-6.9c0-0.2,0.1-0.3,0.2-0.4s0.2-0.2,0.4-0.2
			s0.3,0.1,0.4,0.2l1.9,1.9l1.9-1.9c0.1-0.1,0.2-0.2,0.4-0.2s0.3,0.1,0.4,0.2s0.2,0.2,0.2,0.4v6.9c0,0.2-0.1,0.3-0.2,0.4
			s-0.2,0.2-0.4,0.2s-0.3-0.1-0.4-0.2s-0.2-0.2-0.2-0.4v-5.5l-1.3,1.3c-0.1,0.1-0.2,0.2-0.4,0.2s-0.3-0.1-0.4-0.2l-1.3-1.3v5.5
			c0,0.2-0.1,0.3-0.2,0.4S108.4,233.6,108.2,233.6z"/>
		<path class="st1" d="M119.2,233.6c-0.5,0-0.9-0.2-1.2-0.5s-0.5-0.7-0.5-1.2v-4.6c0-0.5,0.2-0.9,0.5-1.2s0.7-0.5,1.2-0.5h2.3
			c0.5,0,0.9,0.2,1.2,0.5s0.5,0.7,0.5,1.2c0,0.2-0.1,0.3-0.2,0.4s-0.2,0.2-0.4,0.2s-0.3-0.1-0.4-0.2s-0.2-0.2-0.2-0.4
			s-0.1-0.3-0.2-0.4s-0.2-0.2-0.4-0.2h-2.3c-0.2,0-0.3,0.1-0.4,0.2s-0.2,0.2-0.2,0.4v4.6c0,0.2,0.1,0.3,0.2,0.4s0.2,0.2,0.4,0.2h2.3
			c0.2,0,0.3-0.1,0.4-0.2s0.2-0.2,0.2-0.4v-1.7h-0.6c-0.2,0-0.3-0.1-0.4-0.2s-0.2-0.2-0.2-0.4s0.1-0.3,0.2-0.4s0.2-0.2,0.4-0.2h1.1
			c0.2,0,0.3,0.1,0.4,0.2s0.2,0.2,0.2,0.4v2.3c0,0.5-0.2,0.9-0.5,1.2s-0.7,0.5-1.2,0.5H119.2z"/>
		<path class="st1" d="M127.9,233.6c-0.2,0-0.3-0.1-0.4-0.2s-0.2-0.2-0.2-0.4v-6.9c0-0.2,0.1-0.3,0.2-0.4s0.2-0.2,0.4-0.2
			c0.2,0,0.3,0.1,0.4,0.2l1.9,1.9l1.9-1.9c0.1-0.1,0.2-0.2,0.4-0.2s0.3,0.1,0.4,0.2s0.2,0.2,0.2,0.4v6.9c0,0.2-0.1,0.3-0.2,0.4
			s-0.2,0.2-0.4,0.2s-0.3-0.1-0.4-0.2s-0.2-0.2-0.2-0.4v-5.5l-1.3,1.3c-0.1,0.1-0.2,0.2-0.4,0.2s-0.3-0.1-0.4-0.2l-1.3-1.3v5.5
			c0,0.2-0.1,0.3-0.2,0.4S128.1,233.6,127.9,233.6z"/>
		<path class="st1" d="M142.9,226.2v6.9c0,0.2-0.1,0.3-0.2,0.4s-0.2,0.2-0.4,0.2s-0.3-0.1-0.4-0.2s-0.2-0.2-0.2-0.4v-2.9h-3.4v2.9
			c0,0.2-0.1,0.3-0.2,0.4s-0.2,0.2-0.4,0.2s-0.3-0.1-0.4-0.2s-0.2-0.2-0.2-0.4v-6.9c0-0.2,0.1-0.3,0.2-0.4s0.2-0.2,0.4-0.2
			s0.3,0.1,0.4,0.2s0.2,0.2,0.2,0.4v2.9h3.4v-2.9c0-0.2,0.1-0.3,0.2-0.4s0.2-0.2,0.4-0.2s0.3,0.1,0.4,0.2S142.9,226.1,142.9,226.2z"
			/>
	</g>
</g>
<g id="all">
	<g>
		<path class="st1" d="M11.1,172.3c0,0.3-0.1,0.6-0.3,0.8s-0.5,0.3-0.8,0.3c-0.3,0-0.6-0.1-0.8-0.3s-0.3-0.5-0.3-0.8v-13.7
			c0-0.3,0.1-0.6,0.3-0.8s0.5-0.3,0.8-0.3h6.9c0.9,0,1.7,0.3,2.4,1s1,1.5,1,2.4v2.3c0,0.9-0.3,1.7-1,2.4s-1.5,1-2.4,1h-5.7V172.3z
			 M11.1,164.3h5.7c0.3,0,0.6-0.1,0.8-0.3c0.2-0.2,0.3-0.5,0.3-0.8v-2.3c0-0.3-0.1-0.6-0.3-0.8c-0.2-0.2-0.5-0.3-0.8-0.3h-5.7V164.3
			z"/>
		<path class="st1" d="M39.7,173.5c-0.3,0-0.6-0.1-0.8-0.3s-0.3-0.5-0.3-0.8v-4.6c0-0.3-0.1-0.6-0.3-0.8c-0.2-0.2-0.5-0.3-0.8-0.3
			h-5.7v5.7c0,0.3-0.1,0.6-0.3,0.8s-0.5,0.3-0.8,0.3c-0.3,0-0.6-0.1-0.8-0.3s-0.3-0.5-0.3-0.8v-13.7c0-0.3,0.1-0.6,0.3-0.8
			s0.5-0.3,0.8-0.3h6.9c0.9,0,1.7,0.3,2.4,1s1,1.5,1,2.4v2.3c0,0.9-0.3,1.7-1,2.4c0.7,0.5,1,1.3,1,2.2v4.6c0,0.3-0.1,0.6-0.3,0.8
			S40,173.5,39.7,173.5z M31.7,164.3h5.7c0.3,0,0.6-0.1,0.8-0.3c0.2-0.2,0.3-0.5,0.3-0.8v-2.3c0-0.3-0.1-0.6-0.3-0.8
			c-0.2-0.2-0.5-0.3-0.8-0.3h-5.7V164.3z"/>
		<path class="st1" d="M53.5,173.5c-0.3,0-0.6-0.1-0.8-0.3s-0.3-0.5-0.3-0.8s0.1-0.6,0.3-0.8c0.2-0.2,0.5-0.3,0.8-0.3h1.1v-11.4
			h-1.1c-0.3,0-0.6-0.1-0.8-0.3c-0.2-0.2-0.3-0.5-0.3-0.8s0.1-0.6,0.3-0.8s0.5-0.3,0.8-0.3h4.6c0.3,0,0.6,0.1,0.8,0.3
			c0.2,0.2,0.3,0.5,0.3,0.8s-0.1,0.6-0.3,0.8c-0.2,0.2-0.5,0.3-0.8,0.3H57v11.4h1.1c0.3,0,0.6,0.1,0.8,0.3c0.2,0.2,0.3,0.5,0.3,0.8
			s-0.1,0.6-0.3,0.8c-0.2,0.2-0.5,0.3-0.8,0.3H53.5z"/>
		<path class="st1" d="M76.5,173.5c-0.3,0-0.6-0.1-0.8-0.3l-4.6-4.6c-0.2-0.2-0.3-0.5-0.3-0.8v-9.1c0-0.3,0.1-0.6,0.3-0.8
			s0.5-0.3,0.8-0.3c0.3,0,0.6,0.1,0.8,0.3s0.3,0.5,0.3,0.8v8l3.4,3.4l3.4-3.4v-8c0-0.3,0.1-0.6,0.3-0.8s0.5-0.3,0.8-0.3
			s0.6,0.1,0.8,0.3s0.3,0.5,0.3,0.8v9.1c0,0.3-0.1,0.6-0.3,0.8l-4.6,4.6C77.1,173.3,76.8,173.5,76.5,173.5z"/>
		<path class="st1" d="M92.6,173.5c-0.3,0-0.6-0.1-0.8-0.3s-0.3-0.5-0.3-0.8v-11.4c0-0.9,0.3-1.7,1-2.4c0.7-0.7,1.5-1,2.4-1h4.6
			c0.9,0,1.7,0.3,2.4,1s1,1.5,1,2.4v11.4c0,0.3-0.1,0.6-0.3,0.8s-0.5,0.3-0.8,0.3s-0.6-0.1-0.8-0.3s-0.3-0.5-0.3-0.8v-5.7h-6.9v5.7
			c0,0.3-0.1,0.6-0.3,0.8S92.9,173.5,92.6,173.5z M93.8,164.3h6.9v-3.4c0-0.3-0.1-0.6-0.3-0.8c-0.2-0.2-0.5-0.3-0.8-0.3h-4.6
			c-0.3,0-0.6,0.1-0.8,0.3s-0.3,0.5-0.3,0.8V164.3z"/>
		<path class="st1" d="M113.3,159.7c-0.3,0-0.6-0.1-0.8-0.3c-0.2-0.2-0.3-0.5-0.3-0.8s0.1-0.6,0.3-0.8s0.5-0.3,0.8-0.3h9.1
			c0.3,0,0.6,0.1,0.8,0.3s0.3,0.5,0.3,0.8s-0.1,0.6-0.3,0.8c-0.2,0.2-0.5,0.3-0.8,0.3H119v12.6c0,0.3-0.1,0.6-0.3,0.8
			s-0.5,0.3-0.8,0.3s-0.6-0.1-0.8-0.3c-0.2-0.2-0.3-0.5-0.3-0.8v-12.6H113.3z"/>
		<path class="st1" d="M140.8,166.6h-5.7v4.6h8c0.3,0,0.6,0.1,0.8,0.3c0.2,0.2,0.3,0.5,0.3,0.8s-0.1,0.6-0.3,0.8s-0.5,0.3-0.8,0.3
			H134c-0.3,0-0.6-0.1-0.8-0.3s-0.3-0.5-0.3-0.8v-13.7c0-0.3,0.1-0.6,0.3-0.8s0.5-0.3,0.8-0.3h9.1c0.3,0,0.6,0.1,0.8,0.3
			s0.3,0.5,0.3,0.8s-0.1,0.6-0.3,0.8c-0.2,0.2-0.5,0.3-0.8,0.3h-8v4.6h5.7c0.3,0,0.6,0.1,0.8,0.3c0.2,0.2,0.3,0.5,0.3,0.8
			s-0.1,0.6-0.3,0.8C141.4,166.5,141.1,166.6,140.8,166.6z"/>
	</g>
	<rect x="0" class="st2" width="153" height="242.6"/>
	<g>
		<circle class="st1" cx="51.8" cy="10.6" r="1.2"/>
		<circle class="st1" cx="60" cy="10.6" r="1.2"/>
		<circle class="st1" cx="80.7" cy="10.6" r="1.2"/>
		<circle class="st1" cx="88.9" cy="10.6" r="1.2"/>
		<circle class="st1" cx="105.4" cy="10.6" r="1.2"/>
		<circle class="st1" cx="51.8" cy="14.7" r="1.2"/>
		<circle class="st1" cx="97.2" cy="14.7" r="1.2"/>
		<circle class="st1" cx="105.4" cy="18.8" r="1.2"/>
		<circle class="st1" cx="64.2" cy="22.9" r="1.2"/>
		<circle class="st1" cx="72.4" cy="22.9" r="1.2"/>
		<circle class="st1" cx="80.7" cy="22.9" r="1.2"/>
		<circle class="st1" cx="101.3" cy="22.9" r="1.2"/>
		<circle class="st1" cx="68.3" cy="27.1" r="1.2"/>
		<circle class="st1" cx="76.5" cy="27.1" r="1.2"/>
		<circle class="st1" cx="84.8" cy="27.1" r="1.2"/>
		<circle class="st1" cx="55.9" cy="31.2" r="1.2"/>
		<circle class="st1" cx="60" cy="31.2" r="1.2"/>
		<circle class="st1" cx="64.2" cy="31.2" r="1.2"/>
		<circle class="st1" cx="72.4" cy="31.2" r="1.2"/>
		<circle class="st1" cx="76.5" cy="31.2" r="1.2"/>
		<circle class="st1" cx="80.7" cy="31.2" r="1.2"/>
		<circle class="st1" cx="109.5" cy="31.2" r="1.2"/>
		<circle class="st1" cx="47.7" cy="39.4" r="1.2"/>
		<circle class="st1" cx="68.3" cy="39.4" r="1.2"/>
		<circle class="st1" cx="84.8" cy="39.4" r="1.2"/>
		<circle class="st1" cx="88.9" cy="39.4" r="1.2"/>
		<circle class="st1" cx="101.3" cy="39.4" r="1.2"/>
		<circle class="st1" cx="18.8" cy="43.6" r="1.2"/>
		<circle class="st1" cx="22.9" cy="43.6" r="1.2"/>
		<circle class="st1" cx="39.4" cy="43.6" r="1.2"/>
		<circle class="st1" cx="43.6" cy="43.6" r="1.2"/>
		<circle class="st1" cx="47.7" cy="43.6" r="1.2"/>
		<circle class="st1" cx="55.9" cy="43.6" r="1.2"/>
		<circle class="st1" cx="84.8" cy="43.6" r="1.2"/>
		<circle class="st1" cx="109.5" cy="43.6" r="1.2"/>
		<circle class="st1" cx="113.6" cy="43.6" r="1.2"/>
		<circle class="st1" cx="22.9" cy="47.7" r="1.2"/>
		<circle class="st1" cx="31.2" cy="47.7" r="1.2"/>
		<circle class="st1" cx="39.4" cy="47.7" r="1.2"/>
		<circle class="st1" cx="51.8" cy="47.7" r="1.2"/>
		<circle class="st1" cx="60" cy="47.7" r="1.2"/>
		<circle class="st1" cx="88.9" cy="47.7" r="1.2"/>
		<circle class="st1" cx="93" cy="47.7" r="1.2"/>
		<circle class="st1" cx="105.4" cy="47.7" r="1.2"/>
		<circle class="st1" cx="117.8" cy="47.7" r="1.2"/>
		<circle class="st1" cx="142.5" cy="47.7" r="1.2"/>
		<circle class="st1" cx="27.1" cy="51.8" r="1.2"/>
		<circle class="st1" cx="60" cy="51.8" r="1.2"/>
		<circle class="st1" cx="76.5" cy="51.8" r="1.2"/>
		<circle class="st1" cx="130.1" cy="51.8" r="1.2"/>
		<circle class="st1" cx="134.3" cy="51.8" r="1.2"/>
		<circle class="st1" cx="27.1" cy="55.9" r="1.2"/>
		<circle class="st1" cx="55.9" cy="55.9" r="1.2"/>
		<circle class="st1" cx="72.4" cy="55.9" r="1.2"/>
		<circle class="st1" cx="84.8" cy="55.9" r="1.2"/>
		<circle class="st1" cx="88.9" cy="55.9" r="1.2"/>
		<circle class="st1" cx="93" cy="55.9" r="1.2"/>
		<circle class="st1" cx="97.2" cy="55.9" r="1.2"/>
		<circle class="st1" cx="105.4" cy="55.9" r="1.2"/>
		<circle class="st1" cx="109.5" cy="55.9" r="1.2"/>
		<circle class="st1" cx="130.1" cy="55.9" r="1.2"/>
		<circle class="st1" cx="134.3" cy="55.9" r="1.2"/>
		<circle class="st1" cx="14.7" cy="60" r="1.2"/>
		<circle class="st1" cx="22.9" cy="60" r="1.2"/>
		<circle class="st1" cx="27.1" cy="60" r="1.2"/>
		<circle class="st1" cx="39.4" cy="60" r="1.2"/>
		<circle class="st1" cx="47.7" cy="60" r="1.2"/>
		<circle class="st1" cx="51.8" cy="60" r="1.2"/>
		<circle class="st1" cx="72.4" cy="60" r="1.2"/>
		<circle class="st1" cx="80.7" cy="60" r="1.2"/>
		<circle class="st1" cx="84.8" cy="60" r="1.2"/>
		<circle class="st1" cx="113.6" cy="60" r="1.2"/>
		<circle class="st1" cx="10.6" cy="64.2" r="1.2"/>
		<circle class="st1" cx="22.9" cy="64.2" r="1.2"/>
		<circle class="st1" cx="47.7" cy="64.2" r="1.2"/>
		<circle class="st1" cx="55.9" cy="64.2" r="1.2"/>
		<circle class="st1" cx="68.3" cy="64.2" r="1.2"/>
		<circle class="st1" cx="101.3" cy="64.2" r="1.2"/>
		<circle class="st1" cx="113.6" cy="64.2" r="1.2"/>
		<circle class="st1" cx="117.8" cy="64.2" r="1.2"/>
		<circle class="st1" cx="142.5" cy="64.2" r="1.2"/>
		<circle class="st1" cx="14.7" cy="68.3" r="1.2"/>
		<circle class="st1" cx="47.7" cy="68.3" r="1.2"/>
		<circle class="st1" cx="76.5" cy="68.3" r="1.2"/>
		<circle class="st1" cx="80.7" cy="68.3" r="1.2"/>
		<circle class="st1" cx="93" cy="68.3" r="1.2"/>
		<circle class="st1" cx="126" cy="68.3" r="1.2"/>
		<circle class="st1" cx="134.3" cy="68.3" r="1.2"/>
		<circle class="st1" cx="10.6" cy="72.4" r="1.2"/>
		<circle class="st1" cx="39.4" cy="72.4" r="1.2"/>
		<circle class="st1" cx="43.6" cy="72.4" r="1.2"/>
		<circle class="st1" cx="76.5" cy="72.4" r="1.2"/>
		<circle class="st1" cx="97.2" cy="72.4" r="1.2"/>
		<circle class="st1" cx="109.5" cy="72.4" r="1.2"/>
		<circle class="st1" cx="126" cy="72.4" r="1.2"/>
		<circle class="st1" cx="134.3" cy="72.4" r="1.2"/>
		<circle class="st1" cx="51.8" cy="76.5" r="1.2"/>
		<circle class="st1" cx="68.3" cy="76.5" r="1.2"/>
		<circle class="st1" cx="72.4" cy="76.5" r="1.2"/>
		<circle class="st1" cx="76.5" cy="76.5" r="1.2"/>
		<circle class="st1" cx="109.5" cy="76.5" r="1.2"/>
		<circle class="st1" cx="121.9" cy="76.5" r="1.2"/>
		<circle class="st1" cx="138.4" cy="76.5" r="1.2"/>
		<circle class="st1" cx="14.7" cy="80.7" r="1.2"/>
		<circle class="st1" cx="31.2" cy="80.7" r="1.2"/>
		<circle class="st1" cx="84.8" cy="80.7" r="1.2"/>
		<circle class="st1" cx="88.9" cy="80.7" r="1.2"/>
		<circle class="st1" cx="105.4" cy="80.7" r="1.2"/>
		<circle class="st1" cx="117.8" cy="80.7" r="1.2"/>
		<circle class="st1" cx="138.4" cy="80.7" r="1.2"/>
		<circle class="st1" cx="142.5" cy="80.7" r="1.2"/>
		<circle class="st1" cx="10.6" cy="84.8" r="1.2"/>
		<circle class="st1" cx="31.2" cy="84.8" r="1.2"/>
		<circle class="st1" cx="55.9" cy="84.8" r="1.2"/>
		<circle class="st1" cx="60" cy="84.8" r="1.2"/>
		<circle class="st1" cx="64.2" cy="84.8" r="1.2"/>
		<circle class="st1" cx="68.3" cy="84.8" r="1.2"/>
		<circle class="st1" cx="76.5" cy="84.8" r="1.2"/>
		<circle class="st1" cx="97.2" cy="84.8" r="1.2"/>
		<circle class="st1" cx="113.6" cy="84.8" r="1.2"/>
		<circle class="st1" cx="117.8" cy="84.8" r="1.2"/>
		<circle class="st1" cx="126" cy="84.8" r="1.2"/>
		<circle class="st1" cx="18.8" cy="88.9" r="1.2"/>
		<circle class="st1" cx="27.1" cy="88.9" r="1.2"/>
		<circle class="st1" cx="31.2" cy="88.9" r="1.2"/>
		<circle class="st1" cx="47.7" cy="88.9" r="1.2"/>
		<circle class="st1" cx="76.5" cy="88.9" r="1.2"/>
		<circle class="st1" cx="88.9" cy="88.9" r="1.2"/>
		<circle class="st1" cx="101.3" cy="88.9" r="1.2"/>
		<circle class="st1" cx="117.8" cy="88.9" r="1.2"/>
		<circle class="st1" cx="130.1" cy="88.9" r="1.2"/>
		<circle class="st1" cx="134.3" cy="88.9" r="1.2"/>
		<circle class="st1" cx="51.8" cy="93" r="1.2"/>
		<circle class="st1" cx="76.5" cy="93" r="1.2"/>
		<circle class="st1" cx="93" cy="93" r="1.2"/>
		<circle class="st1" cx="109.5" cy="93" r="1.2"/>
		<circle class="st1" cx="121.9" cy="93" r="1.2"/>
		<circle class="st1" cx="18.8" cy="97.2" r="1.2"/>
		<circle class="st1" cx="27.1" cy="97.2" r="1.2"/>
		<circle class="st1" cx="51.8" cy="97.2" r="1.2"/>
		<circle class="st1" cx="68.3" cy="97.2" r="1.2"/>
		<circle class="st1" cx="84.8" cy="97.2" r="1.2"/>
		<circle class="st1" cx="88.9" cy="97.2" r="1.2"/>
		<circle class="st1" cx="142.5" cy="97.2" r="1.2"/>
		<circle class="st1" cx="10.6" cy="101.3" r="1.2"/>
		<circle class="st1" cx="39.4" cy="101.3" r="1.2"/>
		<circle class="st1" cx="72.4" cy="101.3" r="1.2"/>
		<circle class="st1" cx="84.8" cy="101.3" r="1.2"/>
		<circle class="st1" cx="126" cy="101.3" r="1.2"/>
		<circle class="st1" cx="130.1" cy="101.3" r="1.2"/>
		<circle class="st1" cx="134.3" cy="101.3" r="1.2"/>
		<circle class="st1" cx="10.6" cy="105.4" r="1.2"/>
		<circle class="st1" cx="39.4" cy="105.4" r="1.2"/>
		<circle class="st1" cx="47.7" cy="105.4" r="1.2"/>
		<circle class="st1" cx="60" cy="105.4" r="1.2"/>
		<circle class="st1" cx="68.3" cy="105.4" r="1.2"/>
		<circle class="st1" cx="93" cy="105.4" r="1.2"/>
		<circle class="st1" cx="97.2" cy="105.4" r="1.2"/>
		<circle class="st1" cx="130.1" cy="105.4" r="1.2"/>
		<circle class="st1" cx="134.3" cy="105.4" r="1.2"/>
		<circle class="st1" cx="51.8" cy="109.5" r="1.2"/>
		<circle class="st1" cx="80.7" cy="109.5" r="1.2"/>
		<circle class="st1" cx="47.7" cy="113.6" r="1.2"/>
		<circle class="st1" cx="60" cy="113.6" r="1.2"/>
		<circle class="st1" cx="76.5" cy="113.6" r="1.2"/>
		<circle class="st1" cx="88.9" cy="113.6" r="1.2"/>
		<circle class="st1" cx="93" cy="113.6" r="1.2"/>
		<circle class="st1" cx="101.3" cy="113.6" r="1.2"/>
		<circle class="st1" cx="105.4" cy="113.6" r="1.2"/>
		<circle class="st1" cx="142.5" cy="113.6" r="1.2"/>
		<circle class="st1" cx="43.6" cy="117.8" r="1.2"/>
		<circle class="st1" cx="60" cy="117.8" r="1.2"/>
		<circle class="st1" cx="97.2" cy="117.8" r="1.2"/>
		<circle class="st1" cx="130.1" cy="117.8" r="1.2"/>
		<circle class="st1" cx="51.8" cy="121.9" r="1.2"/>
		<circle class="st1" cx="55.9" cy="121.9" r="1.2"/>
		<circle class="st1" cx="134.3" cy="121.9" r="1.2"/>
		<circle class="st1" cx="60" cy="126" r="1.2"/>
		<circle class="st1" cx="84.8" cy="126" r="1.2"/>
		<circle class="st1" cx="93" cy="126" r="1.2"/>
		<circle class="st1" cx="101.3" cy="126" r="1.2"/>
		<circle class="st1" cx="43.6" cy="130.1" r="1.2"/>
		<circle class="st1" cx="51.8" cy="130.1" r="1.2"/>
		<circle class="st1" cx="55.9" cy="130.1" r="1.2"/>
		<circle class="st1" cx="88.9" cy="130.1" r="1.2"/>
		<circle class="st1" cx="97.2" cy="130.1" r="1.2"/>
		<circle class="st1" cx="121.9" cy="130.1" r="1.2"/>
		<circle class="st1" cx="43.6" cy="134.3" r="1.2"/>
		<circle class="st1" cx="72.4" cy="134.3" r="1.2"/>
		<circle class="st1" cx="93" cy="134.3" r="1.2"/>
		<circle class="st1" cx="117.8" cy="134.3" r="1.2"/>
		<circle class="st1" cx="130.1" cy="134.3" r="1.2"/>
		<circle class="st1" cx="138.4" cy="134.3" r="1.2"/>
		<circle class="st1" cx="60" cy="138.4" r="1.2"/>
		<circle class="st1" cx="97.2" cy="138.4" r="1.2"/>
		<circle class="st1" cx="101.3" cy="138.4" r="1.2"/>
		<circle class="st1" cx="130.1" cy="138.4" r="1.2"/>
		<circle class="st1" cx="134.3" cy="138.4" r="1.2"/>
		<circle class="st1" cx="55.9" cy="142.5" r="1.2"/>
		<circle class="st1" cx="72.4" cy="142.5" r="1.2"/>
		<circle class="st1" cx="121.9" cy="142.5" r="1.2"/>
		<circle class="st1" cx="138.4" cy="142.5" r="1.2"/>
	</g>
</g>
</svg>
