<?xml version="1.0" encoding="utf-8"?>
<!-- Generator: Adobe Illustrator 22.1.0, SVG Export Plug-In . SVG Version: 6.00 Build 0)  -->
<svg version="1.1" xmlns="http://www.w3.org/2000/svg" xmlns:xlink="http://www.w3.org/1999/xlink" x="0px" y="0px"
	 viewBox="0 0 153 242.6" style="enable-background:new 0 0 153 242.6;" xml:space="preserve">
<style type="text/css">
	.st0{fill:#010101;}
	.st1{fill:#EF4438;}
	.st2{fill:none;}
</style>
<g id="text">
	<g>
		<path class="st0" d="M10.8,194.6c-0.5,0-0.9-0.2-1.2-0.5c-0.3-0.3-0.5-0.7-0.5-1.2v-4.6c0-0.5,0.2-0.9,0.5-1.2
			c0.3-0.3,0.7-0.5,1.2-0.5h2.3c0.5,0,0.9,0.2,1.2,0.5c0.3,0.3,0.5,0.7,0.5,1.2c0,0.2-0.1,0.3-0.2,0.4c-0.1,0.1-0.2,0.2-0.4,0.2
			s-0.3-0.1-0.4-0.2c-0.1-0.1-0.2-0.2-0.2-0.4s-0.1-0.3-0.2-0.4c-0.1-0.1-0.2-0.2-0.4-0.2h-2.3c-0.2,0-0.3,0.1-0.4,0.2
			c-0.1,0.1-0.2,0.2-0.2,0.4v4.6c0,0.2,0.1,0.3,0.2,0.4c0.1,0.1,0.2,0.2,0.4,0.2h2.3c0.2,0,0.3-0.1,0.4-0.2c0.1-0.1,0.2-0.2,0.2-0.4
			v-1.7h-0.6c-0.2,0-0.3-0.1-0.4-0.2c-0.1-0.1-0.2-0.2-0.2-0.4s0.1-0.3,0.2-0.4c0.1-0.1,0.2-0.2,0.4-0.2h1.1c0.2,0,0.3,0.1,0.4,0.2
			c0.1,0.1,0.2,0.2,0.2,0.4v2.3c0,0.5-0.2,0.9-0.5,1.2c-0.3,0.3-0.7,0.5-1.2,0.5H10.8z"/>
		<path class="st0" d="M19.5,194.6c-0.2,0-0.3-0.1-0.4-0.2s-0.2-0.2-0.2-0.4v-6.9c0-0.2,0.1-0.3,0.2-0.4s0.2-0.2,0.4-0.2h3.4
			c0.5,0,0.9,0.2,1.2,0.5s0.5,0.7,0.5,1.2v4.6c0,0.5-0.2,0.9-0.5,1.2s-0.7,0.5-1.2,0.5H19.5z M23.5,192.9v-4.6
			c0-0.2-0.1-0.3-0.2-0.4s-0.2-0.2-0.4-0.2h-2.9v5.7h2.9c0.2,0,0.3-0.1,0.4-0.2S23.5,193.1,23.5,192.9z"/>
		<path class="st0" d="M29.9,193.5h4c0.2,0,0.3,0.1,0.4,0.2c0.1,0.1,0.2,0.2,0.2,0.4s-0.1,0.3-0.2,0.4s-0.2,0.2-0.4,0.2h-4.6
			c-0.2,0-0.3-0.1-0.4-0.2s-0.2-0.2-0.2-0.4v-6.9c0-0.2,0.1-0.3,0.2-0.4s0.2-0.2,0.4-0.2s0.3,0.1,0.4,0.2s0.2,0.2,0.2,0.4V193.5z"/>
		<path class="st0" d="M44.4,187.2v6.9c0,0.2-0.1,0.3-0.2,0.4s-0.2,0.2-0.4,0.2s-0.3-0.1-0.4-0.2s-0.2-0.2-0.2-0.4v-2.9h-3.4v2.9
			c0,0.2-0.1,0.3-0.2,0.4s-0.2,0.2-0.4,0.2s-0.3-0.1-0.4-0.2s-0.2-0.2-0.2-0.4v-6.9c0-0.2,0.1-0.3,0.2-0.4s0.2-0.2,0.4-0.2
			s0.3,0.1,0.4,0.2s0.2,0.2,0.2,0.4v2.9h3.4v-2.9c0-0.2,0.1-0.3,0.2-0.4s0.2-0.2,0.4-0.2s0.3,0.1,0.4,0.2S44.4,187.1,44.4,187.2z"/>
		<path class="st0" d="M50.8,190.9l-2.1-2.1c-0.1-0.1-0.2-0.2-0.2-0.4v-1.1c0-0.2,0.1-0.3,0.2-0.4s0.2-0.2,0.4-0.2s0.3,0.1,0.4,0.2
			s0.2,0.2,0.2,0.4v0.9l1.7,1.7l1.7-1.7v-0.9c0-0.2,0.1-0.3,0.2-0.4s0.2-0.2,0.4-0.2s0.3,0.1,0.4,0.2s0.2,0.2,0.2,0.4v1.1
			c0,0.2-0.1,0.3-0.2,0.4l-2.1,2.1v3.2c0,0.2-0.1,0.3-0.2,0.4s-0.2,0.2-0.4,0.2s-0.3-0.1-0.4-0.2s-0.2-0.2-0.2-0.4V190.9z"/>
		<path class="st0" d="M62.4,191.2h-2.9v2.3c0,0.5-0.1,0.9-0.2,1s-0.2,0.2-0.4,0.2s-0.3-0.1-0.4-0.2s-0.2-0.2-0.2-0.4v-6.9
			c0-0.2,0.1-0.3,0.2-0.4s0.2-0.2,0.4-0.2h4.6c0.2,0,0.3,0.1,0.4,0.2c0.1,0.1,0.2,0.2,0.2,0.4s-0.1,0.3-0.2,0.4
			c-0.1,0.1-0.2,0.2-0.4,0.2h-4v2.3h2.9c0.2,0,0.3,0.1,0.4,0.2s0.2,0.2,0.2,0.4s-0.1,0.3-0.2,0.4S62.5,191.2,62.4,191.2z"/>
		<path class="st0" d="M69.9,194.6c-0.5,0-0.9-0.2-1.2-0.5s-0.5-0.7-0.5-1.2v-4.6c0-0.5,0.2-0.9,0.5-1.2s0.7-0.5,1.2-0.5h2.3
			c0.5,0,0.9,0.2,1.2,0.5s0.5,0.7,0.5,1.2c0,0.2-0.1,0.3-0.2,0.4s-0.2,0.2-0.4,0.2s-0.3-0.1-0.4-0.2s-0.2-0.2-0.2-0.4
			s-0.1-0.3-0.2-0.4s-0.2-0.2-0.4-0.2h-2.3c-0.2,0-0.3,0.1-0.4,0.2s-0.2,0.2-0.2,0.4v4.6c0,0.2,0.1,0.3,0.2,0.4s0.2,0.2,0.4,0.2h2.3
			c0.2,0,0.3-0.1,0.4-0.2s0.2-0.2,0.2-0.4v-1.7h-0.6c-0.2,0-0.3-0.1-0.4-0.2s-0.2-0.2-0.2-0.4s0.1-0.3,0.2-0.4s0.2-0.2,0.4-0.2h1.1
			c0.2,0,0.3,0.1,0.4,0.2s0.2,0.2,0.2,0.4v2.3c0,0.5-0.2,0.9-0.5,1.2s-0.7,0.5-1.2,0.5H69.9z"/>
		<path class="st0" d="M78.1,192.9c0-0.2,0.1-0.3,0.2-0.4l4.4-4.4v-0.3h-4c-0.2,0-0.3-0.1-0.4-0.2s-0.2-0.2-0.2-0.4s0.1-0.3,0.2-0.4
			s0.2-0.2,0.4-0.2h4.6c0.2,0,0.3,0.1,0.4,0.2s0.2,0.2,0.2,0.4v1.1c0,0.2-0.1,0.3-0.2,0.4l-4.4,4.4v0.4h4c0.2,0,0.3,0.1,0.4,0.2
			c0.1,0.1,0.2,0.2,0.2,0.4s-0.1,0.3-0.2,0.4s-0.2,0.2-0.4,0.2h-4.6c-0.2,0-0.3-0.1-0.4-0.2s-0.2-0.2-0.2-0.4V192.9z"/>
		<path class="st0" d="M88.5,194.6c-0.2,0-0.3-0.1-0.4-0.2s-0.2-0.2-0.2-0.4v-6.9c0-0.2,0.1-0.3,0.2-0.4s0.2-0.2,0.4-0.2
			s0.3,0.1,0.4,0.2l1.9,1.9l1.9-1.9c0.1-0.1,0.2-0.2,0.4-0.2s0.3,0.1,0.4,0.2s0.2,0.2,0.2,0.4v6.9c0,0.2-0.1,0.3-0.2,0.4
			s-0.2,0.2-0.4,0.2s-0.3-0.1-0.4-0.2s-0.2-0.2-0.2-0.4v-5.5l-1.3,1.3c-0.1,0.1-0.2,0.2-0.4,0.2s-0.3-0.1-0.4-0.2l-1.3-1.3v5.5
			c0,0.2-0.1,0.3-0.2,0.4S88.7,194.6,88.5,194.6z"/>
		<path class="st0" d="M99.5,194.6c-0.5,0-0.9-0.2-1.2-0.5s-0.5-0.7-0.5-1.2v-4.6c0-0.5,0.2-0.9,0.5-1.2s0.7-0.5,1.2-0.5h2.3
			c0.5,0,0.9,0.2,1.2,0.5s0.5,0.7,0.5,1.2c0,0.2-0.1,0.3-0.2,0.4s-0.2,0.2-0.4,0.2s-0.3-0.1-0.4-0.2s-0.2-0.2-0.2-0.4
			s-0.1-0.3-0.2-0.4s-0.2-0.2-0.4-0.2h-2.3c-0.2,0-0.3,0.1-0.4,0.2s-0.2,0.2-0.2,0.4v4.6c0,0.2,0.1,0.3,0.2,0.4s0.2,0.2,0.4,0.2h2.3
			c0.2,0,0.3-0.1,0.4-0.2s0.2-0.2,0.2-0.4v-1.7h-0.6c-0.2,0-0.3-0.1-0.4-0.2s-0.2-0.2-0.2-0.4s0.1-0.3,0.2-0.4s0.2-0.2,0.4-0.2h1.1
			c0.2,0,0.3,0.1,0.4,0.2s0.2,0.2,0.2,0.4v2.3c0,0.5-0.2,0.9-0.5,1.2s-0.7,0.5-1.2,0.5H99.5z"/>
		<path class="st0" d="M111.6,191.2h-2.9v2.3c0,0.5-0.1,0.9-0.2,1s-0.2,0.2-0.4,0.2s-0.3-0.1-0.4-0.2s-0.2-0.2-0.2-0.4v-6.9
			c0-0.2,0.1-0.3,0.2-0.4s0.2-0.2,0.4-0.2h4.6c0.2,0,0.3,0.1,0.4,0.2s0.2,0.2,0.2,0.4s-0.1,0.3-0.2,0.4s-0.2,0.2-0.4,0.2h-4v2.3h2.9
			c0.2,0,0.3,0.1,0.4,0.2s0.2,0.2,0.2,0.4s-0.1,0.3-0.2,0.4S111.8,191.2,111.6,191.2z"/>
		<path class="st0" d="M121.5,194.6h-2.3c-0.5,0-0.9-0.2-1.2-0.5s-0.5-0.7-0.5-1.2v-5.7c0-0.2,0.1-0.3,0.2-0.4s0.2-0.2,0.4-0.2
			s0.3,0.1,0.4,0.2s0.2,0.2,0.2,0.4v5.7c0,0.2,0.1,0.3,0.2,0.4s0.2,0.2,0.4,0.2h2.3c0.2,0,0.3-0.1,0.4-0.2s0.2-0.2,0.2-0.4v-5.7
			c0-0.2,0.1-0.3,0.2-0.4s0.2-0.2,0.4-0.2s0.3,0.1,0.4,0.2s0.2,0.2,0.2,0.4v5.7c0,0.5-0.2,0.9-0.5,1.2S122,194.6,121.5,194.6z"/>
		<path class="st0" d="M132.5,194.6c-0.2,0-0.3-0.1-0.4-0.2s-0.2-0.2-0.2-0.4v-2.3c0-0.2-0.1-0.3-0.2-0.4s-0.2-0.2-0.4-0.2h-2.9v2.9
			c0,0.2-0.1,0.3-0.2,0.4s-0.2,0.2-0.4,0.2c-0.2,0-0.3-0.1-0.4-0.2s-0.2-0.2-0.2-0.4v-6.9c0-0.2,0.1-0.3,0.2-0.4s0.2-0.2,0.4-0.2
			h3.4c0.5,0,0.9,0.2,1.2,0.5s0.5,0.7,0.5,1.2v1.1c0,0.5-0.2,0.9-0.5,1.2c0.3,0.3,0.5,0.6,0.5,1.1v2.3c0,0.2-0.1,0.3-0.2,0.4
			S132.7,194.6,132.5,194.6z M128.5,190.1h2.9c0.2,0,0.3-0.1,0.4-0.2s0.2-0.2,0.2-0.4v-1.1c0-0.2-0.1-0.3-0.2-0.4s-0.2-0.2-0.4-0.2
			h-2.9V190.1z"/>
		<path class="st0" d="M141.2,194.6h-2.3c-0.5,0-0.9-0.2-1.2-0.5s-0.5-0.7-0.5-1.2c0-0.2,0.1-0.3,0.2-0.4s0.2-0.2,0.4-0.2
			s0.3,0.1,0.4,0.2s0.2,0.2,0.2,0.4s0.1,0.3,0.2,0.4s0.2,0.2,0.4,0.2h2.3c0.2,0,0.3-0.1,0.4-0.2s0.2-0.2,0.2-0.4v-5.7
			c0-0.2,0.1-0.3,0.2-0.4s0.2-0.2,0.4-0.2s0.3,0.1,0.4,0.2s0.2,0.2,0.2,0.4v5.7c0,0.5-0.2,0.9-0.5,1.2S141.7,194.6,141.2,194.6z"/>
		<path class="st0" d="M11.6,203.6l3.1,3c0.1,0.1,0.2,0.2,0.2,0.4s-0.1,0.3-0.2,0.4c-0.1,0.1-0.2,0.2-0.4,0.2s-0.3-0.1-0.4-0.2
			l-3-3.1l-0.6,0.6v2.1c0,0.2-0.1,0.3-0.2,0.4c-0.1,0.1-0.2,0.2-0.4,0.2s-0.3-0.1-0.4-0.2s-0.2-0.2-0.2-0.4v-6.9
			c0-0.2,0.1-0.3,0.2-0.4s0.2-0.2,0.4-0.2s0.3,0.1,0.4,0.2c0.1,0.1,0.2,0.2,0.2,0.4v3.2l3.6-3.6c0.1-0.1,0.2-0.2,0.4-0.2
			s0.3,0.1,0.4,0.2c0.1,0.1,0.2,0.2,0.2,0.4s-0.1,0.3-0.2,0.4L11.6,203.6z"/>
		<path class="st0" d="M20.7,207.6c-0.5,0-0.9-0.2-1.2-0.5s-0.5-0.7-0.5-1.2v-4.6c0-0.5,0.2-0.9,0.5-1.2s0.7-0.5,1.2-0.5h2.3
			c0.5,0,0.9,0.2,1.2,0.5s0.5,0.7,0.5,1.2c0,0.2-0.1,0.3-0.2,0.4s-0.2,0.2-0.4,0.2s-0.3-0.1-0.4-0.2s-0.2-0.2-0.2-0.4
			s-0.1-0.3-0.2-0.4s-0.2-0.2-0.4-0.2h-2.3c-0.2,0-0.3,0.1-0.4,0.2s-0.2,0.2-0.2,0.4v4.6c0,0.2,0.1,0.3,0.2,0.4s0.2,0.2,0.4,0.2h2.3
			c0.2,0,0.3-0.1,0.4-0.2s0.2-0.2,0.2-0.4v-1.7h-0.6c-0.2,0-0.3-0.1-0.4-0.2s-0.2-0.2-0.2-0.4s0.1-0.3,0.2-0.4s0.2-0.2,0.4-0.2h1.1
			c0.2,0,0.3,0.1,0.4,0.2s0.2,0.2,0.2,0.4v2.3c0,0.5-0.2,0.9-0.5,1.2s-0.7,0.5-1.2,0.5H20.7z"/>
		<path class="st0" d="M30.5,207.6c-0.5,0-0.9-0.2-1.2-0.5s-0.5-0.7-0.5-1.2v-4.6c0-0.5,0.2-0.9,0.5-1.2s0.7-0.5,1.2-0.5h2.3
			c0.5,0,0.9,0.2,1.2,0.5s0.5,0.7,0.5,1.2v4.6c0,0.5-0.2,0.9-0.5,1.2s-0.7,0.5-1.2,0.5H30.5z M33.4,201.3c0-0.2-0.1-0.3-0.2-0.4
			s-0.2-0.2-0.4-0.2h-2.3c-0.2,0-0.3,0.1-0.4,0.2s-0.2,0.2-0.2,0.4v4.6c0,0.2,0.1,0.3,0.2,0.4s0.2,0.2,0.4,0.2h2.3
			c0.2,0,0.3-0.1,0.4-0.2s0.2-0.2,0.2-0.4V201.3z"/>
		<path class="st0" d="M42.7,207.6c-0.5,0-0.9-0.2-1.2-0.5c-0.3,0.3-0.6,0.5-1.1,0.5c-0.5,0-0.9-0.2-1.2-0.5s-0.5-0.7-0.5-1.2v-5.7
			c0-0.2,0.1-0.3,0.2-0.4s0.2-0.2,0.4-0.2s0.3,0.1,0.4,0.2s0.2,0.2,0.2,0.4v5.7c0,0.2,0.1,0.3,0.2,0.4s0.2,0.2,0.4,0.2
			s0.3-0.1,0.4-0.2s0.2-0.2,0.2-0.4v-2.3c0-0.2,0.1-0.3,0.2-0.4s0.2-0.2,0.4-0.2s0.3,0.1,0.4,0.2s0.2,0.2,0.2,0.4v2.3
			c0,0.2,0.1,0.3,0.2,0.4s0.2,0.2,0.4,0.2s0.3-0.1,0.4-0.2s0.2-0.2,0.2-0.4v-5.7c0-0.2,0.1-0.3,0.2-0.4s0.2-0.2,0.4-0.2
			s0.3,0.1,0.4,0.2s0.2,0.2,0.2,0.4v5.7c0,0.5-0.2,0.9-0.5,1.2S43.1,207.6,42.7,207.6z"/>
		<path class="st0" d="M53.6,207.6c-0.2,0-0.3-0.1-0.4-0.2s-0.2-0.2-0.2-0.4v-2.3c0-0.2-0.1-0.3-0.2-0.4s-0.2-0.2-0.4-0.2h-2.9v2.9
			c0,0.2-0.1,0.3-0.2,0.4s-0.2,0.2-0.4,0.2s-0.3-0.1-0.4-0.2s-0.2-0.2-0.2-0.4v-6.9c0-0.2,0.1-0.3,0.2-0.4s0.2-0.2,0.4-0.2h3.4
			c0.5,0,0.9,0.2,1.2,0.5s0.5,0.7,0.5,1.2v1.1c0,0.5-0.2,0.9-0.5,1.2c0.3,0.3,0.5,0.6,0.5,1.1v2.3c0,0.2-0.1,0.3-0.2,0.4
			S53.8,207.6,53.6,207.6z M49.6,203.1h2.9c0.2,0,0.3-0.1,0.4-0.2s0.2-0.2,0.2-0.4v-1.1c0-0.2-0.1-0.3-0.2-0.4s-0.2-0.2-0.4-0.2
			h-2.9V203.1z"/>
		<path class="st0" d="M62.4,204.2h-2.9v2.3h4c0.2,0,0.3,0.1,0.4,0.2c0.1,0.1,0.2,0.2,0.2,0.4s-0.1,0.3-0.2,0.4
			c-0.1,0.1-0.2,0.2-0.4,0.2h-4.6c-0.2,0-0.3-0.1-0.4-0.2s-0.2-0.2-0.2-0.4v-6.9c0-0.2,0.1-0.3,0.2-0.4s0.2-0.2,0.4-0.2h4.6
			c0.2,0,0.3,0.1,0.4,0.2c0.1,0.1,0.2,0.2,0.2,0.4s-0.1,0.3-0.2,0.4c-0.1,0.1-0.2,0.2-0.4,0.2h-4v2.3h2.9c0.2,0,0.3,0.1,0.4,0.2
			s0.2,0.2,0.2,0.4s-0.1,0.3-0.2,0.4S62.5,204.2,62.4,204.2z"/>
		<path class="st0" d="M68.8,204.2c-0.2,0-0.3-0.1-0.4-0.2s-0.2-0.2-0.2-0.4v-3.4c0-0.2,0.1-0.3,0.2-0.4s0.2-0.2,0.4-0.2h4.6
			c0.2,0,0.3,0.1,0.4,0.2s0.2,0.2,0.2,0.4s-0.1,0.3-0.2,0.4s-0.2,0.2-0.4,0.2h-4v2.3h2.9c0.5,0,0.9,0.2,1.2,0.5
			c0.3,0.3,0.5,0.7,0.5,1.2v1.1c0,0.5-0.2,0.9-0.5,1.2s-0.7,0.5-1.2,0.5h-3.4c-0.2,0-0.3-0.1-0.4-0.2s-0.2-0.2-0.2-0.4
			s0.1-0.3,0.2-0.4s0.2-0.2,0.4-0.2h3.4c0.2,0,0.3-0.1,0.4-0.2s0.2-0.2,0.2-0.4v-1.1c0-0.2-0.1-0.3-0.2-0.4s-0.2-0.2-0.4-0.2H68.8z"
			/>
		<path class="st0" d="M79.8,207.6c-0.5,0-0.9-0.2-1.2-0.5s-0.5-0.7-0.5-1.2v-4.6c0-0.5,0.2-0.9,0.5-1.2s0.7-0.5,1.2-0.5h2.3
			c0.5,0,0.9,0.2,1.2,0.5s0.5,0.7,0.5,1.2v4.6c0,0.5-0.2,0.9-0.5,1.2s-0.7,0.5-1.2,0.5H79.8z M82.6,201.3c0-0.2-0.1-0.3-0.2-0.4
			s-0.2-0.2-0.4-0.2h-2.3c-0.2,0-0.3,0.1-0.4,0.2s-0.2,0.2-0.2,0.4v4.6c0,0.2,0.1,0.3,0.2,0.4s0.2,0.2,0.4,0.2h2.3
			c0.2,0,0.3-0.1,0.4-0.2s0.2-0.2,0.2-0.4V201.3z"/>
		<path class="st0" d="M91.9,207.6h-2.3c-0.5,0-0.9-0.2-1.2-0.5s-0.5-0.7-0.5-1.2c0-0.2,0.1-0.3,0.2-0.4s0.2-0.2,0.4-0.2
			s0.3,0.1,0.4,0.2s0.2,0.2,0.2,0.4s0.1,0.3,0.2,0.4s0.2,0.2,0.4,0.2h2.3c0.2,0,0.3-0.1,0.4-0.2s0.2-0.2,0.2-0.4v-5.7
			c0-0.2,0.1-0.3,0.2-0.4s0.2-0.2,0.4-0.2s0.3,0.1,0.4,0.2s0.2,0.2,0.2,0.4v5.7c0,0.5-0.2,0.9-0.5,1.2S92.4,207.6,91.9,207.6z"/>
		<path class="st0" d="M97.8,205.9c0-0.2,0.1-0.3,0.2-0.4l4.4-4.4v-0.3h-4c-0.2,0-0.3-0.1-0.4-0.2s-0.2-0.2-0.2-0.4s0.1-0.3,0.2-0.4
			s0.2-0.2,0.4-0.2h4.6c0.2,0,0.3,0.1,0.4,0.2s0.2,0.2,0.2,0.4v1.1c0,0.2-0.1,0.3-0.2,0.4l-4.4,4.4v0.4h4c0.2,0,0.3,0.1,0.4,0.2
			s0.2,0.2,0.2,0.4s-0.1,0.3-0.2,0.4s-0.2,0.2-0.4,0.2h-4.6c-0.2,0-0.3-0.1-0.4-0.2s-0.2-0.2-0.2-0.4V205.9z"/>
		<path class="st0" d="M108.8,204.2h2.3v-4c0-0.2,0.1-0.3,0.2-0.4s0.2-0.2,0.4-0.2s0.3,0.1,0.4,0.2s0.2,0.2,0.2,0.4v4h0.6
			c0.2,0,0.3,0.1,0.4,0.2s0.2,0.2,0.2,0.4s-0.1,0.3-0.2,0.4s-0.2,0.2-0.4,0.2h-0.6v1.7c0,0.2-0.1,0.3-0.2,0.4s-0.2,0.2-0.4,0.2
			s-0.3-0.1-0.4-0.2s-0.2-0.2-0.2-0.4v-1.7h-2.9c-0.2,0-0.3-0.1-0.4-0.2s-0.2-0.2-0.2-0.4v-3.4c0-0.2,0.1-0.3,0.2-0.4
			s0.2-0.2,0.4-0.2s0.3,0.1,0.4,0.2s0.2,0.2,0.2,0.4V204.2z"/>
		<path class="st0" d="M119.2,207.6c-0.5,0-0.9-0.2-1.2-0.5s-0.5-0.7-0.5-1.2v-4.6c0-0.5,0.2-0.9,0.5-1.2s0.7-0.5,1.2-0.5h2.3
			c0.5,0,0.9,0.2,1.2,0.5s0.5,0.7,0.5,1.2c0,0.2-0.1,0.3-0.2,0.4s-0.2,0.2-0.4,0.2s-0.3-0.1-0.4-0.2s-0.2-0.2-0.2-0.4
			s-0.1-0.3-0.2-0.4s-0.2-0.2-0.4-0.2h-2.3c-0.2,0-0.3,0.1-0.4,0.2s-0.2,0.2-0.2,0.4v4.6c0,0.2,0.1,0.3,0.2,0.4s0.2,0.2,0.4,0.2h2.3
			c0.2,0,0.3-0.1,0.4-0.2s0.2-0.2,0.2-0.4v-1.7h-0.6c-0.2,0-0.3-0.1-0.4-0.2s-0.2-0.2-0.2-0.4s0.1-0.3,0.2-0.4s0.2-0.2,0.4-0.2h1.1
			c0.2,0,0.3,0.1,0.4,0.2s0.2,0.2,0.2,0.4v2.3c0,0.5-0.2,0.9-0.5,1.2s-0.7,0.5-1.2,0.5H119.2z"/>
		<path class="st0" d="M128.5,206.1v0.9c0,0.2-0.1,0.3-0.2,0.4s-0.2,0.2-0.4,0.2c-0.2,0-0.3-0.1-0.4-0.2s-0.2-0.2-0.2-0.4v-1.1
			c0-0.2,0.1-0.3,0.2-0.4l1.9-1.9l-1.9-1.9c-0.1-0.1-0.2-0.2-0.2-0.4v-1.1c0-0.2,0.1-0.3,0.2-0.4s0.2-0.2,0.4-0.2
			c0.2,0,0.3,0.1,0.4,0.2s0.2,0.2,0.2,0.4v0.9l1.7,1.7l1.7-1.7v-0.9c0-0.2,0.1-0.3,0.2-0.4s0.2-0.2,0.4-0.2s0.3,0.1,0.4,0.2
			s0.2,0.2,0.2,0.4v1.1c0,0.2-0.1,0.3-0.2,0.4l-1.9,1.9l1.9,1.9c0.1,0.1,0.2,0.2,0.2,0.4v1.1c0,0.2-0.1,0.3-0.2,0.4
			s-0.2,0.2-0.4,0.2s-0.3-0.1-0.4-0.2s-0.2-0.2-0.2-0.4v-0.9l-1.7-1.7L128.5,206.1z"/>
		<path class="st0" d="M137.8,204.2c-0.2,0-0.3-0.1-0.4-0.2s-0.2-0.2-0.2-0.4v-3.4c0-0.2,0.1-0.3,0.2-0.4s0.2-0.2,0.4-0.2h4.6
			c0.2,0,0.3,0.1,0.4,0.2s0.2,0.2,0.2,0.4s-0.1,0.3-0.2,0.4s-0.2,0.2-0.4,0.2h-4v2.3h2.9c0.5,0,0.9,0.2,1.2,0.5
			c0.3,0.3,0.5,0.7,0.5,1.2v1.1c0,0.5-0.2,0.9-0.5,1.2s-0.7,0.5-1.2,0.5h-3.4c-0.2,0-0.3-0.1-0.4-0.2s-0.2-0.2-0.2-0.4
			s0.1-0.3,0.2-0.4s0.2-0.2,0.4-0.2h3.4c0.2,0,0.3-0.1,0.4-0.2s0.2-0.2,0.2-0.4v-1.1c0-0.2-0.1-0.3-0.2-0.4s-0.2-0.2-0.4-0.2H137.8z
			"/>
		<path class="st0" d="M10.2,217.2h2.3v-4c0-0.2,0.1-0.3,0.2-0.4c0.1-0.1,0.2-0.2,0.4-0.2s0.3,0.1,0.4,0.2c0.1,0.1,0.2,0.2,0.2,0.4
			v4h0.6c0.2,0,0.3,0.1,0.4,0.2c0.1,0.1,0.2,0.2,0.2,0.4s-0.1,0.3-0.2,0.4c-0.1,0.1-0.2,0.2-0.4,0.2h-0.6v1.7c0,0.2-0.1,0.3-0.2,0.4
			c-0.1,0.1-0.2,0.2-0.4,0.2s-0.3-0.1-0.4-0.2c-0.1-0.1-0.2-0.2-0.2-0.4v-1.7H9.6c-0.2,0-0.3-0.1-0.4-0.2s-0.2-0.2-0.2-0.4v-3.4
			c0-0.2,0.1-0.3,0.2-0.4s0.2-0.2,0.4-0.2s0.3,0.1,0.4,0.2c0.1,0.1,0.2,0.2,0.2,0.4V217.2z"/>
		<path class="st0" d="M20.7,220.6c-0.5,0-0.9-0.2-1.2-0.5s-0.5-0.7-0.5-1.2v-4.6c0-0.5,0.2-0.9,0.5-1.2s0.7-0.5,1.2-0.5h2.3
			c0.5,0,0.9,0.2,1.2,0.5s0.5,0.7,0.5,1.2v4.6c0,0.5-0.2,0.9-0.5,1.2s-0.7,0.5-1.2,0.5H20.7z M23.5,214.3c0-0.2-0.1-0.3-0.2-0.4
			s-0.2-0.2-0.4-0.2h-2.3c-0.2,0-0.3,0.1-0.4,0.2s-0.2,0.2-0.2,0.4v4.6c0,0.2,0.1,0.3,0.2,0.4s0.2,0.2,0.4,0.2h2.3
			c0.2,0,0.3-0.1,0.4-0.2s0.2-0.2,0.2-0.4V214.3z"/>
		<path class="st0" d="M30.5,220.6c-0.5,0-0.9-0.2-1.2-0.5s-0.5-0.7-0.5-1.2v-4.6c0-0.5,0.2-0.9,0.5-1.2s0.7-0.5,1.2-0.5h2.3
			c0.5,0,0.9,0.2,1.2,0.5s0.5,0.7,0.5,1.2c0,0.2-0.1,0.3-0.2,0.4s-0.2,0.2-0.4,0.2s-0.3-0.1-0.4-0.2s-0.2-0.2-0.2-0.4
			s-0.1-0.3-0.2-0.4s-0.2-0.2-0.4-0.2h-2.3c-0.2,0-0.3,0.1-0.4,0.2s-0.2,0.2-0.2,0.4v4.6c0,0.2,0.1,0.3,0.2,0.4s0.2,0.2,0.4,0.2h2.3
			c0.2,0,0.3-0.1,0.4-0.2s0.2-0.2,0.2-0.4v-1.7h-0.6c-0.2,0-0.3-0.1-0.4-0.2s-0.2-0.2-0.2-0.4s0.1-0.3,0.2-0.4s0.2-0.2,0.4-0.2h1.1
			c0.2,0,0.3,0.1,0.4,0.2s0.2,0.2,0.2,0.4v2.3c0,0.5-0.2,0.9-0.5,1.2s-0.7,0.5-1.2,0.5H30.5z"/>
		<path class="st0" d="M39.2,217.2c-0.2,0-0.3-0.1-0.4-0.2s-0.2-0.2-0.2-0.4v-3.4c0-0.2,0.1-0.3,0.2-0.4s0.2-0.2,0.4-0.2h4.6
			c0.2,0,0.3,0.1,0.4,0.2s0.2,0.2,0.2,0.4s-0.1,0.3-0.2,0.4s-0.2,0.2-0.4,0.2h-4v2.3h2.9c0.5,0,0.9,0.2,1.2,0.5
			c0.3,0.3,0.5,0.7,0.5,1.2v1.1c0,0.5-0.2,0.9-0.5,1.2s-0.7,0.5-1.2,0.5h-3.4c-0.2,0-0.3-0.1-0.4-0.2s-0.2-0.2-0.2-0.4
			s0.1-0.3,0.2-0.4s0.2-0.2,0.4-0.2h3.4c0.2,0,0.3-0.1,0.4-0.2s0.2-0.2,0.2-0.4v-1.1c0-0.2-0.1-0.3-0.2-0.4s-0.2-0.2-0.4-0.2H39.2z"
			/>
		<path class="st0" d="M49.1,220.6c-0.2,0-0.3-0.1-0.4-0.2s-0.2-0.2-0.2-0.4v-6.9c0-0.2,0.1-0.3,0.2-0.4s0.2-0.2,0.4-0.2
			s0.3,0.1,0.4,0.2l3.6,3.6v-3.2c0-0.2,0.1-0.3,0.2-0.4s0.2-0.2,0.4-0.2s0.3,0.1,0.4,0.2s0.2,0.2,0.2,0.4v6.9c0,0.2-0.1,0.3-0.2,0.4
			s-0.2,0.2-0.4,0.2s-0.3-0.1-0.4-0.2s-0.2-0.2-0.2-0.4V218l-3.4-3.4v5.5c0,0.2-0.1,0.3-0.2,0.4S49.2,220.6,49.1,220.6z"/>
		<path class="st0" d="M58.9,214.9c-0.2,0-0.3-0.1-0.4-0.2s-0.2-0.2-0.2-0.4c0-0.5,0.2-0.9,0.5-1.2s0.7-0.5,1.2-0.5h2.3
			c0.5,0,0.9,0.2,1.2,0.5s0.5,0.7,0.5,1.2v1.1c0,0.2-0.1,0.3-0.2,0.4l-3.6,3.6h3.2c0.2,0,0.3,0.1,0.4,0.2c0.1,0.1,0.2,0.2,0.2,0.4
			s-0.1,0.3-0.2,0.4c-0.1,0.1-0.2,0.2-0.4,0.2h-4.6c-0.2,0-0.3-0.1-0.4-0.2s-0.2-0.2-0.2-0.4s0.1-0.3,0.2-0.4l4.4-4.4v-0.9
			c0-0.2-0.1-0.3-0.2-0.4s-0.2-0.2-0.4-0.2h-2.3c-0.2,0-0.3,0.1-0.4,0.2s-0.2,0.2-0.2,0.4s-0.1,0.3-0.2,0.4S59.1,214.9,58.9,214.9z"
			/>
		<path class="st0" d="M69.4,220.1c0,0.2-0.1,0.3-0.2,0.4s-0.2,0.2-0.4,0.2s-0.3-0.1-0.4-0.2s-0.2-0.2-0.2-0.4v-6.9
			c0-0.2,0.1-0.3,0.2-0.4s0.2-0.2,0.4-0.2h3.4c0.5,0,0.9,0.2,1.2,0.5s0.5,0.7,0.5,1.2v1.1c0,0.5-0.2,0.9-0.5,1.2
			c-0.3,0.3-0.7,0.5-1.2,0.5h-2.9V220.1z M69.4,216.1h2.9c0.2,0,0.3-0.1,0.4-0.2s0.2-0.2,0.2-0.4v-1.1c0-0.2-0.1-0.3-0.2-0.4
			s-0.2-0.2-0.4-0.2h-2.9V216.1z"/>
		<path class="st0" d="M83.8,217.8c0,0.2-0.1,0.3-0.2,0.4l-0.8,0.7l0.8,0.7c0.1,0.1,0.2,0.2,0.2,0.4s-0.1,0.3-0.2,0.4
			s-0.2,0.2-0.4,0.2s-0.3-0.1-0.4-0.2l-0.8-0.7l-0.7,0.7c-0.1,0.1-0.2,0.2-0.4,0.2h-1.1c-0.5,0-0.9-0.2-1.2-0.5s-0.5-0.7-0.5-1.2
			v-4.6c0-0.5,0.2-0.9,0.5-1.2s0.7-0.5,1.2-0.5h2.3c0.5,0,0.9,0.2,1.2,0.5s0.5,0.7,0.5,1.2V217.8z M82.6,214.3
			c0-0.2-0.1-0.3-0.2-0.4s-0.2-0.2-0.4-0.2h-2.3c-0.2,0-0.3,0.1-0.4,0.2s-0.2,0.2-0.2,0.4v4.6c0,0.2,0.1,0.3,0.2,0.4
			s0.2,0.2,0.4,0.2h0.9l0.6-0.6l-0.7-0.7c-0.1-0.1-0.2-0.2-0.2-0.4s0.1-0.3,0.2-0.4s0.2-0.2,0.4-0.2s0.3,0.1,0.4,0.2l0.6,0.6
			l0.7-0.7V214.3z"/>
		<path class="st0" d="M93.7,217.8c0,0.2-0.1,0.3-0.2,0.4l-0.8,0.7l0.8,0.7c0.1,0.1,0.2,0.2,0.2,0.4s-0.1,0.3-0.2,0.4
			s-0.2,0.2-0.4,0.2s-0.3-0.1-0.4-0.2l-0.8-0.7l-0.7,0.7c-0.1,0.1-0.2,0.2-0.4,0.2h-1.1c-0.5,0-0.9-0.2-1.2-0.5s-0.5-0.7-0.5-1.2
			v-4.6c0-0.5,0.2-0.9,0.5-1.2s0.7-0.5,1.2-0.5h2.3c0.5,0,0.9,0.2,1.2,0.5s0.5,0.7,0.5,1.2V217.8z M92.5,214.3
			c0-0.2-0.1-0.3-0.2-0.4s-0.2-0.2-0.4-0.2h-2.3c-0.2,0-0.3,0.1-0.4,0.2s-0.2,0.2-0.2,0.4v4.6c0,0.2,0.1,0.3,0.2,0.4
			s0.2,0.2,0.4,0.2h0.9l0.6-0.6l-0.7-0.7c-0.1-0.1-0.2-0.2-0.2-0.4s0.1-0.3,0.2-0.4s0.2-0.2,0.4-0.2s0.3,0.1,0.4,0.2l0.6,0.6
			l0.7-0.7V214.3z"/>
		<path class="st0" d="M98.4,220.6c-0.2,0-0.3-0.1-0.4-0.2s-0.2-0.2-0.2-0.4v-5.7c0-0.5,0.2-0.9,0.5-1.2s0.7-0.5,1.2-0.5h2.3
			c0.5,0,0.9,0.2,1.2,0.5s0.5,0.7,0.5,1.2v5.7c0,0.2-0.1,0.3-0.2,0.4s-0.2,0.2-0.4,0.2s-0.3-0.1-0.4-0.2s-0.2-0.2-0.2-0.4v-2.9h-3.4
			v2.9c0,0.2-0.1,0.3-0.2,0.4S98.5,220.6,98.4,220.6z M98.9,216.1h3.4v-1.7c0-0.2-0.1-0.3-0.2-0.4s-0.2-0.2-0.4-0.2h-2.3
			c-0.2,0-0.3,0.1-0.4,0.2s-0.2,0.2-0.2,0.4V216.1z"/>
		<path class="st0" d="M108.2,220.6c-0.2,0-0.3-0.1-0.4-0.2s-0.2-0.2-0.2-0.4v-6.9c0-0.2,0.1-0.3,0.2-0.4s0.2-0.2,0.4-0.2
			s0.3,0.1,0.4,0.2l3.6,3.6v-3.2c0-0.2,0.1-0.3,0.2-0.4s0.2-0.2,0.4-0.2s0.3,0.1,0.4,0.2s0.2,0.2,0.2,0.4v6.9c0,0.2-0.1,0.3-0.2,0.4
			s-0.2,0.2-0.4,0.2s-0.3-0.1-0.4-0.2s-0.2-0.2-0.2-0.4V218l-3.4-3.4v5.5c0,0.2-0.1,0.3-0.2,0.4S108.4,220.6,108.2,220.6z"/>
		<path class="st0" d="M119.2,217.2c-0.5,0-1-0.2-1.3-0.5s-0.5-0.7-0.5-1.3v-1.1c0-0.5,0.2-0.9,0.5-1.2s0.7-0.5,1.3-0.5h2.3
			c0.5,0,0.9,0.2,1.2,0.5s0.5,0.7,0.5,1.2c0,0.2-0.1,0.3-0.2,0.4s-0.2,0.2-0.4,0.2s-0.3-0.1-0.4-0.2s-0.2-0.2-0.2-0.4
			s-0.1-0.3-0.2-0.4s-0.2-0.2-0.4-0.2h-2.3c-0.2,0-0.3,0.1-0.4,0.2s-0.2,0.2-0.2,0.4v1.1c0,0.2,0.1,0.3,0.2,0.4s0.2,0.2,0.4,0.2h2.3
			c0.5,0,0.9,0.2,1.2,0.5c0.3,0.3,0.5,0.7,0.5,1.2v1.1c0,0.5-0.2,1-0.5,1.3s-0.7,0.5-1.2,0.5h-2.3c-0.5,0-0.9-0.2-1.2-0.5
			s-0.5-0.7-0.5-1.2c0-0.2,0.1-0.3,0.2-0.4s0.2-0.2,0.4-0.2s0.3,0.1,0.4,0.2s0.2,0.2,0.2,0.4s0.1,0.3,0.2,0.4s0.2,0.2,0.4,0.2h2.3
			c0.2,0,0.3-0.1,0.4-0.2s0.2-0.2,0.2-0.4v-1.1c0-0.2-0.1-0.3-0.2-0.4s-0.2-0.2-0.4-0.2H119.2z"/>
		<path class="st0" d="M127.9,220.6c-0.2,0-0.3-0.1-0.4-0.2s-0.2-0.2-0.2-0.4v-6.9c0-0.2,0.1-0.3,0.2-0.4s0.2-0.2,0.4-0.2h3.4
			c0.5,0,0.9,0.2,1.2,0.5s0.5,0.7,0.5,1.2v1.1c0,0.5-0.2,0.9-0.5,1.2c0.3,0.3,0.5,0.6,0.5,1.1v1.1c0,0.5-0.2,0.9-0.5,1.2
			s-0.7,0.5-1.2,0.5H127.9z M128.5,216.1h2.9c0.2,0,0.3-0.1,0.4-0.2s0.2-0.2,0.2-0.4v-1.1c0-0.2-0.1-0.3-0.2-0.4s-0.2-0.2-0.4-0.2
			h-2.9V216.1z M128.5,219.5h2.9c0.2,0,0.3-0.1,0.4-0.2s0.2-0.2,0.2-0.4v-1.1c0-0.2-0.1-0.3-0.2-0.4s-0.2-0.2-0.4-0.2h-2.9V219.5z"
			/>
		<path class="st0" d="M139.5,216.9l-2.1-2.1c-0.1-0.1-0.2-0.2-0.2-0.4v-1.1c0-0.2,0.1-0.3,0.2-0.4s0.2-0.2,0.4-0.2s0.3,0.1,0.4,0.2
			s0.2,0.2,0.2,0.4v0.9l1.7,1.7l1.7-1.7v-0.9c0-0.2,0.1-0.3,0.2-0.4s0.2-0.2,0.4-0.2s0.3,0.1,0.4,0.2s0.2,0.2,0.2,0.4v1.1
			c0,0.2-0.1,0.3-0.2,0.4l-2.1,2.1v3.2c0,0.2-0.1,0.3-0.2,0.4s-0.2,0.2-0.4,0.2s-0.3-0.1-0.4-0.2s-0.2-0.2-0.2-0.4V216.9z"/>
		<path class="st0" d="M13.1,233.6h-2.3c-0.5,0-0.9-0.2-1.2-0.5c-0.3-0.3-0.5-0.7-0.5-1.2v-5.7c0-0.2,0.1-0.3,0.2-0.4
			s0.2-0.2,0.4-0.2s0.3,0.1,0.4,0.2c0.1,0.1,0.2,0.2,0.2,0.4v5.7c0,0.2,0.1,0.3,0.2,0.4c0.1,0.1,0.2,0.2,0.4,0.2h2.3
			c0.2,0,0.3-0.1,0.4-0.2c0.1-0.1,0.2-0.2,0.2-0.4v-5.7c0-0.2,0.1-0.3,0.2-0.4c0.1-0.1,0.2-0.2,0.4-0.2s0.3,0.1,0.4,0.2
			c0.1,0.1,0.2,0.2,0.2,0.4v5.7c0,0.5-0.2,0.9-0.5,1.2C13.9,233.5,13.5,233.6,13.1,233.6z"/>
		<path class="st0" d="M21.2,229.9l-2.1-2.1c-0.1-0.1-0.2-0.2-0.2-0.4v-1.1c0-0.2,0.1-0.3,0.2-0.4s0.2-0.2,0.4-0.2s0.3,0.1,0.4,0.2
			s0.2,0.2,0.2,0.4v0.9l1.7,1.7l1.7-1.7v-0.9c0-0.2,0.1-0.3,0.2-0.4s0.2-0.2,0.4-0.2s0.3,0.1,0.4,0.2s0.2,0.2,0.2,0.4v1.1
			c0,0.2-0.1,0.3-0.2,0.4l-2.1,2.1v3.2c0,0.2-0.1,0.3-0.2,0.4s-0.2,0.2-0.4,0.2s-0.3-0.1-0.4-0.2s-0.2-0.2-0.2-0.4V229.9z"/>
		<path class="st0" d="M33.9,233.6c-0.2,0-0.3-0.1-0.4-0.2s-0.2-0.2-0.2-0.4v-2.3c0-0.2-0.1-0.3-0.2-0.4s-0.2-0.2-0.4-0.2h-2.9v2.9
			c0,0.2-0.1,0.3-0.2,0.4s-0.2,0.2-0.4,0.2s-0.3-0.1-0.4-0.2s-0.2-0.2-0.2-0.4v-6.9c0-0.2,0.1-0.3,0.2-0.4s0.2-0.2,0.4-0.2h3.4
			c0.5,0,0.9,0.2,1.2,0.5s0.5,0.7,0.5,1.2v1.1c0,0.5-0.2,0.9-0.5,1.2c0.3,0.3,0.5,0.6,0.5,1.1v2.3c0,0.2-0.1,0.3-0.2,0.4
			S34.1,233.6,33.9,233.6z M29.9,229.1h2.9c0.2,0,0.3-0.1,0.4-0.2s0.2-0.2,0.2-0.4v-1.1c0-0.2-0.1-0.3-0.2-0.4s-0.2-0.2-0.4-0.2
			h-2.9V229.1z"/>
		<path class="st0" d="M39.2,233.6c-0.2,0-0.3-0.1-0.4-0.2s-0.2-0.2-0.2-0.4v-6.9c0-0.2,0.1-0.3,0.2-0.4s0.2-0.2,0.4-0.2
			s0.3,0.1,0.4,0.2l3.6,3.6v-3.2c0-0.2,0.1-0.3,0.2-0.4s0.2-0.2,0.4-0.2s0.3,0.1,0.4,0.2s0.2,0.2,0.2,0.4v6.9c0,0.2-0.1,0.3-0.2,0.4
			s-0.2,0.2-0.4,0.2s-0.3-0.1-0.4-0.2s-0.2-0.2-0.2-0.4V231l-3.4-3.4v5.5c0,0.2-0.1,0.3-0.2,0.4S39.4,233.6,39.2,233.6z"/>
		<path class="st0" d="M49.6,233.1c0,0.2-0.1,0.3-0.2,0.4s-0.2,0.2-0.4,0.2s-0.3-0.1-0.4-0.2s-0.2-0.2-0.2-0.4v-6.9
			c0-0.2,0.1-0.3,0.2-0.4s0.2-0.2,0.4-0.2h3.4c0.5,0,0.9,0.2,1.2,0.5s0.5,0.7,0.5,1.2v1.1c0,0.5-0.2,0.9-0.5,1.2
			c-0.3,0.3-0.7,0.5-1.2,0.5h-2.9V233.1z M49.6,229.1h2.9c0.2,0,0.3-0.1,0.4-0.2s0.2-0.2,0.2-0.4v-1.1c0-0.2-0.1-0.3-0.2-0.4
			s-0.2-0.2-0.4-0.2h-2.9V229.1z"/>
		<path class="st0" d="M58.9,233.6c-0.2,0-0.3-0.1-0.4-0.2s-0.2-0.2-0.2-0.4v-6.9c0-0.2,0.1-0.3,0.2-0.4s0.2-0.2,0.4-0.2h3.4
			c0.5,0,0.9,0.2,1.2,0.5s0.5,0.7,0.5,1.2v1.1c0,0.5-0.2,0.9-0.5,1.2c0.3,0.3,0.5,0.6,0.5,1.1v1.1c0,0.5-0.2,0.9-0.5,1.2
			s-0.7,0.5-1.2,0.5H58.9z M59.5,229.1h2.9c0.2,0,0.3-0.1,0.4-0.2s0.2-0.2,0.2-0.4v-1.1c0-0.2-0.1-0.3-0.2-0.4s-0.2-0.2-0.4-0.2
			h-2.9V229.1z M59.5,232.5h2.9c0.2,0,0.3-0.1,0.4-0.2s0.2-0.2,0.2-0.4v-1.1c0-0.2-0.1-0.3-0.2-0.4s-0.2-0.2-0.4-0.2h-2.9V232.5z"/>
		<path class="st0" d="M68.8,233.6c-0.2,0-0.3-0.1-0.4-0.2s-0.2-0.2-0.2-0.4v-6.9c0-0.2,0.1-0.3,0.2-0.4s0.2-0.2,0.4-0.2h3.4
			c0.5,0,0.9,0.2,1.2,0.5s0.5,0.7,0.5,1.2v4.6c0,0.5-0.2,0.9-0.5,1.2s-0.7,0.5-1.2,0.5H68.8z M72.8,231.9v-4.6
			c0-0.2-0.1-0.3-0.2-0.4s-0.2-0.2-0.4-0.2h-2.9v5.7h2.9c0.2,0,0.3-0.1,0.4-0.2S72.8,232.1,72.8,231.9z"/>
		<path class="st0" d="M78.6,233.6c-0.2,0-0.3-0.1-0.4-0.2s-0.2-0.2-0.2-0.4v-5.7c0-0.5,0.2-0.9,0.5-1.2s0.7-0.5,1.2-0.5h2.3
			c0.5,0,0.9,0.2,1.2,0.5s0.5,0.7,0.5,1.2v5.7c0,0.2-0.1,0.3-0.2,0.4s-0.2,0.2-0.4,0.2s-0.3-0.1-0.4-0.2s-0.2-0.2-0.2-0.4v-2.9h-3.4
			v2.9c0,0.2-0.1,0.3-0.2,0.4S78.8,233.6,78.6,233.6z M79.2,229.1h3.4v-1.7c0-0.2-0.1-0.3-0.2-0.4s-0.2-0.2-0.4-0.2h-2.3
			c-0.2,0-0.3,0.1-0.4,0.2s-0.2,0.2-0.2,0.4V229.1z"/>
		<path class="st0" d="M87.9,231.9c0-0.2,0.1-0.3,0.2-0.4l4.4-4.4v-0.3h-4c-0.2,0-0.3-0.1-0.4-0.2s-0.2-0.2-0.2-0.4s0.1-0.3,0.2-0.4
			s0.2-0.2,0.4-0.2h4.6c0.2,0,0.3,0.1,0.4,0.2s0.2,0.2,0.2,0.4v1.1c0,0.2-0.1,0.3-0.2,0.4l-4.4,4.4v0.4h4c0.2,0,0.3,0.1,0.4,0.2
			s0.2,0.2,0.2,0.4s-0.1,0.3-0.2,0.4s-0.2,0.2-0.4,0.2h-4.6c-0.2,0-0.3-0.1-0.4-0.2s-0.2-0.2-0.2-0.4V231.9z"/>
		<path class="st0" d="M99.5,233.6c-0.2,0-0.3-0.1-0.4-0.2s-0.2-0.2-0.2-0.4s0.1-0.3,0.2-0.4s0.2-0.2,0.4-0.2h0.6v-5.7h-0.6
			c-0.2,0-0.3-0.1-0.4-0.2s-0.2-0.2-0.2-0.4s0.1-0.3,0.2-0.4s0.2-0.2,0.4-0.2h2.3c0.2,0,0.3,0.1,0.4,0.2s0.2,0.2,0.2,0.4
			s-0.1,0.3-0.2,0.4s-0.2,0.2-0.4,0.2h-0.6v5.7h0.6c0.2,0,0.3,0.1,0.4,0.2s0.2,0.2,0.2,0.4s-0.1,0.3-0.2,0.4s-0.2,0.2-0.4,0.2H99.5z
			"/>
		<path class="st0" d="M108.2,233.6c-0.2,0-0.3-0.1-0.4-0.2s-0.2-0.2-0.2-0.4v-6.9c0-0.2,0.1-0.3,0.2-0.4s0.2-0.2,0.4-0.2
			s0.3,0.1,0.4,0.2l3.6,3.6v-3.2c0-0.2,0.1-0.3,0.2-0.4s0.2-0.2,0.4-0.2s0.3,0.1,0.4,0.2s0.2,0.2,0.2,0.4v6.9c0,0.2-0.1,0.3-0.2,0.4
			s-0.2,0.2-0.4,0.2s-0.3-0.1-0.4-0.2s-0.2-0.2-0.2-0.4V231l-3.4-3.4v5.5c0,0.2-0.1,0.3-0.2,0.4S108.4,233.6,108.2,233.6z"/>
		<path class="st0" d="M119.2,233.6c-0.5,0-0.9-0.2-1.2-0.5s-0.5-0.7-0.5-1.2v-4.6c0-0.5,0.2-0.9,0.5-1.2s0.7-0.5,1.2-0.5h2.3
			c0.5,0,0.9,0.2,1.2,0.5s0.5,0.7,0.5,1.2c0,0.2-0.1,0.3-0.2,0.4s-0.2,0.2-0.4,0.2s-0.3-0.1-0.4-0.2s-0.2-0.2-0.2-0.4
			s-0.1-0.3-0.2-0.4s-0.2-0.2-0.4-0.2h-2.3c-0.2,0-0.3,0.1-0.4,0.2s-0.2,0.2-0.2,0.4v4.6c0,0.2,0.1,0.3,0.2,0.4s0.2,0.2,0.4,0.2h2.3
			c0.2,0,0.3-0.1,0.4-0.2s0.2-0.2,0.2-0.4s0.1-0.3,0.2-0.4s0.2-0.2,0.4-0.2s0.3,0.1,0.4,0.2s0.2,0.2,0.2,0.4c0,0.5-0.2,0.9-0.5,1.2
			s-0.7,0.5-1.2,0.5H119.2z"/>
		<path class="st0" d="M127.9,233.6c-0.2,0-0.3-0.1-0.4-0.2s-0.2-0.2-0.2-0.4v-5.7c0-0.5,0.2-0.9,0.5-1.2c0.3-0.3,0.7-0.5,1.2-0.5
			h2.3c0.5,0,0.9,0.2,1.2,0.5s0.5,0.7,0.5,1.2v5.7c0,0.2-0.1,0.3-0.2,0.4s-0.2,0.2-0.4,0.2s-0.3-0.1-0.4-0.2s-0.2-0.2-0.2-0.4v-2.9
			h-3.4v2.9c0,0.2-0.1,0.3-0.2,0.4S128.1,233.6,127.9,233.6z M128.5,229.1h3.4v-1.7c0-0.2-0.1-0.3-0.2-0.4s-0.2-0.2-0.4-0.2h-2.3
			c-0.2,0-0.3,0.1-0.4,0.2s-0.2,0.2-0.2,0.4V229.1z"/>
		<path class="st0" d="M137.8,226.8c-0.2,0-0.3-0.1-0.4-0.2s-0.2-0.2-0.2-0.4s0.1-0.3,0.2-0.4s0.2-0.2,0.4-0.2h4.6
			c0.2,0,0.3,0.1,0.4,0.2s0.2,0.2,0.2,0.4s-0.1,0.3-0.2,0.4s-0.2,0.2-0.4,0.2h-1.7v6.3c0,0.2-0.1,0.3-0.2,0.4s-0.2,0.2-0.4,0.2
			s-0.3-0.1-0.4-0.2s-0.2-0.2-0.2-0.4v-6.3H137.8z"/>
	</g>
</g>
<g id="all">
	<rect class="st2" width="153" height="242.6"/>
	<g>
		<path d="M11.2,172.3c0,0.3-0.1,0.6-0.3,0.8s-0.5,0.3-0.8,0.3c-0.3,0-0.6-0.1-0.8-0.3s-0.3-0.5-0.3-0.8v-13.7
			c0-0.3,0.1-0.6,0.3-0.8s0.5-0.3,0.8-0.3h6.9c0.9,0,1.7,0.3,2.4,1s1,1.5,1,2.4v2.3c0,0.9-0.3,1.7-1,2.4s-1.5,1-2.4,1h-5.7V172.3z
			 M11.2,164.3h5.7c0.3,0,0.6-0.1,0.8-0.3c0.2-0.2,0.3-0.5,0.3-0.8v-2.3c0-0.3-0.1-0.6-0.3-0.8c-0.2-0.2-0.5-0.3-0.8-0.3h-5.7V164.3
			z"/>
		<path d="M41.7,173.5h-4.6c-0.9,0-1.7-0.3-2.4-1c-0.7-0.7-1-1.5-1-2.4v-11.4c0-0.3,0.1-0.6,0.3-0.8s0.5-0.3,0.8-0.3
			c0.3,0,0.6,0.1,0.8,0.3s0.3,0.5,0.3,0.8V170c0,0.3,0.1,0.6,0.3,0.8s0.5,0.3,0.8,0.3h4.6c0.3,0,0.6-0.1,0.8-0.3
			c0.2-0.2,0.3-0.5,0.3-0.8v-11.4c0-0.3,0.1-0.6,0.3-0.8s0.5-0.3,0.8-0.3s0.6,0.1,0.8,0.3s0.3,0.5,0.3,0.8V170c0,0.9-0.3,1.7-1,2.4
			S42.6,173.5,41.7,173.5z"/>
		<path d="M59.6,173.5c-0.3,0-0.6-0.1-0.8-0.3s-0.3-0.5-0.3-0.8v-13.7c0-0.3,0.1-0.6,0.3-0.8s0.5-0.3,0.8-0.3h6.9
			c0.9,0,1.7,0.3,2.4,1s1,1.5,1,2.4v2.3c0,0.9-0.3,1.7-1,2.4c0.7,0.5,1,1.3,1,2.2v2.3c0,0.9-0.3,1.7-1,2.4s-1.5,1-2.4,1H59.6z
			 M60.7,164.3h5.7c0.3,0,0.6-0.1,0.8-0.3c0.2-0.2,0.3-0.5,0.3-0.8v-2.3c0-0.3-0.1-0.6-0.3-0.8c-0.2-0.2-0.5-0.3-0.8-0.3h-5.7V164.3
			z M60.7,171.2h5.7c0.3,0,0.6-0.1,0.8-0.3c0.2-0.2,0.3-0.5,0.3-0.8v-2.3c0-0.3-0.1-0.6-0.3-0.8c-0.2-0.2-0.5-0.3-0.8-0.3h-5.7
			V171.2z"/>
		<path d="M85.5,171.2h8c0.3,0,0.6,0.1,0.8,0.3c0.2,0.2,0.3,0.5,0.3,0.8s-0.1,0.6-0.3,0.8s-0.5,0.3-0.8,0.3h-9.1
			c-0.3,0-0.6-0.1-0.8-0.3s-0.3-0.5-0.3-0.8v-13.7c0-0.3,0.1-0.6,0.3-0.8s0.5-0.3,0.8-0.3c0.3,0,0.6,0.1,0.8,0.3s0.3,0.5,0.3,0.8
			V171.2z"/>
		<path d="M111.4,173.5c-0.3,0-0.6-0.1-0.8-0.3s-0.3-0.5-0.3-0.8s0.1-0.6,0.3-0.8c0.2-0.2,0.5-0.3,0.8-0.3h1.1v-11.4h-1.1
			c-0.3,0-0.6-0.1-0.8-0.3c-0.2-0.2-0.3-0.5-0.3-0.8s0.1-0.6,0.3-0.8s0.5-0.3,0.8-0.3h4.6c0.3,0,0.6,0.1,0.8,0.3
			c0.2,0.2,0.3,0.5,0.3,0.8s-0.1,0.6-0.3,0.8c-0.2,0.2-0.5,0.3-0.8,0.3h-1.1v11.4h1.1c0.3,0,0.6,0.1,0.8,0.3
			c0.2,0.2,0.3,0.5,0.3,0.8s-0.1,0.6-0.3,0.8c-0.2,0.2-0.5,0.3-0.8,0.3H111.4z"/>
		<path d="M136.1,173.5c-0.9,0-1.7-0.3-2.4-1c-0.7-0.7-1-1.5-1-2.4v-9.1c0-0.9,0.3-1.7,1-2.4c0.7-0.7,1.5-1,2.4-1h4.6
			c0.9,0,1.7,0.3,2.4,1s1,1.5,1,2.4c0,0.3-0.1,0.6-0.3,0.8s-0.5,0.3-0.8,0.3s-0.6-0.1-0.8-0.3s-0.3-0.5-0.3-0.8s-0.1-0.6-0.3-0.8
			c-0.2-0.2-0.5-0.3-0.8-0.3h-4.6c-0.3,0-0.6,0.1-0.8,0.3s-0.3,0.5-0.3,0.8v9.1c0,0.3,0.1,0.6,0.3,0.8s0.5,0.3,0.8,0.3h4.6
			c0.3,0,0.6-0.1,0.8-0.3c0.2-0.2,0.3-0.5,0.3-0.8s0.1-0.6,0.3-0.8s0.5-0.3,0.8-0.3s0.6,0.1,0.8,0.3s0.3,0.5,0.3,0.8
			c0,0.9-0.3,1.7-1,2.4s-1.5,1-2.4,1H136.1z"/>
	</g>
	<g>
		<circle class="st0" cx="43.6" cy="10.6" r="1.2"/>
		<circle class="st0" cx="76.5" cy="10.6" r="1.2"/>
		<circle class="st0" cx="101.3" cy="10.6" r="1.2"/>
		<circle class="st0" cx="55.9" cy="14.7" r="1.2"/>
		<circle class="st0" cx="60" cy="14.7" r="1.2"/>
		<circle class="st0" cx="64.2" cy="14.7" r="1.2"/>
		<circle class="st0" cx="68.3" cy="14.7" r="1.2"/>
		<circle class="st0" cx="80.7" cy="14.7" r="1.2"/>
		<circle class="st0" cx="88.9" cy="14.7" r="1.2"/>
		<circle class="st0" cx="43.6" cy="18.8" r="1.2"/>
		<circle class="st0" cx="47.7" cy="18.8" r="1.2"/>
		<circle class="st0" cx="68.3" cy="18.8" r="1.2"/>
		<circle class="st0" cx="88.9" cy="18.8" r="1.2"/>
		<circle class="st0" cx="109.5" cy="18.8" r="1.2"/>
		<circle class="st0" cx="76.5" cy="22.9" r="1.2"/>
		<circle class="st0" cx="88.9" cy="22.9" r="1.2"/>
		<circle class="st0" cx="97.2" cy="22.9" r="1.2"/>
		<circle class="st0" cx="109.5" cy="22.9" r="1.2"/>
		<circle class="st0" cx="51.8" cy="27.1" r="1.2"/>
		<circle class="st0" cx="60" cy="27.1" r="1.2"/>
		<circle class="st0" cx="101.3" cy="27.1" r="1.2"/>
		<circle class="st0" cx="51.8" cy="31.2" r="1.2"/>
		<circle class="st0" cx="88.9" cy="31.2" r="1.2"/>
		<circle class="st0" cx="93" cy="31.2" r="1.2"/>
		<circle class="st0" cx="97.2" cy="31.2" r="1.2"/>
		<circle class="st0" cx="105.4" cy="31.2" r="1.2"/>
		<circle class="st0" cx="64.2" cy="39.4" r="1.2"/>
		<circle class="st0" cx="31.2" cy="43.6" r="1.2"/>
		<circle class="st0" cx="51.8" cy="43.6" r="1.2"/>
		<circle class="st0" cx="101.3" cy="43.6" r="1.2"/>
		<circle class="st0" cx="134.3" cy="43.6" r="1.2"/>
		<circle class="st0" cx="142.5" cy="43.6" r="1.2"/>
		<circle class="st0" cx="27.1" cy="47.7" r="1.2"/>
		<circle class="st0" cx="43.6" cy="47.7" r="1.2"/>
		<circle class="st0" cx="64.2" cy="47.7" r="1.2"/>
		<circle class="st0" cx="72.4" cy="47.7" r="1.2"/>
		<circle class="st0" cx="80.7" cy="47.7" r="1.2"/>
		<circle class="st0" cx="84.8" cy="47.7" r="1.2"/>
		<circle class="st0" cx="113.6" cy="47.7" r="1.2"/>
		<circle class="st0" cx="121.9" cy="47.7" r="1.2"/>
		<circle class="st0" cx="138.4" cy="47.7" r="1.2"/>
		<circle class="st0" cx="22.9" cy="51.8" r="1.2"/>
		<circle class="st0" cx="47.7" cy="51.8" r="1.2"/>
		<circle class="st0" cx="84.8" cy="51.8" r="1.2"/>
		<circle class="st0" cx="88.9" cy="51.8" r="1.2"/>
		<circle class="st0" cx="109.5" cy="51.8" r="1.2"/>
		<circle class="st0" cx="126" cy="51.8" r="1.2"/>
		<circle class="st0" cx="18.8" cy="55.9" r="1.2"/>
		<circle class="st0" cx="31.2" cy="55.9" r="1.2"/>
		<circle class="st0" cx="47.7" cy="55.9" r="1.2"/>
		<circle class="st0" cx="60" cy="55.9" r="1.2"/>
		<circle class="st0" cx="126" cy="55.9" r="1.2"/>
		<circle class="st0" cx="31.2" cy="60" r="1.2"/>
		<circle class="st0" cx="55.9" cy="60" r="1.2"/>
		<circle class="st0" cx="68.3" cy="60" r="1.2"/>
		<circle class="st0" cx="88.9" cy="60" r="1.2"/>
		<circle class="st0" cx="97.2" cy="60" r="1.2"/>
		<circle class="st0" cx="101.3" cy="60" r="1.2"/>
		<circle class="st0" cx="117.8" cy="60" r="1.2"/>
		<circle class="st0" cx="121.9" cy="60" r="1.2"/>
		<circle class="st0" cx="138.4" cy="60" r="1.2"/>
		<circle class="st0" cx="142.5" cy="60" r="1.2"/>
		<circle class="st0" cx="51.8" cy="64.2" r="1.2"/>
		<circle class="st0" cx="80.7" cy="64.2" r="1.2"/>
		<circle class="st0" cx="84.8" cy="64.2" r="1.2"/>
		<circle class="st0" cx="121.9" cy="64.2" r="1.2"/>
		<circle class="st0" cx="138.4" cy="64.2" r="1.2"/>
		<circle class="st0" cx="10.6" cy="68.3" r="1.2"/>
		<circle class="st0" cx="18.8" cy="68.3" r="1.2"/>
		<circle class="st0" cx="22.9" cy="68.3" r="1.2"/>
		<circle class="st0" cx="27.1" cy="68.3" r="1.2"/>
		<circle class="st0" cx="43.6" cy="68.3" r="1.2"/>
		<circle class="st0" cx="55.9" cy="68.3" r="1.2"/>
		<circle class="st0" cx="68.3" cy="68.3" r="1.2"/>
		<circle class="st0" cx="97.2" cy="68.3" r="1.2"/>
		<circle class="st0" cx="130.1" cy="68.3" r="1.2"/>
		<circle class="st0" cx="14.7" cy="72.4" r="1.2"/>
		<circle class="st0" cx="27.1" cy="72.4" r="1.2"/>
		<circle class="st0" cx="51.8" cy="72.4" r="1.2"/>
		<circle class="st0" cx="64.2" cy="72.4" r="1.2"/>
		<circle class="st0" cx="72.4" cy="72.4" r="1.2"/>
		<circle class="st0" cx="80.7" cy="72.4" r="1.2"/>
		<circle class="st0" cx="130.1" cy="72.4" r="1.2"/>
		<circle class="st0" cx="22.9" cy="76.5" r="1.2"/>
		<circle class="st0" cx="31.2" cy="76.5" r="1.2"/>
		<circle class="st0" cx="60" cy="76.5" r="1.2"/>
		<circle class="st0" cx="88.9" cy="76.5" r="1.2"/>
		<circle class="st0" cx="97.2" cy="76.5" r="1.2"/>
		<circle class="st0" cx="105.4" cy="76.5" r="1.2"/>
		<circle class="st0" cx="113.6" cy="76.5" r="1.2"/>
		<circle class="st0" cx="117.8" cy="76.5" r="1.2"/>
		<circle class="st0" cx="142.5" cy="76.5" r="1.2"/>
		<circle class="st0" cx="10.6" cy="80.7" r="1.2"/>
		<circle class="st0" cx="27.1" cy="80.7" r="1.2"/>
		<circle class="st0" cx="39.4" cy="80.7" r="1.2"/>
		<circle class="st0" cx="47.7" cy="80.7" r="1.2"/>
		<circle class="st0" cx="64.2" cy="80.7" r="1.2"/>
		<circle class="st0" cx="68.3" cy="80.7" r="1.2"/>
		<circle class="st0" cx="80.7" cy="80.7" r="1.2"/>
		<circle class="st0" cx="113.6" cy="80.7" r="1.2"/>
		<circle class="st0" cx="121.9" cy="80.7" r="1.2"/>
		<circle class="st0" cx="27.1" cy="84.8" r="1.2"/>
		<circle class="st0" cx="43.6" cy="84.8" r="1.2"/>
		<circle class="st0" cx="51.8" cy="84.8" r="1.2"/>
		<circle class="st0" cx="93" cy="84.8" r="1.2"/>
		<circle class="st0" cx="105.4" cy="84.8" r="1.2"/>
		<circle class="st0" cx="130.1" cy="84.8" r="1.2"/>
		<circle class="st0" cx="134.3" cy="84.8" r="1.2"/>
		<circle class="st0" cx="14.7" cy="88.9" r="1.2"/>
		<circle class="st0" cx="39.4" cy="88.9" r="1.2"/>
		<circle class="st0" cx="60" cy="88.9" r="1.2"/>
		<circle class="st0" cx="68.3" cy="88.9" r="1.2"/>
		<circle class="st0" cx="80.7" cy="88.9" r="1.2"/>
		<circle class="st0" cx="126" cy="88.9" r="1.2"/>
		<circle class="st0" cx="14.7" cy="93" r="1.2"/>
		<circle class="st0" cx="18.8" cy="93" r="1.2"/>
		<circle class="st0" cx="22.9" cy="93" r="1.2"/>
		<circle class="st0" cx="27.1" cy="93" r="1.2"/>
		<circle class="st0" cx="31.2" cy="93" r="1.2"/>
		<circle class="st0" cx="39.4" cy="93" r="1.2"/>
		<circle class="st0" cx="55.9" cy="93" r="1.2"/>
		<circle class="st0" cx="68.3" cy="93" r="1.2"/>
		<circle class="st0" cx="84.8" cy="93" r="1.2"/>
		<circle class="st0" cx="97.2" cy="93" r="1.2"/>
		<circle class="st0" cx="105.4" cy="93" r="1.2"/>
		<circle class="st0" cx="138.4" cy="93" r="1.2"/>
		<circle class="st0" cx="142.5" cy="93" r="1.2"/>
		<circle class="st0" cx="31.2" cy="97.2" r="1.2"/>
		<circle class="st0" cx="39.4" cy="97.2" r="1.2"/>
		<circle class="st0" cx="47.7" cy="97.2" r="1.2"/>
		<circle class="st0" cx="72.4" cy="97.2" r="1.2"/>
		<circle class="st0" cx="93" cy="97.2" r="1.2"/>
		<circle class="st0" cx="121.9" cy="97.2" r="1.2"/>
		<circle class="st0" cx="138.4" cy="97.2" r="1.2"/>
		<circle class="st0" cx="27.1" cy="101.3" r="1.2"/>
		<circle class="st0" cx="47.7" cy="101.3" r="1.2"/>
		<circle class="st0" cx="55.9" cy="101.3" r="1.2"/>
		<circle class="st0" cx="68.3" cy="101.3" r="1.2"/>
		<circle class="st0" cx="97.2" cy="101.3" r="1.2"/>
		<circle class="st0" cx="105.4" cy="101.3" r="1.2"/>
		<circle class="st0" cx="117.8" cy="101.3" r="1.2"/>
		<circle class="st0" cx="18.8" cy="105.4" r="1.2"/>
		<circle class="st0" cx="22.9" cy="105.4" r="1.2"/>
		<circle class="st0" cx="27.1" cy="105.4" r="1.2"/>
		<circle class="st0" cx="31.2" cy="105.4" r="1.2"/>
		<circle class="st0" cx="55.9" cy="105.4" r="1.2"/>
		<circle class="st0" cx="64.2" cy="105.4" r="1.2"/>
		<circle class="st0" cx="88.9" cy="105.4" r="1.2"/>
		<circle class="st0" cx="105.4" cy="105.4" r="1.2"/>
		<circle class="st0" cx="113.6" cy="105.4" r="1.2"/>
		<circle class="st0" cx="117.8" cy="105.4" r="1.2"/>
		<circle class="st0" cx="126" cy="105.4" r="1.2"/>
		<circle class="st0" cx="14.7" cy="109.5" r="1.2"/>
		<circle class="st0" cx="27.1" cy="109.5" r="1.2"/>
		<circle class="st0" cx="60" cy="109.5" r="1.2"/>
		<circle class="st0" cx="76.5" cy="109.5" r="1.2"/>
		<circle class="st0" cx="84.8" cy="109.5" r="1.2"/>
		<circle class="st0" cx="88.9" cy="109.5" r="1.2"/>
		<circle class="st0" cx="93" cy="109.5" r="1.2"/>
		<circle class="st0" cx="97.2" cy="109.5" r="1.2"/>
		<circle class="st0" cx="101.3" cy="109.5" r="1.2"/>
		<circle class="st0" cx="105.4" cy="109.5" r="1.2"/>
		<circle class="st0" cx="138.4" cy="109.5" r="1.2"/>
		<circle class="st0" cx="142.5" cy="109.5" r="1.2"/>
		<circle class="st0" cx="72.4" cy="113.6" r="1.2"/>
		<circle class="st0" cx="97.2" cy="113.6" r="1.2"/>
		<circle class="st0" cx="138.4" cy="113.6" r="1.2"/>
		<circle class="st0" cx="47.7" cy="117.8" r="1.2"/>
		<circle class="st0" cx="51.8" cy="117.8" r="1.2"/>
		<circle class="st0" cx="84.8" cy="117.8" r="1.2"/>
		<circle class="st0" cx="88.9" cy="117.8" r="1.2"/>
		<circle class="st0" cx="93" cy="117.8" r="1.2"/>
		<circle class="st0" cx="134.3" cy="117.8" r="1.2"/>
		<circle class="st0" cx="43.6" cy="121.9" r="1.2"/>
		<circle class="st0" cx="47.7" cy="121.9" r="1.2"/>
		<circle class="st0" cx="80.7" cy="121.9" r="1.2"/>
		<circle class="st0" cx="130.1" cy="121.9" r="1.2"/>
		<circle class="st0" cx="47.7" cy="126" r="1.2"/>
		<circle class="st0" cx="55.9" cy="126" r="1.2"/>
		<circle class="st0" cx="76.5" cy="126" r="1.2"/>
		<circle class="st0" cx="88.9" cy="126" r="1.2"/>
		<circle class="st0" cx="97.2" cy="126" r="1.2"/>
		<circle class="st0" cx="105.4" cy="126" r="1.2"/>
		<circle class="st0" cx="142.5" cy="126" r="1.2"/>
		<circle class="st0" cx="47.7" cy="130.1" r="1.2"/>
		<circle class="st0" cx="60" cy="130.1" r="1.2"/>
		<circle class="st0" cx="72.4" cy="130.1" r="1.2"/>
		<circle class="st0" cx="84.8" cy="130.1" r="1.2"/>
		<circle class="st0" cx="93" cy="130.1" r="1.2"/>
		<circle class="st0" cx="105.4" cy="130.1" r="1.2"/>
		<circle class="st0" cx="113.6" cy="130.1" r="1.2"/>
		<circle class="st0" cx="142.5" cy="130.1" r="1.2"/>
		<circle class="st0" cx="55.9" cy="134.3" r="1.2"/>
		<circle class="st0" cx="64.2" cy="134.3" r="1.2"/>
		<circle class="st0" cx="88.9" cy="134.3" r="1.2"/>
		<circle class="st0" cx="126" cy="134.3" r="1.2"/>
		<circle class="st0" cx="134.3" cy="134.3" r="1.2"/>
		<circle class="st0" cx="55.9" cy="138.4" r="1.2"/>
		<circle class="st0" cx="64.2" cy="138.4" r="1.2"/>
		<circle class="st0" cx="72.4" cy="138.4" r="1.2"/>
		<circle class="st0" cx="80.7" cy="138.4" r="1.2"/>
		<circle class="st0" cx="84.8" cy="138.4" r="1.2"/>
		<circle class="st0" cx="113.6" cy="138.4" r="1.2"/>
		<circle class="st0" cx="126" cy="138.4" r="1.2"/>
		<circle class="st0" cx="60" cy="142.5" r="1.2"/>
		<circle class="st0" cx="84.8" cy="142.5" r="1.2"/>
		<circle class="st0" cx="88.9" cy="142.5" r="1.2"/>
		<circle class="st0" cx="93" cy="142.5" r="1.2"/>
		<circle class="st0" cx="97.2" cy="142.5" r="1.2"/>
		<circle class="st0" cx="105.4" cy="142.5" r="1.2"/>
		<circle class="st0" cx="142.5" cy="142.5" r="1.2"/>
	</g>
</g>
</svg>
