<?xml version="1.0" encoding="utf-8"?>
<!-- Generator: Adobe Illustrator 22.1.0, SVG Export Plug-In . SVG Version: 6.00 Build 0)  -->
<svg version="1.1" xmlns="http://www.w3.org/2000/svg" xmlns:xlink="http://www.w3.org/1999/xlink" x="0px" y="0px"
	 viewBox="0 0 153 242.6" style="enable-background:new 0 0 153 242.6;" xml:space="preserve">
<style type="text/css">
	.st0{fill:#010101;}
	.st1{fill:#EF4438;}
	.st2{fill:none;}
</style>
<g id="text">
</g>
<g id="all">
	<circle class="st0" cx="22.9" cy="22.9" r="6.2"/>
	<path class="st0" d="M30.1,10.4c-5.4-3.1-12-2.3-16.5,1.5c0,0,0,0,0,0c0,0,0,0,0,0c0,0,0,0,0,0l0,0c-0.9,0.8-1,2.1-0.2,3
		c0.8,0.9,2.1,1,3,0.2c0,0,0,0,0,0l0,0c3.2-2.7,7.8-3.3,11.6-1.1c3.8,2.2,5.6,6.5,4.9,10.6l0,0l0,0c-0.2,1.2,0.6,2.3,1.7,2.5
		c1.2,0.2,2.3-0.6,2.5-1.7c0,0,0-0.1,0-0.1C38.1,19.6,35.5,13.6,30.1,10.4z"/>
	<path class="st0" d="M15.7,35.4c-5.4-3.1-8-9.3-7-15.1c0,0,0,0,0,0c0,0,0,0,0,0c0,0,0,0,0,0l0,0c0.2-1.2,1.3-1.9,2.5-1.7
		c1.2,0.2,1.9,1.3,1.7,2.5c0,0,0,0,0,0l0,0c-0.7,4.1,1.1,8.4,4.9,10.6c3.8,2.2,8.4,1.6,11.6-1.1l0,0l0,0c0.9-0.8,2.3-0.7,3,0.2
		c0.8,0.9,0.7,2.3-0.2,3c0,0-0.1,0-0.1,0.1C27.7,37.8,21.1,38.5,15.7,35.4z"/>
	<rect class="st2" width="153" height="242.6"/>
	<circle class="st0" cx="130.2" cy="22.8" r="6.2"/>
	<path class="st0" d="M140.4,12.6c-4.4-4.4-11-5.4-16.4-2.8c0,0,0,0,0,0c0,0,0,0,0,0c0,0,0,0,0,0l0,0c-1.1,0.5-1.5,1.8-1,2.9
		c0.5,1.1,1.8,1.5,2.9,1c0,0,0,0,0,0l0,0c3.7-1.8,8.4-1.1,11.5,2c3.1,3.1,3.8,7.7,2,11.5l0,0l0,0c-0.5,1.1,0,2.4,1,2.9
		c1.1,0.5,2.4,0,2.9-1c0,0,0-0.1,0-0.1C145.8,23.6,144.8,17,140.4,12.6z"/>
	<path class="st0" d="M120,33c-4.4-4.4-5.4-11-2.8-16.4c0,0,0,0,0,0c0,0,0,0,0,0c0,0,0,0,0,0l0,0c0.5-1.1,1.8-1.5,2.9-1
		c1.1,0.5,1.5,1.8,1,2.9c0,0,0,0,0,0l0,0c-1.8,3.7-1.1,8.4,2,11.5c3.1,3.1,7.7,3.8,11.5,2l0,0l0,0c1.1-0.5,2.4,0,2.9,1
		c0.5,1.1,0,2.4-1,2.9c0,0-0.1,0-0.1,0C130.9,38.4,124.4,37.4,120,33z"/>
	<circle class="st0" cx="22.9" cy="130.1" r="6.2"/>
	<path class="st0" d="M33.1,119.9c-4.4-4.4-11-5.4-16.4-2.8c0,0,0,0,0,0c0,0,0,0,0,0c0,0,0,0,0,0l0,0c-1.1,0.5-1.5,1.8-1,2.9
		c0.5,1.1,1.8,1.5,2.9,1c0,0,0,0,0,0l0,0c3.7-1.8,8.4-1.1,11.5,2c3.1,3.1,3.8,7.7,2,11.5l0,0l0,0c-0.5,1.1,0,2.4,1,2.9
		c1.1,0.5,2.4,0,2.9-1c0,0,0-0.1,0-0.1C38.5,130.9,37.5,124.3,33.1,119.9z"/>
	<path class="st0" d="M12.7,140.3c-4.4-4.4-5.4-11-2.8-16.4c0,0,0,0,0,0c0,0,0,0,0,0c0,0,0,0,0,0l0,0c0.5-1.1,1.8-1.5,2.9-1
		c1.1,0.5,1.5,1.8,1,2.9c0,0,0,0,0,0l0,0c-1.8,3.7-1.1,8.4,2,11.5c3.1,3.1,7.7,3.8,11.5,2l0,0l0,0c1.1-0.5,2.4,0,2.9,1
		c0.5,1.1,0,2.4-1,2.9c0,0-0.1,0-0.1,0C23.7,145.7,17.1,144.7,12.7,140.3z"/>
	<g>
		<circle cx="64.2" cy="10.6" r="1.2"/>
		<circle cx="68.3" cy="10.6" r="1.2"/>
		<circle cx="97.2" cy="10.6" r="1.2"/>
		<circle cx="43.6" cy="14.7" r="1.2"/>
		<circle cx="72.4" cy="14.7" r="1.2"/>
		<circle cx="84.8" cy="14.7" r="1.2"/>
		<circle cx="93" cy="14.7" r="1.2"/>
		<circle cx="60" cy="18.8" r="1.2"/>
		<circle cx="93" cy="18.8" r="1.2"/>
		<circle cx="97.2" cy="18.8" r="1.2"/>
		<circle cx="101.3" cy="18.8" r="1.2"/>
		<circle cx="43.6" cy="22.9" r="1.2"/>
		<circle cx="47.7" cy="22.9" r="1.2"/>
		<circle cx="51.8" cy="22.9" r="1.2"/>
		<circle cx="60" cy="22.9" r="1.2"/>
		<circle cx="47.7" cy="27.1" r="1.2"/>
		<circle cx="88.9" cy="27.1" r="1.2"/>
		<circle cx="93" cy="27.1" r="1.2"/>
		<circle cx="97.2" cy="27.1" r="1.2"/>
		<circle cx="105.4" cy="27.1" r="1.2"/>
		<circle cx="109.5" cy="27.1" r="1.2"/>
		<circle cx="43.6" cy="31.2" r="1.2"/>
		<circle cx="47.7" cy="31.2" r="1.2"/>
		<circle cx="84.8" cy="31.2" r="1.2"/>
		<circle cx="43.6" cy="35.3" r="1.2"/>
		<circle cx="51.8" cy="35.3" r="1.2"/>
		<circle cx="60" cy="35.3" r="1.2"/>
		<circle cx="93" cy="35.3" r="1.2"/>
		<circle cx="101.3" cy="35.3" r="1.2"/>
		<circle cx="109.5" cy="35.3" r="1.2"/>
		<circle cx="51.8" cy="39.4" r="1.2"/>
		<circle cx="55.9" cy="39.4" r="1.2"/>
		<circle cx="76.5" cy="39.4" r="1.2"/>
		<circle cx="97.2" cy="39.4" r="1.2"/>
		<circle cx="105.4" cy="39.4" r="1.2"/>
		<circle cx="109.5" cy="39.4" r="1.2"/>
		<circle cx="10.6" cy="43.6" r="1.2"/>
		<circle cx="14.7" cy="43.6" r="1.2"/>
		<circle cx="27.1" cy="43.6" r="1.2"/>
		<circle cx="35.3" cy="43.6" r="1.2"/>
		<circle cx="60" cy="43.6" r="1.2"/>
		<circle cx="64.2" cy="43.6" r="1.2"/>
		<circle cx="72.4" cy="43.6" r="1.2"/>
		<circle cx="76.5" cy="43.6" r="1.2"/>
		<circle cx="80.7" cy="43.6" r="1.2"/>
		<circle cx="121.9" cy="43.6" r="1.2"/>
		<circle cx="130.1" cy="43.6" r="1.2"/>
		<circle cx="138.4" cy="43.6" r="1.2"/>
		<circle cx="68.3" cy="47.7" r="1.2"/>
		<circle cx="97.2" cy="47.7" r="1.2"/>
		<circle cx="101.3" cy="47.7" r="1.2"/>
		<circle cx="134.3" cy="47.7" r="1.2"/>
		<circle cx="14.7" cy="51.8" r="1.2"/>
		<circle cx="31.2" cy="51.8" r="1.2"/>
		<circle cx="35.3" cy="51.8" r="1.2"/>
		<circle cx="43.6" cy="51.8" r="1.2"/>
		<circle cx="51.8" cy="51.8" r="1.2"/>
		<circle cx="72.4" cy="51.8" r="1.2"/>
		<circle cx="80.7" cy="51.8" r="1.2"/>
		<circle cx="101.3" cy="51.8" r="1.2"/>
		<circle cx="113.6" cy="51.8" r="1.2"/>
		<circle cx="117.8" cy="51.8" r="1.2"/>
		<circle cx="138.4" cy="51.8" r="1.2"/>
		<circle cx="10.6" cy="55.9" r="1.2"/>
		<circle cx="14.7" cy="55.9" r="1.2"/>
		<circle cx="22.9" cy="55.9" r="1.2"/>
		<circle cx="39.4" cy="55.9" r="1.2"/>
		<circle cx="68.3" cy="55.9" r="1.2"/>
		<circle cx="76.5" cy="55.9" r="1.2"/>
		<circle cx="101.3" cy="55.9" r="1.2"/>
		<circle cx="117.8" cy="55.9" r="1.2"/>
		<circle cx="138.4" cy="55.9" r="1.2"/>
		<circle cx="142.5" cy="55.9" r="1.2"/>
		<circle cx="10.6" cy="60" r="1.2"/>
		<circle cx="18.8" cy="60" r="1.2"/>
		<circle cx="35.3" cy="60" r="1.2"/>
		<circle cx="43.6" cy="60" r="1.2"/>
		<circle cx="64.2" cy="60" r="1.2"/>
		<circle cx="76.5" cy="60" r="1.2"/>
		<circle cx="93" cy="60" r="1.2"/>
		<circle cx="109.5" cy="60" r="1.2"/>
		<circle cx="126" cy="60" r="1.2"/>
		<circle cx="130.1" cy="60" r="1.2"/>
		<circle cx="14.7" cy="64.2" r="1.2"/>
		<circle cx="60" cy="64.2" r="1.2"/>
		<circle cx="88.9" cy="64.2" r="1.2"/>
		<circle cx="97.2" cy="64.2" r="1.2"/>
		<circle cx="105.4" cy="64.2" r="1.2"/>
		<circle cx="130.1" cy="64.2" r="1.2"/>
		<circle cx="134.3" cy="64.2" r="1.2"/>
		<circle cx="35.3" cy="68.3" r="1.2"/>
		<circle cx="51.8" cy="68.3" r="1.2"/>
		<circle cx="60" cy="68.3" r="1.2"/>
		<circle cx="64.2" cy="68.3" r="1.2"/>
		<circle cx="72.4" cy="68.3" r="1.2"/>
		<circle cx="84.8" cy="68.3" r="1.2"/>
		<circle cx="101.3" cy="68.3" r="1.2"/>
		<circle cx="109.5" cy="68.3" r="1.2"/>
		<circle cx="113.6" cy="68.3" r="1.2"/>
		<circle cx="138.4" cy="68.3" r="1.2"/>
		<circle cx="22.9" cy="72.4" r="1.2"/>
		<circle cx="31.2" cy="72.4" r="1.2"/>
		<circle cx="55.9" cy="72.4" r="1.2"/>
		<circle cx="84.8" cy="72.4" r="1.2"/>
		<circle cx="88.9" cy="72.4" r="1.2"/>
		<circle cx="101.3" cy="72.4" r="1.2"/>
		<circle cx="105.4" cy="72.4" r="1.2"/>
		<circle cx="14.7" cy="76.5" r="1.2"/>
		<circle cx="18.8" cy="76.5" r="1.2"/>
		<circle cx="35.3" cy="76.5" r="1.2"/>
		<circle cx="64.2" cy="76.5" r="1.2"/>
		<circle cx="80.7" cy="76.5" r="1.2"/>
		<circle cx="93" cy="76.5" r="1.2"/>
		<circle cx="126" cy="76.5" r="1.2"/>
		<circle cx="18.8" cy="80.7" r="1.2"/>
		<circle cx="22.9" cy="80.7" r="1.2"/>
		<circle cx="51.8" cy="80.7" r="1.2"/>
		<circle cx="101.3" cy="80.7" r="1.2"/>
		<circle cx="130.1" cy="80.7" r="1.2"/>
		<circle cx="14.7" cy="84.8" r="1.2"/>
		<circle cx="22.9" cy="84.8" r="1.2"/>
		<circle cx="35.3" cy="84.8" r="1.2"/>
		<circle cx="39.4" cy="84.8" r="1.2"/>
		<circle cx="47.7" cy="84.8" r="1.2"/>
		<circle cx="72.4" cy="84.8" r="1.2"/>
		<circle cx="80.7" cy="84.8" r="1.2"/>
		<circle cx="84.8" cy="84.8" r="1.2"/>
		<circle cx="109.5" cy="84.8" r="1.2"/>
		<circle cx="138.4" cy="84.8" r="1.2"/>
		<circle cx="22.9" cy="88.9" r="1.2"/>
		<circle cx="43.6" cy="88.9" r="1.2"/>
		<circle cx="72.4" cy="88.9" r="1.2"/>
		<circle cx="97.2" cy="88.9" r="1.2"/>
		<circle cx="105.4" cy="88.9" r="1.2"/>
		<circle cx="109.5" cy="88.9" r="1.2"/>
		<circle cx="113.6" cy="88.9" r="1.2"/>
		<circle cx="121.9" cy="88.9" r="1.2"/>
		<circle cx="138.4" cy="88.9" r="1.2"/>
		<circle cx="10.6" cy="93" r="1.2"/>
		<circle cx="35.3" cy="93" r="1.2"/>
		<circle cx="43.6" cy="93" r="1.2"/>
		<circle cx="64.2" cy="93" r="1.2"/>
		<circle cx="72.4" cy="93" r="1.2"/>
		<circle cx="80.7" cy="93" r="1.2"/>
		<circle cx="101.3" cy="93" r="1.2"/>
		<circle cx="126" cy="93" r="1.2"/>
		<circle cx="10.6" cy="97.2" r="1.2"/>
		<circle cx="14.7" cy="97.2" r="1.2"/>
		<circle cx="22.9" cy="97.2" r="1.2"/>
		<circle cx="60" cy="97.2" r="1.2"/>
		<circle cx="97.2" cy="97.2" r="1.2"/>
		<circle cx="105.4" cy="97.2" r="1.2"/>
		<circle cx="113.6" cy="97.2" r="1.2"/>
		<circle cx="117.8" cy="97.2" r="1.2"/>
		<circle cx="18.8" cy="101.3" r="1.2"/>
		<circle cx="22.9" cy="101.3" r="1.2"/>
		<circle cx="31.2" cy="101.3" r="1.2"/>
		<circle cx="35.3" cy="101.3" r="1.2"/>
		<circle cx="43.6" cy="101.3" r="1.2"/>
		<circle cx="51.8" cy="101.3" r="1.2"/>
		<circle cx="60" cy="101.3" r="1.2"/>
		<circle cx="64.2" cy="101.3" r="1.2"/>
		<circle cx="76.5" cy="101.3" r="1.2"/>
		<circle cx="80.7" cy="101.3" r="1.2"/>
		<circle cx="101.3" cy="101.3" r="1.2"/>
		<circle cx="113.6" cy="101.3" r="1.2"/>
		<circle cx="138.4" cy="101.3" r="1.2"/>
		<circle cx="43.6" cy="105.4" r="1.2"/>
		<circle cx="72.4" cy="105.4" r="1.2"/>
		<circle cx="84.8" cy="105.4" r="1.2"/>
		<circle cx="109.5" cy="105.4" r="1.2"/>
		<circle cx="121.9" cy="105.4" r="1.2"/>
		<circle cx="138.4" cy="105.4" r="1.2"/>
		<circle cx="142.5" cy="105.4" r="1.2"/>
		<circle cx="10.6" cy="109.5" r="1.2"/>
		<circle cx="18.8" cy="109.5" r="1.2"/>
		<circle cx="35.3" cy="109.5" r="1.2"/>
		<circle cx="39.4" cy="109.5" r="1.2"/>
		<circle cx="43.6" cy="109.5" r="1.2"/>
		<circle cx="47.7" cy="109.5" r="1.2"/>
		<circle cx="64.2" cy="109.5" r="1.2"/>
		<circle cx="72.4" cy="109.5" r="1.2"/>
		<circle cx="109.5" cy="109.5" r="1.2"/>
		<circle cx="113.6" cy="109.5" r="1.2"/>
		<circle cx="117.8" cy="109.5" r="1.2"/>
		<circle cx="121.9" cy="109.5" r="1.2"/>
		<circle cx="126" cy="109.5" r="1.2"/>
		<circle cx="43.6" cy="113.6" r="1.2"/>
		<circle cx="64.2" cy="113.6" r="1.2"/>
		<circle cx="68.3" cy="113.6" r="1.2"/>
		<circle cx="84.8" cy="113.6" r="1.2"/>
		<circle cx="109.5" cy="113.6" r="1.2"/>
		<circle cx="126" cy="113.6" r="1.2"/>
		<circle cx="130.1" cy="113.6" r="1.2"/>
		<circle cx="72.4" cy="117.8" r="1.2"/>
		<circle cx="76.5" cy="117.8" r="1.2"/>
		<circle cx="80.7" cy="117.8" r="1.2"/>
		<circle cx="105.4" cy="117.8" r="1.2"/>
		<circle cx="109.5" cy="117.8" r="1.2"/>
		<circle cx="117.8" cy="117.8" r="1.2"/>
		<circle cx="126" cy="117.8" r="1.2"/>
		<circle cx="138.4" cy="117.8" r="1.2"/>
		<circle cx="60" cy="121.9" r="1.2"/>
		<circle cx="68.3" cy="121.9" r="1.2"/>
		<circle cx="72.4" cy="121.9" r="1.2"/>
		<circle cx="84.8" cy="121.9" r="1.2"/>
		<circle cx="93" cy="121.9" r="1.2"/>
		<circle cx="97.2" cy="121.9" r="1.2"/>
		<circle cx="101.3" cy="121.9" r="1.2"/>
		<circle cx="109.5" cy="121.9" r="1.2"/>
		<circle cx="126" cy="121.9" r="1.2"/>
		<circle cx="138.4" cy="121.9" r="1.2"/>
		<circle cx="43.6" cy="126" r="1.2"/>
		<circle cx="64.2" cy="126" r="1.2"/>
		<circle cx="68.3" cy="126" r="1.2"/>
		<circle cx="72.4" cy="126" r="1.2"/>
		<circle cx="80.7" cy="126" r="1.2"/>
		<circle cx="109.5" cy="126" r="1.2"/>
		<circle cx="113.6" cy="126" r="1.2"/>
		<circle cx="117.8" cy="126" r="1.2"/>
		<circle cx="121.9" cy="126" r="1.2"/>
		<circle cx="126" cy="126" r="1.2"/>
		<circle cx="138.4" cy="126" r="1.2"/>
		<circle cx="76.5" cy="130.1" r="1.2"/>
		<circle cx="126" cy="130.1" r="1.2"/>
		<circle cx="130.1" cy="130.1" r="1.2"/>
		<circle cx="60" cy="134.3" r="1.2"/>
		<circle cx="68.3" cy="134.3" r="1.2"/>
		<circle cx="80.7" cy="134.3" r="1.2"/>
		<circle cx="97.2" cy="134.3" r="1.2"/>
		<circle cx="105.4" cy="134.3" r="1.2"/>
		<circle cx="109.5" cy="134.3" r="1.2"/>
		<circle cx="113.6" cy="134.3" r="1.2"/>
		<circle cx="43.6" cy="138.4" r="1.2"/>
		<circle cx="47.7" cy="138.4" r="1.2"/>
		<circle cx="76.5" cy="138.4" r="1.2"/>
		<circle cx="88.9" cy="138.4" r="1.2"/>
		<circle cx="105.4" cy="138.4" r="1.2"/>
		<circle cx="117.8" cy="138.4" r="1.2"/>
		<circle cx="43.6" cy="142.5" r="1.2"/>
		<circle cx="47.7" cy="142.5" r="1.2"/>
		<circle cx="64.2" cy="142.5" r="1.2"/>
		<circle cx="80.7" cy="142.5" r="1.2"/>
		<circle cx="101.3" cy="142.5" r="1.2"/>
		<circle cx="109.5" cy="142.5" r="1.2"/>
	</g>
</g>
</svg>
