<?xml version="1.0" encoding="utf-8"?>
<!-- Generator: Adobe Illustrator 22.1.0, SVG Export Plug-In . SVG Version: 6.00 Build 0)  -->
<svg version="1.1" id="all" xmlns="http://www.w3.org/2000/svg" xmlns:xlink="http://www.w3.org/1999/xlink" x="0px" y="0px"
	 viewBox="0 0 153 242.6" style="enable-background:new 0 0 153 242.6;" xml:space="preserve">
<style type="text/css">
	.st0{fill:#010101;}
	.st1{fill:none;}
	.st2{fill:#EF4438;}
</style>
<circle class="st0" cx="47.7" cy="10.6" r="1.2"/>
<circle class="st0" cx="68.3" cy="10.6" r="1.2"/>
<circle class="st0" cx="72.4" cy="10.6" r="1.2"/>
<circle class="st0" cx="76.5" cy="10.6" r="1.2"/>
<circle class="st0" cx="84.8" cy="10.6" r="1.2"/>
<circle class="st0" cx="88.9" cy="10.6" r="1.2"/>
<circle class="st0" cx="97.2" cy="10.6" r="1.2"/>
<circle class="st0" cx="105.4" cy="10.6" r="1.2"/>
<circle class="st0" cx="43.6" cy="14.7" r="1.2"/>
<circle class="st0" cx="47.7" cy="14.7" r="1.2"/>
<circle class="st0" cx="55.9" cy="14.7" r="1.2"/>
<circle class="st0" cx="60" cy="14.7" r="1.2"/>
<circle class="st0" cx="68.3" cy="14.7" r="1.2"/>
<circle class="st0" cx="72.4" cy="14.7" r="1.2"/>
<circle class="st0" cx="76.5" cy="14.7" r="1.2"/>
<circle class="st0" cx="84.8" cy="14.7" r="1.2"/>
<circle class="st0" cx="93" cy="14.7" r="1.2"/>
<circle class="st0" cx="47.7" cy="18.8" r="1.2"/>
<circle class="st0" cx="51.8" cy="18.8" r="1.2"/>
<circle class="st0" cx="55.9" cy="18.8" r="1.2"/>
<circle class="st0" cx="64.2" cy="18.8" r="1.2"/>
<circle class="st0" cx="72.4" cy="18.8" r="1.2"/>
<circle class="st0" cx="80.7" cy="18.8" r="1.2"/>
<circle class="st0" cx="93" cy="18.8" r="1.2"/>
<circle class="st0" cx="97.2" cy="18.8" r="1.2"/>
<circle class="st0" cx="101.3" cy="18.8" r="1.2"/>
<circle class="st0" cx="105.4" cy="18.8" r="1.2"/>
<circle class="st0" cx="109.5" cy="18.8" r="1.2"/>
<circle class="st0" cx="43.6" cy="22.9" r="1.2"/>
<circle class="st0" cx="47.7" cy="22.9" r="1.2"/>
<circle class="st0" cx="55.9" cy="22.9" r="1.2"/>
<circle class="st0" cx="60" cy="22.9" r="1.2"/>
<circle class="st0" cx="64.2" cy="22.9" r="1.2"/>
<circle class="st0" cx="72.4" cy="22.9" r="1.2"/>
<circle class="st0" cx="76.5" cy="22.9" r="1.2"/>
<circle class="st0" cx="93" cy="22.9" r="1.2"/>
<circle class="st0" cx="101.3" cy="22.9" r="1.2"/>
<circle class="st0" cx="109.5" cy="22.9" r="1.2"/>
<circle class="st0" cx="51.8" cy="27.1" r="1.2"/>
<circle class="st0" cx="60" cy="27.1" r="1.2"/>
<circle class="st0" cx="64.2" cy="27.1" r="1.2"/>
<circle class="st0" cx="72.4" cy="27.1" r="1.2"/>
<circle class="st0" cx="80.7" cy="27.1" r="1.2"/>
<circle class="st0" cx="88.9" cy="27.1" r="1.2"/>
<circle class="st0" cx="105.4" cy="27.1" r="1.2"/>
<circle class="st0" cx="43.6" cy="31.2" r="1.2"/>
<circle class="st0" cx="51.8" cy="31.2" r="1.2"/>
<circle class="st0" cx="60" cy="31.2" r="1.2"/>
<circle class="st0" cx="68.3" cy="31.2" r="1.2"/>
<circle class="st0" cx="72.4" cy="31.2" r="1.2"/>
<circle class="st0" cx="76.5" cy="31.2" r="1.2"/>
<circle class="st0" cx="93" cy="31.2" r="1.2"/>
<circle class="st0" cx="101.3" cy="31.2" r="1.2"/>
<circle class="st0" cx="43.6" cy="35.3" r="1.2"/>
<circle class="st0" cx="51.8" cy="35.3" r="1.2"/>
<circle class="st0" cx="60" cy="35.3" r="1.2"/>
<circle class="st0" cx="68.3" cy="35.3" r="1.2"/>
<circle class="st0" cx="76.5" cy="35.3" r="1.2"/>
<circle class="st0" cx="84.8" cy="35.3" r="1.2"/>
<circle class="st0" cx="93" cy="35.3" r="1.2"/>
<circle class="st0" cx="101.3" cy="35.3" r="1.2"/>
<circle class="st0" cx="109.5" cy="35.3" r="1.2"/>
<circle class="st0" cx="64.2" cy="39.4" r="1.2"/>
<circle class="st0" cx="68.3" cy="39.4" r="1.2"/>
<circle class="st0" cx="72.4" cy="39.4" r="1.2"/>
<circle class="st0" cx="84.8" cy="39.4" r="1.2"/>
<circle class="st0" cx="88.9" cy="39.4" r="1.2"/>
<circle class="st0" cx="93" cy="39.4" r="1.2"/>
<circle class="st0" cx="97.2" cy="39.4" r="1.2"/>
<circle class="st0" cx="101.3" cy="39.4" r="1.2"/>
<circle class="st0" cx="109.5" cy="39.4" r="1.2"/>
<circle class="st0" cx="10.6" cy="43.6" r="1.2"/>
<circle class="st0" cx="14.7" cy="43.6" r="1.2"/>
<circle class="st0" cx="18.8" cy="43.6" r="1.2"/>
<circle class="st0" cx="22.9" cy="43.6" r="1.2"/>
<circle class="st0" cx="27.1" cy="43.6" r="1.2"/>
<circle class="st0" cx="35.3" cy="43.6" r="1.2"/>
<circle class="st0" cx="39.4" cy="43.6" r="1.2"/>
<circle class="st0" cx="43.6" cy="43.6" r="1.2"/>
<circle class="st0" cx="47.7" cy="43.6" r="1.2"/>
<circle class="st0" cx="51.8" cy="43.6" r="1.2"/>
<circle class="st0" cx="68.3" cy="43.6" r="1.2"/>
<circle class="st0" cx="72.4" cy="43.6" r="1.2"/>
<circle class="st0" cx="76.5" cy="43.6" r="1.2"/>
<circle class="st0" cx="101.3" cy="43.6" r="1.2"/>
<circle class="st0" cx="109.5" cy="43.6" r="1.2"/>
<circle class="st0" cx="113.6" cy="43.6" r="1.2"/>
<circle class="st0" cx="121.9" cy="43.6" r="1.2"/>
<circle class="st0" cx="130.1" cy="43.6" r="1.2"/>
<circle class="st0" cx="138.4" cy="43.6" r="1.2"/>
<circle class="st0" cx="14.7" cy="47.7" r="1.2"/>
<circle class="st0" cx="22.9" cy="47.7" r="1.2"/>
<circle class="st0" cx="47.7" cy="47.7" r="1.2"/>
<circle class="st0" cx="55.9" cy="47.7" r="1.2"/>
<circle class="st0" cx="60" cy="47.7" r="1.2"/>
<circle class="st0" cx="68.3" cy="47.7" r="1.2"/>
<circle class="st0" cx="72.4" cy="47.7" r="1.2"/>
<circle class="st0" cx="76.5" cy="47.7" r="1.2"/>
<circle class="st0" cx="80.7" cy="47.7" r="1.2"/>
<circle class="st0" cx="97.2" cy="47.7" r="1.2"/>
<circle class="st0" cx="101.3" cy="47.7" r="1.2"/>
<circle class="st0" cx="105.4" cy="47.7" r="1.2"/>
<circle class="st0" cx="117.8" cy="47.7" r="1.2"/>
<circle class="st0" cx="134.3" cy="47.7" r="1.2"/>
<circle class="st0" cx="138.4" cy="47.7" r="1.2"/>
<circle class="st0" cx="142.5" cy="47.7" r="1.2"/>
<circle class="st0" cx="10.6" cy="51.8" r="1.2"/>
<circle class="st0" cx="22.9" cy="51.8" r="1.2"/>
<circle class="st0" cx="27.1" cy="51.8" r="1.2"/>
<circle class="st0" cx="35.3" cy="51.8" r="1.2"/>
<circle class="st0" cx="39.4" cy="51.8" r="1.2"/>
<circle class="st0" cx="47.7" cy="51.8" r="1.2"/>
<circle class="st0" cx="60" cy="51.8" r="1.2"/>
<circle class="st0" cx="64.2" cy="51.8" r="1.2"/>
<circle class="st0" cx="80.7" cy="51.8" r="1.2"/>
<circle class="st0" cx="84.8" cy="51.8" r="1.2"/>
<circle class="st0" cx="88.9" cy="51.8" r="1.2"/>
<circle class="st0" cx="97.2" cy="51.8" r="1.2"/>
<circle class="st0" cx="101.3" cy="51.8" r="1.2"/>
<circle class="st0" cx="121.9" cy="51.8" r="1.2"/>
<circle class="st0" cx="126" cy="51.8" r="1.2"/>
<circle class="st0" cx="130.1" cy="51.8" r="1.2"/>
<circle class="st0" cx="138.4" cy="51.8" r="1.2"/>
<circle class="st0" cx="10.6" cy="55.9" r="1.2"/>
<circle class="st0" cx="18.8" cy="55.9" r="1.2"/>
<circle class="st0" cx="22.9" cy="55.9" r="1.2"/>
<circle class="st0" cx="27.1" cy="55.9" r="1.2"/>
<circle class="st0" cx="31.2" cy="55.9" r="1.2"/>
<circle class="st0" cx="39.4" cy="55.9" r="1.2"/>
<circle class="st0" cx="47.7" cy="55.9" r="1.2"/>
<circle class="st0" cx="51.8" cy="55.9" r="1.2"/>
<circle class="st0" cx="55.9" cy="55.9" r="1.2"/>
<circle class="st0" cx="60" cy="55.9" r="1.2"/>
<circle class="st0" cx="68.3" cy="55.9" r="1.2"/>
<circle class="st0" cx="72.4" cy="55.9" r="1.2"/>
<circle class="st0" cx="76.5" cy="55.9" r="1.2"/>
<circle class="st0" cx="80.7" cy="55.9" r="1.2"/>
<circle class="st0" cx="84.8" cy="55.9" r="1.2"/>
<circle class="st0" cx="88.9" cy="55.9" r="1.2"/>
<circle class="st0" cx="93" cy="55.9" r="1.2"/>
<circle class="st0" cx="97.2" cy="55.9" r="1.2"/>
<circle class="st0" cx="101.3" cy="55.9" r="1.2"/>
<circle class="st0" cx="105.4" cy="55.9" r="1.2"/>
<circle class="st0" cx="113.6" cy="55.9" r="1.2"/>
<circle class="st0" cx="117.8" cy="55.9" r="1.2"/>
<circle class="st0" cx="126" cy="55.9" r="1.2"/>
<circle class="st0" cx="134.3" cy="55.9" r="1.2"/>
<circle class="st0" cx="14.7" cy="60" r="1.2"/>
<circle class="st0" cx="22.9" cy="60" r="1.2"/>
<circle class="st0" cx="31.2" cy="60" r="1.2"/>
<circle class="st0" cx="35.3" cy="60" r="1.2"/>
<circle class="st0" cx="39.4" cy="60" r="1.2"/>
<circle class="st0" cx="47.7" cy="60" r="1.2"/>
<circle class="st0" cx="60" cy="60" r="1.2"/>
<circle class="st0" cx="64.2" cy="60" r="1.2"/>
<circle class="st0" cx="72.4" cy="60" r="1.2"/>
<circle class="st0" cx="84.8" cy="60" r="1.2"/>
<circle class="st0" cx="88.9" cy="60" r="1.2"/>
<circle class="st0" cx="101.3" cy="60" r="1.2"/>
<circle class="st0" cx="105.4" cy="60" r="1.2"/>
<circle class="st0" cx="109.5" cy="60" r="1.2"/>
<circle class="st0" cx="113.6" cy="60" r="1.2"/>
<circle class="st0" cx="121.9" cy="60" r="1.2"/>
<circle class="st0" cx="126" cy="60" r="1.2"/>
<circle class="st0" cx="130.1" cy="60" r="1.2"/>
<circle class="st0" cx="18.8" cy="64.2" r="1.2"/>
<circle class="st0" cx="22.9" cy="64.2" r="1.2"/>
<circle class="st0" cx="27.1" cy="64.2" r="1.2"/>
<circle class="st0" cx="51.8" cy="64.2" r="1.2"/>
<circle class="st0" cx="60" cy="64.2" r="1.2"/>
<circle class="st0" cx="80.7" cy="64.2" r="1.2"/>
<circle class="st0" cx="84.8" cy="64.2" r="1.2"/>
<circle class="st0" cx="105.4" cy="64.2" r="1.2"/>
<circle class="st0" cx="109.5" cy="64.2" r="1.2"/>
<circle class="st0" cx="117.8" cy="64.2" r="1.2"/>
<circle class="st0" cx="121.9" cy="64.2" r="1.2"/>
<circle class="st0" cx="138.4" cy="64.2" r="1.2"/>
<circle class="st0" cx="142.5" cy="64.2" r="1.2"/>
<circle class="st0" cx="10.6" cy="68.3" r="1.2"/>
<circle class="st0" cx="14.7" cy="68.3" r="1.2"/>
<circle class="st0" cx="18.8" cy="68.3" r="1.2"/>
<circle class="st0" cx="31.2" cy="68.3" r="1.2"/>
<circle class="st0" cx="35.3" cy="68.3" r="1.2"/>
<circle class="st0" cx="47.7" cy="68.3" r="1.2"/>
<circle class="st0" cx="68.3" cy="68.3" r="1.2"/>
<circle class="st0" cx="72.4" cy="68.3" r="1.2"/>
<circle class="st0" cx="76.5" cy="68.3" r="1.2"/>
<circle class="st0" cx="80.7" cy="68.3" r="1.2"/>
<circle class="st0" cx="84.8" cy="68.3" r="1.2"/>
<circle class="st0" cx="93" cy="68.3" r="1.2"/>
<circle class="st0" cx="101.3" cy="68.3" r="1.2"/>
<circle class="st0" cx="121.9" cy="68.3" r="1.2"/>
<circle class="st0" cx="138.4" cy="68.3" r="1.2"/>
<circle class="st0" cx="10.6" cy="72.4" r="1.2"/>
<circle class="st0" cx="14.7" cy="72.4" r="1.2"/>
<circle class="st0" cx="18.8" cy="72.4" r="1.2"/>
<circle class="st0" cx="22.9" cy="72.4" r="1.2"/>
<circle class="st0" cx="27.1" cy="72.4" r="1.2"/>
<circle class="st0" cx="39.4" cy="72.4" r="1.2"/>
<circle class="st0" cx="43.6" cy="72.4" r="1.2"/>
<circle class="st0" cx="68.3" cy="72.4" r="1.2"/>
<circle class="st0" cx="88.9" cy="72.4" r="1.2"/>
<circle class="st0" cx="97.2" cy="72.4" r="1.2"/>
<circle class="st0" cx="105.4" cy="72.4" r="1.2"/>
<circle class="st0" cx="113.6" cy="72.4" r="1.2"/>
<circle class="st0" cx="134.3" cy="72.4" r="1.2"/>
<circle class="st0" cx="14.7" cy="76.5" r="1.2"/>
<circle class="st0" cx="18.8" cy="76.5" r="1.2"/>
<circle class="st0" cx="22.9" cy="76.5" r="1.2"/>
<circle class="st0" cx="31.2" cy="76.5" r="1.2"/>
<circle class="st0" cx="35.3" cy="76.5" r="1.2"/>
<circle class="st0" cx="39.4" cy="76.5" r="1.2"/>
<circle class="st0" cx="47.7" cy="76.5" r="1.2"/>
<circle class="st0" cx="64.2" cy="76.5" r="1.2"/>
<circle class="st0" cx="68.3" cy="76.5" r="1.2"/>
<circle class="st0" cx="76.5" cy="76.5" r="1.2"/>
<circle class="st0" cx="84.8" cy="76.5" r="1.2"/>
<circle class="st0" cx="93" cy="76.5" r="1.2"/>
<circle class="st0" cx="101.3" cy="76.5" r="1.2"/>
<circle class="st0" cx="105.4" cy="76.5" r="1.2"/>
<circle class="st0" cx="109.5" cy="76.5" r="1.2"/>
<circle class="st0" cx="113.6" cy="76.5" r="1.2"/>
<circle class="st0" cx="126" cy="76.5" r="1.2"/>
<circle class="st0" cx="138.4" cy="76.5" r="1.2"/>
<circle class="st0" cx="10.6" cy="80.7" r="1.2"/>
<circle class="st0" cx="18.8" cy="80.7" r="1.2"/>
<circle class="st0" cx="27.1" cy="80.7" r="1.2"/>
<circle class="st0" cx="31.2" cy="80.7" r="1.2"/>
<circle class="st0" cx="43.6" cy="80.7" r="1.2"/>
<circle class="st0" cx="51.8" cy="80.7" r="1.2"/>
<circle class="st0" cx="60" cy="80.7" r="1.2"/>
<circle class="st0" cx="72.4" cy="80.7" r="1.2"/>
<circle class="st0" cx="76.5" cy="80.7" r="1.2"/>
<circle class="st0" cx="80.7" cy="80.7" r="1.2"/>
<circle class="st0" cx="88.9" cy="80.7" r="1.2"/>
<circle class="st0" cx="97.2" cy="80.7" r="1.2"/>
<circle class="st0" cx="101.3" cy="80.7" r="1.2"/>
<circle class="st0" cx="105.4" cy="80.7" r="1.2"/>
<circle class="st0" cx="113.6" cy="80.7" r="1.2"/>
<circle class="st0" cx="117.8" cy="80.7" r="1.2"/>
<circle class="st0" cx="130.1" cy="80.7" r="1.2"/>
<circle class="st0" cx="138.4" cy="80.7" r="1.2"/>
<circle class="st0" cx="142.5" cy="80.7" r="1.2"/>
<circle class="st0" cx="18.8" cy="84.8" r="1.2"/>
<circle class="st0" cx="22.9" cy="84.8" r="1.2"/>
<circle class="st0" cx="27.1" cy="84.8" r="1.2"/>
<circle class="st0" cx="31.2" cy="84.8" r="1.2"/>
<circle class="st0" cx="35.3" cy="84.8" r="1.2"/>
<circle class="st0" cx="55.9" cy="84.8" r="1.2"/>
<circle class="st0" cx="60" cy="84.8" r="1.2"/>
<circle class="st0" cx="68.3" cy="84.8" r="1.2"/>
<circle class="st0" cx="76.5" cy="84.8" r="1.2"/>
<circle class="st0" cx="84.8" cy="84.8" r="1.2"/>
<circle class="st0" cx="88.9" cy="84.8" r="1.2"/>
<circle class="st0" cx="97.2" cy="84.8" r="1.2"/>
<circle class="st0" cx="101.3" cy="84.8" r="1.2"/>
<circle class="st0" cx="113.6" cy="84.8" r="1.2"/>
<circle class="st0" cx="130.1" cy="84.8" r="1.2"/>
<circle class="st0" cx="138.4" cy="84.8" r="1.2"/>
<circle class="st0" cx="14.7" cy="88.9" r="1.2"/>
<circle class="st0" cx="18.8" cy="88.9" r="1.2"/>
<circle class="st0" cx="27.1" cy="88.9" r="1.2"/>
<circle class="st0" cx="31.2" cy="88.9" r="1.2"/>
<circle class="st0" cx="43.6" cy="88.9" r="1.2"/>
<circle class="st0" cx="47.7" cy="88.9" r="1.2"/>
<circle class="st0" cx="51.8" cy="88.9" r="1.2"/>
<circle class="st0" cx="55.9" cy="88.9" r="1.2"/>
<circle class="st0" cx="60" cy="88.9" r="1.2"/>
<circle class="st0" cx="72.4" cy="88.9" r="1.2"/>
<circle class="st0" cx="76.5" cy="88.9" r="1.2"/>
<circle class="st0" cx="84.8" cy="88.9" r="1.2"/>
<circle class="st0" cx="88.9" cy="88.9" r="1.2"/>
<circle class="st0" cx="93" cy="88.9" r="1.2"/>
<circle class="st0" cx="97.2" cy="88.9" r="1.2"/>
<circle class="st0" cx="109.5" cy="88.9" r="1.2"/>
<circle class="st0" cx="134.3" cy="88.9" r="1.2"/>
<circle class="st0" cx="18.8" cy="93" r="1.2"/>
<circle class="st0" cx="27.1" cy="93" r="1.2"/>
<circle class="st0" cx="35.3" cy="93" r="1.2"/>
<circle class="st0" cx="39.4" cy="93" r="1.2"/>
<circle class="st0" cx="43.6" cy="93" r="1.2"/>
<circle class="st0" cx="51.8" cy="93" r="1.2"/>
<circle class="st0" cx="64.2" cy="93" r="1.2"/>
<circle class="st0" cx="68.3" cy="93" r="1.2"/>
<circle class="st0" cx="72.4" cy="93" r="1.2"/>
<circle class="st0" cx="84.8" cy="93" r="1.2"/>
<circle class="st0" cx="88.9" cy="93" r="1.2"/>
<circle class="st0" cx="93" cy="93" r="1.2"/>
<circle class="st0" cx="101.3" cy="93" r="1.2"/>
<circle class="st0" cx="105.4" cy="93" r="1.2"/>
<circle class="st0" cx="109.5" cy="93" r="1.2"/>
<circle class="st0" cx="113.6" cy="93" r="1.2"/>
<circle class="st0" cx="121.9" cy="93" r="1.2"/>
<circle class="st0" cx="126" cy="93" r="1.2"/>
<circle class="st0" cx="138.4" cy="93" r="1.2"/>
<circle class="st0" cx="10.6" cy="97.2" r="1.2"/>
<circle class="st0" cx="14.7" cy="97.2" r="1.2"/>
<circle class="st0" cx="22.9" cy="97.2" r="1.2"/>
<circle class="st0" cx="27.1" cy="97.2" r="1.2"/>
<circle class="st0" cx="47.7" cy="97.2" r="1.2"/>
<circle class="st0" cx="51.8" cy="97.2" r="1.2"/>
<circle class="st0" cx="55.9" cy="97.2" r="1.2"/>
<circle class="st0" cx="72.4" cy="97.2" r="1.2"/>
<circle class="st0" cx="76.5" cy="97.2" r="1.2"/>
<circle class="st0" cx="84.8" cy="97.2" r="1.2"/>
<circle class="st0" cx="88.9" cy="97.2" r="1.2"/>
<circle class="st0" cx="93" cy="97.2" r="1.2"/>
<circle class="st0" cx="97.2" cy="97.2" r="1.2"/>
<circle class="st0" cx="101.3" cy="97.2" r="1.2"/>
<circle class="st0" cx="105.4" cy="97.2" r="1.2"/>
<circle class="st0" cx="117.8" cy="97.2" r="1.2"/>
<circle class="st0" cx="130.1" cy="97.2" r="1.2"/>
<circle class="st0" cx="138.4" cy="97.2" r="1.2"/>
<circle class="st0" cx="142.5" cy="97.2" r="1.2"/>
<circle class="st0" cx="10.6" cy="101.3" r="1.2"/>
<circle class="st0" cx="31.2" cy="101.3" r="1.2"/>
<circle class="st0" cx="35.3" cy="101.3" r="1.2"/>
<circle class="st0" cx="39.4" cy="101.3" r="1.2"/>
<circle class="st0" cx="47.7" cy="101.3" r="1.2"/>
<circle class="st0" cx="55.9" cy="101.3" r="1.2"/>
<circle class="st0" cx="60" cy="101.3" r="1.2"/>
<circle class="st0" cx="64.2" cy="101.3" r="1.2"/>
<circle class="st0" cx="80.7" cy="101.3" r="1.2"/>
<circle class="st0" cx="93" cy="101.3" r="1.2"/>
<circle class="st0" cx="109.5" cy="101.3" r="1.2"/>
<circle class="st0" cx="126" cy="101.3" r="1.2"/>
<circle class="st0" cx="130.1" cy="101.3" r="1.2"/>
<circle class="st0" cx="138.4" cy="101.3" r="1.2"/>
<circle class="st0" cx="10.6" cy="105.4" r="1.2"/>
<circle class="st0" cx="18.8" cy="105.4" r="1.2"/>
<circle class="st0" cx="27.1" cy="105.4" r="1.2"/>
<circle class="st0" cx="43.6" cy="105.4" r="1.2"/>
<circle class="st0" cx="51.8" cy="105.4" r="1.2"/>
<circle class="st0" cx="55.9" cy="105.4" r="1.2"/>
<circle class="st0" cx="64.2" cy="105.4" r="1.2"/>
<circle class="st0" cx="97.2" cy="105.4" r="1.2"/>
<circle class="st0" cx="101.3" cy="105.4" r="1.2"/>
<circle class="st0" cx="105.4" cy="105.4" r="1.2"/>
<circle class="st0" cx="113.6" cy="105.4" r="1.2"/>
<circle class="st0" cx="117.8" cy="105.4" r="1.2"/>
<circle class="st0" cx="121.9" cy="105.4" r="1.2"/>
<circle class="st0" cx="126" cy="105.4" r="1.2"/>
<circle class="st0" cx="130.1" cy="105.4" r="1.2"/>
<circle class="st0" cx="134.3" cy="105.4" r="1.2"/>
<circle class="st0" cx="10.6" cy="109.5" r="1.2"/>
<circle class="st0" cx="18.8" cy="109.5" r="1.2"/>
<circle class="st0" cx="22.9" cy="109.5" r="1.2"/>
<circle class="st0" cx="35.3" cy="109.5" r="1.2"/>
<circle class="st0" cx="39.4" cy="109.5" r="1.2"/>
<circle class="st0" cx="47.7" cy="109.5" r="1.2"/>
<circle class="st0" cx="51.8" cy="109.5" r="1.2"/>
<circle class="st0" cx="68.3" cy="109.5" r="1.2"/>
<circle class="st0" cx="72.4" cy="109.5" r="1.2"/>
<circle class="st0" cx="80.7" cy="109.5" r="1.2"/>
<circle class="st0" cx="84.8" cy="109.5" r="1.2"/>
<circle class="st0" cx="88.9" cy="109.5" r="1.2"/>
<circle class="st0" cx="105.4" cy="109.5" r="1.2"/>
<circle class="st0" cx="109.5" cy="109.5" r="1.2"/>
<circle class="st0" cx="113.6" cy="109.5" r="1.2"/>
<circle class="st0" cx="117.8" cy="109.5" r="1.2"/>
<circle class="st0" cx="121.9" cy="109.5" r="1.2"/>
<circle class="st0" cx="126" cy="109.5" r="1.2"/>
<circle class="st0" cx="130.1" cy="109.5" r="1.2"/>
<circle class="st0" cx="142.5" cy="109.5" r="1.2"/>
<circle class="st0" cx="43.6" cy="113.6" r="1.2"/>
<circle class="st0" cx="47.7" cy="113.6" r="1.2"/>
<circle class="st0" cx="55.9" cy="113.6" r="1.2"/>
<circle class="st0" cx="60" cy="113.6" r="1.2"/>
<circle class="st0" cx="84.8" cy="113.6" r="1.2"/>
<circle class="st0" cx="88.9" cy="113.6" r="1.2"/>
<circle class="st0" cx="97.2" cy="113.6" r="1.2"/>
<circle class="st0" cx="109.5" cy="113.6" r="1.2"/>
<circle class="st0" cx="126" cy="113.6" r="1.2"/>
<circle class="st0" cx="130.1" cy="113.6" r="1.2"/>
<circle class="st0" cx="134.3" cy="113.6" r="1.2"/>
<circle class="st0" cx="142.5" cy="113.6" r="1.2"/>
<circle class="st0" cx="43.6" cy="117.8" r="1.2"/>
<circle class="st0" cx="47.7" cy="117.8" r="1.2"/>
<circle class="st0" cx="51.8" cy="117.8" r="1.2"/>
<circle class="st0" cx="55.9" cy="117.8" r="1.2"/>
<circle class="st0" cx="60" cy="117.8" r="1.2"/>
<circle class="st0" cx="64.2" cy="117.8" r="1.2"/>
<circle class="st0" cx="68.3" cy="117.8" r="1.2"/>
<circle class="st0" cx="72.4" cy="117.8" r="1.2"/>
<circle class="st0" cx="76.5" cy="117.8" r="1.2"/>
<circle class="st0" cx="84.8" cy="117.8" r="1.2"/>
<circle class="st0" cx="97.2" cy="117.8" r="1.2"/>
<circle class="st0" cx="105.4" cy="117.8" r="1.2"/>
<circle class="st0" cx="109.5" cy="117.8" r="1.2"/>
<circle class="st0" cx="117.8" cy="117.8" r="1.2"/>
<circle class="st0" cx="126" cy="117.8" r="1.2"/>
<circle class="st0" cx="134.3" cy="117.8" r="1.2"/>
<circle class="st0" cx="138.4" cy="117.8" r="1.2"/>
<circle class="st0" cx="47.7" cy="121.9" r="1.2"/>
<circle class="st0" cx="55.9" cy="121.9" r="1.2"/>
<circle class="st0" cx="60" cy="121.9" r="1.2"/>
<circle class="st0" cx="68.3" cy="121.9" r="1.2"/>
<circle class="st0" cx="72.4" cy="121.9" r="1.2"/>
<circle class="st0" cx="76.5" cy="121.9" r="1.2"/>
<circle class="st0" cx="80.7" cy="121.9" r="1.2"/>
<circle class="st0" cx="93" cy="121.9" r="1.2"/>
<circle class="st0" cx="101.3" cy="121.9" r="1.2"/>
<circle class="st0" cx="109.5" cy="121.9" r="1.2"/>
<circle class="st0" cx="126" cy="121.9" r="1.2"/>
<circle class="st0" cx="130.1" cy="121.9" r="1.2"/>
<circle class="st0" cx="134.3" cy="121.9" r="1.2"/>
<circle class="st0" cx="138.4" cy="121.9" r="1.2"/>
<circle class="st0" cx="43.6" cy="126" r="1.2"/>
<circle class="st0" cx="47.7" cy="126" r="1.2"/>
<circle class="st0" cx="60" cy="126" r="1.2"/>
<circle class="st0" cx="68.3" cy="126" r="1.2"/>
<circle class="st0" cx="72.4" cy="126" r="1.2"/>
<circle class="st0" cx="80.7" cy="126" r="1.2"/>
<circle class="st0" cx="84.8" cy="126" r="1.2"/>
<circle class="st0" cx="88.9" cy="126" r="1.2"/>
<circle class="st0" cx="93" cy="126" r="1.2"/>
<circle class="st0" cx="97.2" cy="126" r="1.2"/>
<circle class="st0" cx="101.3" cy="126" r="1.2"/>
<circle class="st0" cx="109.5" cy="126" r="1.2"/>
<circle class="st0" cx="113.6" cy="126" r="1.2"/>
<circle class="st0" cx="117.8" cy="126" r="1.2"/>
<circle class="st0" cx="121.9" cy="126" r="1.2"/>
<circle class="st0" cx="126" cy="126" r="1.2"/>
<circle class="st0" cx="43.6" cy="130.1" r="1.2"/>
<circle class="st0" cx="51.8" cy="130.1" r="1.2"/>
<circle class="st0" cx="55.9" cy="130.1" r="1.2"/>
<circle class="st0" cx="60" cy="130.1" r="1.2"/>
<circle class="st0" cx="68.3" cy="130.1" r="1.2"/>
<circle class="st0" cx="76.5" cy="130.1" r="1.2"/>
<circle class="st0" cx="84.8" cy="130.1" r="1.2"/>
<circle class="st0" cx="88.9" cy="130.1" r="1.2"/>
<circle class="st0" cx="109.5" cy="130.1" r="1.2"/>
<circle class="st0" cx="113.6" cy="130.1" r="1.2"/>
<circle class="st0" cx="121.9" cy="130.1" r="1.2"/>
<circle class="st0" cx="126" cy="130.1" r="1.2"/>
<circle class="st0" cx="142.5" cy="130.1" r="1.2"/>
<circle class="st0" cx="43.6" cy="134.3" r="1.2"/>
<circle class="st0" cx="47.7" cy="134.3" r="1.2"/>
<circle class="st0" cx="51.8" cy="134.3" r="1.2"/>
<circle class="st0" cx="60" cy="134.3" r="1.2"/>
<circle class="st0" cx="64.2" cy="134.3" r="1.2"/>
<circle class="st0" cx="84.8" cy="134.3" r="1.2"/>
<circle class="st0" cx="93" cy="134.3" r="1.2"/>
<circle class="st0" cx="101.3" cy="134.3" r="1.2"/>
<circle class="st0" cx="105.4" cy="134.3" r="1.2"/>
<circle class="st0" cx="109.5" cy="134.3" r="1.2"/>
<circle class="st0" cx="117.8" cy="134.3" r="1.2"/>
<circle class="st0" cx="130.1" cy="134.3" r="1.2"/>
<circle class="st0" cx="134.3" cy="134.3" r="1.2"/>
<circle class="st0" cx="43.6" cy="138.4" r="1.2"/>
<circle class="st0" cx="47.7" cy="138.4" r="1.2"/>
<circle class="st0" cx="55.9" cy="138.4" r="1.2"/>
<circle class="st0" cx="60" cy="138.4" r="1.2"/>
<circle class="st0" cx="64.2" cy="138.4" r="1.2"/>
<circle class="st0" cx="76.5" cy="138.4" r="1.2"/>
<circle class="st0" cx="80.7" cy="138.4" r="1.2"/>
<circle class="st0" cx="84.8" cy="138.4" r="1.2"/>
<circle class="st0" cx="88.9" cy="138.4" r="1.2"/>
<circle class="st0" cx="93" cy="138.4" r="1.2"/>
<circle class="st0" cx="101.3" cy="138.4" r="1.2"/>
<circle class="st0" cx="105.4" cy="138.4" r="1.2"/>
<circle class="st0" cx="126" cy="138.4" r="1.2"/>
<circle class="st0" cx="130.1" cy="138.4" r="1.2"/>
<circle class="st0" cx="134.3" cy="138.4" r="1.2"/>
<circle class="st0" cx="43.6" cy="142.5" r="1.2"/>
<circle class="st0" cx="55.9" cy="142.5" r="1.2"/>
<circle class="st0" cx="60" cy="142.5" r="1.2"/>
<circle class="st0" cx="68.3" cy="142.5" r="1.2"/>
<circle class="st0" cx="88.9" cy="142.5" r="1.2"/>
<circle class="st0" cx="93" cy="142.5" r="1.2"/>
<circle class="st0" cx="97.2" cy="142.5" r="1.2"/>
<circle class="st0" cx="105.4" cy="142.5" r="1.2"/>
<circle class="st0" cx="109.5" cy="142.5" r="1.2"/>
<circle class="st0" cx="113.6" cy="142.5" r="1.2"/>
<circle class="st0" cx="121.9" cy="142.5" r="1.2"/>
<circle class="st0" cx="138.4" cy="142.5" r="1.2"/>
<rect class="st1" width="153" height="242.6"/>
<g>
	<path class="st0" d="M10.8,194.6c-0.5,0-0.9-0.2-1.2-0.5c-0.3-0.3-0.5-0.7-0.5-1.2v-4.6c0-0.5,0.2-0.9,0.5-1.2
		c0.3-0.3,0.7-0.5,1.2-0.5h2.3c0.5,0,0.9,0.2,1.2,0.5c0.3,0.3,0.5,0.7,0.5,1.2c0,0.2-0.1,0.3-0.2,0.4c-0.1,0.1-0.2,0.2-0.4,0.2
		s-0.3-0.1-0.4-0.2c-0.1-0.1-0.2-0.2-0.2-0.4s-0.1-0.3-0.2-0.4c-0.1-0.1-0.2-0.2-0.4-0.2h-2.3c-0.2,0-0.3,0.1-0.4,0.2
		c-0.1,0.1-0.2,0.2-0.2,0.4v4.6c0,0.2,0.1,0.3,0.2,0.4c0.1,0.1,0.2,0.2,0.4,0.2h2.3c0.2,0,0.3-0.1,0.4-0.2c0.1-0.1,0.2-0.2,0.2-0.4
		v-1.7h-0.6c-0.2,0-0.3-0.1-0.4-0.2c-0.1-0.1-0.2-0.2-0.2-0.4s0.1-0.3,0.2-0.4c0.1-0.1,0.2-0.2,0.4-0.2h1.1c0.2,0,0.3,0.1,0.4,0.2
		c0.1,0.1,0.2,0.2,0.2,0.4v2.3c0,0.5-0.2,0.9-0.5,1.2c-0.3,0.3-0.7,0.5-1.2,0.5H10.8z"/>
	<path class="st0" d="M19.5,194.6c-0.2,0-0.3-0.1-0.4-0.2s-0.2-0.2-0.2-0.4v-5.7c0-0.5,0.2-0.9,0.5-1.2s0.7-0.5,1.2-0.5h2.3
		c0.5,0,0.9,0.2,1.2,0.5s0.5,0.7,0.5,1.2v5.7c0,0.2-0.1,0.3-0.2,0.4s-0.2,0.2-0.4,0.2s-0.3-0.1-0.4-0.2s-0.2-0.2-0.2-0.4v-2.9h-3.4
		v2.9c0,0.2-0.1,0.3-0.2,0.4S19.7,194.6,19.5,194.6z M20.1,190.1h3.4v-1.7c0-0.2-0.1-0.3-0.2-0.4s-0.2-0.2-0.4-0.2h-2.3
		c-0.2,0-0.3,0.1-0.4,0.2s-0.2,0.2-0.2,0.4V190.1z"/>
	<path class="st0" d="M31.7,194.6c-0.2,0-0.3-0.1-0.4-0.2l-2.3-2.3c-0.1-0.1-0.2-0.2-0.2-0.4v-4.6c0-0.2,0.1-0.3,0.2-0.4
		s0.2-0.2,0.4-0.2s0.3,0.1,0.4,0.2s0.2,0.2,0.2,0.4v4l1.7,1.7l1.7-1.7v-4c0-0.2,0.1-0.3,0.2-0.4s0.2-0.2,0.4-0.2s0.3,0.1,0.4,0.2
		s0.2,0.2,0.2,0.4v4.6c0,0.2-0.1,0.3-0.2,0.4l-2.3,2.3C31.9,194.6,31.8,194.6,31.7,194.6z"/>
	<path class="st0" d="M39.2,194.6c-0.2,0-0.3-0.1-0.4-0.2s-0.2-0.2-0.2-0.4v-6.9c0-0.2,0.1-0.3,0.2-0.4s0.2-0.2,0.4-0.2h3.4
		c0.5,0,0.9,0.2,1.2,0.5s0.5,0.7,0.5,1.2v4.6c0,0.5-0.2,0.9-0.5,1.2s-0.7,0.5-1.2,0.5H39.2z M43.2,192.9v-4.6c0-0.2-0.1-0.3-0.2-0.4
		s-0.2-0.2-0.4-0.2h-2.9v5.7h2.9c0.2,0,0.3-0.1,0.4-0.2S43.2,193.1,43.2,192.9z"/>
	<path class="st0" d="M49.1,194.6c-0.2,0-0.3-0.1-0.4-0.2s-0.2-0.2-0.2-0.4v-6.9c0-0.2,0.1-0.3,0.2-0.4s0.2-0.2,0.4-0.2
		s0.3,0.1,0.4,0.2l1.9,1.9l1.9-1.9c0.1-0.1,0.2-0.2,0.4-0.2s0.3,0.1,0.4,0.2s0.2,0.2,0.2,0.4v6.9c0,0.2-0.1,0.3-0.2,0.4
		s-0.2,0.2-0.4,0.2s-0.3-0.1-0.4-0.2s-0.2-0.2-0.2-0.4v-5.5l-1.3,1.3c-0.1,0.1-0.2,0.2-0.4,0.2s-0.3-0.1-0.4-0.2l-1.3-1.3v5.5
		c0,0.2-0.1,0.3-0.2,0.4S49.2,194.6,49.1,194.6z"/>
	<path class="st0" d="M62.4,194.6h-2.3c-0.5,0-0.9-0.2-1.2-0.5s-0.5-0.7-0.5-1.2v-5.7c0-0.2,0.1-0.3,0.2-0.4s0.2-0.2,0.4-0.2
		s0.3,0.1,0.4,0.2s0.2,0.2,0.2,0.4v5.7c0,0.2,0.1,0.3,0.2,0.4s0.2,0.2,0.4,0.2h2.3c0.2,0,0.3-0.1,0.4-0.2s0.2-0.2,0.2-0.4v-5.7
		c0-0.2,0.1-0.3,0.2-0.4s0.2-0.2,0.4-0.2s0.3,0.1,0.4,0.2c0.1,0.1,0.2,0.2,0.2,0.4v5.7c0,0.5-0.2,0.9-0.5,1.2S62.8,194.6,62.4,194.6
		z"/>
	<path class="st0" d="M72.2,194.6c-0.5,0-0.9-0.2-1.2-0.5c-0.3,0.3-0.6,0.5-1.1,0.5c-0.5,0-0.9-0.2-1.2-0.5s-0.5-0.7-0.5-1.2v-5.7
		c0-0.2,0.1-0.3,0.2-0.4s0.2-0.2,0.4-0.2s0.3,0.1,0.4,0.2s0.2,0.2,0.2,0.4v5.7c0,0.2,0.1,0.3,0.2,0.4s0.2,0.2,0.4,0.2
		s0.3-0.1,0.4-0.2s0.2-0.2,0.2-0.4v-2.3c0-0.2,0.1-0.3,0.2-0.4s0.2-0.2,0.4-0.2s0.3,0.1,0.4,0.2s0.2,0.2,0.2,0.4v2.3
		c0,0.2,0.1,0.3,0.2,0.4s0.2,0.2,0.4,0.2s0.3-0.1,0.4-0.2s0.2-0.2,0.2-0.4v-5.7c0-0.2,0.1-0.3,0.2-0.4s0.2-0.2,0.4-0.2
		s0.3,0.1,0.4,0.2s0.2,0.2,0.2,0.4v5.7c0,0.5-0.2,0.9-0.5,1.2S72.7,194.6,72.2,194.6z"/>
	<path class="st0" d="M78.6,191.2c-0.2,0-0.3-0.1-0.4-0.2s-0.2-0.2-0.2-0.4v-3.4c0-0.2,0.1-0.3,0.2-0.4s0.2-0.2,0.4-0.2h4.6
		c0.2,0,0.3,0.1,0.4,0.2s0.2,0.2,0.2,0.4s-0.1,0.3-0.2,0.4s-0.2,0.2-0.4,0.2h-4v2.3h2.9c0.5,0,0.9,0.2,1.2,0.5s0.5,0.7,0.5,1.2v1.1
		c0,0.5-0.2,0.9-0.5,1.2s-0.7,0.5-1.2,0.5h-3.4c-0.2,0-0.3-0.1-0.4-0.2s-0.2-0.2-0.2-0.4s0.1-0.3,0.2-0.4c0.1-0.1,0.2-0.2,0.4-0.2
		h3.4c0.2,0,0.3-0.1,0.4-0.2s0.2-0.2,0.2-0.4v-1.1c0-0.2-0.1-0.3-0.2-0.4s-0.2-0.2-0.4-0.2H78.6z"/>
	<path class="st0" d="M88.5,194.6c-0.2,0-0.3-0.1-0.4-0.2s-0.2-0.2-0.2-0.4s0.1-0.3,0.2-0.4l4.4-4.4v-1.5h-4c-0.2,0-0.3-0.1-0.4-0.2
		s-0.2-0.2-0.2-0.4s0.1-0.3,0.2-0.4s0.2-0.2,0.4-0.2h4.6c0.2,0,0.3,0.1,0.4,0.2s0.2,0.2,0.2,0.4v2.3c0,0.2-0.1,0.3-0.2,0.4l-4.6,4.6
		C88.8,194.6,88.7,194.6,88.5,194.6z"/>
	<path class="st0" d="M100.3,190.6l3.1,3c0.1,0.1,0.2,0.2,0.2,0.4s-0.1,0.3-0.2,0.4s-0.2,0.2-0.4,0.2s-0.3-0.1-0.4-0.2l-3-3.1
		l-0.6,0.6v2.1c0,0.2-0.1,0.3-0.2,0.4s-0.2,0.2-0.4,0.2s-0.3-0.1-0.4-0.2s-0.2-0.2-0.2-0.4v-6.9c0-0.2,0.1-0.3,0.2-0.4
		s0.2-0.2,0.4-0.2s0.3,0.1,0.4,0.2s0.2,0.2,0.2,0.4v3.2l3.6-3.6c0.1-0.1,0.2-0.2,0.4-0.2s0.3,0.1,0.4,0.2s0.2,0.2,0.2,0.4
		s-0.1,0.3-0.2,0.4L100.3,190.6z"/>
	<path class="st0" d="M108.2,194.6c-0.2,0-0.3-0.1-0.4-0.2s-0.2-0.2-0.2-0.4v-6.9c0-0.2,0.1-0.3,0.2-0.4s0.2-0.2,0.4-0.2
		s0.3,0.1,0.4,0.2l1.9,1.9l1.9-1.9c0.1-0.1,0.2-0.2,0.4-0.2s0.3,0.1,0.4,0.2s0.2,0.2,0.2,0.4v6.9c0,0.2-0.1,0.3-0.2,0.4
		s-0.2,0.2-0.4,0.2s-0.3-0.1-0.4-0.2s-0.2-0.2-0.2-0.4v-5.5l-1.3,1.3c-0.1,0.1-0.2,0.2-0.4,0.2s-0.3-0.1-0.4-0.2l-1.3-1.3v5.5
		c0,0.2-0.1,0.3-0.2,0.4S108.4,194.6,108.2,194.6z"/>
	<path class="st0" d="M118.6,194.1c0,0.2-0.1,0.3-0.2,0.4s-0.2,0.2-0.4,0.2s-0.3-0.1-0.4-0.2s-0.2-0.2-0.2-0.4v-6.9
		c0-0.2,0.1-0.3,0.2-0.4s0.2-0.2,0.4-0.2h3.4c0.5,0,0.9,0.2,1.2,0.5s0.5,0.7,0.5,1.2v1.1c0,0.5-0.2,0.9-0.5,1.2s-0.7,0.5-1.2,0.5
		h-2.9V194.1z M118.6,190.1h2.9c0.2,0,0.3-0.1,0.4-0.2s0.2-0.2,0.2-0.4v-1.1c0-0.2-0.1-0.3-0.2-0.4s-0.2-0.2-0.4-0.2h-2.9V190.1z"/>
	<path class="st0" d="M129.7,190.9l-2.1-2.1c-0.1-0.1-0.2-0.2-0.2-0.4v-1.1c0-0.2,0.1-0.3,0.2-0.4s0.2-0.2,0.4-0.2
		c0.2,0,0.3,0.1,0.4,0.2s0.2,0.2,0.2,0.4v0.9l1.7,1.7l1.7-1.7v-0.9c0-0.2,0.1-0.3,0.2-0.4s0.2-0.2,0.4-0.2s0.3,0.1,0.4,0.2
		s0.2,0.2,0.2,0.4v1.1c0,0.2-0.1,0.3-0.2,0.4l-2.1,2.1v3.2c0,0.2-0.1,0.3-0.2,0.4s-0.2,0.2-0.4,0.2s-0.3-0.1-0.4-0.2
		s-0.2-0.2-0.2-0.4V190.9z"/>
	<path class="st0" d="M139.7,190.6l3.1,3c0.1,0.1,0.2,0.2,0.2,0.4s-0.1,0.3-0.2,0.4s-0.2,0.2-0.4,0.2s-0.3-0.1-0.4-0.2l-3-3.1
		l-0.6,0.6v2.1c0,0.2-0.1,0.3-0.2,0.4s-0.2,0.2-0.4,0.2s-0.3-0.1-0.4-0.2s-0.2-0.2-0.2-0.4v-6.9c0-0.2,0.1-0.3,0.2-0.4
		s0.2-0.2,0.4-0.2s0.3,0.1,0.4,0.2s0.2,0.2,0.2,0.4v3.2l3.6-3.6c0.1-0.1,0.2-0.2,0.4-0.2s0.3,0.1,0.4,0.2s0.2,0.2,0.2,0.4
		s-0.1,0.3-0.2,0.4L139.7,190.6z"/>
	<path class="st0" d="M9.6,207.6c-0.2,0-0.3-0.1-0.4-0.2s-0.2-0.2-0.2-0.4s0.1-0.3,0.2-0.4l4.4-4.4v-1.5h-4c-0.2,0-0.3-0.1-0.4-0.2
		s-0.2-0.2-0.2-0.4s0.1-0.3,0.2-0.4s0.2-0.2,0.4-0.2h4.6c0.2,0,0.3,0.1,0.4,0.2c0.1,0.1,0.2,0.2,0.2,0.4v2.3c0,0.2-0.1,0.3-0.2,0.4
		l-4.6,4.6C9.9,207.6,9.8,207.6,9.6,207.6z"/>
	<path class="st0" d="M22.9,204.2h-2.9v2.3h4c0.2,0,0.3,0.1,0.4,0.2s0.2,0.2,0.2,0.4s-0.1,0.3-0.2,0.4s-0.2,0.2-0.4,0.2h-4.6
		c-0.2,0-0.3-0.1-0.4-0.2s-0.2-0.2-0.2-0.4v-6.9c0-0.2,0.1-0.3,0.2-0.4s0.2-0.2,0.4-0.2h4.6c0.2,0,0.3,0.1,0.4,0.2s0.2,0.2,0.2,0.4
		s-0.1,0.3-0.2,0.4s-0.2,0.2-0.4,0.2h-4v2.3h2.9c0.2,0,0.3,0.1,0.4,0.2s0.2,0.2,0.2,0.4s-0.1,0.3-0.2,0.4S23.1,204.2,22.9,204.2z"/>
	<path class="st0" d="M29.9,206.5h4c0.2,0,0.3,0.1,0.4,0.2s0.2,0.2,0.2,0.4s-0.1,0.3-0.2,0.4s-0.2,0.2-0.4,0.2h-4.6
		c-0.2,0-0.3-0.1-0.4-0.2s-0.2-0.2-0.2-0.4v-6.9c0-0.2,0.1-0.3,0.2-0.4s0.2-0.2,0.4-0.2s0.3,0.1,0.4,0.2s0.2,0.2,0.2,0.4V206.5z"/>
	<path class="st0" d="M39.8,204.2h2.3v-4c0-0.2,0.1-0.3,0.2-0.4s0.2-0.2,0.4-0.2s0.3,0.1,0.4,0.2s0.2,0.2,0.2,0.4v4h0.6
		c0.2,0,0.3,0.1,0.4,0.2s0.2,0.2,0.2,0.4s-0.1,0.3-0.2,0.4s-0.2,0.2-0.4,0.2h-0.6v1.7c0,0.2-0.1,0.3-0.2,0.4s-0.2,0.2-0.4,0.2
		s-0.3-0.1-0.4-0.2s-0.2-0.2-0.2-0.4v-1.7h-2.9c-0.2,0-0.3-0.1-0.4-0.2s-0.2-0.2-0.2-0.4v-3.4c0-0.2,0.1-0.3,0.2-0.4
		s0.2-0.2,0.4-0.2s0.3,0.1,0.4,0.2s0.2,0.2,0.2,0.4V204.2z"/>
	<path class="st0" d="M50.2,207.6c-0.5,0-0.9-0.2-1.2-0.5s-0.5-0.7-0.5-1.2v-4.6c0-0.5,0.2-0.9,0.5-1.2s0.7-0.5,1.2-0.5h2.3
		c0.5,0,0.9,0.2,1.2,0.5s0.5,0.7,0.5,1.2c0,0.2-0.1,0.3-0.2,0.4s-0.2,0.2-0.4,0.2s-0.3-0.1-0.4-0.2s-0.2-0.2-0.2-0.4
		s-0.1-0.3-0.2-0.4s-0.2-0.2-0.4-0.2h-2.3c-0.2,0-0.3,0.1-0.4,0.2s-0.2,0.2-0.2,0.4v4.6c0,0.2,0.1,0.3,0.2,0.4s0.2,0.2,0.4,0.2h2.3
		c0.2,0,0.3-0.1,0.4-0.2s0.2-0.2,0.2-0.4s0.1-0.3,0.2-0.4s0.2-0.2,0.4-0.2s0.3,0.1,0.4,0.2s0.2,0.2,0.2,0.4c0,0.5-0.2,0.9-0.5,1.2
		s-0.7,0.5-1.2,0.5H50.2z"/>
	<path class="st0" d="M58.9,207.6c-0.2,0-0.3-0.1-0.4-0.2s-0.2-0.2-0.2-0.4v-5.7c0-0.5,0.2-0.9,0.5-1.2s0.7-0.5,1.2-0.5h2.3
		c0.5,0,0.9,0.2,1.2,0.5s0.5,0.7,0.5,1.2v5.7c0,0.2-0.1,0.3-0.2,0.4c-0.1,0.1-0.2,0.2-0.4,0.2s-0.3-0.1-0.4-0.2s-0.2-0.2-0.2-0.4
		v-2.9h-3.4v2.9c0,0.2-0.1,0.3-0.2,0.4S59.1,207.6,58.9,207.6z M59.5,203.1h3.4v-1.7c0-0.2-0.1-0.3-0.2-0.4s-0.2-0.2-0.4-0.2h-2.3
		c-0.2,0-0.3,0.1-0.4,0.2s-0.2,0.2-0.2,0.4V203.1z"/>
	<path class="st0" d="M69.9,207.6c-0.5,0-0.9-0.2-1.2-0.5s-0.5-0.7-0.5-1.2v-4.6c0-0.5,0.2-0.9,0.5-1.2s0.7-0.5,1.2-0.5h2.3
		c0.2,0,0.3,0.1,0.4,0.2s0.2,0.2,0.2,0.4s-0.1,0.3-0.2,0.4s-0.2,0.2-0.4,0.2h-2.3c-0.2,0-0.3,0.1-0.4,0.2s-0.2,0.2-0.2,0.4v1.7h2.9
		c0.5,0,0.9,0.2,1.2,0.5s0.5,0.7,0.5,1.3v1.1c0,0.5-0.2,0.9-0.5,1.2s-0.7,0.5-1.2,0.5H69.9z M69.4,204.2v1.7c0,0.2,0.1,0.3,0.2,0.4
		s0.2,0.2,0.4,0.2h2.3c0.2,0,0.3-0.1,0.4-0.2s0.2-0.2,0.2-0.4v-1.1c0-0.2-0.1-0.3-0.2-0.4s-0.2-0.2-0.4-0.2H69.4z"/>
	<path class="st0" d="M79.8,207.6c-0.2,0-0.3-0.1-0.4-0.2s-0.2-0.2-0.2-0.4s0.1-0.3,0.2-0.4s0.2-0.2,0.4-0.2h0.6v-5.7h-0.6
		c-0.2,0-0.3-0.1-0.4-0.2s-0.2-0.2-0.2-0.4s0.1-0.3,0.2-0.4s0.2-0.2,0.4-0.2h2.3c0.2,0,0.3,0.1,0.4,0.2s0.2,0.2,0.2,0.4
		s-0.1,0.3-0.2,0.4s-0.2,0.2-0.4,0.2h-0.6v5.7h0.6c0.2,0,0.3,0.1,0.4,0.2s0.2,0.2,0.2,0.4s-0.1,0.3-0.2,0.4s-0.2,0.2-0.4,0.2H79.8z"
		/>
	<path class="st0" d="M88.5,207.6c-0.2,0-0.3-0.1-0.4-0.2s-0.2-0.2-0.2-0.4v-6.9c0-0.2,0.1-0.3,0.2-0.4s0.2-0.2,0.4-0.2
		s0.3,0.1,0.4,0.2l3.6,3.6v-3.2c0-0.2,0.1-0.3,0.2-0.4s0.2-0.2,0.4-0.2s0.3,0.1,0.4,0.2s0.2,0.2,0.2,0.4v6.9c0,0.2-0.1,0.3-0.2,0.4
		s-0.2,0.2-0.4,0.2s-0.3-0.1-0.4-0.2s-0.2-0.2-0.2-0.4V205l-3.4-3.4v5.5c0,0.2-0.1,0.3-0.2,0.4S88.7,207.6,88.5,207.6z"/>
	<path class="st0" d="M99.5,204.2c-0.5,0-1-0.2-1.3-0.5s-0.5-0.7-0.5-1.3v-1.1c0-0.5,0.2-0.9,0.5-1.2s0.7-0.5,1.3-0.5h2.3
		c0.5,0,0.9,0.2,1.2,0.5s0.5,0.7,0.5,1.2c0,0.2-0.1,0.3-0.2,0.4s-0.2,0.2-0.4,0.2s-0.3-0.1-0.4-0.2s-0.2-0.2-0.2-0.4
		s-0.1-0.3-0.2-0.4s-0.2-0.2-0.4-0.2h-2.3c-0.2,0-0.3,0.1-0.4,0.2s-0.2,0.2-0.2,0.4v1.1c0,0.2,0.1,0.3,0.2,0.4s0.2,0.2,0.4,0.2h2.3
		c0.5,0,0.9,0.2,1.2,0.5c0.3,0.3,0.5,0.7,0.5,1.2v1.1c0,0.5-0.2,1-0.5,1.3s-0.7,0.5-1.2,0.5h-2.3c-0.5,0-0.9-0.2-1.2-0.5
		s-0.5-0.7-0.5-1.2c0-0.2,0.1-0.3,0.2-0.4s0.2-0.2,0.4-0.2s0.3,0.1,0.4,0.2s0.2,0.2,0.2,0.4s0.1,0.3,0.2,0.4s0.2,0.2,0.4,0.2h2.3
		c0.2,0,0.3-0.1,0.4-0.2s0.2-0.2,0.2-0.4v-1.1c0-0.2-0.1-0.3-0.2-0.4s-0.2-0.2-0.4-0.2H99.5z"/>
	<path class="st0" d="M108.2,201.9c-0.2,0-0.3-0.1-0.4-0.2s-0.2-0.2-0.2-0.4c0-0.5,0.2-0.9,0.5-1.2s0.7-0.5,1.2-0.5h2.3
		c0.5,0,0.9,0.2,1.2,0.5s0.5,0.7,0.5,1.2v1.1c0,0.2-0.1,0.3-0.2,0.4l-3.6,3.6h3.2c0.2,0,0.3,0.1,0.4,0.2s0.2,0.2,0.2,0.4
		s-0.1,0.3-0.2,0.4s-0.2,0.2-0.4,0.2h-4.6c-0.2,0-0.3-0.1-0.4-0.2s-0.2-0.2-0.2-0.4s0.1-0.3,0.2-0.4l4.4-4.4v-0.9
		c0-0.2-0.1-0.3-0.2-0.4s-0.2-0.2-0.4-0.2h-2.3c-0.2,0-0.3,0.1-0.4,0.2s-0.2,0.2-0.2,0.4s-0.1,0.3-0.2,0.4S108.4,201.9,108.2,201.9z
		"/>
	<path class="st0" d="M121.5,204.2h-2.9v2.3h4c0.2,0,0.3,0.1,0.4,0.2s0.2,0.2,0.2,0.4s-0.1,0.3-0.2,0.4s-0.2,0.2-0.4,0.2h-4.6
		c-0.2,0-0.3-0.1-0.4-0.2s-0.2-0.2-0.2-0.4v-6.9c0-0.2,0.1-0.3,0.2-0.4s0.2-0.2,0.4-0.2h4.6c0.2,0,0.3,0.1,0.4,0.2s0.2,0.2,0.2,0.4
		s-0.1,0.3-0.2,0.4s-0.2,0.2-0.4,0.2h-4v2.3h2.9c0.2,0,0.3,0.1,0.4,0.2s0.2,0.2,0.2,0.4s-0.1,0.3-0.2,0.4S121.7,204.2,121.5,204.2z"
		/>
	<path class="st0" d="M132.5,207.6c-0.2,0-0.3-0.1-0.4-0.2s-0.2-0.2-0.2-0.4v-2.3c0-0.2-0.1-0.3-0.2-0.4s-0.2-0.2-0.4-0.2h-2.9v2.9
		c0,0.2-0.1,0.3-0.2,0.4s-0.2,0.2-0.4,0.2c-0.2,0-0.3-0.1-0.4-0.2s-0.2-0.2-0.2-0.4v-6.9c0-0.2,0.1-0.3,0.2-0.4s0.2-0.2,0.4-0.2h3.4
		c0.5,0,0.9,0.2,1.2,0.5s0.5,0.7,0.5,1.2v1.1c0,0.5-0.2,0.9-0.5,1.2c0.3,0.3,0.5,0.6,0.5,1.1v2.3c0,0.2-0.1,0.3-0.2,0.4
		S132.7,207.6,132.5,207.6z M128.5,203.1h2.9c0.2,0,0.3-0.1,0.4-0.2s0.2-0.2,0.2-0.4v-1.1c0-0.2-0.1-0.3-0.2-0.4s-0.2-0.2-0.4-0.2
		h-2.9V203.1z"/>
	<path class="st0" d="M142.9,200.2v6.9c0,0.2-0.1,0.3-0.2,0.4s-0.2,0.2-0.4,0.2s-0.3-0.1-0.4-0.2s-0.2-0.2-0.2-0.4v-2.9h-3.4v2.9
		c0,0.2-0.1,0.3-0.2,0.4s-0.2,0.2-0.4,0.2s-0.3-0.1-0.4-0.2s-0.2-0.2-0.2-0.4v-6.9c0-0.2,0.1-0.3,0.2-0.4s0.2-0.2,0.4-0.2
		s0.3,0.1,0.4,0.2s0.2,0.2,0.2,0.4v2.9h3.4v-2.9c0-0.2,0.1-0.3,0.2-0.4s0.2-0.2,0.4-0.2s0.3,0.1,0.4,0.2S142.9,200.1,142.9,200.2z"
		/>
	<path class="st0" d="M14.8,217.8c0,0.2-0.1,0.3-0.2,0.4l-0.8,0.7l0.8,0.7c0.1,0.1,0.2,0.2,0.2,0.4s-0.1,0.3-0.2,0.4
		c-0.1,0.1-0.2,0.2-0.4,0.2s-0.3-0.1-0.4-0.2l-0.8-0.7l-0.7,0.7c-0.1,0.1-0.2,0.2-0.4,0.2h-1.1c-0.5,0-0.9-0.2-1.2-0.5
		c-0.3-0.3-0.5-0.7-0.5-1.2v-4.6c0-0.5,0.2-0.9,0.5-1.2c0.3-0.3,0.7-0.5,1.2-0.5h2.3c0.5,0,0.9,0.2,1.2,0.5c0.3,0.3,0.5,0.7,0.5,1.2
		V217.8z M13.6,214.3c0-0.2-0.1-0.3-0.2-0.4c-0.1-0.1-0.2-0.2-0.4-0.2h-2.3c-0.2,0-0.3,0.1-0.4,0.2c-0.1,0.1-0.2,0.2-0.2,0.4v4.6
		c0,0.2,0.1,0.3,0.2,0.4c0.1,0.1,0.2,0.2,0.4,0.2h0.9l0.6-0.6l-0.7-0.7c-0.1-0.1-0.2-0.2-0.2-0.4s0.1-0.3,0.2-0.4
		c0.1-0.1,0.2-0.2,0.4-0.2s0.3,0.1,0.4,0.2l0.6,0.6l0.7-0.7V214.3z"/>
	<path class="st0" d="M22.9,220.6h-2.3c-0.5,0-0.9-0.2-1.2-0.5s-0.5-0.7-0.5-1.2c0-0.2,0.1-0.3,0.2-0.4s0.2-0.2,0.4-0.2
		s0.3,0.1,0.4,0.2s0.2,0.2,0.2,0.4s0.1,0.3,0.2,0.4s0.2,0.2,0.4,0.2h2.3c0.2,0,0.3-0.1,0.4-0.2s0.2-0.2,0.2-0.4v-5.7
		c0-0.2,0.1-0.3,0.2-0.4s0.2-0.2,0.4-0.2s0.3,0.1,0.4,0.2s0.2,0.2,0.2,0.4v5.7c0,0.5-0.2,0.9-0.5,1.2S23.4,220.6,22.9,220.6z"/>
	<path class="st0" d="M29.4,220.6c-0.2,0-0.3-0.1-0.4-0.2s-0.2-0.2-0.2-0.4v-6.9c0-0.2,0.1-0.3,0.2-0.4s0.2-0.2,0.4-0.2h3.4
		c0.5,0,0.9,0.2,1.2,0.5s0.5,0.7,0.5,1.2v4.6c0,0.5-0.2,0.9-0.5,1.2s-0.7,0.5-1.2,0.5H29.4z M33.4,218.9v-4.6c0-0.2-0.1-0.3-0.2-0.4
		s-0.2-0.2-0.4-0.2h-2.9v5.7h2.9c0.2,0,0.3-0.1,0.4-0.2S33.4,219.1,33.4,218.9z"/>
	<path class="st0" d="M43.8,220.6c-0.2,0-0.3-0.1-0.4-0.2s-0.2-0.2-0.2-0.4v-2.3c0-0.2-0.1-0.3-0.2-0.4s-0.2-0.2-0.4-0.2h-2.9v2.9
		c0,0.2-0.1,0.3-0.2,0.4s-0.2,0.2-0.4,0.2s-0.3-0.1-0.4-0.2s-0.2-0.2-0.2-0.4v-6.9c0-0.2,0.1-0.3,0.2-0.4s0.2-0.2,0.4-0.2h3.4
		c0.5,0,0.9,0.2,1.2,0.5s0.5,0.7,0.5,1.2v1.1c0,0.5-0.2,0.9-0.5,1.2c0.3,0.3,0.5,0.6,0.5,1.1v2.3c0,0.2-0.1,0.3-0.2,0.4
		S43.9,220.6,43.8,220.6z M39.8,216.1h2.9c0.2,0,0.3-0.1,0.4-0.2s0.2-0.2,0.2-0.4v-1.1c0-0.2-0.1-0.3-0.2-0.4s-0.2-0.2-0.4-0.2h-2.9
		V216.1z"/>
	<path class="st0" d="M50.2,220.6c-0.2,0-0.3-0.1-0.4-0.2s-0.2-0.2-0.2-0.4s0.1-0.3,0.2-0.4s0.2-0.2,0.4-0.2h0.6v-5.7h-0.6
		c-0.2,0-0.3-0.1-0.4-0.2s-0.2-0.2-0.2-0.4s0.1-0.3,0.2-0.4s0.2-0.2,0.4-0.2h2.3c0.2,0,0.3,0.1,0.4,0.2s0.2,0.2,0.2,0.4
		s-0.1,0.3-0.2,0.4s-0.2,0.2-0.4,0.2h-0.6v5.7h0.6c0.2,0,0.3,0.1,0.4,0.2s0.2,0.2,0.2,0.4s-0.1,0.3-0.2,0.4s-0.2,0.2-0.4,0.2H50.2z"
		/>
	<path class="st0" d="M62.4,220.6h-2.3c-0.5,0-0.9-0.2-1.2-0.5s-0.5-0.7-0.5-1.2c0-0.2,0.1-0.3,0.2-0.4s0.2-0.2,0.4-0.2
		s0.3,0.1,0.4,0.2s0.2,0.2,0.2,0.4s0.1,0.3,0.2,0.4s0.2,0.2,0.4,0.2h2.3c0.2,0,0.3-0.1,0.4-0.2s0.2-0.2,0.2-0.4v-1.1
		c0-0.2-0.1-0.3-0.2-0.4s-0.2-0.2-0.4-0.2h-1.1c-0.2,0-0.3-0.1-0.4-0.2s-0.2-0.2-0.2-0.4s0.1-0.3,0.2-0.4s0.2-0.2,0.4-0.2h1.1
		c0.2,0,0.3-0.1,0.4-0.2s0.2-0.2,0.2-0.4v-1.1c0-0.2-0.1-0.3-0.2-0.4s-0.2-0.2-0.4-0.2h-2.3c-0.2,0-0.3,0.1-0.4,0.2
		s-0.2,0.2-0.2,0.4s-0.1,0.3-0.2,0.4s-0.2,0.2-0.4,0.2s-0.3-0.1-0.4-0.2s-0.2-0.2-0.2-0.4c0-0.5,0.2-0.9,0.5-1.2s0.7-0.5,1.2-0.5
		h2.3c0.5,0,0.9,0.2,1.2,0.5s0.5,0.7,0.5,1.2v1.1c0,0.5-0.2,0.9-0.5,1.2c0.3,0.3,0.5,0.6,0.5,1.1v1.1c0,0.5-0.2,0.9-0.5,1.2
		S62.8,220.6,62.4,220.6z"/>
	<path class="st0" d="M72.2,220.6h-2.3c-0.5,0-0.9-0.2-1.2-0.5s-0.5-0.7-0.5-1.2c0-0.2,0.1-0.3,0.2-0.4s0.2-0.2,0.4-0.2
		s0.3,0.1,0.4,0.2s0.2,0.2,0.2,0.4s0.1,0.3,0.2,0.4s0.2,0.2,0.4,0.2h2.3c0.2,0,0.3-0.1,0.4-0.2s0.2-0.2,0.2-0.4v-1.1
		c0-0.2-0.1-0.3-0.2-0.4s-0.2-0.2-0.4-0.2h-1.1c-0.2,0-0.3-0.1-0.4-0.2s-0.2-0.2-0.2-0.4s0.1-0.3,0.2-0.4s0.2-0.2,0.4-0.2h1.1
		c0.2,0,0.3-0.1,0.4-0.2s0.2-0.2,0.2-0.4v-1.1c0-0.2-0.1-0.3-0.2-0.4s-0.2-0.2-0.4-0.2h-2.3c-0.2,0-0.3,0.1-0.4,0.2
		s-0.2,0.2-0.2,0.4s-0.1,0.3-0.2,0.4s-0.2,0.2-0.4,0.2s-0.3-0.1-0.4-0.2s-0.2-0.2-0.2-0.4c0-0.5,0.2-0.9,0.5-1.2s0.7-0.5,1.2-0.5
		h2.3c0.5,0,0.9,0.2,1.2,0.5s0.5,0.7,0.5,1.2v1.1c0,0.5-0.2,0.9-0.5,1.2c0.3,0.3,0.5,0.6,0.5,1.1v1.1c0,0.5-0.2,0.9-0.5,1.2
		S72.7,220.6,72.2,220.6z"/>
	<path class="st0" d="M78.6,213.8c-0.2,0-0.3-0.1-0.4-0.2s-0.2-0.2-0.2-0.4s0.1-0.3,0.2-0.4s0.2-0.2,0.4-0.2h4.6
		c0.2,0,0.3,0.1,0.4,0.2s0.2,0.2,0.2,0.4s-0.1,0.3-0.2,0.4s-0.2,0.2-0.4,0.2h-1.7v6.3c0,0.2-0.1,0.3-0.2,0.4s-0.2,0.2-0.4,0.2
		s-0.3-0.1-0.4-0.2s-0.2-0.2-0.2-0.4v-6.3H78.6z"/>
	<path class="st0" d="M89.7,220.6c-0.2,0-0.3-0.1-0.4-0.2s-0.2-0.2-0.2-0.4s0.1-0.3,0.2-0.4s0.2-0.2,0.4-0.2h0.6v-5.7h-0.6
		c-0.2,0-0.3-0.1-0.4-0.2s-0.2-0.2-0.2-0.4s0.1-0.3,0.2-0.4s0.2-0.2,0.4-0.2h2.3c0.2,0,0.3,0.1,0.4,0.2s0.2,0.2,0.2,0.4
		s-0.1,0.3-0.2,0.4s-0.2,0.2-0.4,0.2h-0.6v5.7h0.6c0.2,0,0.3,0.1,0.4,0.2s0.2,0.2,0.2,0.4s-0.1,0.3-0.2,0.4s-0.2,0.2-0.4,0.2H89.7z"
		/>
	<path class="st0" d="M100.3,216.6l3.1,3c0.1,0.1,0.2,0.2,0.2,0.4s-0.1,0.3-0.2,0.4s-0.2,0.2-0.4,0.2s-0.3-0.1-0.4-0.2l-3-3.1
		l-0.6,0.6v2.1c0,0.2-0.1,0.3-0.2,0.4s-0.2,0.2-0.4,0.2s-0.3-0.1-0.4-0.2s-0.2-0.2-0.2-0.4v-6.9c0-0.2,0.1-0.3,0.2-0.4
		s0.2-0.2,0.4-0.2s0.3,0.1,0.4,0.2s0.2,0.2,0.2,0.4v3.2l3.6-3.6c0.1-0.1,0.2-0.2,0.4-0.2s0.3,0.1,0.4,0.2s0.2,0.2,0.2,0.4
		s-0.1,0.3-0.2,0.4L100.3,216.6z"/>
	<path class="st0" d="M109.9,216.9l-2.1-2.1c-0.1-0.1-0.2-0.2-0.2-0.4v-1.1c0-0.2,0.1-0.3,0.2-0.4s0.2-0.2,0.4-0.2s0.3,0.1,0.4,0.2
		s0.2,0.2,0.2,0.4v0.9l1.7,1.7l1.7-1.7v-0.9c0-0.2,0.1-0.3,0.2-0.4s0.2-0.2,0.4-0.2s0.3,0.1,0.4,0.2s0.2,0.2,0.2,0.4v1.1
		c0,0.2-0.1,0.3-0.2,0.4l-2.1,2.1v3.2c0,0.2-0.1,0.3-0.2,0.4s-0.2,0.2-0.4,0.2s-0.3-0.1-0.4-0.2s-0.2-0.2-0.2-0.4V216.9z"/>
	<path class="st0" d="M118.1,220.6c-0.2,0-0.3-0.1-0.4-0.2s-0.2-0.2-0.2-0.4v-6.9c0-0.2,0.1-0.3,0.2-0.4s0.2-0.2,0.4-0.2h3.4
		c0.5,0,0.9,0.2,1.2,0.5s0.5,0.7,0.5,1.2v4.6c0,0.5-0.2,0.9-0.5,1.2s-0.7,0.5-1.2,0.5H118.1z M122.1,218.9v-4.6
		c0-0.2-0.1-0.3-0.2-0.4s-0.2-0.2-0.4-0.2h-2.9v5.7h2.9c0.2,0,0.3-0.1,0.4-0.2S122.1,219.1,122.1,218.9z"/>
	<path class="st0" d="M127.9,220.6c-0.2,0-0.3-0.1-0.4-0.2s-0.2-0.2-0.2-0.4v-6.9c0-0.2,0.1-0.3,0.2-0.4s0.2-0.2,0.4-0.2h3.4
		c0.5,0,0.9,0.2,1.2,0.5s0.5,0.7,0.5,1.2v4.6c0,0.5-0.2,0.9-0.5,1.2s-0.7,0.5-1.2,0.5H127.9z M131.9,218.9v-4.6
		c0-0.2-0.1-0.3-0.2-0.4s-0.2-0.2-0.4-0.2h-2.9v5.7h2.9c0.2,0,0.3-0.1,0.4-0.2S131.9,219.1,131.9,218.9z"/>
	<path class="st0" d="M138.9,220.6c-0.5,0-0.9-0.2-1.2-0.5s-0.5-0.7-0.5-1.2v-4.6c0-0.5,0.2-0.9,0.5-1.2s0.7-0.5,1.2-0.5h2.3
		c0.5,0,0.9,0.2,1.2,0.5s0.5,0.7,0.5,1.2c0,0.2-0.1,0.3-0.2,0.4s-0.2,0.2-0.4,0.2s-0.3-0.1-0.4-0.2s-0.2-0.2-0.2-0.4
		s-0.1-0.3-0.2-0.4s-0.2-0.2-0.4-0.2h-2.3c-0.2,0-0.3,0.1-0.4,0.2s-0.2,0.2-0.2,0.4v4.6c0,0.2,0.1,0.3,0.2,0.4s0.2,0.2,0.4,0.2h2.3
		c0.2,0,0.3-0.1,0.4-0.2s0.2-0.2,0.2-0.4s0.1-0.3,0.2-0.4s0.2-0.2,0.4-0.2s0.3,0.1,0.4,0.2s0.2,0.2,0.2,0.4c0,0.5-0.2,0.9-0.5,1.2
		s-0.7,0.5-1.2,0.5H138.9z"/>
	<path class="st0" d="M10.2,232.5h4c0.2,0,0.3,0.1,0.4,0.2c0.1,0.1,0.2,0.2,0.2,0.4s-0.1,0.3-0.2,0.4c-0.1,0.1-0.2,0.2-0.4,0.2H9.6
		c-0.2,0-0.3-0.1-0.4-0.2s-0.2-0.2-0.2-0.4v-6.9c0-0.2,0.1-0.3,0.2-0.4s0.2-0.2,0.4-0.2s0.3,0.1,0.4,0.2c0.1,0.1,0.2,0.2,0.2,0.4
		V232.5z"/>
	<path class="st0" d="M24.7,226.2v6.9c0,0.2-0.1,0.3-0.2,0.4s-0.2,0.2-0.4,0.2s-0.3-0.1-0.4-0.2s-0.2-0.2-0.2-0.4v-2.9h-3.4v2.9
		c0,0.2-0.1,0.3-0.2,0.4s-0.2,0.2-0.4,0.2s-0.3-0.1-0.4-0.2s-0.2-0.2-0.2-0.4v-6.9c0-0.2,0.1-0.3,0.2-0.4s0.2-0.2,0.4-0.2
		s0.3,0.1,0.4,0.2s0.2,0.2,0.2,0.4v2.9h3.4v-2.9c0-0.2,0.1-0.3,0.2-0.4s0.2-0.2,0.4-0.2s0.3,0.1,0.4,0.2S24.7,226.1,24.7,226.2z"/>
	<path class="st0" d="M32.8,233.6c-0.5,0-0.9-0.2-1.2-0.5c-0.3,0.3-0.6,0.5-1.1,0.5c-0.5,0-0.9-0.2-1.2-0.5s-0.5-0.7-0.5-1.2v-5.7
		c0-0.2,0.1-0.3,0.2-0.4s0.2-0.2,0.4-0.2s0.3,0.1,0.4,0.2s0.2,0.2,0.2,0.4v5.7c0,0.2,0.1,0.3,0.2,0.4s0.2,0.2,0.4,0.2
		s0.3-0.1,0.4-0.2s0.2-0.2,0.2-0.4v-2.3c0-0.2,0.1-0.3,0.2-0.4s0.2-0.2,0.4-0.2s0.3,0.1,0.4,0.2s0.2,0.2,0.2,0.4v2.3
		c0,0.2,0.1,0.3,0.2,0.4s0.2,0.2,0.4,0.2s0.3-0.1,0.4-0.2s0.2-0.2,0.2-0.4v-5.7c0-0.2,0.1-0.3,0.2-0.4s0.2-0.2,0.4-0.2
		s0.3,0.1,0.4,0.2s0.2,0.2,0.2,0.4v5.7c0,0.5-0.2,0.9-0.5,1.2S33.3,233.6,32.8,233.6z"/>
	<path class="st0" d="M39.2,233.6c-0.2,0-0.3-0.1-0.4-0.2s-0.2-0.2-0.2-0.4v-6.9c0-0.2,0.1-0.3,0.2-0.4s0.2-0.2,0.4-0.2h3.4
		c0.5,0,0.9,0.2,1.2,0.5s0.5,0.7,0.5,1.2v4.6c0,0.5-0.2,0.9-0.5,1.2s-0.7,0.5-1.2,0.5H39.2z M43.2,231.9v-4.6c0-0.2-0.1-0.3-0.2-0.4
		s-0.2-0.2-0.4-0.2h-2.9v5.7h2.9c0.2,0,0.3-0.1,0.4-0.2S43.2,232.1,43.2,231.9z"/>
	<path class="st0" d="M50.2,233.6c-0.5,0-0.9-0.2-1.2-0.5s-0.5-0.7-0.5-1.2v-4.6c0-0.5,0.2-0.9,0.5-1.2s0.7-0.5,1.2-0.5h2.3
		c0.5,0,0.9,0.2,1.2,0.5s0.5,0.7,0.5,1.2c0,0.2-0.1,0.3-0.2,0.4s-0.2,0.2-0.4,0.2s-0.3-0.1-0.4-0.2s-0.2-0.2-0.2-0.4
		s-0.1-0.3-0.2-0.4s-0.2-0.2-0.4-0.2h-2.3c-0.2,0-0.3,0.1-0.4,0.2s-0.2,0.2-0.2,0.4v4.6c0,0.2,0.1,0.3,0.2,0.4s0.2,0.2,0.4,0.2h2.3
		c0.2,0,0.3-0.1,0.4-0.2s0.2-0.2,0.2-0.4v-1.7h-0.6c-0.2,0-0.3-0.1-0.4-0.2s-0.2-0.2-0.2-0.4s0.1-0.3,0.2-0.4s0.2-0.2,0.4-0.2h1.1
		c0.2,0,0.3,0.1,0.4,0.2s0.2,0.2,0.2,0.4v2.3c0,0.5-0.2,0.9-0.5,1.2s-0.7,0.5-1.2,0.5H50.2z"/>
	<path class="st0" d="M60.1,233.6c-0.5,0-0.9-0.2-1.2-0.5s-0.5-0.7-0.5-1.2v-4.6c0-0.5,0.2-0.9,0.5-1.2s0.7-0.5,1.2-0.5h2.3
		c0.5,0,0.9,0.2,1.2,0.5s0.5,0.7,0.5,1.2c0,0.2-0.1,0.3-0.2,0.4c-0.1,0.1-0.2,0.2-0.4,0.2s-0.3-0.1-0.4-0.2s-0.2-0.2-0.2-0.4
		s-0.1-0.3-0.2-0.4s-0.2-0.2-0.4-0.2h-2.3c-0.2,0-0.3,0.1-0.4,0.2s-0.2,0.2-0.2,0.4v4.6c0,0.2,0.1,0.3,0.2,0.4s0.2,0.2,0.4,0.2h2.3
		c0.2,0,0.3-0.1,0.4-0.2s0.2-0.2,0.2-0.4s0.1-0.3,0.2-0.4s0.2-0.2,0.4-0.2s0.3,0.1,0.4,0.2c0.1,0.1,0.2,0.2,0.2,0.4
		c0,0.5-0.2,0.9-0.5,1.2s-0.7,0.5-1.2,0.5H60.1z"/>
	<path class="st0" d="M69.9,233.6c-0.5,0-0.9-0.2-1.2-0.5s-0.5-0.7-0.5-1.2v-4.6c0-0.5,0.2-0.9,0.5-1.2s0.7-0.5,1.2-0.5h2.3
		c0.2,0,0.3,0.1,0.4,0.2s0.2,0.2,0.2,0.4s-0.1,0.3-0.2,0.4s-0.2,0.2-0.4,0.2h-2.3c-0.2,0-0.3,0.1-0.4,0.2s-0.2,0.2-0.2,0.4v1.7h2.9
		c0.5,0,0.9,0.2,1.2,0.5s0.5,0.7,0.5,1.3v1.1c0,0.5-0.2,0.9-0.5,1.2s-0.7,0.5-1.2,0.5H69.9z M69.4,230.2v1.7c0,0.2,0.1,0.3,0.2,0.4
		s0.2,0.2,0.4,0.2h2.3c0.2,0,0.3-0.1,0.4-0.2s0.2-0.2,0.2-0.4v-1.1c0-0.2-0.1-0.3-0.2-0.4s-0.2-0.2-0.4-0.2H69.4z"/>
	<path class="st0" d="M82.1,233.6c-0.5,0-0.9-0.2-1.2-0.5c-0.3,0.3-0.6,0.5-1.1,0.5c-0.5,0-0.9-0.2-1.2-0.5s-0.5-0.7-0.5-1.2v-5.7
		c0-0.2,0.1-0.3,0.2-0.4s0.2-0.2,0.4-0.2s0.3,0.1,0.4,0.2s0.2,0.2,0.2,0.4v5.7c0,0.2,0.1,0.3,0.2,0.4s0.2,0.2,0.4,0.2
		s0.3-0.1,0.4-0.2s0.2-0.2,0.2-0.4v-2.3c0-0.2,0.1-0.3,0.2-0.4s0.2-0.2,0.4-0.2s0.3,0.1,0.4,0.2s0.2,0.2,0.2,0.4v2.3
		c0,0.2,0.1,0.3,0.2,0.4s0.2,0.2,0.4,0.2s0.3-0.1,0.4-0.2s0.2-0.2,0.2-0.4v-5.7c0-0.2,0.1-0.3,0.2-0.4s0.2-0.2,0.4-0.2
		s0.3,0.1,0.4,0.2s0.2,0.2,0.2,0.4v5.7c0,0.5-0.2,0.9-0.5,1.2S82.5,233.6,82.1,233.6z"/>
	<path class="st0" d="M88.5,233.6c-0.2,0-0.3-0.1-0.4-0.2s-0.2-0.2-0.2-0.4v-6.9c0-0.2,0.1-0.3,0.2-0.4s0.2-0.2,0.4-0.2
		s0.3,0.1,0.4,0.2l3.6,3.6v-3.2c0-0.2,0.1-0.3,0.2-0.4s0.2-0.2,0.4-0.2s0.3,0.1,0.4,0.2s0.2,0.2,0.2,0.4v6.9c0,0.2-0.1,0.3-0.2,0.4
		s-0.2,0.2-0.4,0.2s-0.3-0.1-0.4-0.2s-0.2-0.2-0.2-0.4V231l-3.4-3.4v5.5c0,0.2-0.1,0.3-0.2,0.4S88.7,233.6,88.5,233.6z"/>
	<path class="st0" d="M103.5,230.8c0,0.2-0.1,0.3-0.2,0.4l-0.8,0.7l0.8,0.7c0.1,0.1,0.2,0.2,0.2,0.4s-0.1,0.3-0.2,0.4
		s-0.2,0.2-0.4,0.2s-0.3-0.1-0.4-0.2l-0.8-0.7l-0.7,0.7c-0.1,0.1-0.2,0.2-0.4,0.2h-1.1c-0.5,0-0.9-0.2-1.2-0.5s-0.5-0.7-0.5-1.2
		v-4.6c0-0.5,0.2-0.9,0.5-1.2s0.7-0.5,1.2-0.5h2.3c0.5,0,0.9,0.2,1.2,0.5s0.5,0.7,0.5,1.2V230.8z M102.4,227.3
		c0-0.2-0.1-0.3-0.2-0.4s-0.2-0.2-0.4-0.2h-2.3c-0.2,0-0.3,0.1-0.4,0.2s-0.2,0.2-0.2,0.4v4.6c0,0.2,0.1,0.3,0.2,0.4s0.2,0.2,0.4,0.2
		h0.9l0.6-0.6l-0.7-0.7c-0.1-0.1-0.2-0.2-0.2-0.4s0.1-0.3,0.2-0.4s0.2-0.2,0.4-0.2s0.3,0.1,0.4,0.2l0.6,0.6l0.7-0.7V227.3z"/>
	<path class="st0" d="M111.6,233.6h-2.3c-0.5,0-0.9-0.2-1.2-0.5s-0.5-0.7-0.5-1.2c0-0.2,0.1-0.3,0.2-0.4s0.2-0.2,0.4-0.2
		s0.3,0.1,0.4,0.2s0.2,0.2,0.2,0.4s0.1,0.3,0.2,0.4s0.2,0.2,0.4,0.2h2.3c0.2,0,0.3-0.1,0.4-0.2s0.2-0.2,0.2-0.4v-5.7
		c0-0.2,0.1-0.3,0.2-0.4s0.2-0.2,0.4-0.2s0.3,0.1,0.4,0.2s0.2,0.2,0.2,0.4v5.7c0,0.5-0.2,0.9-0.5,1.2S112.1,233.6,111.6,233.6z"/>
	<path class="st0" d="M118.1,233.6c-0.2,0-0.3-0.1-0.4-0.2s-0.2-0.2-0.2-0.4v-6.9c0-0.2,0.1-0.3,0.2-0.4s0.2-0.2,0.4-0.2h3.4
		c0.5,0,0.9,0.2,1.2,0.5s0.5,0.7,0.5,1.2v1.1c0,0.5-0.2,0.9-0.5,1.2c0.3,0.3,0.5,0.6,0.5,1.1v1.1c0,0.5-0.2,0.9-0.5,1.2
		s-0.7,0.5-1.2,0.5H118.1z M118.6,229.1h2.9c0.2,0,0.3-0.1,0.4-0.2s0.2-0.2,0.2-0.4v-1.1c0-0.2-0.1-0.3-0.2-0.4s-0.2-0.2-0.4-0.2
		h-2.9V229.1z M118.6,232.5h2.9c0.2,0,0.3-0.1,0.4-0.2s0.2-0.2,0.2-0.4v-1.1c0-0.2-0.1-0.3-0.2-0.4s-0.2-0.2-0.4-0.2h-2.9V232.5z"/>
	<path class="st0" d="M128.5,232.5h4c0.2,0,0.3,0.1,0.4,0.2s0.2,0.2,0.2,0.4s-0.1,0.3-0.2,0.4s-0.2,0.2-0.4,0.2h-4.6
		c-0.2,0-0.3-0.1-0.4-0.2s-0.2-0.2-0.2-0.4v-6.9c0-0.2,0.1-0.3,0.2-0.4s0.2-0.2,0.4-0.2c0.2,0,0.3,0.1,0.4,0.2s0.2,0.2,0.2,0.4
		V232.5z"/>
	<path class="st0" d="M142.9,230.8c0,0.2-0.1,0.3-0.2,0.4l-0.8,0.7l0.8,0.7c0.1,0.1,0.2,0.2,0.2,0.4s-0.1,0.3-0.2,0.4
		s-0.2,0.2-0.4,0.2s-0.3-0.1-0.4-0.2l-0.8-0.7l-0.7,0.7c-0.1,0.1-0.2,0.2-0.4,0.2h-1.1c-0.5,0-0.9-0.2-1.2-0.5s-0.5-0.7-0.5-1.2
		v-4.6c0-0.5,0.2-0.9,0.5-1.2s0.7-0.5,1.2-0.5h2.3c0.5,0,0.9,0.2,1.2,0.5s0.5,0.7,0.5,1.2V230.8z M141.8,227.3
		c0-0.2-0.1-0.3-0.2-0.4s-0.2-0.2-0.4-0.2h-2.3c-0.2,0-0.3,0.1-0.4,0.2s-0.2,0.2-0.2,0.4v4.6c0,0.2,0.1,0.3,0.2,0.4s0.2,0.2,0.4,0.2
		h0.9l0.6-0.6l-0.7-0.7c-0.1-0.1-0.2-0.2-0.2-0.4s0.1-0.3,0.2-0.4s0.2-0.2,0.4-0.2s0.3,0.1,0.4,0.2l0.6,0.6l0.7-0.7V227.3z"/>
</g>
<g>
	<path d="M11.2,172.3c0,0.3-0.1,0.6-0.3,0.8s-0.5,0.3-0.8,0.3c-0.3,0-0.6-0.1-0.8-0.3s-0.3-0.5-0.3-0.8v-13.7c0-0.3,0.1-0.6,0.3-0.8
		s0.5-0.3,0.8-0.3h6.9c0.9,0,1.7,0.3,2.4,1s1,1.5,1,2.4v2.3c0,0.9-0.3,1.7-1,2.4s-1.5,1-2.4,1h-5.7V172.3z M11.2,164.3h5.7
		c0.3,0,0.6-0.1,0.8-0.3c0.2-0.2,0.3-0.5,0.3-0.8v-2.3c0-0.3-0.1-0.6-0.3-0.8c-0.2-0.2-0.5-0.3-0.8-0.3h-5.7V164.3z"/>
	<path d="M41.7,173.5h-4.6c-0.9,0-1.7-0.3-2.4-1c-0.7-0.7-1-1.5-1-2.4v-11.4c0-0.3,0.1-0.6,0.3-0.8s0.5-0.3,0.8-0.3
		c0.3,0,0.6,0.1,0.8,0.3s0.3,0.5,0.3,0.8V170c0,0.3,0.1,0.6,0.3,0.8s0.5,0.3,0.8,0.3h4.6c0.3,0,0.6-0.1,0.8-0.3
		c0.2-0.2,0.3-0.5,0.3-0.8v-11.4c0-0.3,0.1-0.6,0.3-0.8s0.5-0.3,0.8-0.3s0.6,0.1,0.8,0.3s0.3,0.5,0.3,0.8V170c0,0.9-0.3,1.7-1,2.4
		S42.6,173.5,41.7,173.5z"/>
	<path d="M59.6,173.5c-0.3,0-0.6-0.1-0.8-0.3s-0.3-0.5-0.3-0.8v-13.7c0-0.3,0.1-0.6,0.3-0.8s0.5-0.3,0.8-0.3h6.9
		c0.9,0,1.7,0.3,2.4,1s1,1.5,1,2.4v2.3c0,0.9-0.3,1.7-1,2.4c0.7,0.5,1,1.3,1,2.2v2.3c0,0.9-0.3,1.7-1,2.4s-1.5,1-2.4,1H59.6z
		 M60.7,164.3h5.7c0.3,0,0.6-0.1,0.8-0.3c0.2-0.2,0.3-0.5,0.3-0.8v-2.3c0-0.3-0.1-0.6-0.3-0.8c-0.2-0.2-0.5-0.3-0.8-0.3h-5.7V164.3z
		 M60.7,171.2h5.7c0.3,0,0.6-0.1,0.8-0.3c0.2-0.2,0.3-0.5,0.3-0.8v-2.3c0-0.3-0.1-0.6-0.3-0.8c-0.2-0.2-0.5-0.3-0.8-0.3h-5.7V171.2z
		"/>
	<path d="M85.5,171.2h8c0.3,0,0.6,0.1,0.8,0.3c0.2,0.2,0.3,0.5,0.3,0.8s-0.1,0.6-0.3,0.8s-0.5,0.3-0.8,0.3h-9.1
		c-0.3,0-0.6-0.1-0.8-0.3s-0.3-0.5-0.3-0.8v-13.7c0-0.3,0.1-0.6,0.3-0.8s0.5-0.3,0.8-0.3c0.3,0,0.6,0.1,0.8,0.3s0.3,0.5,0.3,0.8
		V171.2z"/>
	<path d="M111.4,173.5c-0.3,0-0.6-0.1-0.8-0.3s-0.3-0.5-0.3-0.8s0.1-0.6,0.3-0.8c0.2-0.2,0.5-0.3,0.8-0.3h1.1v-11.4h-1.1
		c-0.3,0-0.6-0.1-0.8-0.3c-0.2-0.2-0.3-0.5-0.3-0.8s0.1-0.6,0.3-0.8s0.5-0.3,0.8-0.3h4.6c0.3,0,0.6,0.1,0.8,0.3
		c0.2,0.2,0.3,0.5,0.3,0.8s-0.1,0.6-0.3,0.8c-0.2,0.2-0.5,0.3-0.8,0.3h-1.1v11.4h1.1c0.3,0,0.6,0.1,0.8,0.3c0.2,0.2,0.3,0.5,0.3,0.8
		s-0.1,0.6-0.3,0.8c-0.2,0.2-0.5,0.3-0.8,0.3H111.4z"/>
	<path d="M136.1,173.5c-0.9,0-1.7-0.3-2.4-1c-0.7-0.7-1-1.5-1-2.4v-9.1c0-0.9,0.3-1.7,1-2.4c0.7-0.7,1.5-1,2.4-1h4.6
		c0.9,0,1.7,0.3,2.4,1s1,1.5,1,2.4c0,0.3-0.1,0.6-0.3,0.8s-0.5,0.3-0.8,0.3s-0.6-0.1-0.8-0.3s-0.3-0.5-0.3-0.8s-0.1-0.6-0.3-0.8
		c-0.2-0.2-0.5-0.3-0.8-0.3h-4.6c-0.3,0-0.6,0.1-0.8,0.3s-0.3,0.5-0.3,0.8v9.1c0,0.3,0.1,0.6,0.3,0.8s0.5,0.3,0.8,0.3h4.6
		c0.3,0,0.6-0.1,0.8-0.3c0.2-0.2,0.3-0.5,0.3-0.8s0.1-0.6,0.3-0.8s0.5-0.3,0.8-0.3s0.6,0.1,0.8,0.3s0.3,0.5,0.3,0.8
		c0,0.9-0.3,1.7-1,2.4s-1.5,1-2.4,1H136.1z"/>
</g>
<g>
	<g transform="translate(6, 3) scale(-0.03,0.03)">
		<g>
			<path class="st0" d="M-358.3,758.4V570.5c0-61.8-51.1-112.1-113.9-112.1h-184.5c-62.8,0-113.9,50.3-113.9,112.1v300.2l298.4-0.2
				C-409.4,870.5-358.3,820.2-358.3,758.4z"/>
		</g>
	</g>
	<path class="st0" d="M12.8,18.2v-8.1c-2.6,1.8-4.3,4.7-4.3,8.1v9.4c0,5.4,4.4,9.7,9.9,9.7l10.8,0V33l-10.8,0c-3,0-5.5-2.4-5.5-5.4
		V18.2z"/>
	<path class="st0" d="M27.5,8.5h-9.2c-0.5,0-1.1,0.1-1.6,0.1v4.4c0.5-0.2,1-0.2,1.6-0.2h9.2c3,0,5.5,2.4,5.5,5.4v19.1l4.3,0V18.2
		C37.4,12.9,32.9,8.5,27.5,8.5z"/>
</g>
<g>
	<g transform="translate(6, 3) scale(-0.03,0.03)">
		<g>
			<path class="st0" d="M-4344,758.4V570.5c0-61.8,51.1-112.1,113.9-112.1h184.5c62.8,0,113.9,50.3,113.9,112.1v300.2l-298.4-0.2
				C-4292.9,870.5-4344,820.2-4344,758.4z"/>
		</g>
	</g>
	<path class="st0" d="M140.2,18.2v-8.1c2.6,1.8,4.3,4.7,4.3,8.1v9.4c0,5.4-4.4,9.7-9.9,9.7l-10.8,0V33l10.8,0c3,0,5.5-2.4,5.5-5.4
		V18.2z"/>
	<path class="st0" d="M125.6,8.5h9.2c0.5,0,1.1,0.1,1.6,0.1v4.4c-0.5-0.2-1-0.2-1.6-0.2h-9.2c-3,0-5.5,2.4-5.5,5.4v19.1l-4.3,0V18.2
		C115.7,12.9,120.1,8.5,125.6,8.5z"/>
</g>
<g>
	<g transform="translate(6, 3) scale(-0.03,0.03)">
		<g>
			<path class="st0" d="M-358.3,4143.9v187.9c0,61.8-51.1,112.1-113.9,112.1h-184.5c-62.8,0-113.9-50.3-113.9-112.1v-300.2
				l298.4,0.2C-409.5,4031.9-358.3,4082.1-358.3,4143.9z"/>
		</g>
	</g>
	<path class="st0" d="M12.8,134.8v8.1c-2.6-1.8-4.3-4.7-4.3-8.1v-9.4c0-5.4,4.4-9.7,9.9-9.7l10.8,0v4.3l-10.8,0
		c-3,0-5.5,2.4-5.5,5.4V134.8z"/>
	<path class="st0" d="M27.5,144.6h-9.2c-0.5,0-1.1-0.1-1.6-0.1V140c0.5,0.2,1,0.2,1.6,0.2h9.2c3,0,5.5-2.4,5.5-5.4v-19.1l4.3,0v19.1
		C37.4,140.2,32.9,144.6,27.5,144.6z"/>
</g>
</svg>
