<?xml version="1.0" encoding="utf-8"?>
<!-- Generator: Adobe Illustrator 17.0.0, SVG Export Plug-In . SVG Version: 6.00 Build 0)  -->
<!DOCTYPE svg PUBLIC "-//W3C//DTD SVG 1.1//EN" "http://www.w3.org/Graphics/SVG/1.1/DTD/svg11.dtd">
<svg version="1.1" id="Layer_1" xmlns="http://www.w3.org/2000/svg" xmlns:xlink="http://www.w3.org/1999/xlink" x="0px" y="0px"
	 width="841.89px" height="1190.55px" viewBox="0 0 841.89 1190.55" enable-background="new 0 0 841.89 1190.55"
	 xml:space="preserve">
<g id="text">
	<g>
		<path fill="#EF4438" d="M98.525,938.306c-2.454,0-4.907-0.981-6.38-2.454c-1.472-1.472-2.454-3.435-2.454-6.38v-5.398
			c0-2.454,0.981-4.417,2.454-5.889c1.472-1.472,3.435-2.454,6.38-2.454h11.287c2.454,0,4.417,0.982,5.889,2.454
			s2.454,3.435,2.454,5.889c0,0.982-0.491,1.472-0.981,1.963c-0.491,0.491-0.981,0.982-1.963,0.982s-1.472-0.491-1.963-0.982
			c-0.491-0.491-0.981-0.981-0.981-1.963c0-0.981-0.491-1.472-0.981-1.963c-0.491-0.491-0.981-0.981-1.963-0.981H98.034
			c-0.981,0-1.472,0.491-1.963,0.981c-0.491,0.491-0.981,0.982-0.981,1.963v5.398c0,0.982,0.491,1.472,0.981,1.963
			c0.491,0.491,0.981,0.982,1.963,0.982h11.287c2.454,0,4.417,0.981,5.889,2.454c1.472,1.472,2.454,3.435,2.454,5.889v5.398
			c0,2.454-0.981,4.907-2.454,6.38c-1.472,1.472-3.435,2.454-5.889,2.454H98.034c-2.454,0-4.417-0.982-5.889-2.454
			c-1.472-1.472-2.454-3.435-2.454-5.889c0-0.981,0.491-1.472,0.981-1.963c0.491-0.491,0.981-0.981,1.963-0.981
			s1.472,0.491,1.963,0.981c0.491,0.491,0.981,0.982,0.981,1.963c0,0.982,0.491,1.472,0.981,1.963s0.981,0.981,1.963,0.981h11.287
			c0.981,0,1.472-0.491,1.963-0.981c0.491-0.491,0.981-0.982,0.981-1.963v-5.398c0-0.982-0.491-1.472-0.981-1.963
			c-0.491-0.491-0.981-0.982-1.963-0.982H98.525z"/>
		<path fill="#EF4438" d="M141.22,954.992c-0.981,0-1.472-0.491-1.963-0.982c-0.491-0.491-0.981-0.981-0.981-1.963v-33.861
			c0-0.981,0.491-1.472,0.981-1.963c0.491-0.491,0.982-0.981,1.963-0.981h16.685c2.454,0,4.417,0.981,5.889,2.454
			c1.472,1.472,2.454,3.435,2.454,5.889v5.398c0,2.454-0.982,4.417-2.454,5.889c1.472,1.472,2.454,2.945,2.454,5.398v5.398
			c0,2.454-0.982,4.417-2.454,5.889s-3.435,2.454-5.889,2.454H141.22V954.992z M144.164,932.908h14.232
			c0.981,0,1.472-0.491,1.963-0.982c0.491-0.491,0.981-0.981,0.981-1.963v-5.398c0-0.981-0.491-1.472-0.981-1.963
			c-0.491-0.491-0.981-0.981-1.963-0.981h-14.232V932.908z M144.164,949.594h14.232c0.981,0,1.472-0.491,1.963-0.981
			c0.491-0.491,0.981-0.982,0.981-1.963v-5.398c0-0.982-0.491-1.472-0.981-1.963s-0.981-0.982-1.963-0.982h-14.232V949.594z"/>
		<path fill="#EF4438" d="M189.804,954.992c-0.981,0-1.472-0.491-1.963-0.982c-0.491-0.491-0.981-0.981-0.981-1.963v-33.861
			c0-0.981,0.491-1.472,0.981-1.963c0.491-0.491,0.981-0.981,1.963-0.981h16.685c2.454,0,4.417,0.981,5.889,2.454
			c1.472,1.472,2.454,3.435,2.454,5.889v22.574c0,2.454-0.981,4.417-2.454,5.889c-1.472,1.472-3.435,2.454-5.889,2.454h-16.685
			V954.992z M209.433,946.649v-22.574c0-0.981-0.491-1.472-0.981-1.963c-0.491-0.491-0.982-0.981-1.963-0.981h-14.232v27.972h14.232
			c0.981,0,1.472-0.491,1.963-0.981C208.943,947.631,209.433,947.631,209.433,946.649z"/>
		<path fill="#EF4438" d="M255.073,938.306h-14.232v11.287c0,2.454-0.491,4.417-0.981,4.907s-0.981,0.982-1.963,0.982
			c-0.981,0-1.472-0.491-1.963-0.982s-0.981-0.981-0.981-1.963v-33.861c0-0.981,0.491-1.472,0.981-1.963s0.981-0.981,1.963-0.981
			h22.574c0.982,0,1.472,0.491,1.963,0.981c0.491,0.491,0.981,0.982,0.981,1.963c0,0.982-0.491,1.472-0.981,1.963
			c-0.491,0.491-0.982,0.982-1.963,0.982h-19.63v11.287h14.232c0.982,0,1.472,0.491,1.963,0.981
			c0.491,0.491,0.982,0.982,0.982,1.963c0,0.982-0.491,1.472-0.982,1.963C256.545,938.306,255.564,938.306,255.073,938.306z"/>
		<path fill="#EF4438" d="M303.166,954.992h-11.287c-2.454,0-4.417-0.982-5.889-2.454s-2.454-3.435-2.454-5.889v-27.973
			c0-0.981,0.491-1.472,0.982-1.963s0.981-0.981,1.963-0.981s1.472,0.491,1.963,0.981c0.491,0.491,0.982,0.982,0.982,1.963v27.973
			c0,0.981,0.491,1.472,0.982,1.963c0.491,0.491,0.981,0.981,1.963,0.981h11.287c0.981,0,1.472-0.491,1.963-0.981
			c0.491-0.491,0.981-0.982,0.981-1.963v-27.973c0-0.981,0.491-1.472,0.982-1.963s0.982-0.981,1.963-0.981
			c0.982,0,1.472,0.491,1.963,0.981s0.981,0.982,0.981,1.963v27.973c0,2.454-0.981,4.417-2.454,5.889
			C308.564,954.01,305.62,954.992,303.166,954.992z"/>
		<path fill="#EF4438" d="M334.574,954.992c-0.982,0-1.472-0.491-1.963-0.982c-0.491-0.491-0.982-0.981-0.982-1.963v-33.861
			c0-0.981,0.491-1.472,0.982-1.963c0.491-0.491,0.981-0.981,1.963-0.981s1.472,0.491,1.963,0.981l9.324,9.324l9.324-9.324
			c0.491-0.491,0.982-0.981,1.963-0.981c0.982,0,1.472,0.491,1.963,0.981c0.491,0.491,0.981,0.982,0.981,1.963v33.861
			c0,0.982-0.491,1.472-0.982,1.963c-0.491,0.491-0.982,0.982-1.963,0.982c-0.982,0-1.472-0.491-1.963-0.982
			c-0.491-0.491-0.981-0.981-0.981-1.963v-26.991l-6.38,6.38c-0.491,0.491-0.982,0.981-1.963,0.981
			c-0.982,0-1.472-0.491-1.963-0.981l-6.38-6.38v26.991c0,0.982-0.491,1.472-0.981,1.963
			C336.046,954.501,335.555,954.992,334.574,954.992z"/>
		<path fill="#EF4438" d="M399.843,954.992h-11.287c-2.454,0-4.417-0.982-5.889-2.454c-1.472-1.472-2.454-3.435-2.454-5.889
			c0-0.982,0.491-1.472,0.981-1.963c0.491-0.491,0.981-0.982,1.963-0.982s1.472,0.491,1.963,0.982
			c0.491,0.491,0.981,0.981,0.981,1.963c0,0.981,0.491,1.472,0.981,1.963c0.491,0.491,0.982,0.981,1.963,0.981h11.287
			c0.981,0,1.472-0.491,1.963-0.981c0.491-0.491,0.981-0.982,0.981-1.963v-27.973c0-0.981,0.491-1.472,0.981-1.963
			c0.491-0.491,0.981-0.981,1.963-0.981c0.982,0,1.472,0.491,1.963,0.981c0.491,0.491,0.981,0.982,0.981,1.963v27.973
			c0,2.454-0.981,4.417-2.454,5.889S402.297,954.992,399.843,954.992z"/>
		<path fill="#EF4438" d="M431.251,927.019c-0.981,0-1.472-0.491-1.963-0.981c-0.491-0.491-0.981-0.982-0.981-1.963
			c0-2.454,0.981-4.417,2.454-5.889c1.472-1.472,3.435-2.454,5.889-2.454h11.287c2.454,0,4.417,0.982,5.889,2.454
			c1.472,1.472,2.454,3.435,2.454,5.889v5.398c0,0.982-0.491,1.472-0.981,1.963l-17.667,17.667h15.704
			c0.981,0,1.472,0.491,1.963,0.981c0.491,0.491,0.981,0.982,0.981,1.963c0,0.982-0.491,1.472-0.981,1.963
			c-0.491,0.491-0.981,0.982-1.963,0.982H430.76c-0.981,0-1.472-0.491-1.963-0.982c-0.491-0.491-0.981-0.981-0.981-1.963
			c0-0.981,0.491-1.472,0.981-1.963l21.593-21.593v-4.417c0-0.982-0.491-1.472-0.981-1.963c-0.491-0.491-0.981-0.982-1.963-0.982
			h-11.287c-0.981,0-1.472,0.491-1.963,0.982c-0.491,0.491-0.981,0.981-0.981,1.963c0,0.981-0.491,1.472-0.981,1.963
			C431.741,926.529,432.232,927.019,431.251,927.019z"/>
		<path fill="#EF4438" d="M485.723,954.992c-2.454,0-4.417-0.982-5.889-2.454s-2.454-3.435-2.454-5.889v-22.574
			c0-2.454,0.981-4.417,2.454-5.889c1.472-1.472,3.435-2.454,5.889-2.454h11.287c0.981,0,1.472,0.491,1.963,0.982
			c0.491,0.491,0.981,0.981,0.981,1.963c0,0.981-0.491,1.472-0.981,1.963c-0.491,0.491-0.981,0.981-1.963,0.981h-11.287
			c-0.981,0-1.472,0.491-1.963,0.982c-0.491,0.491-0.981,0.981-0.981,1.963v8.343h14.232c2.454,0,4.417,0.982,5.889,2.454
			c1.472,1.472,2.454,3.435,2.454,6.38v5.398c0,2.454-0.981,4.417-2.454,5.889c-1.472,1.472-3.435,2.454-5.889,2.454h-11.287
			V954.992z M482.779,938.306v8.343c0,0.982,0.491,1.472,0.981,1.963c0.491,0.491,0.981,0.981,1.963,0.981h11.287
			c0.981,0,1.472-0.491,1.963-0.981c0.491-0.491,0.981-0.982,0.981-1.963v-5.398c0-0.982-0.491-1.472-0.981-1.963
			c-0.491-0.491-0.981-0.982-1.963-0.982H482.779z"/>
		<path fill="#EF4438" d="M550.502,954.992c-0.981,0-1.472-0.491-1.963-0.982c-0.491-0.491-0.982-0.981-0.982-1.963V940.76
			c0-0.981-0.491-1.472-0.981-1.963c-0.491-0.491-0.982-0.981-1.963-0.981h-14.232v14.232c0,0.982-0.491,1.472-0.982,1.963
			c-0.491,0.491-0.981,0.982-1.963,0.982c-0.982,0-1.472-0.491-1.963-0.982c-0.491-0.491-0.982-0.981-0.982-1.963v-33.861
			c0-0.981,0.491-1.472,0.982-1.963c0.491-0.491,0.981-0.981,1.963-0.981h16.685c2.454,0,4.417,0.981,5.889,2.454
			c1.472,1.472,2.454,3.435,2.454,5.889v5.398c0,2.454-0.982,4.417-2.454,5.889c1.472,1.472,2.454,2.945,2.454,5.398v11.287
			c0,0.981-0.491,1.472-0.982,1.963C550.993,954.01,551.483,954.992,550.502,954.992z M530.872,932.908h14.232
			c0.982,0,1.472-0.491,1.963-0.982c0.491-0.491,0.981-0.981,0.981-1.963v-5.398c0-0.981-0.491-1.472-0.981-1.963
			c-0.491-0.491-0.982-0.981-1.963-0.981h-14.232V932.908z"/>
		<path fill="#EF4438" d="M576.511,954.992c-0.981,0-1.472-0.491-1.963-0.982c-0.491-0.491-0.982-0.981-0.982-1.963v-33.861
			c0-0.981,0.491-1.472,0.982-1.963c0.491-0.491,0.981-0.981,1.963-0.981h16.685c2.454,0,4.417,0.981,5.889,2.454
			c1.472,1.472,2.454,3.435,2.454,5.889v5.398c0,2.454-0.982,4.417-2.454,5.889c1.472,1.472,2.454,2.945,2.454,5.398v5.398
			c0,2.454-0.982,4.417-2.454,5.889c-1.472,1.472-3.435,2.454-5.889,2.454h-16.685V954.992z M579.456,932.908h14.232
			c0.982,0,1.472-0.491,1.963-0.982c0.491-0.491,0.982-0.981,0.982-1.963v-5.398c0-0.981-0.491-1.472-0.982-1.963
			c-0.491-0.491-0.982-0.981-1.963-0.981h-14.232V932.908z M579.456,949.594h14.232c0.982,0,1.472-0.491,1.963-0.981
			c0.491-0.491,0.982-0.982,0.982-1.963v-5.398c0-0.982-0.491-1.472-0.982-1.963s-0.982-0.982-1.963-0.982h-14.232V949.594z"/>
		<path fill="#EF4438" d="M625.095,954.992c-0.981,0-1.472-0.491-1.963-0.982c-0.491-0.491-0.982-0.981-0.982-1.963v-33.861
			c0-0.981,0.491-1.472,0.982-1.963c0.491-0.491,0.981-0.981,1.963-0.981h16.685c2.454,0,4.417,0.981,5.889,2.454
			c1.472,1.472,2.454,3.435,2.454,5.889v5.398c0,2.454-0.982,4.417-2.454,5.889c1.472,1.472,2.454,2.945,2.454,5.398v5.398
			c0,2.454-0.982,4.417-2.454,5.889s-3.435,2.454-5.889,2.454h-16.685V954.992z M627.549,932.908h14.232
			c0.981,0,1.472-0.491,1.963-0.982c0.491-0.491,0.982-0.981,0.982-1.963v-5.398c0-0.981-0.491-1.472-0.982-1.963
			c-0.491-0.491-0.981-0.981-1.963-0.981h-14.232V932.908z M627.549,949.594h14.232c0.981,0,1.472-0.491,1.963-0.981
			c0.491-0.491,0.982-0.982,0.982-1.963v-5.398c0-0.982-0.491-1.472-0.982-1.963s-0.981-0.982-1.963-0.982h-14.232V949.594z"/>
		<path fill="#EF4438" d="M673.188,954.992c-0.981,0-1.472-0.491-1.963-0.982c-0.491-0.491-0.982-0.981-0.982-1.963v-33.861
			c0-0.981,0.491-1.472,0.982-1.963c0.491-0.491,0.981-0.981,1.963-0.981s1.472,0.491,1.963,0.981l17.667,17.667v-15.704
			c0-0.982,0.491-1.472,0.982-1.963c0.491-0.491,0.981-0.982,1.963-0.982c0.981,0,1.472,0.491,1.963,0.982
			c0.491,0.491,0.981,0.981,0.981,1.963v33.861c0,0.981-0.491,1.472-0.981,1.963c-0.491,0.491-0.982,0.981-1.963,0.981
			c-0.982,0-1.472-0.491-1.963-0.981c-0.491-0.491-0.982-0.982-0.982-1.963v-9.815l-16.685-16.685v26.991
			c0,0.982-0.491,1.472-0.982,1.963S674.17,954.992,673.188,954.992z"/>
		<path fill="#EF4438" d="M738.458,954.992h-11.287c-2.454,0-4.417-0.982-5.889-2.454c-1.472-1.472-2.454-3.435-2.454-5.889v-27.973
			c0-0.981,0.491-1.472,0.981-1.963s0.982-0.981,1.963-0.981c0.982,0,1.472,0.491,1.963,0.981c0.491,0.491,0.982,0.982,0.982,1.963
			v27.973c0,0.981,0.491,1.472,0.981,1.963c0.491,0.491,0.982,0.981,1.963,0.981h11.287c0.982,0,1.472-0.491,1.963-0.981
			c0.491-0.491,0.982-0.982,0.982-1.963v-27.973c0-0.981,0.491-1.472,0.981-1.963c0.491-0.491,0.982-0.981,1.963-0.981
			c0.982,0,1.472,0.491,1.963,0.981c0.491,0.491,0.982,0.982,0.982,1.963v27.973c0,2.454-0.982,4.417-2.454,5.889
			S740.911,954.992,738.458,954.992z"/>
		<path fill="#EF4438" d="M103.923,1018.789c-0.981,0-1.472-0.491-1.963-0.982l-11.287-11.287c-0.491-0.491-0.981-0.981-0.981-1.963
			v-22.574c0-0.981,0.491-1.472,0.981-1.963c0.491-0.491,0.981-0.982,1.963-0.982s1.472,0.491,1.963,0.982
			c0.491,0.491,0.981,0.982,0.981,1.963v19.63l8.343,8.343l8.343-8.343v-19.63c0-0.981,0.491-1.472,0.981-1.963
			c0.491-0.491,0.981-0.982,1.963-0.982s1.472,0.491,1.963,0.982c0.491,0.491,0.981,0.982,0.981,1.963v22.574
			c0,0.982-0.491,1.472-0.981,1.963l-11.287,11.287C105.395,1018.789,104.905,1018.789,103.923,1018.789z"/>
		<path fill="#EF4438" d="M147.109,1018.789c-2.454,0-4.417-0.982-5.889-2.454s-2.454-3.435-2.454-5.889v-22.574
			c0-2.454,0.981-4.417,2.454-5.889c1.472-1.472,3.435-2.454,5.889-2.454h11.287c0.981,0,1.472,0.491,1.963,0.982
			c0.491,0.491,0.981,0.981,0.981,1.963c0,0.981-0.491,1.472-0.981,1.963c-0.491,0.491-0.981,0.981-1.963,0.981h-11.287
			c-0.981,0-1.472,0.491-1.963,0.982c-0.491,0.491-0.981,0.981-0.981,1.963v8.343h14.232c2.454,0,4.417,0.982,5.889,2.454
			s2.454,3.435,2.454,6.38v5.398c0,2.454-0.981,4.417-2.454,5.889c-1.472,1.472-3.435,2.454-5.889,2.454h-11.287V1018.789z
			 M144.164,1002.103v8.343c0,0.982,0.491,1.472,0.981,1.963c0.491,0.491,0.981,0.982,1.963,0.982h11.287
			c0.981,0,1.472-0.491,1.963-0.982c0.491-0.491,0.981-0.981,0.981-1.963v-5.398c0-0.982-0.491-1.472-0.981-1.963
			c-0.491-0.491-0.981-0.982-1.963-0.982H144.164z"/>
		<path fill="#EF4438" d="M206.489,1018.789h-11.287c-2.454,0-4.417-0.982-5.889-2.454s-2.454-3.435-2.454-5.889
			c0-0.982,0.491-1.472,0.981-1.963c0.491-0.491,0.981-0.982,1.963-0.982s1.472,0.491,1.963,0.982
			c0.491,0.491,0.981,0.981,0.981,1.963c0,0.981,0.491,1.472,0.982,1.963c0.491,0.491,0.981,0.981,1.963,0.981h11.287
			c0.982,0,1.472-0.491,1.963-0.981c0.491-0.491,0.981-0.982,0.981-1.963v-27.973c0-0.982,0.491-1.472,0.982-1.963
			c0.491-0.491,0.981-0.982,1.963-0.982c0.982,0,1.472,0.491,1.963,0.982s0.981,0.981,0.981,1.963v27.973
			c0,2.454-0.981,4.417-2.454,5.889C211.887,1017.807,208.943,1018.789,206.489,1018.789z"/>
		<path fill="#EF4438" d="M263.416,1005.048c0,0.981-0.491,1.472-0.982,1.963l-3.926,3.435l3.926,3.435
			c0.491,0.491,0.982,0.981,0.982,1.963c0,0.981-0.491,1.472-0.982,1.963s-0.981,0.981-1.963,0.981s-1.472-0.491-1.963-0.981
			l-3.926-3.435l-3.435,3.435c-0.491,0.491-0.981,0.981-1.963,0.981h-5.398c-2.454,0-4.417-0.981-5.889-2.454
			c-1.472-1.472-2.454-3.435-2.454-5.889v-22.574c0-2.454,0.981-4.417,2.454-5.889c1.472-1.472,3.435-2.454,5.889-2.454h11.287
			c2.454,0,4.417,0.981,5.889,2.454c1.472,1.472,2.454,3.435,2.454,5.889L263.416,1005.048L263.416,1005.048z M257.527,987.872
			c0-0.981-0.491-1.472-0.982-1.963c-0.491-0.491-0.982-0.981-1.963-0.981h-11.287c-0.981,0-1.472,0.491-1.963,0.981
			c-0.491,0.491-0.981,0.982-0.981,1.963v22.574c0,0.981,0.491,1.472,0.981,1.963c0.491,0.491,0.982,0.981,1.963,0.981h4.417
			l2.944-2.945l-3.435-3.435c-0.491-0.491-0.981-0.982-0.981-1.963c0-0.982,0.491-1.472,0.981-1.963
			c0.491-0.491,0.981-0.982,1.963-0.982c0.981,0,1.472,0.491,1.963,0.982l2.944,2.945l3.435-3.435V987.872z"/>
		<path fill="#EF4438" d="M286.481,990.816c-0.981,0-1.472-0.491-1.963-0.982c-0.491-0.491-0.982-0.981-0.982-1.963
			c0-2.454,0.982-4.417,2.454-5.889s3.435-2.454,5.889-2.454h11.287c2.454,0,4.417,0.982,5.889,2.454
			c1.472,1.472,2.454,3.435,2.454,5.889v5.398c0,0.982-0.491,1.472-0.981,1.963L292.86,1012.9h15.704
			c0.982,0,1.472,0.491,1.963,0.982s0.982,0.982,0.982,1.963c0,0.982-0.491,1.472-0.982,1.963s-0.981,0.982-1.963,0.982H285.99
			c-0.982,0-1.472-0.491-1.963-0.982c-0.491-0.491-0.982-0.981-0.982-1.963c0-0.981,0.491-1.472,0.982-1.963l21.593-21.593v-4.417
			c0-0.982-0.491-1.472-0.982-1.963c-0.491-0.491-0.982-0.982-1.963-0.982h-11.287c-0.982,0-1.472,0.491-1.963,0.982
			c-0.491,0.491-0.982,0.981-0.982,1.963c0,0.981-0.491,1.472-0.982,1.963C286.971,990.326,286.971,990.816,286.481,990.816z"/>
		<path fill="#EF4438" d="M351.75,1018.789h-11.287c-2.454,0-4.417-0.982-5.889-2.454s-2.454-3.435-2.454-5.889
			c0-0.982,0.491-1.472,0.982-1.963c0.491-0.491,0.982-0.982,1.963-0.982c0.982,0,1.472,0.491,1.963,0.982
			c0.491,0.491,0.981,0.981,0.981,1.963c0,0.981,0.491,1.472,0.982,1.963c0.491,0.491,0.982,0.981,1.963,0.981h11.287
			c0.981,0,1.472-0.491,1.963-0.981c0.491-0.491,0.982-0.982,0.982-1.963v-27.973c0-0.982,0.491-1.472,0.981-1.963
			s0.982-0.982,1.963-0.982c0.981,0,1.472,0.491,1.963,0.982c0.491,0.491,0.981,0.981,0.981,1.963v27.973
			c0,2.454-0.981,4.417-2.454,5.889S353.713,1018.789,351.75,1018.789z"/>
		<path fill="#EF4438" d="M383.158,1018.789c-0.981,0-1.472-0.491-1.963-0.982c-0.491-0.491-0.981-0.981-0.981-1.963v-33.861
			c0-0.981,0.491-1.472,0.981-1.963c0.491-0.491,0.981-0.981,1.963-0.981h16.685c2.454,0,4.417,0.981,5.889,2.454
			c1.472,1.472,2.454,3.435,2.454,5.889v22.574c0,2.454-0.981,4.417-2.454,5.889c-1.472,1.472-3.435,2.454-5.889,2.454h-16.685
			V1018.789z M402.787,1010.446v-22.574c0-0.981-0.491-1.472-0.981-1.963c-0.491-0.491-0.981-0.981-1.963-0.981h-14.232v27.972
			h14.232c0.981,0,1.472-0.491,1.963-0.981C402.297,1011.428,402.787,1011.428,402.787,1010.446z"/>
		<path fill="#EF4438" d="M431.251,1018.789c-0.981,0-1.472-0.491-1.963-0.982c-0.491-0.491-0.981-0.981-0.981-1.963v-27.972
			c0-2.454,0.981-4.417,2.454-5.889c1.472-1.472,3.435-2.454,5.889-2.454h11.287c2.454,0,4.417,0.982,5.889,2.454
			c1.472,1.472,2.454,3.435,2.454,5.889v27.972c0,0.982-0.491,1.472-0.981,1.963c-0.491,0.491-0.981,0.982-1.963,0.982
			c-0.982,0-1.472-0.491-1.963-0.982c-0.491-0.491-0.981-0.981-0.981-1.963v-14.232h-16.685v14.232c0,0.982-0.491,1.472-0.981,1.963
			C432.232,1018.298,432.232,1018.789,431.251,1018.789z M434.195,996.705h16.685v-8.343c0-0.981-0.491-1.472-0.981-1.963
			c-0.491-0.491-0.981-0.981-1.963-0.981h-11.287c-0.981,0-1.472,0.491-1.963,0.981c-0.491,0.491-0.981,0.982-0.981,1.963v8.343
			H434.195z"/>
		<path fill="#EF4438" d="M479.835,985.418c-0.981,0-1.472-0.491-1.963-0.982c-0.491-0.491-0.981-0.982-0.981-1.963
			c0-0.982,0.491-1.472,0.981-1.963c0.491-0.491,0.981-0.982,1.963-0.982h22.574c0.981,0,1.472,0.491,1.963,0.982
			c0.491,0.491,0.981,0.981,0.981,1.963c0,0.981-0.491,1.472-0.981,1.963c-0.491,0.491-0.981,0.982-1.963,0.982h-8.343v30.917
			c0,0.981-0.491,1.472-0.981,1.963c-0.491,0.491-0.981,0.981-1.963,0.981s-1.472-0.491-1.963-0.981
			c-0.491-0.491-0.981-0.982-0.981-1.963v-30.917H479.835z"/>
		<path fill="#EF4438" d="M528.418,1018.789c-0.981,0-1.472-0.491-1.963-0.982c-0.491-0.491-0.981-0.981-0.981-1.963v-33.861
			c0-0.981,0.491-1.472,0.981-1.963c0.491-0.491,0.982-0.981,1.963-0.981s1.472,0.491,1.963,0.981l9.324,9.324l9.324-9.324
			c0.491-0.491,0.981-0.981,1.963-0.981s1.472,0.491,1.963,0.981c0.491,0.491,0.981,0.982,0.981,1.963v33.861
			c0,0.982-0.491,1.472-0.981,1.963c-0.491,0.491-0.982,0.982-1.963,0.982s-1.472-0.491-1.963-0.982
			c-0.491-0.491-0.982-0.981-0.982-1.963v-26.991l-6.38,6.38c-0.491,0.491-0.982,0.982-1.963,0.982s-1.472-0.491-1.963-0.982
			l-6.38-6.38v26.991c0,0.982-0.491,1.472-0.981,1.963C529.891,1018.298,528.909,1018.789,528.418,1018.789z"/>
		<path fill="#EF4438" d="M593.197,1018.789H581.91c-2.454,0-4.417-0.982-5.889-2.454s-2.454-3.435-2.454-5.889
			c0-0.982,0.491-1.472,0.982-1.963c0.491-0.491,0.981-0.982,1.963-0.982s1.472,0.491,1.963,0.982
			c0.491,0.491,0.981,0.981,0.981,1.963c0,0.981,0.491,1.472,0.982,1.963c0.491,0.491,0.982,0.981,1.963,0.981h11.287
			c0.981,0,1.472-0.491,1.963-0.981c0.491-0.491,0.982-0.982,0.982-1.963v-27.973c0-0.982,0.491-1.472,0.981-1.963
			c0.491-0.491,0.982-0.982,1.963-0.982s1.472,0.491,1.963,0.982c0.491,0.491,0.981,0.981,0.981,1.963v27.973
			c0,2.454-0.981,4.417-2.454,5.889C598.595,1017.807,595.651,1018.789,593.197,1018.789z"/>
		<path fill="#EF4438" d="M625.095,1018.789c-0.981,0-1.472-0.491-1.963-0.982c-0.491-0.491-0.982-0.981-0.982-1.963v-33.861
			c0-0.981,0.491-1.472,0.982-1.963c0.491-0.491,0.981-0.981,1.963-0.981h16.685c2.454,0,4.417,0.981,5.889,2.454
			c1.472,1.472,2.454,3.435,2.454,5.889v5.398c0,2.454-0.982,4.417-2.454,5.889c1.472,1.472,2.454,2.945,2.454,5.398v5.398
			c0,2.454-0.982,4.417-2.454,5.889c-1.472,1.472-3.435,2.454-5.889,2.454h-16.685V1018.789z M627.549,996.705h14.232
			c0.981,0,1.472-0.491,1.963-0.982s0.982-0.981,0.982-1.963v-5.398c0-0.981-0.491-1.472-0.982-1.963
			c-0.491-0.491-0.981-0.981-1.963-0.981h-14.232V996.705z M627.549,1013.391h14.232c0.981,0,1.472-0.491,1.963-0.981
			c0.491-0.491,0.982-0.982,0.982-1.963v-5.398c0-0.982-0.491-1.472-0.982-1.963c-0.491-0.491-0.981-0.982-1.963-0.982h-14.232
			V1013.391z"/>
		<path fill="#EF4438" d="M690.365,1002.103h-14.232v11.287h19.63c0.981,0,1.472,0.491,1.963,0.982
			c0.491,0.491,0.981,0.981,0.981,1.963c0,0.981-0.491,1.472-0.981,1.963c-0.491,0.491-0.982,0.981-1.963,0.981h-22.574
			c-0.981,0-1.472-0.491-1.963-0.981c-0.491-0.491-0.982-0.982-0.982-1.963v-33.861c0-0.982,0.491-1.472,0.982-1.963
			c0.491-0.491,0.981-0.982,1.963-0.982h22.574c0.981,0,1.472,0.491,1.963,0.982c0.491,0.491,0.981,0.981,0.981,1.963
			c0,0.981-0.491,1.472-0.981,1.963c-0.491,0.491-0.982,0.981-1.963,0.981h-19.63v11.287h14.232c0.982,0,1.472,0.491,1.963,0.982
			s0.982,0.981,0.982,1.963c0,0.981-0.491,1.472-0.982,1.963S690.855,1002.103,690.365,1002.103z"/>
		<path fill="#EF4438" d="M738.458,1002.103h-14.232v11.287c0,2.454-0.491,4.417-0.981,4.907c-0.491,0.491-0.982,0.981-1.963,0.981
			c-0.982,0-1.472-0.491-1.963-0.981c-0.491-0.491-0.982-0.982-0.982-1.963v-33.861c0-0.982,0.491-1.472,0.982-1.963
			c0.491-0.491,0.981-0.982,1.963-0.982h22.574c0.981,0,1.472,0.491,1.963,0.982s0.981,0.981,0.981,1.963
			c0,0.981-0.491,1.472-0.981,1.963s-0.982,0.982-1.963,0.982h-19.63v11.287h14.232c0.982,0,1.472,0.491,1.963,0.981
			c0.491,0.491,0.982,0.982,0.982,1.963c0,0.982-0.491,1.472-0.982,1.963C739.93,1002.103,739.439,1002.103,738.458,1002.103z"/>
		<path fill="#EF4438" d="M109.812,1082.586H98.525c-2.454,0-4.417-0.981-5.889-2.454c-1.472-1.472-2.454-3.435-2.454-5.889
			c0-0.981,0.491-1.472,0.981-1.963c0.491-0.491,0.981-0.982,1.963-0.982s1.472,0.491,1.963,0.982s0.981,0.981,0.981,1.963
			s0.491,1.472,0.981,1.963s0.981,0.981,1.963,0.981h11.287c0.981,0,1.472-0.491,1.963-0.981c0.491-0.491,0.981-0.982,0.981-1.963
			v-27.973c0-0.981,0.491-1.472,0.981-1.963c0.491-0.491,0.981-0.981,1.963-0.981s1.472,0.491,1.963,0.981
			c0.491,0.491,0.981,0.981,0.981,1.963v27.973c0,2.454-0.981,4.417-2.454,5.889
			C113.738,1082.095,111.775,1082.586,109.812,1082.586z"/>
		<path fill="#EF4438" d="M157.905,1082.586h-11.287c-2.454,0-4.417-0.981-5.889-2.454c-1.472-1.472-2.454-3.435-2.454-5.889
			c0-0.981,0.491-1.472,0.981-1.963c0.491-0.491,0.982-0.982,1.963-0.982c0.981,0,1.472,0.491,1.963,0.982
			c0.491,0.491,0.982,0.981,0.982,1.963s0.491,1.472,0.981,1.963s0.981,0.981,1.963,0.981h11.287c0.981,0,1.472-0.491,1.963-0.981
			s0.981-0.982,0.981-1.963v-5.398c0-0.981-0.491-1.472-0.981-1.963c-0.491-0.491-0.981-0.981-1.963-0.981h-5.398
			c-0.981,0-1.472-0.491-1.963-0.981s-0.981-0.981-0.981-1.963c0-0.981,0.491-1.472,0.981-1.963s0.981-0.981,1.963-0.981h5.398
			c0.981,0,1.472-0.491,1.963-0.982s0.981-0.981,0.981-1.963v-5.398c0-0.981-0.491-1.472-0.981-1.963s-0.981-0.981-1.963-0.981
			h-11.287c-0.981,0-1.472,0.491-1.963,0.981s-0.981,0.981-0.981,1.963c0,0.982-0.491,1.472-0.982,1.963
			c-0.491,0.491-0.981,0.981-1.963,0.981c-0.981,0-1.472-0.491-1.963-0.981c-0.491-0.491-0.981-0.981-0.981-1.963
			c0-2.454,0.981-4.417,2.454-5.889c1.472-1.472,3.435-2.454,5.889-2.454h11.287c2.454,0,4.417,0.981,5.889,2.454
			s2.454,3.435,2.454,5.889v5.398c0,2.454-0.982,4.417-2.454,5.889c1.472,1.472,2.454,2.944,2.454,5.398v5.398
			c0,2.454-0.982,4.417-2.454,5.889C162.322,1081.114,160.359,1082.586,157.905,1082.586z"/>
		<path fill="#EF4438" d="M195.202,1065.9c-2.454,0-4.907-0.981-6.38-2.454c-1.472-1.472-2.454-3.435-2.454-6.38v-5.398
			c0-2.454,0.981-4.417,2.454-5.889c1.472-1.472,3.435-2.454,6.38-2.454h11.287c2.454,0,4.417,0.982,5.889,2.454
			c1.472,1.472,2.454,3.435,2.454,5.889c0,0.981-0.491,1.472-0.981,1.963s-0.981,0.981-1.963,0.981
			c-0.981,0-1.472-0.491-1.963-0.981s-0.982-0.981-0.982-1.963c0-0.982-0.491-1.472-0.981-1.963s-0.981-0.981-1.963-0.981h-11.287
			c-0.981,0-1.472,0.491-1.963,0.981c-0.491,0.491-0.981,0.981-0.981,1.963v5.398c0,0.981,0.491,1.472,0.981,1.963
			c0.491,0.491,0.982,0.982,1.963,0.982h11.287c2.454,0,4.417,0.981,5.889,2.454c1.472,1.472,2.454,3.435,2.454,5.889v5.398
			c0,2.454-0.981,4.907-2.454,6.38c-1.472,1.472-3.435,2.454-5.889,2.454h-11.287c-2.454,0-4.417-0.982-5.889-2.454
			c-1.472-1.472-2.454-3.435-2.454-5.889c0-0.982,0.491-1.472,0.981-1.963c0.491-0.491,0.982-0.981,1.963-0.981
			c0.981,0,1.472,0.491,1.963,0.981c0.491,0.491,0.981,0.981,0.981,1.963c0,0.981,0.491,1.472,0.981,1.963s0.981,0.981,1.963,0.981
			h11.287c0.981,0,1.472-0.491,1.963-0.981c0.491-0.491,0.982-0.981,0.982-1.963v-5.398c0-0.981-0.491-1.472-0.982-1.963
			c-0.491-0.491-0.981-0.982-1.963-0.982H195.202z"/>
		<path fill="#EF4438" d="M240.841,1065.9h11.287v-19.63c0-0.981,0.491-1.472,0.982-1.963s0.981-0.981,1.963-0.981
			s1.472,0.491,1.963,0.981s0.982,0.982,0.982,1.963v19.63h2.944c0.982,0,1.472,0.491,1.963,0.982s0.982,0.981,0.982,1.963
			c0,0.982-0.491,1.472-0.982,1.963s-0.981,0.981-1.963,0.981h-2.944v8.343c0,0.981-0.491,1.472-0.982,1.963
			s-0.982,0.981-1.963,0.981s-1.472-0.491-1.963-0.981s-0.982-0.982-0.982-1.963v-8.343h-14.232c-0.981,0-1.472-0.491-1.963-0.981
			s-0.981-0.981-0.981-1.963v-16.685c0-0.981,0.491-1.472,0.981-1.963c0.491-0.491,0.981-0.981,1.963-0.981
			c0.982,0,1.472,0.491,1.963,0.981c0.491,0.491,0.981,0.982,0.981,1.963V1065.9z"/>
		<path fill="#EF4438" d="M294.823,1064.428l-10.306-10.306c-0.491-0.491-0.982-0.981-0.982-1.963v-5.398
			c0-0.982,0.491-1.472,0.982-1.963s0.981-0.981,1.963-0.981s1.472,0.491,1.963,0.981c0.491,0.491,0.982,0.981,0.982,1.963v4.417
			l8.343,8.343l8.343-8.343v-4.417c0-0.982,0.491-1.472,0.982-1.963s0.982-0.981,1.963-0.981c0.982,0,1.472,0.491,1.963,0.981
			s0.981,0.981,0.981,1.963v5.398c0,0.981-0.491,1.472-0.981,1.963l-10.306,10.306v15.704c0,0.981-0.491,1.472-0.982,1.963
			s-0.982,0.982-1.963,0.982c-0.982,0-1.472-0.491-1.963-0.982c-0.491-0.491-0.981-0.981-0.981-1.963L294.823,1064.428
			L294.823,1064.428z"/>
		<path fill="#EF4438" d="M340.463,1082.586c-2.454,0-4.417-0.981-5.889-2.454c-1.472-1.472-2.454-3.435-2.454-5.889v-22.574
			c0-2.454,0.981-4.417,2.454-5.889c1.472-1.472,3.435-2.454,5.889-2.454h11.287c0.982,0,1.472,0.491,1.963,0.981
			s0.981,0.982,0.981,1.963s-0.491,1.472-0.981,1.963s-0.982,0.982-1.963,0.982h-11.287c-0.982,0-1.472,0.491-1.963,0.981
			c-0.491,0.491-0.982,0.981-0.982,1.963v8.343h14.232c2.454,0,4.417,0.982,5.889,2.454c1.472,1.472,2.454,3.435,2.454,6.38v5.398
			c0,2.454-0.982,4.417-2.454,5.889c-1.472,1.472-3.435,2.454-5.889,2.454h-11.287V1082.586z M337.518,1065.9v8.343
			c0,0.981,0.491,1.472,0.982,1.963s0.982,0.981,1.963,0.981h11.287c0.982,0,1.472-0.491,1.963-0.981s0.982-0.981,0.982-1.963
			v-5.398c0-0.981-0.491-1.472-0.982-1.963s-0.981-0.982-1.963-0.982H337.518z"/>
		<path fill="#EF4438" d="M399.843,1082.586h-11.287c-2.454,0-4.417-0.981-5.889-2.454c-1.472-1.472-2.454-3.435-2.454-5.889
			c0-0.981,0.491-1.472,0.981-1.963c0.491-0.491,0.981-0.982,1.963-0.982s1.472,0.491,1.963,0.982
			c0.491,0.491,0.981,0.981,0.981,1.963s0.491,1.472,0.981,1.963c0.491,0.491,0.982,0.981,1.963,0.981h11.287
			c0.981,0,1.472-0.491,1.963-0.981c0.491-0.491,0.981-0.982,0.981-1.963v-27.973c0-0.981,0.491-1.472,0.981-1.963
			c0.491-0.491,0.981-0.981,1.963-0.981c0.982,0,1.472,0.491,1.963,0.981c0.491,0.491,0.981,0.981,0.981,1.963v27.973
			c0,2.454-0.981,4.417-2.454,5.889C405.241,1081.604,402.297,1082.586,399.843,1082.586z"/>
		<path fill="#EF4438" d="M431.251,1054.613c-0.981,0-1.472-0.491-1.963-0.981c-0.491-0.491-0.981-0.982-0.981-1.963
			c0-2.454,0.981-4.417,2.454-5.889s3.435-2.454,5.889-2.454h11.287c2.454,0,4.417,0.981,5.889,2.454
			c1.472,1.472,2.454,3.435,2.454,5.889v5.398c0,0.982-0.491,1.472-0.981,1.963l-17.667,17.667h15.704
			c0.981,0,1.472,0.491,1.963,0.981c0.491,0.491,0.981,0.982,0.981,1.963s-0.491,1.472-0.981,1.963
			c-0.491,0.491-0.981,0.982-1.963,0.982H430.76c-0.981,0-1.472-0.491-1.963-0.982c-0.491-0.491-0.981-0.981-0.981-1.963
			s0.491-1.472,0.981-1.963l21.593-21.593v-4.417c0-0.982-0.491-1.472-0.981-1.963c-0.491-0.491-0.981-0.981-1.963-0.981h-11.287
			c-0.981,0-1.472,0.491-1.963,0.981c-0.491,0.491-0.981,0.981-0.981,1.963c0,0.981-0.491,1.472-0.981,1.963
			C431.741,1054.123,432.232,1054.613,431.251,1054.613z"/>
		<path fill="#EF4438" d="M479.835,1082.586c-0.981,0-1.472-0.491-1.963-0.981c-0.491-0.491-0.981-0.981-0.981-1.963
			c0-0.982,0.491-1.472,0.981-1.963l21.593-21.593v-7.361h-19.63c-0.981,0-1.472-0.491-1.963-0.981
			c-0.491-0.491-0.981-0.982-0.981-1.963s0.491-1.472,0.981-1.963c0.491-0.491,0.981-0.982,1.963-0.982h22.574
			c0.981,0,1.472,0.491,1.963,0.982c0.491,0.491,0.981,0.981,0.981,1.963v11.287c0,0.981-0.491,1.472-0.981,1.963l-22.574,22.574
			C481.307,1082.586,480.816,1082.586,479.835,1082.586z"/>
		<path fill="#EF4438" d="M545.104,1082.586h-11.287c-2.454,0-4.417-0.981-5.889-2.454c-1.472-1.472-2.454-3.435-2.454-5.889
			c0-0.981,0.491-1.472,0.981-1.963c0.491-0.491,0.982-0.982,1.963-0.982s1.472,0.491,1.963,0.982
			c0.491,0.491,0.981,0.981,0.981,1.963s0.491,1.472,0.982,1.963s0.981,0.981,1.963,0.981h11.287c0.981,0,1.472-0.491,1.963-0.981
			s0.982-0.982,0.982-1.963v-5.398c0-0.981-0.491-1.472-0.982-1.963c-0.491-0.491-0.981-0.981-1.963-0.981h-5.398
			c-0.981,0-1.472-0.491-1.963-0.981c-0.491-0.491-0.982-0.981-0.982-1.963c0-0.981,0.491-1.472,0.982-1.963
			c0.491-0.491,0.981-0.981,1.963-0.981h5.398c0.981,0,1.472-0.491,1.963-0.982s0.982-0.981,0.982-1.963v-5.398
			c0-0.981-0.491-1.472-0.982-1.963s-0.981-0.981-1.963-0.981h-11.287c-0.981,0-1.472,0.491-1.963,0.981s-0.982,0.981-0.982,1.963
			c0,0.982-0.491,1.472-0.981,1.963c-0.491,0.491-0.982,0.981-1.963,0.981s-1.472-0.491-1.963-0.981
			c-0.491-0.491-0.981-0.981-0.981-1.963c0-2.454,0.981-4.417,2.454-5.889c1.472-1.472,3.435-2.454,5.889-2.454h11.287
			c2.454,0,4.417,0.981,5.889,2.454c1.472,1.472,2.454,3.435,2.454,5.889v5.398c0,2.454-0.982,4.417-2.454,5.889
			c1.472,1.472,2.454,2.944,2.454,5.398v5.398c0,2.454-0.982,4.417-2.454,5.889C549.52,1081.114,547.557,1082.586,545.104,1082.586z
			"/>
		<path fill="#EF4438" d="M582.4,1082.586c-2.454,0-4.417-0.981-5.889-2.454c-1.472-1.472-2.454-3.435-2.454-5.889v-22.574
			c0-2.454,0.982-4.417,2.454-5.889s3.435-2.454,5.889-2.454h11.287c0.982,0,1.472,0.491,1.963,0.981s0.982,0.982,0.982,1.963
			s-0.491,1.472-0.982,1.963s-0.982,0.982-1.963,0.982H582.4c-0.981,0-1.472,0.491-1.963,0.981
			c-0.491,0.491-0.982,0.981-0.982,1.963v8.343h14.232c2.454,0,4.417,0.982,5.889,2.454c1.472,1.472,2.454,3.435,2.454,6.38v5.398
			c0,2.454-0.982,4.417-2.454,5.889c-1.472,1.472-3.435,2.454-5.889,2.454H582.4V1082.586z M579.456,1065.9v8.343
			c0,0.981,0.491,1.472,0.982,1.963c0.491,0.491,0.981,0.981,1.963,0.981h11.287c0.982,0,1.472-0.491,1.963-0.981
			s0.982-0.981,0.982-1.963v-5.398c0-0.981-0.491-1.472-0.982-1.963s-0.982-0.982-1.963-0.982H579.456z"/>
		<path fill="#EF4438" d="M630.494,1082.586c-2.454,0-4.417-0.981-5.889-2.454c-1.472-1.472-2.454-3.435-2.454-5.889v-22.574
			c0-2.454,0.982-4.417,2.454-5.889c1.472-1.472,3.435-2.454,5.889-2.454h11.287c2.454,0,4.417,0.981,5.889,2.454
			s2.454,3.435,2.454,5.889c0,0.981-0.491,1.472-0.982,1.963c-0.491,0.491-0.981,0.981-1.963,0.981s-1.472-0.491-1.963-0.981
			c-0.491-0.491-0.982-0.982-0.982-1.963s-0.491-1.472-0.981-1.963c-0.491-0.491-0.982-0.982-1.963-0.982h-11.287
			c-0.981,0-1.472,0.491-1.963,0.982c-0.491,0.491-0.982,0.981-0.982,1.963v22.574c0,0.981,0.491,1.472,0.982,1.963
			c0.491,0.491,0.981,0.981,1.963,0.981h11.287c0.982,0,1.472-0.491,1.963-0.981s0.981-0.982,0.981-1.963s0.491-1.472,0.982-1.963
			s0.982-0.982,1.963-0.982s1.472,0.491,1.963,0.982c0.491,0.491,0.982,0.981,0.982,1.963c0,2.454-0.982,4.417-2.454,5.889
			c-1.472,1.472-3.435,2.454-5.889,2.454H630.494z"/>
		<path fill="#EF4438" d="M690.365,1082.586h-11.287c-2.454,0-4.417-0.981-5.889-2.454c-1.472-1.472-2.454-3.435-2.454-5.889
			v-27.973c0-0.981,0.491-1.472,0.981-1.963s0.982-0.981,1.963-0.981s1.472,0.491,1.963,0.981c0.491,0.491,0.981,0.981,0.981,1.963
			v27.973c0,0.981,0.491,1.472,0.982,1.963c0.491,0.491,0.981,0.981,1.963,0.981h11.287c0.981,0,1.472-0.491,1.963-0.981
			c0.491-0.491,0.981-0.982,0.981-1.963v-27.973c0-0.981,0.491-1.472,0.982-1.963c0.491-0.491,0.981-0.981,1.963-0.981
			c0.981,0,1.472,0.491,1.963,0.981s0.981,0.981,0.981,1.963v27.973c0,2.454-0.981,4.417-2.454,5.889
			C695.763,1081.604,692.328,1082.586,690.365,1082.586z"/>
		<path fill="#EF4438" d="M730.115,1064.428l-10.306-10.306c-0.491-0.491-0.981-0.981-0.981-1.963v-5.398
			c0-0.982,0.491-1.472,0.981-1.963s0.982-0.981,1.963-0.981c0.982,0,1.472,0.491,1.963,0.981c0.491,0.491,0.982,0.981,0.982,1.963
			v4.417l8.343,8.343l8.343-8.343v-4.417c0-0.982,0.491-1.472,0.982-1.963c0.491-0.491,0.981-0.981,1.963-0.981
			c0.981,0,1.472,0.491,1.963,0.981c0.491,0.491,0.981,0.981,0.981,1.963v5.398c0,0.981-0.491,1.472-0.981,1.963l-10.306,10.306
			v15.704c0,0.981-0.491,1.472-0.981,1.963c-0.491,0.491-0.982,0.982-1.963,0.982c-0.982,0-1.472-0.491-1.963-0.982
			c-0.491-0.491-0.982-0.981-0.982-1.963L730.115,1064.428L730.115,1064.428z"/>
		<path fill="#EF4438" d="M92.636,1146.383c-0.981,0-1.472-0.491-1.963-0.981s-0.981-0.981-0.981-1.963v-33.861
			c0-0.982,0.491-1.472,0.981-1.963s0.981-0.981,1.963-0.981s1.472,0.491,1.963,0.981l17.667,17.667v-15.704
			c0-0.981,0.491-1.472,0.981-1.963c0.491-0.491,0.981-0.982,1.963-0.982s1.472,0.491,1.963,0.982s0.981,0.981,0.981,1.963v33.861
			c0,0.981-0.491,1.472-0.981,1.963c-0.491,0.491-0.981,0.981-1.963,0.981s-1.472-0.491-1.963-0.981
			c-0.491-0.491-0.981-0.982-0.981-1.963v-9.815l-16.685-16.685v26.991c0,0.982-0.491,1.472-0.981,1.963
			S93.617,1146.383,92.636,1146.383z"/>
		<path fill="#EF4438" d="M166.739,1110.068v33.861c0,0.981-0.491,1.472-0.981,1.963s-0.981,0.981-1.963,0.981
			s-1.472-0.491-1.963-0.981s-0.981-0.981-0.981-1.963v-14.232h-16.685v14.232c0,0.981-0.491,1.472-0.982,1.963
			c-0.491,0.491-0.981,0.981-1.963,0.981c-0.981,0-1.472-0.491-1.963-0.981c-0.491-0.491-0.981-0.981-0.981-1.963v-33.861
			c0-0.982,0.491-1.472,0.981-1.963c0.491-0.491,0.982-0.981,1.963-0.981c0.981,0,1.472,0.491,1.963,0.981
			c0.491,0.491,0.982,0.981,0.982,1.963v14.232h16.685v-14.232c0-0.982,0.491-1.472,0.981-1.963s0.981-0.981,1.963-0.981
			s1.472,0.491,1.963,0.981S166.739,1109.577,166.739,1110.068z"/>
		<path fill="#EF4438" d="M195.202,1146.383c-2.454,0-4.417-0.981-5.889-2.454c-1.472-1.472-2.454-3.435-2.454-5.889v-22.574
			c0-2.454,0.981-4.417,2.454-5.889c1.472-1.472,3.435-2.454,5.889-2.454h11.287c2.454,0,4.417,0.981,5.889,2.454
			c1.472,1.472,2.454,3.435,2.454,5.889c0,0.981-0.491,1.472-0.981,1.963c-0.491,0.491-0.981,0.981-1.963,0.981
			c-0.981,0-1.472-0.491-1.963-0.981c-0.491-0.491-0.982-0.982-0.982-1.963s-0.491-1.472-0.981-1.963
			c-0.491-0.491-0.981-0.982-1.963-0.982h-11.287c-0.981,0-1.472,0.491-1.963,0.982c-0.491,0.491-0.981,0.981-0.981,1.963v22.574
			c0,0.981,0.491,1.472,0.981,1.963c0.491,0.491,0.982,0.981,1.963,0.981h11.287c0.981,0,1.472-0.491,1.963-0.981
			c0.491-0.491,0.981-0.982,0.981-1.963s0.491-1.472,0.982-1.963c0.491-0.491,0.981-0.982,1.963-0.982
			c0.982,0,1.472,0.491,1.963,0.982c0.491,0.491,0.981,0.981,0.981,1.963c0,2.454-0.981,4.417-2.454,5.889
			c-1.472,1.472-3.435,2.454-5.889,2.454H195.202z"/>
		<path fill="#EF4438" d="M263.416,1132.642c0,0.981-0.491,1.472-0.982,1.963l-3.926,3.435l3.926,3.435
			c0.491,0.491,0.982,0.981,0.982,1.963c0,0.982-0.491,1.472-0.982,1.963s-0.981,0.981-1.963,0.981s-1.472-0.491-1.963-0.981
			l-3.926-3.435l-3.435,3.435c-0.491,0.491-0.981,0.981-1.963,0.981h-5.398c-2.454,0-4.417-0.981-5.889-2.454
			c-1.472-1.472-2.454-3.435-2.454-5.889v-22.574c0-2.454,0.981-4.417,2.454-5.889c1.472-1.472,3.435-2.454,5.889-2.454h11.287
			c2.454,0,4.417,0.981,5.889,2.454c1.472,1.472,2.454,3.435,2.454,5.889L263.416,1132.642L263.416,1132.642z M257.527,1115.466
			c0-0.981-0.491-1.472-0.982-1.963c-0.491-0.491-0.982-0.982-1.963-0.982h-11.287c-0.981,0-1.472,0.491-1.963,0.982
			c-0.491,0.491-0.981,0.981-0.981,1.963v22.574c0,0.981,0.491,1.472,0.981,1.963c0.491,0.491,0.982,0.981,1.963,0.981h4.417
			l2.944-2.944l-3.435-3.435c-0.491-0.491-0.981-0.981-0.981-1.963s0.491-1.472,0.981-1.963s0.981-0.981,1.963-0.981
			c0.981,0,1.472,0.491,1.963,0.981l2.944,2.945l3.435-3.435V1115.466z"/>
		<path fill="#EF4438" d="M308.564,1146.383c-0.982,0-1.472-0.491-1.963-0.981s-0.982-0.981-0.982-1.963v-11.287
			c0-0.981-0.491-1.472-0.982-1.963c-0.491-0.491-0.981-0.981-1.963-0.981h-14.232v14.232c0,0.981-0.491,1.472-0.982,1.963
			s-0.982,0.981-1.963,0.981c-0.982,0-1.472-0.491-1.963-0.981s-0.981-0.981-0.981-1.963v-33.861c0-0.982,0.491-1.472,0.981-1.963
			s0.982-0.981,1.963-0.981h16.685c2.454,0,4.417,0.981,5.889,2.454c1.472,1.472,2.454,3.435,2.454,5.889v5.398
			c0,2.454-0.982,4.417-2.454,5.889c1.472,1.472,2.454,2.945,2.454,5.398v11.287c0,0.982-0.491,1.472-0.982,1.963
			C309.055,1145.401,309.546,1146.383,308.564,1146.383z M288.934,1124.299h14.232c0.981,0,1.472-0.491,1.963-0.982
			c0.491-0.491,0.982-0.981,0.982-1.963v-5.398c0-0.982-0.491-1.472-0.982-1.963s-0.982-0.981-1.963-0.981h-14.232V1124.299z"/>
		<path fill="#EF4438" d="M340.463,1146.383c-2.454,0-4.417-0.981-5.889-2.454c-1.472-1.472-2.454-3.435-2.454-5.889v-22.574
			c0-2.454,0.981-4.417,2.454-5.889c1.472-1.472,3.435-2.454,5.889-2.454h11.287c2.454,0,4.417,0.981,5.889,2.454
			s2.454,3.435,2.454,5.889c0,0.981-0.491,1.472-0.982,1.963c-0.491,0.491-0.982,0.981-1.963,0.981
			c-0.982,0-1.472-0.491-1.963-0.981c-0.491-0.491-0.981-0.982-0.981-1.963s-0.491-1.472-0.982-1.963
			c-0.491-0.491-0.982-0.982-1.963-0.982h-11.287c-0.982,0-1.472,0.491-1.963,0.982c-0.491,0.491-0.982,0.981-0.982,1.963v22.574
			c0,0.981,0.491,1.472,0.982,1.963c0.491,0.491,0.981,0.981,1.963,0.981h11.287c0.981,0,1.472-0.491,1.963-0.981
			c0.491-0.491,0.982-0.982,0.982-1.963v-8.343h-2.944c-0.981,0-1.472-0.491-1.963-0.981s-0.982-0.982-0.982-1.963
			s0.491-1.472,0.982-1.963s0.982-0.982,1.963-0.982h5.398c0.982,0,1.472,0.491,1.963,0.982s0.981,0.981,0.981,1.963v11.287
			c0,2.454-0.981,4.417-2.454,5.889c-1.472,1.472-3.435,2.454-5.889,2.454L340.463,1146.383L340.463,1146.383z"/>
		<path fill="#EF4438" d="M399.843,1146.383h-11.287c-2.454,0-4.417-0.981-5.889-2.454c-1.472-1.472-2.454-3.435-2.454-5.889
			c0-0.981,0.491-1.472,0.981-1.963c0.491-0.491,0.981-0.982,1.963-0.982s1.472,0.491,1.963,0.982
			c0.491,0.491,0.981,0.981,0.981,1.963s0.491,1.472,0.981,1.963c0.491,0.491,0.982,0.981,1.963,0.981h11.287
			c0.981,0,1.472-0.491,1.963-0.981c0.491-0.491,0.981-0.982,0.981-1.963v-27.973c0-0.981,0.491-1.472,0.981-1.963
			c0.491-0.491,0.981-0.981,1.963-0.981c0.982,0,1.472,0.491,1.963,0.981c0.491,0.491,0.981,0.981,0.981,1.963v27.973
			c0,2.454-0.981,4.417-2.454,5.889C405.241,1145.401,402.297,1146.383,399.843,1146.383z"/>
		<path fill="#EF4438" d="M437.14,1146.383c-2.454,0-4.417-0.981-5.889-2.454c-1.472-1.472-2.454-3.435-2.454-5.889v-22.574
			c0-2.454,0.981-4.417,2.454-5.889s3.435-2.454,5.889-2.454h11.287c2.454,0,4.417,0.981,5.889,2.454
			c1.472,1.472,2.454,3.435,2.454,5.889v22.574c0,2.454-0.981,4.417-2.454,5.889c-1.472,1.472-3.435,2.454-5.889,2.454H437.14z
			 M450.88,1115.466c0-0.981-0.491-1.472-0.981-1.963c-0.491-0.491-0.981-0.982-1.963-0.982h-11.287
			c-0.981,0-1.472,0.491-1.963,0.982c-0.491,0.491-0.981,0.981-0.981,1.963v22.574c0,0.981,0.491,1.472,0.981,1.963
			c0.491,0.491,0.981,0.981,1.963,0.981h11.287c0.981,0,1.472-0.491,1.963-0.981c0.491-0.491,0.981-0.982,0.981-1.963V1115.466z"/>
		<path fill="#EF4438" d="M485.723,1146.383c-2.454,0-4.417-0.981-5.889-2.454c-1.472-1.472-2.454-3.435-2.454-5.889v-22.574
			c0-2.454,0.981-4.417,2.454-5.889s3.435-2.454,5.889-2.454h11.287c2.454,0,4.417,0.981,5.889,2.454
			c1.472,1.472,2.454,3.435,2.454,5.889c0,0.981-0.491,1.472-0.981,1.963c-0.491,0.491-0.981,0.981-1.963,0.981
			s-1.472-0.491-1.963-0.981c-0.491-0.491-0.981-0.982-0.981-1.963s-0.491-1.472-0.981-1.963c-0.491-0.491-0.981-0.982-1.963-0.982
			h-11.287c-0.981,0-1.472,0.491-1.963,0.982c-0.491,0.491-0.981,0.981-0.981,1.963v22.574c0,0.981,0.491,1.472,0.981,1.963
			c0.491,0.491,0.981,0.981,1.963,0.981h11.287c0.981,0,1.472-0.491,1.963-0.981c0.491-0.491,0.981-0.982,0.981-1.963v-8.343h-2.944
			c-0.981,0-1.472-0.491-1.963-0.981s-0.981-0.982-0.981-1.963s0.491-1.472,0.981-1.963s0.981-0.982,1.963-0.982h5.398
			c0.982,0,1.472,0.491,1.963,0.982c0.491,0.491,0.981,0.981,0.981,1.963v11.287c0,2.454-0.981,4.417-2.454,5.889
			s-3.435,2.454-5.889,2.454L485.723,1146.383L485.723,1146.383z"/>
		<path fill="#EF4438" d="M525.474,1138.04c0-0.982,0.491-1.472,0.981-1.963l21.593-21.593v-1.472h-19.63
			c-0.981,0-1.472-0.491-1.963-0.981c-0.491-0.491-0.981-0.981-0.981-1.963c0-0.981,0.491-1.472,0.981-1.963
			c0.491-0.491,0.982-0.981,1.963-0.981h22.574c0.981,0,1.472,0.491,1.963,0.981c0.491,0.491,0.982,0.981,0.982,1.963v5.398
			c0,0.981-0.491,1.472-0.982,1.963l-21.593,21.593v1.963h19.63c0.981,0,1.472,0.491,1.963,0.981
			c0.491,0.491,0.982,0.981,0.982,1.963c0,0.981-0.491,1.472-0.982,1.963c-0.491,0.491-0.981,0.981-1.963,0.981h-22.574
			c-0.981,0-1.472-0.491-1.963-0.981c-0.491-0.491-0.981-0.981-0.981-1.963V1138.04z"/>
		<path fill="#EF4438" d="M576.511,1146.383c-0.981,0-1.472-0.491-1.963-0.981c-0.491-0.491-0.982-0.981-0.982-1.963v-33.861
			c0-0.982,0.491-1.472,0.982-1.963c0.491-0.491,0.981-0.981,1.963-0.981s1.472,0.491,1.963,0.981l9.324,9.324l9.324-9.324
			c0.491-0.491,0.981-0.981,1.963-0.981c0.982,0,1.472,0.491,1.963,0.981s0.982,0.981,0.982,1.963v33.861
			c0,0.981-0.491,1.472-0.982,1.963s-0.981,0.981-1.963,0.981c-0.982,0-1.472-0.491-1.963-0.981s-0.982-0.981-0.982-1.963v-26.991
			l-6.38,6.38c-0.491,0.491-0.981,0.981-1.963,0.981c-0.982,0-1.472-0.491-1.963-0.981l-6.38-6.38v26.991
			c0,0.981-0.491,1.472-0.981,1.963S577.493,1146.383,576.511,1146.383z"/>
		<path fill="#EF4438" d="M630.494,1146.383c-2.454,0-4.417-0.981-5.889-2.454c-1.472-1.472-2.454-3.435-2.454-5.889v-22.574
			c0-2.454,0.982-4.417,2.454-5.889c1.472-1.472,3.435-2.454,5.889-2.454h11.287c2.454,0,4.417,0.981,5.889,2.454
			s2.454,3.435,2.454,5.889c0,0.981-0.491,1.472-0.982,1.963c-0.491,0.491-0.981,0.981-1.963,0.981s-1.472-0.491-1.963-0.981
			c-0.491-0.491-0.982-0.982-0.982-1.963s-0.491-1.472-0.981-1.963c-0.491-0.491-0.982-0.982-1.963-0.982h-11.287
			c-0.981,0-1.472,0.491-1.963,0.982c-0.491,0.491-0.982,0.981-0.982,1.963v22.574c0,0.981,0.491,1.472,0.982,1.963
			c0.491,0.491,0.981,0.981,1.963,0.981h11.287c0.982,0,1.472-0.491,1.963-0.981c0.491-0.491,0.981-0.982,0.981-1.963v-8.343h-2.944
			c-0.981,0-1.472-0.491-1.963-0.981c-0.491-0.491-0.982-0.982-0.982-1.963s0.491-1.472,0.982-1.963
			c0.491-0.491,0.981-0.982,1.963-0.982h5.398c0.982,0,1.472,0.491,1.963,0.982s0.982,0.981,0.982,1.963v11.287
			c0,2.454-0.982,4.417-2.454,5.889c-1.472,1.472-3.435,2.454-5.889,2.454L630.494,1146.383L630.494,1146.383z"/>
		<path fill="#EF4438" d="M673.188,1146.383c-0.981,0-1.472-0.491-1.963-0.981c-0.491-0.491-0.982-0.981-0.982-1.963v-33.861
			c0-0.982,0.491-1.472,0.982-1.963c0.491-0.491,0.981-0.981,1.963-0.981s1.472,0.491,1.963,0.981l9.324,9.324l9.324-9.324
			c0.491-0.491,0.982-0.981,1.963-0.981c0.981,0,1.472,0.491,1.963,0.981c0.491,0.491,0.981,0.981,0.981,1.963v33.861
			c0,0.981-0.491,1.472-0.981,1.963c-0.491,0.491-0.982,0.981-1.963,0.981c-0.982,0-1.472-0.491-1.963-0.981
			c-0.491-0.491-0.981-0.981-0.981-1.963v-26.991l-6.38,6.38c-0.491,0.491-0.982,0.981-1.963,0.981
			c-0.982,0-1.472-0.491-1.963-0.981l-6.38-6.38v26.991c0,0.981-0.491,1.472-0.981,1.963S674.17,1146.383,673.188,1146.383z"/>
		<path fill="#EF4438" d="M746.8,1110.068v33.861c0,0.981-0.491,1.472-0.981,1.963c-0.491,0.491-0.982,0.981-1.963,0.981
			c-0.982,0-1.472-0.491-1.963-0.981c-0.491-0.491-0.982-0.981-0.982-1.963v-14.232h-16.685v14.232c0,0.981-0.491,1.472-0.981,1.963
			s-0.982,0.981-1.963,0.981c-0.982,0-1.472-0.491-1.963-0.981s-0.982-0.981-0.982-1.963v-33.861c0-0.982,0.491-1.472,0.982-1.963
			s0.981-0.981,1.963-0.981c0.981,0,1.472,0.491,1.963,0.981s0.981,0.981,0.981,1.963v14.232h16.685v-14.232
			c0-0.982,0.491-1.472,0.982-1.963c0.491-0.491,0.981-0.981,1.963-0.981c0.981,0,1.472,0.491,1.963,0.981
			C746.31,1108.595,746.8,1109.577,746.8,1110.068z"/>
	</g>
</g>
<g id="all">
	<g>
		<path fill="#EF4438" d="M99.997,845.555c0,1.472-0.491,2.945-1.472,3.926c-0.981,0.982-2.454,1.472-3.926,1.472
			s-2.944-0.491-3.926-1.472c-0.981-0.981-1.472-2.454-1.472-3.926v-67.232c0-1.472,0.491-2.945,1.472-3.926
			c0.981-0.982,2.454-1.472,3.926-1.472h33.861c4.417,0,8.343,1.472,11.778,4.907s4.907,7.361,4.907,11.778v11.287
			c0,4.417-1.472,8.343-4.907,11.778c-3.435,3.435-7.361,4.907-11.778,4.907h-27.973v27.973H99.997z M99.997,806.296h27.973
			c1.472,0,2.944-0.491,3.926-1.472c0.981-0.981,1.472-2.454,1.472-3.926V789.61c0-1.472-0.491-2.945-1.472-3.926
			c-0.982-0.981-2.454-1.472-3.926-1.472H99.997C99.997,784.212,99.997,806.296,99.997,806.296z"/>
		<path fill="#EF4438" d="M240.35,851.444c-1.472,0-2.944-0.491-3.926-1.472c-0.981-0.981-1.472-2.454-1.472-3.926v-22.574
			c0-1.472-0.491-2.945-1.472-3.926c-0.982-0.981-2.454-1.472-3.926-1.472h-27.973v27.973c0,1.472-0.491,2.944-1.472,3.926
			c-0.981,0.981-2.454,1.472-3.926,1.472c-1.472,0-2.944-0.491-3.926-1.472c-0.981-0.982-1.472-2.454-1.472-3.926v-67.232
			c0-1.472,0.491-2.945,1.472-3.926c0.981-0.982,2.454-1.472,3.926-1.472h33.861c4.417,0,8.343,1.472,11.778,4.907
			c3.435,3.435,4.907,7.361,4.907,11.778v11.287c0,4.417-1.472,8.343-4.907,11.778c3.435,2.454,4.907,6.38,4.907,10.796v22.574
			c0,1.472-0.491,2.945-1.472,3.926C244.276,851.444,241.823,851.444,240.35,851.444z M201.091,806.296h27.973
			c1.472,0,2.944-0.491,3.926-1.472c0.982-0.981,1.472-2.454,1.472-3.926V789.61c0-1.472-0.491-2.945-1.472-3.926
			c-0.981-0.981-2.454-1.472-3.926-1.472h-27.973V806.296z"/>
		<path fill="#EF4438" d="M308.073,851.444c-1.472,0-2.944-0.491-3.926-1.472c-0.981-0.981-1.472-2.454-1.472-3.926
			c0-1.472,0.491-2.945,1.472-3.926c0.982-0.982,2.454-1.472,3.926-1.472h5.398v-55.945h-5.398c-1.472,0-2.944-0.491-3.926-1.472
			c-0.981-0.981-1.472-2.454-1.472-3.926c0-1.472,0.491-2.945,1.472-3.926c0.982-0.982,2.454-1.472,3.926-1.472h22.574
			c1.472,0,2.944,0.491,3.926,1.472c0.981,0.981,1.472,2.454,1.472,3.926c0,1.472-0.491,2.945-1.472,3.926
			c-0.982,0.982-2.454,1.472-3.926,1.472h-5.398v55.945h5.398c1.472,0,2.944,0.491,3.926,1.472c0.981,0.981,1.472,2.454,1.472,3.926
			c0,1.472-0.491,2.945-1.472,3.926c-0.982,0.982-2.454,1.472-3.926,1.472H308.073z"/>
		<path fill="#EF4438" d="M420.945,851.444c-1.472,0-2.944-0.491-3.926-1.472l-22.574-22.574c-0.981-0.982-1.472-2.454-1.472-3.926
			v-44.658c0-1.472,0.491-2.945,1.472-3.926c0.982-0.982,2.454-1.472,3.926-1.472s2.944,0.491,3.926,1.472
			c0.982,0.981,1.472,2.454,1.472,3.926v39.26l16.685,16.685l16.685-16.685v-39.26c0-1.472,0.491-2.945,1.472-3.926
			c0.982-0.982,2.454-1.472,3.926-1.472c1.472,0,2.944,0.491,3.926,1.472c0.982,0.981,1.472,2.454,1.472,3.926v44.658
			c0,1.472-0.491,2.944-1.472,3.926l-22.574,22.574C423.889,850.463,422.417,851.444,420.945,851.444z"/>
		<path fill="#EF4438" d="M499.955,851.444c-1.472,0-2.944-0.491-3.926-1.472c-0.982-0.981-1.472-2.454-1.472-3.926v-55.945
			c0-4.417,1.472-8.343,4.907-11.778c3.435-3.435,7.361-4.907,11.778-4.907h22.574c4.417,0,8.343,1.472,11.778,4.907
			c3.435,3.435,4.907,7.361,4.907,11.778v55.945c0,1.472-0.491,2.945-1.472,3.926c-0.982,0.982-2.454,1.472-3.926,1.472
			s-2.944-0.491-3.926-1.472c-0.982-0.981-1.472-2.454-1.472-3.926v-27.973h-33.861v27.973c0,1.472-0.491,2.945-1.472,3.926
			C503.39,850.954,501.427,851.444,499.955,851.444z M505.844,806.296h33.861V789.61c0-1.472-0.491-2.945-1.472-3.926
			c-0.982-0.982-2.454-1.472-3.926-1.472h-22.574c-1.472,0-2.944,0.491-3.926,1.472c-0.982,0.981-1.472,2.454-1.472,3.926v16.685
			H505.844z"/>
		<path fill="#EF4438" d="M601.54,783.721c-1.472,0-2.944-0.491-3.926-1.472c-0.981-0.982-1.472-2.454-1.472-3.926
			c0-1.472,0.491-2.945,1.472-3.926c0.982-0.981,2.454-1.472,3.926-1.472h44.658c1.472,0,2.944,0.491,3.926,1.472
			c0.982,0.982,1.472,2.454,1.472,3.926c0,1.472-0.491,2.944-1.472,3.926c-0.981,0.981-2.454,1.472-3.926,1.472h-16.685v61.834
			c0,1.472-0.491,2.945-1.472,3.926c-0.982,0.982-2.454,1.472-3.926,1.472c-1.472,0-2.944-0.491-3.926-1.472
			c-0.982-0.981-1.472-2.454-1.472-3.926v-61.834H601.54z"/>
		<path fill="#EF4438" d="M736.495,817.583h-27.973v22.574h39.26c1.472,0,2.945,0.491,3.926,1.472
			c0.982,0.982,1.472,2.454,1.472,3.926c0,1.472-0.491,2.945-1.472,3.926c-0.981,0.981-2.454,1.472-3.926,1.472h-44.658
			c-1.472,0-2.945-0.491-3.926-1.472c-0.981-0.982-1.472-2.454-1.472-3.926v-67.232c0-1.472,0.491-2.945,1.472-3.926
			c0.982-0.982,2.454-1.472,3.926-1.472h44.658c1.472,0,2.945,0.491,3.926,1.472c0.982,0.981,1.472,2.454,1.472,3.926
			s-0.491,2.945-1.472,3.926c-0.981,0.982-2.454,1.472-3.926,1.472h-39.26v22.574h27.973c1.472,0,2.945,0.491,3.926,1.472
			c0.982,0.982,1.472,2.454,1.472,3.926c0,1.472-0.491,2.944-1.472,3.926C739.439,817.092,737.967,817.583,736.495,817.583z"/>
	</g>
	<rect x="45.524" fill="none" width="750.841" height="1190.55"/>
	<g>
		<circle fill="#EF4438" cx="542.65" cy="52.019" r="5.889"/>
		<circle fill="#EF4438" cx="502.409" cy="52.019" r="5.889"/>
		<circle fill="#EF4438" cx="400.824" cy="52.019" r="5.889"/>
		<circle fill="#EF4438" cx="360.583" cy="52.019" r="5.889"/>
		<circle fill="#EF4438" cx="279.61" cy="52.019" r="5.889"/>
		<circle fill="#EF4438" cx="542.65" cy="72.14" r="5.889"/>
		<circle fill="#EF4438" cx="319.851" cy="72.14" r="5.889"/>
		<circle fill="#EF4438" cx="279.61" cy="92.26" r="5.889"/>
		<circle fill="#EF4438" cx="481.798" cy="112.381" r="5.889"/>
		<circle fill="#EF4438" cx="441.556" cy="112.381" r="5.889"/>
		<circle fill="#EF4438" cx="400.824" cy="112.381" r="5.889"/>
		<circle fill="#EF4438" cx="299.731" cy="112.381" r="5.889"/>
		<circle fill="#EF4438" cx="461.677" cy="132.992" r="5.889"/>
		<circle fill="#EF4438" cx="421.436" cy="132.992" r="5.889"/>
		<circle fill="#EF4438" cx="380.704" cy="132.992" r="5.889"/>
		<circle fill="#EF4438" cx="522.529" cy="153.113" r="5.889"/>
		<circle fill="#EF4438" cx="502.409" cy="153.113" r="5.889"/>
		<circle fill="#EF4438" cx="481.798" cy="153.113" r="5.889"/>
		<circle fill="#EF4438" cx="441.556" cy="153.113" r="5.889"/>
		<circle fill="#EF4438" cx="421.436" cy="153.113" r="5.889"/>
		<circle fill="#EF4438" cx="400.824" cy="153.113" r="5.889"/>
		<circle fill="#EF4438" cx="259.49" cy="153.113" r="5.889"/>
		<circle fill="#EF4438" cx="562.771" cy="193.354" r="5.889"/>
		<circle fill="#EF4438" cx="461.677" cy="193.354" r="5.889"/>
		<circle fill="#EF4438" cx="380.704" cy="193.354" r="5.889"/>
		<circle fill="#EF4438" cx="360.583" cy="193.354" r="5.889"/>
		<circle fill="#EF4438" cx="299.731" cy="193.354" r="5.889"/>
		<circle fill="#EF4438" cx="704.596" cy="213.965" r="5.889"/>
		<circle fill="#EF4438" cx="684.476" cy="213.965" r="5.889"/>
		<circle fill="#EF4438" cx="603.503" cy="213.965" r="5.889"/>
		<circle fill="#EF4438" cx="582.891" cy="213.965" r="5.889"/>
		<circle fill="#EF4438" cx="562.771" cy="213.965" r="5.889"/>
		<circle fill="#EF4438" cx="522.529" cy="213.965" r="5.889"/>
		<circle fill="#EF4438" cx="380.704" cy="213.965" r="5.889"/>
		<circle fill="#EF4438" cx="259.49" cy="213.965" r="5.889"/>
		<circle fill="#EF4438" cx="239.369" cy="213.965" r="5.889"/>
		<circle fill="#EF4438" cx="684.476" cy="234.086" r="5.889"/>
		<circle fill="#EF4438" cx="643.744" cy="234.086" r="5.889"/>
		<circle fill="#EF4438" cx="603.503" cy="234.086" r="5.889"/>
		<circle fill="#EF4438" cx="542.65" cy="234.086" r="5.889"/>
		<circle fill="#EF4438" cx="502.409" cy="234.086" r="5.889"/>
		<circle fill="#EF4438" cx="360.583" cy="234.086" r="5.889"/>
		<circle fill="#EF4438" cx="340.463" cy="234.086" r="5.889"/>
		<circle fill="#EF4438" cx="279.61" cy="234.086" r="5.889"/>
		<circle fill="#EF4438" cx="218.758" cy="234.086" r="5.889"/>
		<circle fill="#EF4438" cx="97.543" cy="234.086" r="5.889"/>
		<circle fill="#EF4438" cx="663.864" cy="254.206" r="5.889"/>
		<circle fill="#EF4438" cx="502.409" cy="254.206" r="5.889"/>
		<circle fill="#EF4438" cx="421.436" cy="254.206" r="5.889"/>
		<circle fill="#EF4438" cx="158.396" cy="254.206" r="5.889"/>
		<circle fill="#EF4438" cx="137.785" cy="254.206" r="5.889"/>
		<circle fill="#EF4438" cx="663.864" cy="274.327" r="5.889"/>
		<circle fill="#EF4438" cx="522.529" cy="274.327" r="5.889"/>
		<circle fill="#EF4438" cx="441.556" cy="274.327" r="5.889"/>
		<circle fill="#EF4438" cx="380.704" cy="274.327" r="5.889"/>
		<circle fill="#EF4438" cx="360.583" cy="274.327" r="5.889"/>
		<circle fill="#EF4438" cx="340.463" cy="274.327" r="5.889"/>
		<circle fill="#EF4438" cx="319.851" cy="274.327" r="5.889"/>
		<circle fill="#EF4438" cx="279.61" cy="274.327" r="5.889"/>
		<circle fill="#EF4438" cx="259.49" cy="274.327" r="5.889"/>
		<circle fill="#EF4438" cx="158.396" cy="274.327" r="5.889"/>
		<circle fill="#EF4438" cx="137.785" cy="274.327" r="5.889"/>
		<circle fill="#EF4438" cx="724.717" cy="294.448" r="5.889"/>
		<circle fill="#EF4438" cx="684.476" cy="294.448" r="5.889"/>
		<circle fill="#EF4438" cx="663.864" cy="294.448" r="5.889"/>
		<circle fill="#EF4438" cx="603.503" cy="294.448" r="5.889"/>
		<circle fill="#EF4438" cx="562.771" cy="294.448" r="5.889"/>
		<circle fill="#EF4438" cx="542.65" cy="294.448" r="5.889"/>
		<circle fill="#EF4438" cx="441.556" cy="294.448" r="5.889"/>
		<circle fill="#EF4438" cx="400.824" cy="294.448" r="5.889"/>
		<circle fill="#EF4438" cx="380.704" cy="294.448" r="5.889"/>
		<circle fill="#EF4438" cx="239.369" cy="294.448" r="5.889"/>
		<circle fill="#EF4438" cx="744.837" cy="315.059" r="5.889"/>
		<circle fill="#EF4438" cx="684.476" cy="315.059" r="5.889"/>
		<circle fill="#EF4438" cx="562.771" cy="315.059" r="5.889"/>
		<circle fill="#EF4438" cx="522.529" cy="315.059" r="5.889"/>
		<circle fill="#EF4438" cx="461.677" cy="315.059" r="5.889"/>
		<circle fill="#EF4438" cx="299.731" cy="315.059" r="5.889"/>
		<circle fill="#EF4438" cx="239.369" cy="315.059" r="5.889"/>
		<circle fill="#EF4438" cx="218.758" cy="315.059" r="5.889"/>
		<circle fill="#EF4438" cx="97.543" cy="315.059" r="5.889"/>
		<circle fill="#EF4438" cx="724.717" cy="335.18" r="5.889"/>
		<circle fill="#EF4438" cx="562.771" cy="335.18" r="5.889"/>
		<circle fill="#EF4438" cx="421.436" cy="335.18" r="5.889"/>
		<circle fill="#EF4438" cx="400.824" cy="335.18" r="5.889"/>
		<circle fill="#EF4438" cx="340.463" cy="335.18" r="5.889"/>
		<circle fill="#EF4438" cx="178.516" cy="335.18" r="5.889"/>
		<circle fill="#EF4438" cx="137.785" cy="335.18" r="5.889"/>
		<circle fill="#EF4438" cx="744.837" cy="355.3" r="5.889"/>
		<circle fill="#EF4438" cx="603.503" cy="355.3" r="5.889"/>
		<circle fill="#EF4438" cx="582.891" cy="355.3" r="5.889"/>
		<circle fill="#EF4438" cx="421.436" cy="355.3" r="5.889"/>
		<circle fill="#EF4438" cx="319.851" cy="355.3" r="5.889"/>
		<circle fill="#EF4438" cx="259.49" cy="355.3" r="5.889"/>
		<circle fill="#EF4438" cx="178.516" cy="355.3" r="5.889"/>
		<circle fill="#EF4438" cx="137.785" cy="355.3" r="5.889"/>
		<circle fill="#EF4438" cx="542.65" cy="375.421" r="5.889"/>
		<circle fill="#EF4438" cx="461.677" cy="375.421" r="5.889"/>
		<circle fill="#EF4438" cx="441.556" cy="375.421" r="5.889"/>
		<circle fill="#EF4438" cx="421.436" cy="375.421" r="5.889"/>
		<circle fill="#EF4438" cx="259.49" cy="375.421" r="5.889"/>
		<circle fill="#EF4438" cx="198.637" cy="375.421" r="5.889"/>
		<circle fill="#EF4438" cx="117.664" cy="375.421" r="5.889"/>
		<circle fill="#EF4438" cx="724.717" cy="396.032" r="5.889"/>
		<circle fill="#EF4438" cx="643.744" cy="396.032" r="5.889"/>
		<circle fill="#EF4438" cx="380.704" cy="396.032" r="5.889"/>
		<circle fill="#EF4438" cx="360.583" cy="396.032" r="5.889"/>
		<circle fill="#EF4438" cx="279.61" cy="396.032" r="5.889"/>
		<circle fill="#EF4438" cx="218.758" cy="396.032" r="5.889"/>
		<circle fill="#EF4438" cx="117.664" cy="396.032" r="5.889"/>
		<circle fill="#EF4438" cx="97.543" cy="396.032" r="5.889"/>
		<circle fill="#EF4438" cx="744.837" cy="416.153" r="5.889"/>
		<circle fill="#EF4438" cx="643.744" cy="416.153" r="5.889"/>
		<circle fill="#EF4438" cx="522.529" cy="416.153" r="5.889"/>
		<circle fill="#EF4438" cx="502.409" cy="416.153" r="5.889"/>
		<circle fill="#EF4438" cx="481.798" cy="416.153" r="5.889"/>
		<circle fill="#EF4438" cx="461.677" cy="416.153" r="5.889"/>
		<circle fill="#EF4438" cx="421.436" cy="416.153" r="5.889"/>
		<circle fill="#EF4438" cx="319.851" cy="416.153" r="5.889"/>
		<circle fill="#EF4438" cx="239.369" cy="416.153" r="5.889"/>
		<circle fill="#EF4438" cx="218.758" cy="416.153" r="5.889"/>
		<circle fill="#EF4438" cx="178.516" cy="416.153" r="5.889"/>
		<circle fill="#EF4438" cx="704.596" cy="436.273" r="5.889"/>
		<circle fill="#EF4438" cx="663.864" cy="436.273" r="5.889"/>
		<circle fill="#EF4438" cx="643.744" cy="436.273" r="5.889"/>
		<circle fill="#EF4438" cx="562.771" cy="436.273" r="5.889"/>
		<circle fill="#EF4438" cx="421.436" cy="436.273" r="5.889"/>
		<circle fill="#EF4438" cx="360.583" cy="436.273" r="5.889"/>
		<circle fill="#EF4438" cx="299.731" cy="436.273" r="5.889"/>
		<circle fill="#EF4438" cx="218.758" cy="436.273" r="5.889"/>
		<circle fill="#EF4438" cx="158.396" cy="436.273" r="5.889"/>
		<circle fill="#EF4438" cx="137.785" cy="436.273" r="5.889"/>
		<circle fill="#EF4438" cx="542.65" cy="456.394" r="5.889"/>
		<circle fill="#EF4438" cx="421.436" cy="456.394" r="5.889"/>
		<circle fill="#EF4438" cx="340.463" cy="456.394" r="5.889"/>
		<circle fill="#EF4438" cx="259.49" cy="456.394" r="5.889"/>
		<circle fill="#EF4438" cx="198.637" cy="456.394" r="5.889"/>
		<circle fill="#EF4438" cx="704.596" cy="477.005" r="5.889"/>
		<circle fill="#EF4438" cx="663.864" cy="477.005" r="5.889"/>
		<circle fill="#EF4438" cx="542.65" cy="477.005" r="5.889"/>
		<circle fill="#EF4438" cx="461.677" cy="477.005" r="5.889"/>
		<circle fill="#EF4438" cx="380.704" cy="477.005" r="5.889"/>
		<circle fill="#EF4438" cx="360.583" cy="477.005" r="5.889"/>
		<circle fill="#EF4438" cx="97.543" cy="477.005" r="5.889"/>
		<circle fill="#EF4438" cx="744.837" cy="497.126" r="5.889"/>
		<circle fill="#EF4438" cx="603.503" cy="497.126" r="5.889"/>
		<circle fill="#EF4438" cx="441.556" cy="497.126" r="5.889"/>
		<circle fill="#EF4438" cx="380.704" cy="497.126" r="5.889"/>
		<circle fill="#EF4438" cx="178.516" cy="497.126" r="5.889"/>
		<circle fill="#EF4438" cx="158.396" cy="497.126" r="5.889"/>
		<circle fill="#EF4438" cx="137.785" cy="497.126" r="5.889"/>
		<circle fill="#EF4438" cx="744.837" cy="517.246" r="5.889"/>
		<circle fill="#EF4438" cx="603.503" cy="517.246" r="5.889"/>
		<circle fill="#EF4438" cx="562.771" cy="517.246" r="5.889"/>
		<circle fill="#EF4438" cx="502.409" cy="517.246" r="5.889"/>
		<circle fill="#EF4438" cx="461.677" cy="517.246" r="5.889"/>
		<circle fill="#EF4438" cx="340.463" cy="517.246" r="5.889"/>
		<circle fill="#EF4438" cx="319.851" cy="517.246" r="5.889"/>
		<circle fill="#EF4438" cx="158.396" cy="517.246" r="5.889"/>
		<circle fill="#EF4438" cx="137.785" cy="517.246" r="5.889"/>
		<circle fill="#EF4438" cx="542.65" cy="537.367" r="5.889"/>
		<circle fill="#EF4438" cx="400.824" cy="537.367" r="5.889"/>
		<circle fill="#EF4438" cx="562.771" cy="557.488" r="5.889"/>
		<circle fill="#EF4438" cx="502.409" cy="557.488" r="5.889"/>
		<circle fill="#EF4438" cx="421.436" cy="557.488" r="5.889"/>
		<circle fill="#EF4438" cx="360.583" cy="557.488" r="5.889"/>
		<circle fill="#EF4438" cx="340.463" cy="557.488" r="5.889"/>
		<circle fill="#EF4438" cx="299.731" cy="557.488" r="5.889"/>
		<circle fill="#EF4438" cx="279.61" cy="557.488" r="5.889"/>
		<circle fill="#EF4438" cx="97.543" cy="557.488" r="5.889"/>
		<circle fill="#EF4438" cx="582.891" cy="578.099" r="5.889"/>
		<circle fill="#EF4438" cx="502.409" cy="578.099" r="5.889"/>
		<circle fill="#EF4438" cx="319.851" cy="578.099" r="5.889"/>
		<circle fill="#EF4438" cx="158.396" cy="578.099" r="5.889"/>
		<circle fill="#EF4438" cx="542.65" cy="598.219" r="5.889"/>
		<circle fill="#EF4438" cx="522.529" cy="598.219" r="5.889"/>
		<circle fill="#EF4438" cx="137.785" cy="598.219" r="5.889"/>
		<circle fill="#EF4438" cx="502.409" cy="618.34" r="5.889"/>
		<circle fill="#EF4438" cx="380.704" cy="618.34" r="5.889"/>
		<circle fill="#EF4438" cx="340.463" cy="618.34" r="5.889"/>
		<circle fill="#EF4438" cx="299.731" cy="618.34" r="5.889"/>
		<circle fill="#EF4438" cx="582.891" cy="638.461" r="5.889"/>
		<circle fill="#EF4438" cx="542.65" cy="638.461" r="5.889"/>
		<circle fill="#EF4438" cx="522.529" cy="638.461" r="5.889"/>
		<circle fill="#EF4438" cx="360.583" cy="638.461" r="5.889"/>
		<circle fill="#EF4438" cx="319.851" cy="638.461" r="5.889"/>
		<circle fill="#EF4438" cx="198.637" cy="638.461" r="5.889"/>
		<circle fill="#EF4438" cx="582.891" cy="659.072" r="5.889"/>
		<circle fill="#EF4438" cx="441.556" cy="659.072" r="5.889"/>
		<circle fill="#EF4438" cx="340.463" cy="659.072" r="5.889"/>
		<circle fill="#EF4438" cx="218.758" cy="659.072" r="5.889"/>
		<circle fill="#EF4438" cx="158.396" cy="659.072" r="5.889"/>
		<circle fill="#EF4438" cx="117.664" cy="659.072" r="5.889"/>
		<circle fill="#EF4438" cx="502.409" cy="679.193" r="5.889"/>
		<circle fill="#EF4438" cx="319.851" cy="679.193" r="5.889"/>
		<circle fill="#EF4438" cx="299.731" cy="679.193" r="5.889"/>
		<circle fill="#EF4438" cx="158.396" cy="679.193" r="5.889"/>
		<circle fill="#EF4438" cx="137.785" cy="679.193" r="5.889"/>
		<circle fill="#EF4438" cx="522.529" cy="699.313" r="5.889"/>
		<circle fill="#EF4438" cx="441.556" cy="699.313" r="5.889"/>
		<circle fill="#EF4438" cx="198.637" cy="699.313" r="5.889"/>
		<circle fill="#EF4438" cx="117.664" cy="699.313" r="5.889"/>
	</g>
</g>
</svg>
