<?xml version="1.0" encoding="utf-8"?>
<!-- Generator: Adobe Illustrator 22.1.0, SVG Export Plug-In . SVG Version: 6.00 Build 0)  -->
<svg version="1.1" id="all" xmlns="http://www.w3.org/2000/svg" xmlns:xlink="http://www.w3.org/1999/xlink" x="0px" y="0px"
	 viewBox="0 0 153 242.6" style="enable-background:new 0 0 153 242.6;" xml:space="preserve">
<style type="text/css">
	.st0{fill:none;}
	.st1{fill:#010101;}
	.st2{fill:#EF4438;}
</style>
<g>
	<circle cx="105.4" cy="117.8" r="1.2"/>
	<circle cx="105.4" cy="134.3" r="1.2"/>
	<circle cx="105.4" cy="109.5" r="1.2"/>
	<path d="M109.5,38.2c-0.7,0-1.2,0.6-1.2,1.2c0,0.7,0.6,1.2,1.2,1.2c0.7,0,1.2-0.6,1.2-1.2C110.8,38.7,110.2,38.2,109.5,38.2z"/>
	<circle cx="105.4" cy="138.4" r="1.2"/>
	<circle cx="105.4" cy="142.5" r="1.2"/>
	<circle cx="105.4" cy="97.2" r="1.2"/>
	<path d="M109.5,34.1c-0.7,0-1.2,0.6-1.2,1.2c0,0.7,0.6,1.2,1.2,1.2c0.7,0,1.2-0.6,1.2-1.2C110.8,34.6,110.2,34.1,109.5,34.1z"/>
	<path d="M109.5,21.7c-0.7,0-1.2,0.6-1.2,1.2c0,0.7,0.6,1.2,1.2,1.2c0.7,0,1.2-0.6,1.2-1.2C110.8,22.3,110.2,21.7,109.5,21.7z"/>
	<circle cx="105.4" cy="10.6" r="1.2"/>
	<path d="M105.4,104.2c-0.7,0-1.2,0.6-1.2,1.2c0,0.7,0.6,1.2,1.2,1.2c0.7,0,1.2-0.6,1.2-1.2C106.6,104.7,106.1,104.2,105.4,104.2z"
		/>
	<circle cx="105.4" cy="55.9" r="1.2"/>
	<circle cx="105.4" cy="47.7" r="1.2"/>
	<circle cx="105.4" cy="27.1" r="1.2"/>
	<circle cx="105.4" cy="18.8" r="1.2"/>
	<circle cx="105.4" cy="60" r="1.2"/>
	<circle cx="93" cy="31.2" r="1.2"/>
	<circle cx="105.4" cy="76.5" r="1.2"/>
	<path d="M105.4,62.9c-0.7,0-1.2,0.6-1.2,1.2c0,0.7,0.6,1.2,1.2,1.2c0.7,0,1.2-0.6,1.2-1.2C106.6,63.5,106.1,62.9,105.4,62.9z"/>
	<circle cx="105.4" cy="80.7" r="1.2"/>
	<circle cx="105.4" cy="72.4" r="1.2"/>
	<path d="M109.5,20c0.7,0,1.2-0.6,1.2-1.2c0-0.7-0.6-1.2-1.2-1.2c-0.7,0-1.2,0.6-1.2,1.2C108.3,19.5,108.8,20,109.5,20z"/>
	<path d="M109.5,141.3c-0.7,0-1.2,0.6-1.2,1.2c0,0.7,0.6,1.2,1.2,1.2c0.7,0,1.2-0.6,1.2-1.2C110.8,141.8,110.2,141.3,109.5,141.3z"
		/>
	<circle cx="101.3" cy="138.4" r="1.2"/>
	<path d="M109.5,133c-0.7,0-1.2,0.6-1.2,1.2c0,0.7,0.6,1.2,1.2,1.2c0.7,0,1.2-0.6,1.2-1.2C110.8,133.6,110.2,133,109.5,133z"/>
	<path d="M109.5,128.9c-0.7,0-1.2,0.6-1.2,1.2c0,0.7,0.6,1.2,1.2,1.2c0.7,0,1.2-0.6,1.2-1.2C110.8,129.5,110.2,128.9,109.5,128.9z"
		/>
	<circle cx="113.6" cy="55.9" r="1.2"/>
	<circle cx="113.6" cy="72.4" r="1.2"/>
	<circle cx="113.6" cy="80.7" r="1.2"/>
	<circle cx="113.6" cy="76.5" r="1.2"/>
	<path d="M109.5,124.8c-0.7,0-1.2,0.6-1.2,1.2c0,0.7,0.6,1.2,1.2,1.2c0.7,0,1.2-0.6,1.2-1.2C110.8,125.3,110.2,124.8,109.5,124.8z"
		/>
	<path d="M113.6,83.5c-0.7,0-1.2,0.6-1.2,1.2c0,0.7,0.6,1.2,1.2,1.2c0.7,0,1.2-0.6,1.2-1.2C114.9,84.1,114.3,83.5,113.6,83.5z"/>
	<path d="M109.5,100c-0.7,0-1.2,0.6-1.2,1.2c0,0.7,0.6,1.2,1.2,1.2c0.7,0,1.2-0.6,1.2-1.2C110.8,100.6,110.2,100,109.5,100z"/>
	<path d="M109.5,75.3c-0.7,0-1.2,0.6-1.2,1.2s0.6,1.2,1.2,1.2c0.7,0,1.2-0.6,1.2-1.2S110.2,75.3,109.5,75.3z"/>
	<path d="M109.5,91.8c-0.7,0-1.2,0.6-1.2,1.2c0,0.7,0.6,1.2,1.2,1.2c0.7,0,1.2-0.6,1.2-1.2C110.8,92.3,110.2,91.8,109.5,91.8z"/>
	<path d="M109.5,120.7c-0.7,0-1.2,0.6-1.2,1.2c0,0.7,0.6,1.2,1.2,1.2c0.7,0,1.2-0.6,1.2-1.2C110.8,121.2,110.2,120.7,109.5,120.7z"
		/>
	<path d="M109.5,58.8c-0.7,0-1.2,0.6-1.2,1.2c0,0.7,0.6,1.2,1.2,1.2c0.7,0,1.2-0.6,1.2-1.2C110.8,59.4,110.2,58.8,109.5,58.8z"/>
	<path d="M109.5,62.9c-0.7,0-1.2,0.6-1.2,1.2c0,0.7,0.6,1.2,1.2,1.2c0.7,0,1.2-0.6,1.2-1.2C110.8,63.5,110.2,62.9,109.5,62.9z"/>
	<path d="M109.5,87.7c-0.7,0-1.2,0.6-1.2,1.2c0,0.7,0.6,1.2,1.2,1.2c0.7,0,1.2-0.6,1.2-1.2C110.8,88.2,110.2,87.7,109.5,87.7z"/>
	<path d="M109.5,112.4c-0.7,0-1.2,0.6-1.2,1.2c0,0.7,0.6,1.2,1.2,1.2c0.7,0,1.2-0.6,1.2-1.2C110.8,113,110.2,112.4,109.5,112.4z"/>
	<path d="M109.5,42.3c-0.7,0-1.2,0.6-1.2,1.2c0,0.7,0.6,1.2,1.2,1.2c0.7,0,1.2-0.6,1.2-1.2C110.8,42.9,110.2,42.3,109.5,42.3z"/>
	<path d="M109.5,116.5c-0.7,0-1.2,0.6-1.2,1.2s0.6,1.2,1.2,1.2c0.7,0,1.2-0.6,1.2-1.2S110.2,116.5,109.5,116.5z"/>
	<path d="M109.5,108.3c-0.7,0-1.2,0.6-1.2,1.2c0,0.7,0.6,1.2,1.2,1.2c0.7,0,1.2-0.6,1.2-1.2C110.8,108.8,110.2,108.3,109.5,108.3z"
		/>
	<circle cx="113.6" cy="60" r="1.2"/>
	<circle cx="97.2" cy="113.6" r="1.2"/>
	<circle cx="97.2" cy="72.4" r="1.2"/>
	<circle cx="97.2" cy="47.7" r="1.2"/>
	<circle cx="97.2" cy="51.8" r="1.2"/>
	<circle cx="97.2" cy="80.7" r="1.2"/>
	<circle cx="97.2" cy="39.4" r="1.2"/>
	<path d="M97.2,104.2c-0.7,0-1.2,0.6-1.2,1.2c0,0.7,0.6,1.2,1.2,1.2c0.7,0,1.2-0.6,1.2-1.2C98.4,104.7,97.8,104.2,97.2,104.2z"/>
	<path d="M97.2,83.5c-0.7,0-1.2,0.6-1.2,1.2c0,0.7,0.6,1.2,1.2,1.2c0.7,0,1.2-0.6,1.2-1.2C98.4,84.1,97.8,83.5,97.2,83.5z"/>
	<circle cx="97.2" cy="97.2" r="1.2"/>
	<circle cx="101.3" cy="18.8" r="1.2"/>
	<circle cx="97.2" cy="55.9" r="1.2"/>
	<circle cx="93" cy="55.9" r="1.2"/>
	<circle cx="93" cy="76.5" r="1.2"/>
	<circle cx="93" cy="68.3" r="1.2"/>
	<circle cx="93" cy="39.4" r="1.2"/>
	<circle cx="93" cy="35.3" r="1.2"/>
	<circle cx="93" cy="93" r="1.2"/>
	<circle cx="93" cy="121.9" r="1.2"/>
	<path d="M97.2,124.8c-0.7,0-1.2,0.6-1.2,1.2c0,0.7,0.6,1.2,1.2,1.2c0.7,0,1.2-0.6,1.2-1.2C98.4,125.3,97.8,124.8,97.2,124.8z"/>
	<circle cx="93" cy="97.2" r="1.2"/>
	<circle cx="97.2" cy="18.8" r="1.2"/>
	<circle cx="97.2" cy="88.9" r="1.2"/>
	<circle cx="97.2" cy="117.8" r="1.2"/>
	<path d="M101.3,83.5c-0.7,0-1.2,0.6-1.2,1.2c0,0.7,0.6,1.2,1.2,1.2s1.2-0.6,1.2-1.2C102.5,84.1,102,83.5,101.3,83.5z"/>
	<circle cx="101.3" cy="68.3" r="1.2"/>
	<circle cx="101.3" cy="93" r="1.2"/>
	<circle cx="101.3" cy="60" r="1.2"/>
	<circle cx="101.3" cy="76.5" r="1.2"/>
	<circle cx="101.3" cy="97.2" r="1.2"/>
	<path d="M101.3,124.8c-0.7,0-1.2,0.6-1.2,1.2c0,0.7,0.6,1.2,1.2,1.2s1.2-0.6,1.2-1.2C102.5,125.3,102,124.8,101.3,124.8z"/>
	<circle cx="101.3" cy="134.3" r="1.2"/>
	<circle cx="101.3" cy="121.9" r="1.2"/>
	<circle cx="101.3" cy="80.7" r="1.2"/>
	<circle cx="101.3" cy="31.2" r="1.2"/>
	<circle cx="101.3" cy="22.9" r="1.2"/>
	<circle cx="97.2" cy="10.6" r="1.2"/>
	<circle cx="101.3" cy="55.9" r="1.2"/>
	<circle cx="101.3" cy="35.3" r="1.2"/>
	<circle cx="101.3" cy="39.4" r="1.2"/>
	<circle cx="101.3" cy="51.8" r="1.2"/>
	<circle cx="101.3" cy="47.7" r="1.2"/>
	<circle cx="101.3" cy="43.6" r="1.2"/>
	<circle cx="105.4" cy="93" r="1.2"/>
	<circle cx="134.3" cy="113.6" r="1.2"/>
	<path d="M134.3,104.2c-0.7,0-1.2,0.6-1.2,1.2c0,0.7,0.6,1.2,1.2,1.2c0.7,0,1.2-0.6,1.2-1.2C135.5,104.7,134.9,104.2,134.3,104.2z"
		/>
	<circle cx="134.3" cy="88.9" r="1.2"/>
	<circle cx="134.3" cy="72.4" r="1.2"/>
	<circle cx="134.3" cy="55.9" r="1.2"/>
	<path d="M130.1,137.1c-0.7,0-1.2,0.6-1.2,1.2c0,0.7,0.6,1.2,1.2,1.2c0.7,0,1.2-0.6,1.2-1.2C131.4,137.7,130.8,137.1,130.1,137.1z"
		/>
	<circle cx="134.3" cy="134.3" r="1.2"/>
	<circle cx="134.3" cy="47.7" r="1.2"/>
	<circle cx="134.3" cy="121.9" r="1.2"/>
	<circle cx="134.3" cy="117.8" r="1.2"/>
	<path d="M130.1,112.4c-0.7,0-1.2,0.6-1.2,1.2c0,0.7,0.6,1.2,1.2,1.2c0.7,0,1.2-0.6,1.2-1.2C131.4,113,130.8,112.4,130.1,112.4z"/>
	<path d="M130.1,44.8c0.7,0,1.2-0.6,1.2-1.2c0-0.7-0.6-1.2-1.2-1.2c-0.7,0-1.2,0.6-1.2,1.2C128.9,44.2,129.5,44.8,130.1,44.8z"/>
	<path d="M130.1,95.9c-0.7,0-1.2,0.6-1.2,1.2s0.6,1.2,1.2,1.2c0.7,0,1.2-0.6,1.2-1.2S130.8,95.9,130.1,95.9z"/>
	<path d="M130.1,83.5c-0.7,0-1.2,0.6-1.2,1.2c0,0.7,0.6,1.2,1.2,1.2c0.7,0,1.2-0.6,1.2-1.2C131.4,84.1,130.8,83.5,130.1,83.5z"/>
	<path d="M130.1,104.2c-0.7,0-1.2,0.6-1.2,1.2c0,0.7,0.6,1.2,1.2,1.2c0.7,0,1.2-0.6,1.2-1.2C131.4,104.7,130.8,104.2,130.1,104.2z"
		/>
	<path d="M130.1,79.4c-0.7,0-1.2,0.6-1.2,1.2c0,0.7,0.6,1.2,1.2,1.2c0.7,0,1.2-0.6,1.2-1.2C131.4,80,130.8,79.4,130.1,79.4z"/>
	<path d="M130.1,100c-0.7,0-1.2,0.6-1.2,1.2c0,0.7,0.6,1.2,1.2,1.2c0.7,0,1.2-0.6,1.2-1.2C131.4,100.6,130.8,100,130.1,100z"/>
	<path d="M130.1,120.7c-0.7,0-1.2,0.6-1.2,1.2c0,0.7,0.6,1.2,1.2,1.2c0.7,0,1.2-0.6,1.2-1.2C131.4,121.2,130.8,120.7,130.1,120.7z"
		/>
	<path d="M130.1,133c-0.7,0-1.2,0.6-1.2,1.2c0,0.7,0.6,1.2,1.2,1.2c0.7,0,1.2-0.6,1.2-1.2C131.4,133.6,130.8,133,130.1,133z"/>
	<path d="M130.1,108.3c-0.7,0-1.2,0.6-1.2,1.2c0,0.7,0.6,1.2,1.2,1.2c0.7,0,1.2-0.6,1.2-1.2C131.4,108.8,130.8,108.3,130.1,108.3z"
		/>
	<circle cx="134.3" cy="138.4" r="1.2"/>
	<circle cx="138.4" cy="51.8" r="1.2"/>
	<circle cx="138.4" cy="121.9" r="1.2"/>
	<circle cx="142.5" cy="80.7" r="1.2"/>
	<circle cx="138.4" cy="142.5" r="1.2"/>
	<circle cx="138.4" cy="43.6" r="1.2"/>
	<circle cx="142.5" cy="97.2" r="1.2"/>
	<path d="M142.5,62.9c-0.7,0-1.2,0.6-1.2,1.2c0,0.7,0.6,1.2,1.2,1.2c0.7,0,1.2-0.6,1.2-1.2C143.7,63.5,143.2,62.9,142.5,62.9z"/>
	<circle cx="142.5" cy="130.1" r="1.2"/>
	<circle cx="142.5" cy="47.7" r="1.2"/>
	<circle cx="142.5" cy="109.5" r="1.2"/>
	<circle cx="142.5" cy="113.6" r="1.2"/>
	<path d="M138.4,83.5c-0.7,0-1.2,0.6-1.2,1.2c0,0.7,0.6,1.2,1.2,1.2c0.7,0,1.2-0.6,1.2-1.2C139.6,84.1,139.1,83.5,138.4,83.5z"/>
	<circle cx="138.4" cy="76.5" r="1.2"/>
	<circle cx="138.4" cy="80.7" r="1.2"/>
	<circle cx="138.4" cy="68.3" r="1.2"/>
	<path d="M138.4,62.9c-0.7,0-1.2,0.6-1.2,1.2c0,0.7,0.6,1.2,1.2,1.2c0.7,0,1.2-0.6,1.2-1.2C139.6,63.5,139.1,62.9,138.4,62.9z"/>
	<circle cx="138.4" cy="117.8" r="1.2"/>
	<path d="M130.1,58.8c-0.7,0-1.2,0.6-1.2,1.2c0,0.7,0.6,1.2,1.2,1.2c0.7,0,1.2-0.6,1.2-1.2C131.4,59.4,130.8,58.8,130.1,58.8z"/>
	<circle cx="138.4" cy="47.7" r="1.2"/>
	<circle cx="138.4" cy="97.2" r="1.2"/>
	<circle cx="138.4" cy="101.3" r="1.2"/>
	<circle cx="138.4" cy="93" r="1.2"/>
	<circle cx="113.6" cy="93" r="1.2"/>
	<circle cx="117.8" cy="134.3" r="1.2"/>
	<circle cx="117.8" cy="47.7" r="1.2"/>
	<path d="M117.8,124.8c-0.7,0-1.2,0.6-1.2,1.2c0,0.7,0.6,1.2,1.2,1.2c0.7,0,1.2-0.6,1.2-1.2C119,125.3,118.4,124.8,117.8,124.8z"/>
	<circle cx="117.8" cy="117.8" r="1.2"/>
	<circle cx="117.8" cy="109.5" r="1.2"/>
	<circle cx="121.9" cy="51.8" r="1.2"/>
	<path d="M121.9,62.9c-0.7,0-1.2,0.6-1.2,1.2c0,0.7,0.6,1.2,1.2,1.2s1.2-0.6,1.2-1.2C123.1,63.5,122.6,62.9,121.9,62.9z"/>
	<path d="M117.8,104.2c-0.7,0-1.2,0.6-1.2,1.2c0,0.7,0.6,1.2,1.2,1.2c0.7,0,1.2-0.6,1.2-1.2C119,104.7,118.4,104.2,117.8,104.2z"/>
	<circle cx="121.9" cy="93" r="1.2"/>
	<circle cx="121.9" cy="60" r="1.2"/>
	<circle cx="121.9" cy="68.3" r="1.2"/>
	<path d="M113.6,124.8c-0.7,0-1.2,0.6-1.2,1.2c0,0.7,0.6,1.2,1.2,1.2c0.7,0,1.2-0.6,1.2-1.2C114.9,125.3,114.3,124.8,113.6,124.8z"
		/>
	<circle cx="113.6" cy="130.1" r="1.2"/>
	<circle cx="113.6" cy="109.5" r="1.2"/>
	<path d="M113.6,104.2c-0.7,0-1.2,0.6-1.2,1.2c0,0.7,0.6,1.2,1.2,1.2c0.7,0,1.2-0.6,1.2-1.2C114.9,104.7,114.3,104.2,113.6,104.2z"
		/>
	<circle cx="117.8" cy="97.2" r="1.2"/>
	<circle cx="113.6" cy="43.6" r="1.2"/>
	<path d="M117.8,62.9c-0.7,0-1.2,0.6-1.2,1.2c0,0.7,0.6,1.2,1.2,1.2c0.7,0,1.2-0.6,1.2-1.2C119,63.5,118.4,62.9,117.8,62.9z"/>
	<circle cx="117.8" cy="80.7" r="1.2"/>
	<path d="M130.1,50.6c-0.7,0-1.2,0.6-1.2,1.2c0,0.7,0.6,1.2,1.2,1.2c0.7,0,1.2-0.6,1.2-1.2C131.4,51.1,130.8,50.6,130.1,50.6z"/>
	<circle cx="113.6" cy="142.5" r="1.2"/>
	<circle cx="117.8" cy="55.9" r="1.2"/>
	<circle cx="126" cy="117.8" r="1.2"/>
	<circle cx="126" cy="113.6" r="1.2"/>
	<circle cx="126" cy="109.5" r="1.2"/>
	<path d="M126,104.2c-0.7,0-1.2,0.6-1.2,1.2c0,0.7,0.6,1.2,1.2,1.2c0.7,0,1.2-0.6,1.2-1.2C127.2,104.7,126.7,104.2,126,104.2z"/>
	<circle cx="126" cy="121.9" r="1.2"/>
	<circle cx="126" cy="130.1" r="1.2"/>
	<circle cx="126" cy="138.4" r="1.2"/>
	<path d="M126,124.8c-0.7,0-1.2,0.6-1.2,1.2c0,0.7,0.6,1.2,1.2,1.2c0.7,0,1.2-0.6,1.2-1.2C127.2,125.3,126.7,124.8,126,124.8z"/>
	<circle cx="126" cy="51.8" r="1.2"/>
	<circle cx="126" cy="101.3" r="1.2"/>
	<circle cx="121.9" cy="142.5" r="1.2"/>
	<path d="M121.9,124.8c-0.7,0-1.2,0.6-1.2,1.2c0,0.7,0.6,1.2,1.2,1.2s1.2-0.6,1.2-1.2C123.1,125.3,122.6,124.8,121.9,124.8z"/>
	<circle cx="121.9" cy="130.1" r="1.2"/>
	<circle cx="121.9" cy="109.5" r="1.2"/>
	<circle cx="121.9" cy="43.6" r="1.2"/>
	<circle cx="126" cy="60" r="1.2"/>
	<circle cx="126" cy="93" r="1.2"/>
	<circle cx="126" cy="76.5" r="1.2"/>
	<path d="M121.9,104.2c-0.7,0-1.2,0.6-1.2,1.2c0,0.7,0.6,1.2,1.2,1.2s1.2-0.6,1.2-1.2C123.1,104.7,122.6,104.2,121.9,104.2z"/>
	<circle cx="126" cy="55.9" r="1.2"/>
	<path d="M101.3,104.2c-0.7,0-1.2,0.6-1.2,1.2c0,0.7,0.6,1.2,1.2,1.2s1.2-0.6,1.2-1.2C102.5,104.7,102,104.2,101.3,104.2z"/>
	<circle cx="43.6" cy="14.7" r="1.2"/>
	<circle cx="43.6" cy="138.4" r="1.2"/>
	<circle cx="43.6" cy="134.3" r="1.2"/>
	<path d="M43.6,124.8c-0.7,0-1.2,0.6-1.2,1.2c0,0.7,0.6,1.2,1.2,1.2c0.7,0,1.2-0.6,1.2-1.2C44.8,125.3,44.2,124.8,43.6,124.8z"/>
	<circle cx="43.6" cy="130.1" r="1.2"/>
	<circle cx="43.6" cy="142.5" r="1.2"/>
	<path d="M47.7,42.3c-0.7,0-1.2,0.6-1.2,1.2c0,0.7,0.6,1.2,1.2,1.2c0.7,0,1.2-0.6,1.2-1.2C48.9,42.9,48.4,42.3,47.7,42.3z"/>
	<path d="M47.7,21.7c-0.7,0-1.2,0.6-1.2,1.2c0,0.7,0.6,1.2,1.2,1.2c0.7,0,1.2-0.6,1.2-1.2C48.9,22.3,48.4,21.7,47.7,21.7z"/>
	<path d="M47.7,17.6c-0.7,0-1.2,0.6-1.2,1.2c0,0.7,0.6,1.2,1.2,1.2c0.7,0,1.2-0.6,1.2-1.2C48.9,18.1,48.4,17.6,47.7,17.6z"/>
	<path d="M47.7,13.5c-0.7,0-1.2,0.6-1.2,1.2c0,0.7,0.6,1.2,1.2,1.2c0.7,0,1.2-0.6,1.2-1.2C48.9,14,48.4,13.5,47.7,13.5z"/>
	<path d="M47.7,46.4c-0.7,0-1.2,0.6-1.2,1.2c0,0.7,0.6,1.2,1.2,1.2c0.7,0,1.2-0.6,1.2-1.2C48.9,47,48.4,46.4,47.7,46.4z"/>
	<circle cx="43.6" cy="117.8" r="1.2"/>
	<circle cx="43.6" cy="31.2" r="1.2"/>
	<circle cx="43.6" cy="22.9" r="1.2"/>
	<circle cx="39.4" cy="109.5" r="1.2"/>
	<circle cx="39.4" cy="43.6" r="1.2"/>
	<circle cx="43.6" cy="35.3" r="1.2"/>
	<circle cx="43.6" cy="43.6" r="1.2"/>
	<circle cx="43.6" cy="113.6" r="1.2"/>
	<path d="M43.6,104.2c-0.7,0-1.2,0.6-1.2,1.2c0,0.7,0.6,1.2,1.2,1.2c0.7,0,1.2-0.6,1.2-1.2C44.8,104.7,44.2,104.2,43.6,104.2z"/>
	<circle cx="43.6" cy="88.9" r="1.2"/>
	<path d="M47.7,100c-0.7,0-1.2,0.6-1.2,1.2c0,0.7,0.6,1.2,1.2,1.2c0.7,0,1.2-0.6,1.2-1.2C48.9,100.6,48.4,100,47.7,100z"/>
	<circle cx="51.8" cy="97.2" r="1.2"/>
	<circle cx="51.8" cy="35.3" r="1.2"/>
	<path d="M51.8,62.9c-0.7,0-1.2,0.6-1.2,1.2c0,0.7,0.6,1.2,1.2,1.2c0.7,0,1.2-0.6,1.2-1.2C53,63.5,52.5,62.9,51.8,62.9z"/>
	<circle cx="51.8" cy="43.6" r="1.2"/>
	<circle cx="51.8" cy="55.9" r="1.2"/>
	<path d="M47.7,50.6c-0.7,0-1.2,0.6-1.2,1.2c0,0.7,0.6,1.2,1.2,1.2c0.7,0,1.2-0.6,1.2-1.2C48.9,51.1,48.4,50.6,47.7,50.6z"/>
	<circle cx="55.9" cy="22.9" r="1.2"/>
	<circle cx="55.9" cy="18.8" r="1.2"/>
	<circle cx="51.8" cy="18.8" r="1.2"/>
	<circle cx="51.8" cy="109.5" r="1.2"/>
	<circle cx="51.8" cy="93" r="1.2"/>
	<path d="M47.7,87.7c-0.7,0-1.2,0.6-1.2,1.2c0,0.7,0.6,1.2,1.2,1.2c0.7,0,1.2-0.6,1.2-1.2C48.9,88.2,48.4,87.7,47.7,87.7z"/>
	<circle cx="51.8" cy="31.2" r="1.2"/>
	<path d="M47.7,58.8c-0.7,0-1.2,0.6-1.2,1.2c0,0.7,0.6,1.2,1.2,1.2c0.7,0,1.2-0.6,1.2-1.2C48.9,59.4,48.4,58.8,47.7,58.8z"/>
	<circle cx="39.4" cy="101.3" r="1.2"/>
	<path d="M47.7,54.7c-0.7,0-1.2,0.6-1.2,1.2c0,0.7,0.6,1.2,1.2,1.2c0.7,0,1.2-0.6,1.2-1.2C48.9,55.2,48.4,54.7,47.7,54.7z"/>
	<path d="M47.7,95.9c-0.7,0-1.2,0.6-1.2,1.2s0.6,1.2,1.2,1.2c0.7,0,1.2-0.6,1.2-1.2S48.4,95.9,47.7,95.9z"/>
	<path d="M47.7,137.1c-0.7,0-1.2,0.6-1.2,1.2c0,0.7,0.6,1.2,1.2,1.2c0.7,0,1.2-0.6,1.2-1.2C48.9,137.7,48.4,137.1,47.7,137.1z"/>
	<path d="M47.7,108.3c-0.7,0-1.2,0.6-1.2,1.2c0,0.7,0.6,1.2,1.2,1.2c0.7,0,1.2-0.6,1.2-1.2C48.9,108.8,48.4,108.3,47.7,108.3z"/>
	<circle cx="51.8" cy="27.1" r="1.2"/>
	<path d="M47.7,11.8c0.7,0,1.2-0.6,1.2-1.2c0-0.7-0.6-1.2-1.2-1.2c-0.7,0-1.2,0.6-1.2,1.2C46.4,11.2,47,11.8,47.7,11.8z"/>
	<circle cx="35.3" cy="109.5" r="1.2"/>
	<circle cx="18.8" cy="93" r="1.2"/>
	<path d="M22.9,83.5c-0.7,0-1.2,0.6-1.2,1.2c0,0.7,0.6,1.2,1.2,1.2c0.7,0,1.2-0.6,1.2-1.2C24.2,84.1,23.6,83.5,22.9,83.5z"/>
	<circle cx="18.8" cy="43.6" r="1.2"/>
	<circle cx="18.8" cy="88.9" r="1.2"/>
	<path d="M18.8,83.5c-0.7,0-1.2,0.6-1.2,1.2c0,0.7,0.6,1.2,1.2,1.2c0.7,0,1.2-0.6,1.2-1.2C20,84.1,19.5,83.5,18.8,83.5z"/>
	<circle cx="93" cy="134.3" r="1.2"/>
	<circle cx="22.9" cy="76.5" r="1.2"/>
	<circle cx="22.9" cy="72.4" r="1.2"/>
	<circle cx="22.9" cy="55.9" r="1.2"/>
	<path d="M22.9,62.9c-0.7,0-1.2,0.6-1.2,1.2c0,0.7,0.6,1.2,1.2,1.2c0.7,0,1.2-0.6,1.2-1.2C24.2,63.5,23.6,62.9,22.9,62.9z"/>
	<circle cx="18.8" cy="76.5" r="1.2"/>
	<circle cx="10.6" cy="101.3" r="1.2"/>
	<circle cx="10.6" cy="43.6" r="1.2"/>
	<path d="M10.6,104.2c-0.7,0-1.2,0.6-1.2,1.2c0,0.7,0.6,1.2,1.2,1.2c0.7,0,1.2-0.6,1.2-1.2C11.8,104.7,11.2,104.2,10.6,104.2z"/>
	<circle cx="10.6" cy="97.2" r="1.2"/>
	<circle cx="10.6" cy="68.3" r="1.2"/>
	<circle cx="14.7" cy="43.6" r="1.2"/>
	<circle cx="18.8" cy="68.3" r="1.2"/>
	<path d="M18.8,62.9c-0.7,0-1.2,0.6-1.2,1.2c0,0.7,0.6,1.2,1.2,1.2c0.7,0,1.2-0.6,1.2-1.2C20,63.5,19.5,62.9,18.8,62.9z"/>
	<circle cx="14.7" cy="72.4" r="1.2"/>
	<circle cx="10.6" cy="109.5" r="1.2"/>
	<circle cx="35.3" cy="101.3" r="1.2"/>
	<path d="M35.3,83.5c-0.7,0-1.2,0.6-1.2,1.2c0,0.7,0.6,1.2,1.2,1.2s1.2-0.6,1.2-1.2C36.5,84.1,36,83.5,35.3,83.5z"/>
	<circle cx="35.3" cy="76.5" r="1.2"/>
	<circle cx="35.3" cy="68.3" r="1.2"/>
	<circle cx="35.3" cy="60" r="1.2"/>
	<circle cx="35.3" cy="51.8" r="1.2"/>
	<circle cx="35.3" cy="93" r="1.2"/>
	<circle cx="55.9" cy="47.7" r="1.2"/>
	<circle cx="35.3" cy="43.6" r="1.2"/>
	<circle cx="39.4" cy="60" r="1.2"/>
	<circle cx="31.2" cy="101.3" r="1.2"/>
	<circle cx="22.9" cy="43.6" r="1.2"/>
	<circle cx="27.1" cy="80.7" r="1.2"/>
	<circle cx="27.1" cy="88.9" r="1.2"/>
	<circle cx="27.1" cy="55.9" r="1.2"/>
	<circle cx="27.1" cy="93" r="1.2"/>
	<path d="M31.2,83.5c-0.7,0-1.2,0.6-1.2,1.2c0,0.7,0.6,1.2,1.2,1.2c0.7,0,1.2-0.6,1.2-1.2C32.4,84.1,31.9,83.5,31.2,83.5z"/>
	<path d="M27.1,104.2c-0.7,0-1.2,0.6-1.2,1.2c0,0.7,0.6,1.2,1.2,1.2c0.7,0,1.2-0.6,1.2-1.2C28.3,104.7,27.7,104.2,27.1,104.2z"/>
	<circle cx="31.2" cy="60" r="1.2"/>
	<circle cx="27.1" cy="43.6" r="1.2"/>
	<circle cx="27.1" cy="97.2" r="1.2"/>
	<circle cx="18.8" cy="109.5" r="1.2"/>
	<circle cx="76.5" cy="35.3" r="1.2"/>
	<circle cx="72.4" cy="97.2" r="1.2"/>
	<circle cx="76.5" cy="31.2" r="1.2"/>
	<circle cx="72.4" cy="10.6" r="1.2"/>
	<circle cx="76.5" cy="22.9" r="1.2"/>
	<circle cx="76.5" cy="14.7" r="1.2"/>
	<circle cx="76.5" cy="117.8" r="1.2"/>
	<circle cx="76.5" cy="76.5" r="1.2"/>
	<circle cx="76.5" cy="130.1" r="1.2"/>
	<circle cx="76.5" cy="88.9" r="1.2"/>
	<circle cx="76.5" cy="47.7" r="1.2"/>
	<circle cx="72.4" cy="22.9" r="1.2"/>
	<circle cx="72.4" cy="27.1" r="1.2"/>
	<circle cx="72.4" cy="18.8" r="1.2"/>
	<path d="M68.3,141.3c-0.7,0-1.2,0.6-1.2,1.2c0,0.7,0.6,1.2,1.2,1.2c0.7,0,1.2-0.6,1.2-1.2C69.5,141.8,69,141.3,68.3,141.3z"/>
	<circle cx="72.4" cy="93" r="1.2"/>
	<circle cx="72.4" cy="14.7" r="1.2"/>
	<circle cx="72.4" cy="31.2" r="1.2"/>
	<circle cx="72.4" cy="60" r="1.2"/>
	<circle cx="72.4" cy="80.7" r="1.2"/>
	<circle cx="72.4" cy="39.4" r="1.2"/>
	<path d="M88.9,112.4c-0.7,0-1.2,0.6-1.2,1.2c0,0.7,0.6,1.2,1.2,1.2c0.7,0,1.2-0.6,1.2-1.2C90.1,113,89.6,112.4,88.9,112.4z"/>
	<path d="M84.8,124.8c-0.7,0-1.2,0.6-1.2,1.2c0,0.7,0.6,1.2,1.2,1.2c0.7,0,1.2-0.6,1.2-1.2C86,125.3,85.5,124.8,84.8,124.8z"/>
	<path d="M88.9,54.7c-0.7,0-1.2,0.6-1.2,1.2c0,0.7,0.6,1.2,1.2,1.2c0.7,0,1.2-0.6,1.2-1.2C90.1,55.2,89.6,54.7,88.9,54.7z"/>
	<path d="M88.9,38.2c-0.7,0-1.2,0.6-1.2,1.2c0,0.7,0.6,1.2,1.2,1.2c0.7,0,1.2-0.6,1.2-1.2C90.1,38.7,89.6,38.2,88.9,38.2z"/>
	<circle cx="84.8" cy="138.4" r="1.2"/>
	<path d="M88.9,71.2c-0.7,0-1.2,0.6-1.2,1.2c0,0.7,0.6,1.2,1.2,1.2c0.7,0,1.2-0.6,1.2-1.2C90.1,71.7,89.6,71.2,88.9,71.2z"/>
	<path d="M88.9,58.8c-0.7,0-1.2,0.6-1.2,1.2c0,0.7,0.6,1.2,1.2,1.2c0.7,0,1.2-0.6,1.2-1.2C90.1,59.4,89.6,58.8,88.9,58.8z"/>
	<path d="M88.9,108.3c-0.7,0-1.2,0.6-1.2,1.2c0,0.7,0.6,1.2,1.2,1.2c0.7,0,1.2-0.6,1.2-1.2C90.1,108.8,89.6,108.3,88.9,108.3z"/>
	<path d="M88.9,141.3c-0.7,0-1.2,0.6-1.2,1.2c0,0.7,0.6,1.2,1.2,1.2c0.7,0,1.2-0.6,1.2-1.2C90.1,141.8,89.6,141.3,88.9,141.3z"/>
	<path d="M88.9,137.1c-0.7,0-1.2,0.6-1.2,1.2c0,0.7,0.6,1.2,1.2,1.2c0.7,0,1.2-0.6,1.2-1.2C90.1,137.7,89.6,137.1,88.9,137.1z"/>
	<path d="M68.3,124.8c-0.7,0-1.2,0.6-1.2,1.2c0,0.7,0.6,1.2,1.2,1.2c0.7,0,1.2-0.6,1.2-1.2C69.5,125.3,69,124.8,68.3,124.8z"/>
	<circle cx="84.8" cy="109.5" r="1.2"/>
	<circle cx="80.7" cy="109.5" r="1.2"/>
	<circle cx="84.8" cy="117.8" r="1.2"/>
	<circle cx="80.7" cy="138.4" r="1.2"/>
	<circle cx="80.7" cy="68.3" r="1.2"/>
	<circle cx="80.7" cy="27.1" r="1.2"/>
	<circle cx="80.7" cy="121.9" r="1.2"/>
	<path d="M84.8,62.9c-0.7,0-1.2,0.6-1.2,1.2c0,0.7,0.6,1.2,1.2,1.2c0.7,0,1.2-0.6,1.2-1.2C86,63.5,85.5,62.9,84.8,62.9z"/>
	<circle cx="84.8" cy="35.3" r="1.2"/>
	<circle cx="76.5" cy="138.4" r="1.2"/>
	<circle cx="84.8" cy="39.4" r="1.2"/>
	<circle cx="60" cy="14.7" r="1.2"/>
	<circle cx="60" cy="35.3" r="1.2"/>
	<circle cx="60" cy="80.7" r="1.2"/>
	<circle cx="60" cy="47.7" r="1.2"/>
	<circle cx="60" cy="60" r="1.2"/>
	<path d="M60,83.5c-0.7,0-1.2,0.6-1.2,1.2c0,0.7,0.6,1.2,1.2,1.2c0.7,0,1.2-0.6,1.2-1.2C61.3,84.1,60.7,83.5,60,83.5z"/>
	<path d="M60,62.9c-0.7,0-1.2,0.6-1.2,1.2c0,0.7,0.6,1.2,1.2,1.2c0.7,0,1.2-0.6,1.2-1.2C61.3,63.5,60.7,62.9,60,62.9z"/>
	<circle cx="60" cy="113.6" r="1.2"/>
	<circle cx="60" cy="117.8" r="1.2"/>
	<circle cx="60" cy="88.9" r="1.2"/>
	<circle cx="60" cy="101.3" r="1.2"/>
	<circle cx="60" cy="22.9" r="1.2"/>
	<circle cx="55.9" cy="113.6" r="1.2"/>
	<circle cx="60" cy="31.2" r="1.2"/>
	<circle cx="55.9" cy="101.3" r="1.2"/>
	<circle cx="55.9" cy="117.8" r="1.2"/>
	<circle cx="55.9" cy="97.2" r="1.2"/>
	<path d="M55.9,104.2c-0.7,0-1.2,0.6-1.2,1.2c0,0.7,0.6,1.2,1.2,1.2s1.2-0.6,1.2-1.2C57.2,104.7,56.6,104.2,55.9,104.2z"/>
	<circle cx="55.9" cy="14.7" r="1.2"/>
	<circle cx="60" cy="121.9" r="1.2"/>
	<circle cx="60" cy="27.1" r="1.2"/>
	<circle cx="60" cy="138.4" r="1.2"/>
	<circle cx="64.2" cy="117.8" r="1.2"/>
	<path d="M68.3,34.1c-0.7,0-1.2,0.6-1.2,1.2c0,0.7,0.6,1.2,1.2,1.2c0.7,0,1.2-0.6,1.2-1.2C69.5,34.6,69,34.1,68.3,34.1z"/>
	<path d="M68.3,42.3c-0.7,0-1.2,0.6-1.2,1.2c0,0.7,0.6,1.2,1.2,1.2c0.7,0,1.2-0.6,1.2-1.2C69.5,42.9,69,42.3,68.3,42.3z"/>
	<circle cx="64.2" cy="138.4" r="1.2"/>
	<path d="M68.3,29.9c-0.7,0-1.2,0.6-1.2,1.2c0,0.7,0.6,1.2,1.2,1.2c0.7,0,1.2-0.6,1.2-1.2C69.5,30.5,69,29.9,68.3,29.9z"/>
	<path d="M68.3,54.7c-0.7,0-1.2,0.6-1.2,1.2c0,0.7,0.6,1.2,1.2,1.2c0.7,0,1.2-0.6,1.2-1.2C69.5,55.2,69,54.7,68.3,54.7z"/>
	<path d="M68.3,83.5c-0.7,0-1.2,0.6-1.2,1.2c0,0.7,0.6,1.2,1.2,1.2c0.7,0,1.2-0.6,1.2-1.2C69.5,84.1,69,83.5,68.3,83.5z"/>
	<path d="M68.3,91.8c-0.7,0-1.2,0.6-1.2,1.2c0,0.7,0.6,1.2,1.2,1.2c0.7,0,1.2-0.6,1.2-1.2C69.5,92.3,69,91.8,68.3,91.8z"/>
	<circle cx="64.2" cy="134.3" r="1.2"/>
	<path d="M68.3,75.3c-0.7,0-1.2,0.6-1.2,1.2s0.6,1.2,1.2,1.2c0.7,0,1.2-0.6,1.2-1.2S69,75.3,68.3,75.3z"/>
	<path d="M68.3,67.1c-0.7,0-1.2,0.6-1.2,1.2c0,0.7,0.6,1.2,1.2,1.2c0.7,0,1.2-0.6,1.2-1.2C69.5,67.6,69,67.1,68.3,67.1z"/>
	<circle cx="64.2" cy="22.9" r="1.2"/>
	<path d="M60,124.8c-0.7,0-1.2,0.6-1.2,1.2c0,0.7,0.6,1.2,1.2,1.2c0.7,0,1.2-0.6,1.2-1.2C61.3,125.3,60.7,124.8,60,124.8z"/>
	<circle cx="64.2" cy="27.1" r="1.2"/>
	<path d="M68.3,120.7c-0.7,0-1.2,0.6-1.2,1.2c0,0.7,0.6,1.2,1.2,1.2c0.7,0,1.2-0.6,1.2-1.2C69.5,121.2,69,120.7,68.3,120.7z"/>
	<circle cx="64.2" cy="51.8" r="1.2"/>
	<path d="M55.9,83.5c-0.7,0-1.2,0.6-1.2,1.2c0,0.7,0.6,1.2,1.2,1.2s1.2-0.6,1.2-1.2C57.2,84.1,56.6,83.5,55.9,83.5z"/>
	<path d="M64.2,104.2c-0.7,0-1.2,0.6-1.2,1.2c0,0.7,0.6,1.2,1.2,1.2c0.7,0,1.2-0.6,1.2-1.2C65.4,104.7,64.8,104.2,64.2,104.2z"/>
	<circle cx="64.2" cy="76.5" r="1.2"/>
	<circle cx="64.2" cy="101.3" r="1.2"/>
	<circle cx="64.2" cy="93" r="1.2"/>
</g>
<circle class="st1" cx="22.9" cy="22.9" r="6.2"/>
<path class="st1" d="M30.1,10.4c-5.4-3.1-12-2.3-16.5,1.5c0,0,0,0,0,0c0,0,0,0,0,0c0,0,0,0,0,0l0,0c-0.9,0.8-1,2.1-0.2,3
	c0.8,0.9,2.1,1,3,0.2c0,0,0,0,0,0l0,0c3.2-2.7,7.8-3.3,11.6-1.1c3.8,2.2,5.6,6.5,4.9,10.6l0,0l0,0c-0.2,1.2,0.6,2.3,1.7,2.5
	c1.2,0.2,2.3-0.6,2.5-1.7c0,0,0-0.1,0-0.1C38.1,19.6,35.5,13.6,30.1,10.4z"/>
<path class="st1" d="M15.7,35.4c-5.4-3.1-8-9.3-7-15.1c0,0,0,0,0,0c0,0,0,0,0,0c0,0,0,0,0,0l0,0c0.2-1.2,1.3-1.9,2.5-1.7
	c1.2,0.2,1.9,1.3,1.7,2.5c0,0,0,0,0,0l0,0c-0.7,4.1,1.1,8.4,4.9,10.6c3.8,2.2,8.4,1.6,11.6-1.1l0,0l0,0c0.9-0.8,2.3-0.7,3,0.2
	c0.8,0.9,0.7,2.3-0.2,3c0,0-0.1,0-0.1,0.1C27.7,37.8,21.1,38.5,15.7,35.4z"/>
<rect class="st0" width="153" height="242.6"/>
<circle class="st1" cx="130.2" cy="22.8" r="6.2"/>
<path class="st1" d="M140.4,12.6c-4.4-4.4-11-5.4-16.4-2.8c0,0,0,0,0,0c0,0,0,0,0,0c0,0,0,0,0,0l0,0c-1.1,0.5-1.5,1.8-1,2.9
	c0.5,1.1,1.8,1.5,2.9,1c0,0,0,0,0,0l0,0c3.7-1.8,8.4-1.1,11.5,2c3.1,3.1,3.8,7.7,2,11.5l0,0l0,0c-0.5,1.1,0,2.4,1,2.9
	c1.1,0.5,2.4,0,2.9-1c0,0,0-0.1,0-0.1C145.8,23.6,144.8,17,140.4,12.6z"/>
<path class="st1" d="M120,33c-4.4-4.4-5.4-11-2.8-16.4c0,0,0,0,0,0c0,0,0,0,0,0c0,0,0,0,0,0l0,0c0.5-1.1,1.8-1.5,2.9-1
	c1.1,0.5,1.5,1.8,1,2.9c0,0,0,0,0,0l0,0c-1.8,3.7-1.1,8.4,2,11.5c3.1,3.1,7.7,3.8,11.5,2l0,0l0,0c1.1-0.5,2.4,0,2.9,1
	c0.5,1.1,0,2.4-1,2.9c0,0-0.1,0-0.1,0C130.9,38.4,124.4,37.4,120,33z"/>
<circle class="st1" cx="22.9" cy="130.1" r="6.2"/>
<path class="st1" d="M33.1,119.9c-4.4-4.4-11-5.4-16.4-2.8c0,0,0,0,0,0c0,0,0,0,0,0c0,0,0,0,0,0l0,0c-1.1,0.5-1.5,1.8-1,2.9
	c0.5,1.1,1.8,1.5,2.9,1c0,0,0,0,0,0l0,0c3.7-1.8,8.4-1.1,11.5,2c3.1,3.1,3.8,7.7,2,11.5l0,0l0,0c-0.5,1.1,0,2.4,1,2.9
	c1.1,0.5,2.4,0,2.9-1c0,0,0-0.1,0-0.1C38.5,130.9,37.5,124.3,33.1,119.9z"/>
<path class="st1" d="M12.7,140.3c-4.4-4.4-5.4-11-2.8-16.4c0,0,0,0,0,0c0,0,0,0,0,0c0,0,0,0,0,0l0,0c0.5-1.1,1.8-1.5,2.9-1
	c1.1,0.5,1.5,1.8,1,2.9c0,0,0,0,0,0l0,0c-1.8,3.7-1.1,8.4,2,11.5c3.1,3.1,7.7,3.8,11.5,2l0,0l0,0c1.1-0.5,2.4,0,2.9,1
	c0.5,1.1,0,2.4-1,2.9c0,0-0.1,0-0.1,0C23.7,145.7,17.1,144.7,12.7,140.3z"/>
</svg>
